G04 #@! TF.FileFunction,Legend,Top*
%FSLAX46Y46*%
G04 Gerber Fmt 4.6, Leading zero omitted, Abs format (unit mm)*
G04 Created by KiCad (PCBNEW (2015-01-16 BZR 5376)-product) date 3/7/2015 11:44:40 PM*
%MOMM*%
G01*
G04 APERTURE LIST*
%ADD10C,0.149860*%
%ADD11C,0.177800*%
%ADD12C,0.127000*%
%ADD13C,0.150000*%
G04 APERTURE END LIST*
D10*
D11*
X267066857Y-130522414D02*
X266812857Y-130159557D01*
X266631429Y-130522414D02*
X266631429Y-129760414D01*
X266921714Y-129760414D01*
X266994286Y-129796700D01*
X267030571Y-129832986D01*
X267066857Y-129905557D01*
X267066857Y-130014414D01*
X267030571Y-130086986D01*
X266994286Y-130123271D01*
X266921714Y-130159557D01*
X266631429Y-130159557D01*
X267611143Y-129760414D02*
X267611143Y-130304700D01*
X267574857Y-130413557D01*
X267502286Y-130486129D01*
X267393429Y-130522414D01*
X267320857Y-130522414D01*
X267974000Y-130232129D02*
X268554571Y-130232129D01*
X269244000Y-130014414D02*
X269244000Y-130522414D01*
X269062571Y-129724129D02*
X268881143Y-130268414D01*
X269352857Y-130268414D01*
X270006000Y-129760414D02*
X269643143Y-129760414D01*
X269606857Y-130123271D01*
X269643143Y-130086986D01*
X269715714Y-130050700D01*
X269897143Y-130050700D01*
X269969714Y-130086986D01*
X270006000Y-130123271D01*
X270042285Y-130195843D01*
X270042285Y-130377271D01*
X270006000Y-130449843D01*
X269969714Y-130486129D01*
X269897143Y-130522414D01*
X269715714Y-130522414D01*
X269643143Y-130486129D01*
X269606857Y-130449843D01*
X266522571Y-131005014D02*
X266958000Y-131005014D01*
X266740286Y-131767014D02*
X266740286Y-131005014D01*
X267320857Y-131767014D02*
X267248285Y-131730729D01*
X267212000Y-131694443D01*
X267175714Y-131621871D01*
X267175714Y-131404157D01*
X267212000Y-131331586D01*
X267248285Y-131295300D01*
X267320857Y-131259014D01*
X267429714Y-131259014D01*
X267502285Y-131295300D01*
X267538571Y-131331586D01*
X267574857Y-131404157D01*
X267574857Y-131621871D01*
X267538571Y-131694443D01*
X267502285Y-131730729D01*
X267429714Y-131767014D01*
X267320857Y-131767014D01*
X268482000Y-131767014D02*
X268482000Y-131005014D01*
X268736000Y-131549300D01*
X268990000Y-131005014D01*
X268990000Y-131767014D01*
X269679428Y-131767014D02*
X269679428Y-131367871D01*
X269643142Y-131295300D01*
X269570571Y-131259014D01*
X269425428Y-131259014D01*
X269352857Y-131295300D01*
X269679428Y-131730729D02*
X269606857Y-131767014D01*
X269425428Y-131767014D01*
X269352857Y-131730729D01*
X269316571Y-131658157D01*
X269316571Y-131585586D01*
X269352857Y-131513014D01*
X269425428Y-131476729D01*
X269606857Y-131476729D01*
X269679428Y-131440443D01*
X270042286Y-131767014D02*
X270042286Y-131259014D01*
X270042286Y-131005014D02*
X270006000Y-131041300D01*
X270042286Y-131077586D01*
X270078571Y-131041300D01*
X270042286Y-131005014D01*
X270042286Y-131077586D01*
X270405143Y-131259014D02*
X270405143Y-131767014D01*
X270405143Y-131331586D02*
X270441428Y-131295300D01*
X270514000Y-131259014D01*
X270622857Y-131259014D01*
X270695428Y-131295300D01*
X270731714Y-131367871D01*
X270731714Y-131767014D01*
X271929143Y-131367871D02*
X272038000Y-131404157D01*
X272074285Y-131440443D01*
X272110571Y-131513014D01*
X272110571Y-131621871D01*
X272074285Y-131694443D01*
X272038000Y-131730729D01*
X271965428Y-131767014D01*
X271675143Y-131767014D01*
X271675143Y-131005014D01*
X271929143Y-131005014D01*
X272001714Y-131041300D01*
X272038000Y-131077586D01*
X272074285Y-131150157D01*
X272074285Y-131222729D01*
X272038000Y-131295300D01*
X272001714Y-131331586D01*
X271929143Y-131367871D01*
X271675143Y-131367871D01*
X272546000Y-131767014D02*
X272473428Y-131730729D01*
X272437143Y-131694443D01*
X272400857Y-131621871D01*
X272400857Y-131404157D01*
X272437143Y-131331586D01*
X272473428Y-131295300D01*
X272546000Y-131259014D01*
X272654857Y-131259014D01*
X272727428Y-131295300D01*
X272763714Y-131331586D01*
X272800000Y-131404157D01*
X272800000Y-131621871D01*
X272763714Y-131694443D01*
X272727428Y-131730729D01*
X272654857Y-131767014D01*
X272546000Y-131767014D01*
X273453143Y-131767014D02*
X273453143Y-131367871D01*
X273416857Y-131295300D01*
X273344286Y-131259014D01*
X273199143Y-131259014D01*
X273126572Y-131295300D01*
X273453143Y-131730729D02*
X273380572Y-131767014D01*
X273199143Y-131767014D01*
X273126572Y-131730729D01*
X273090286Y-131658157D01*
X273090286Y-131585586D01*
X273126572Y-131513014D01*
X273199143Y-131476729D01*
X273380572Y-131476729D01*
X273453143Y-131440443D01*
X273816001Y-131767014D02*
X273816001Y-131259014D01*
X273816001Y-131404157D02*
X273852286Y-131331586D01*
X273888572Y-131295300D01*
X273961143Y-131259014D01*
X274033715Y-131259014D01*
X274614286Y-131767014D02*
X274614286Y-131005014D01*
X274614286Y-131730729D02*
X274541715Y-131767014D01*
X274396572Y-131767014D01*
X274324000Y-131730729D01*
X274287715Y-131694443D01*
X274251429Y-131621871D01*
X274251429Y-131404157D01*
X274287715Y-131331586D01*
X274324000Y-131295300D01*
X274396572Y-131259014D01*
X274541715Y-131259014D01*
X274614286Y-131295300D01*
X272442000Y-148495571D02*
X272696000Y-148495571D01*
X272804857Y-148894714D02*
X272442000Y-148894714D01*
X272442000Y-148132714D01*
X272804857Y-148132714D01*
X273131429Y-148386714D02*
X273131429Y-148894714D01*
X273131429Y-148459286D02*
X273167714Y-148423000D01*
X273240286Y-148386714D01*
X273349143Y-148386714D01*
X273421714Y-148423000D01*
X273458000Y-148495571D01*
X273458000Y-148894714D01*
X269669857Y-148858429D02*
X269778714Y-148894714D01*
X269960143Y-148894714D01*
X270032714Y-148858429D01*
X270069000Y-148822143D01*
X270105285Y-148749571D01*
X270105285Y-148677000D01*
X270069000Y-148604429D01*
X270032714Y-148568143D01*
X269960143Y-148531857D01*
X269815000Y-148495571D01*
X269742428Y-148459286D01*
X269706143Y-148423000D01*
X269669857Y-148350429D01*
X269669857Y-148277857D01*
X269706143Y-148205286D01*
X269742428Y-148169000D01*
X269815000Y-148132714D01*
X269996428Y-148132714D01*
X270105285Y-148169000D01*
X270322999Y-148386714D02*
X270613285Y-148386714D01*
X270431857Y-148132714D02*
X270431857Y-148785857D01*
X270468142Y-148858429D01*
X270540714Y-148894714D01*
X270613285Y-148894714D01*
X270867286Y-148386714D02*
X270867286Y-149148714D01*
X270867286Y-148423000D02*
X270939857Y-148386714D01*
X271085000Y-148386714D01*
X271157571Y-148423000D01*
X271193857Y-148459286D01*
X271230143Y-148531857D01*
X271230143Y-148749571D01*
X271193857Y-148822143D01*
X271157571Y-148858429D01*
X271085000Y-148894714D01*
X270939857Y-148894714D01*
X270867286Y-148858429D01*
X267333144Y-148894714D02*
X267333144Y-148132714D01*
X267514572Y-148132714D01*
X267623429Y-148169000D01*
X267696001Y-148241571D01*
X267732286Y-148314143D01*
X267768572Y-148459286D01*
X267768572Y-148568143D01*
X267732286Y-148713286D01*
X267696001Y-148785857D01*
X267623429Y-148858429D01*
X267514572Y-148894714D01*
X267333144Y-148894714D01*
X268095144Y-148894714D02*
X268095144Y-148386714D01*
X268095144Y-148132714D02*
X268058858Y-148169000D01*
X268095144Y-148205286D01*
X268131429Y-148169000D01*
X268095144Y-148132714D01*
X268095144Y-148205286D01*
X268458001Y-148894714D02*
X268458001Y-148386714D01*
X268458001Y-148531857D02*
X268494286Y-148459286D01*
X268530572Y-148423000D01*
X268603143Y-148386714D01*
X268675715Y-148386714D01*
X265004429Y-148868571D02*
X265004429Y-148288000D01*
X265294714Y-148578286D02*
X264714143Y-148578286D01*
X264532714Y-147562285D02*
X264532714Y-147925142D01*
X264895571Y-147961428D01*
X264859286Y-147925142D01*
X264823000Y-147852571D01*
X264823000Y-147671142D01*
X264859286Y-147598571D01*
X264895571Y-147562285D01*
X264968143Y-147526000D01*
X265149571Y-147526000D01*
X265222143Y-147562285D01*
X265258429Y-147598571D01*
X265294714Y-147671142D01*
X265294714Y-147852571D01*
X265258429Y-147925142D01*
X265222143Y-147961428D01*
X264532714Y-147308286D02*
X265294714Y-147054286D01*
X264532714Y-146800286D01*
X262069000Y-148469429D02*
X262032714Y-148542000D01*
X262032714Y-148650857D01*
X262069000Y-148759714D01*
X262141571Y-148832286D01*
X262214143Y-148868571D01*
X262359286Y-148904857D01*
X262468143Y-148904857D01*
X262613286Y-148868571D01*
X262685857Y-148832286D01*
X262758429Y-148759714D01*
X262794714Y-148650857D01*
X262794714Y-148578286D01*
X262758429Y-148469429D01*
X262722143Y-148433143D01*
X262468143Y-148433143D01*
X262468143Y-148578286D01*
X262794714Y-148106571D02*
X262032714Y-148106571D01*
X262794714Y-147671143D01*
X262032714Y-147671143D01*
X262794714Y-147308285D02*
X262032714Y-147308285D01*
X262032714Y-147126857D01*
X262069000Y-147018000D01*
X262141571Y-146945428D01*
X262214143Y-146909143D01*
X262359286Y-146872857D01*
X262468143Y-146872857D01*
X262613286Y-146909143D01*
X262685857Y-146945428D01*
X262758429Y-147018000D01*
X262794714Y-147126857D01*
X262794714Y-147308285D01*
X259763829Y-148904857D02*
X259800114Y-148796000D01*
X259800114Y-148614571D01*
X259763829Y-148542000D01*
X259727543Y-148505714D01*
X259654971Y-148469429D01*
X259582400Y-148469429D01*
X259509829Y-148505714D01*
X259473543Y-148542000D01*
X259437257Y-148614571D01*
X259400971Y-148759714D01*
X259364686Y-148832286D01*
X259328400Y-148868571D01*
X259255829Y-148904857D01*
X259183257Y-148904857D01*
X259110686Y-148868571D01*
X259074400Y-148832286D01*
X259038114Y-148759714D01*
X259038114Y-148578286D01*
X259074400Y-148469429D01*
X259292114Y-148251715D02*
X259292114Y-147961429D01*
X259038114Y-148142857D02*
X259691257Y-148142857D01*
X259763829Y-148106572D01*
X259800114Y-148034000D01*
X259800114Y-147961429D01*
X259763829Y-147417143D02*
X259800114Y-147489714D01*
X259800114Y-147634857D01*
X259763829Y-147707428D01*
X259691257Y-147743714D01*
X259400971Y-147743714D01*
X259328400Y-147707428D01*
X259292114Y-147634857D01*
X259292114Y-147489714D01*
X259328400Y-147417143D01*
X259400971Y-147380857D01*
X259473543Y-147380857D01*
X259546114Y-147743714D01*
X259292114Y-147054285D02*
X260054114Y-147054285D01*
X259328400Y-147054285D02*
X259292114Y-146981714D01*
X259292114Y-146836571D01*
X259328400Y-146764000D01*
X259364686Y-146727714D01*
X259437257Y-146691428D01*
X259654971Y-146691428D01*
X259727543Y-146727714D01*
X259763829Y-146764000D01*
X259800114Y-146836571D01*
X259800114Y-146981714D01*
X259763829Y-147054285D01*
X259292114Y-146364856D02*
X260054114Y-146364856D01*
X259328400Y-146364856D02*
X259292114Y-146292285D01*
X259292114Y-146147142D01*
X259328400Y-146074571D01*
X259364686Y-146038285D01*
X259437257Y-146001999D01*
X259654971Y-146001999D01*
X259727543Y-146038285D01*
X259763829Y-146074571D01*
X259800114Y-146147142D01*
X259800114Y-146292285D01*
X259763829Y-146364856D01*
X259763829Y-145385142D02*
X259800114Y-145457713D01*
X259800114Y-145602856D01*
X259763829Y-145675427D01*
X259691257Y-145711713D01*
X259400971Y-145711713D01*
X259328400Y-145675427D01*
X259292114Y-145602856D01*
X259292114Y-145457713D01*
X259328400Y-145385142D01*
X259400971Y-145348856D01*
X259473543Y-145348856D01*
X259546114Y-145711713D01*
X259800114Y-145022284D02*
X259292114Y-145022284D01*
X259437257Y-145022284D02*
X259364686Y-144985999D01*
X259328400Y-144949713D01*
X259292114Y-144877142D01*
X259292114Y-144804570D01*
X260754429Y-148868571D02*
X260754429Y-148288000D01*
X261044714Y-148578286D02*
X260464143Y-148578286D01*
X261044714Y-147526000D02*
X261044714Y-147961428D01*
X261044714Y-147743714D02*
X260282714Y-147743714D01*
X260391571Y-147816285D01*
X260464143Y-147888857D01*
X260500429Y-147961428D01*
X260355286Y-147235714D02*
X260319000Y-147199428D01*
X260282714Y-147126857D01*
X260282714Y-146945428D01*
X260319000Y-146872857D01*
X260355286Y-146836571D01*
X260427857Y-146800286D01*
X260500429Y-146800286D01*
X260609286Y-146836571D01*
X261044714Y-147272000D01*
X261044714Y-146800286D01*
X260282714Y-146582572D02*
X261044714Y-146328572D01*
X260282714Y-146074572D01*
X252308857Y-150632714D02*
X252780571Y-150632714D01*
X252526571Y-150923000D01*
X252635429Y-150923000D01*
X252708000Y-150959286D01*
X252744286Y-150995571D01*
X252780571Y-151068143D01*
X252780571Y-151249571D01*
X252744286Y-151322143D01*
X252708000Y-151358429D01*
X252635429Y-151394714D01*
X252417714Y-151394714D01*
X252345143Y-151358429D01*
X252308857Y-151322143D01*
X252998285Y-150632714D02*
X253252285Y-151394714D01*
X253506285Y-150632714D01*
X253687714Y-150632714D02*
X254159428Y-150632714D01*
X253905428Y-150923000D01*
X254014286Y-150923000D01*
X254086857Y-150959286D01*
X254123143Y-150995571D01*
X254159428Y-151068143D01*
X254159428Y-151249571D01*
X254123143Y-151322143D01*
X254086857Y-151358429D01*
X254014286Y-151394714D01*
X253796571Y-151394714D01*
X253724000Y-151358429D01*
X253687714Y-151322143D01*
X250845143Y-149858429D02*
X250954000Y-149894714D01*
X251135429Y-149894714D01*
X251208000Y-149858429D01*
X251244286Y-149822143D01*
X251280571Y-149749571D01*
X251280571Y-149677000D01*
X251244286Y-149604429D01*
X251208000Y-149568143D01*
X251135429Y-149531857D01*
X250990286Y-149495571D01*
X250917714Y-149459286D01*
X250881429Y-149423000D01*
X250845143Y-149350429D01*
X250845143Y-149277857D01*
X250881429Y-149205286D01*
X250917714Y-149169000D01*
X250990286Y-149132714D01*
X251171714Y-149132714D01*
X251280571Y-149169000D01*
X251534571Y-149132714D02*
X251716000Y-149894714D01*
X251861143Y-149350429D01*
X252006285Y-149894714D01*
X252187714Y-149132714D01*
X252913428Y-149822143D02*
X252877142Y-149858429D01*
X252768285Y-149894714D01*
X252695714Y-149894714D01*
X252586857Y-149858429D01*
X252514285Y-149785857D01*
X252478000Y-149713286D01*
X252441714Y-149568143D01*
X252441714Y-149459286D01*
X252478000Y-149314143D01*
X252514285Y-149241571D01*
X252586857Y-149169000D01*
X252695714Y-149132714D01*
X252768285Y-149132714D01*
X252877142Y-149169000D01*
X252913428Y-149205286D01*
X253602857Y-149894714D02*
X253240000Y-149894714D01*
X253240000Y-149132714D01*
X253856857Y-149894714D02*
X253856857Y-149132714D01*
X254292285Y-149894714D02*
X253965714Y-149459286D01*
X254292285Y-149132714D02*
X253856857Y-149568143D01*
X252530571Y-145419000D02*
X252458000Y-145382714D01*
X252349143Y-145382714D01*
X252240286Y-145419000D01*
X252167714Y-145491571D01*
X252131429Y-145564143D01*
X252095143Y-145709286D01*
X252095143Y-145818143D01*
X252131429Y-145963286D01*
X252167714Y-146035857D01*
X252240286Y-146108429D01*
X252349143Y-146144714D01*
X252421714Y-146144714D01*
X252530571Y-146108429D01*
X252566857Y-146072143D01*
X252566857Y-145818143D01*
X252421714Y-145818143D01*
X252893429Y-146144714D02*
X252893429Y-145382714D01*
X253328857Y-146144714D01*
X253328857Y-145382714D01*
X253691715Y-146144714D02*
X253691715Y-145382714D01*
X253873143Y-145382714D01*
X253982000Y-145419000D01*
X254054572Y-145491571D01*
X254090857Y-145564143D01*
X254127143Y-145709286D01*
X254127143Y-145818143D01*
X254090857Y-145963286D01*
X254054572Y-146035857D01*
X253982000Y-146108429D01*
X253873143Y-146144714D01*
X253691715Y-146144714D01*
X250845143Y-144608429D02*
X250954000Y-144644714D01*
X251135429Y-144644714D01*
X251208000Y-144608429D01*
X251244286Y-144572143D01*
X251280571Y-144499571D01*
X251280571Y-144427000D01*
X251244286Y-144354429D01*
X251208000Y-144318143D01*
X251135429Y-144281857D01*
X250990286Y-144245571D01*
X250917714Y-144209286D01*
X250881429Y-144173000D01*
X250845143Y-144100429D01*
X250845143Y-144027857D01*
X250881429Y-143955286D01*
X250917714Y-143919000D01*
X250990286Y-143882714D01*
X251171714Y-143882714D01*
X251280571Y-143919000D01*
X251534571Y-143882714D02*
X251716000Y-144644714D01*
X251861143Y-144100429D01*
X252006285Y-144644714D01*
X252187714Y-143882714D01*
X252478000Y-144644714D02*
X252478000Y-143882714D01*
X252659428Y-143882714D01*
X252768285Y-143919000D01*
X252840857Y-143991571D01*
X252877142Y-144064143D01*
X252913428Y-144209286D01*
X252913428Y-144318143D01*
X252877142Y-144463286D01*
X252840857Y-144535857D01*
X252768285Y-144608429D01*
X252659428Y-144644714D01*
X252478000Y-144644714D01*
X253240000Y-144644714D02*
X253240000Y-143882714D01*
X253747999Y-143882714D02*
X253893142Y-143882714D01*
X253965714Y-143919000D01*
X254038285Y-143991571D01*
X254074571Y-144136714D01*
X254074571Y-144390714D01*
X254038285Y-144535857D01*
X253965714Y-144608429D01*
X253893142Y-144644714D01*
X253747999Y-144644714D01*
X253675428Y-144608429D01*
X253602857Y-144535857D01*
X253566571Y-144390714D01*
X253566571Y-144136714D01*
X253602857Y-143991571D01*
X253675428Y-143919000D01*
X253747999Y-143882714D01*
X251631429Y-141144714D02*
X251631429Y-140382714D01*
X252066857Y-141144714D01*
X252066857Y-140382714D01*
X252865143Y-141144714D02*
X252611143Y-140781857D01*
X252429715Y-141144714D02*
X252429715Y-140382714D01*
X252720000Y-140382714D01*
X252792572Y-140419000D01*
X252828857Y-140455286D01*
X252865143Y-140527857D01*
X252865143Y-140636714D01*
X252828857Y-140709286D01*
X252792572Y-140745571D01*
X252720000Y-140781857D01*
X252429715Y-140781857D01*
X253155429Y-141108429D02*
X253264286Y-141144714D01*
X253445715Y-141144714D01*
X253518286Y-141108429D01*
X253554572Y-141072143D01*
X253590857Y-140999571D01*
X253590857Y-140927000D01*
X253554572Y-140854429D01*
X253518286Y-140818143D01*
X253445715Y-140781857D01*
X253300572Y-140745571D01*
X253228000Y-140709286D01*
X253191715Y-140673000D01*
X253155429Y-140600429D01*
X253155429Y-140527857D01*
X253191715Y-140455286D01*
X253228000Y-140419000D01*
X253300572Y-140382714D01*
X253482000Y-140382714D01*
X253590857Y-140419000D01*
X253808571Y-140382714D02*
X254244000Y-140382714D01*
X254026286Y-141144714D02*
X254026286Y-140382714D01*
X252095143Y-139608429D02*
X252204000Y-139644714D01*
X252385429Y-139644714D01*
X252458000Y-139608429D01*
X252494286Y-139572143D01*
X252530571Y-139499571D01*
X252530571Y-139427000D01*
X252494286Y-139354429D01*
X252458000Y-139318143D01*
X252385429Y-139281857D01*
X252240286Y-139245571D01*
X252167714Y-139209286D01*
X252131429Y-139173000D01*
X252095143Y-139100429D01*
X252095143Y-139027857D01*
X252131429Y-138955286D01*
X252167714Y-138919000D01*
X252240286Y-138882714D01*
X252421714Y-138882714D01*
X252530571Y-138919000D01*
X252784571Y-138882714D02*
X252966000Y-139644714D01*
X253111143Y-139100429D01*
X253256285Y-139644714D01*
X253437714Y-138882714D01*
X253728000Y-139644714D02*
X253728000Y-138882714D01*
X253909428Y-138882714D01*
X254018285Y-138919000D01*
X254090857Y-138991571D01*
X254127142Y-139064143D01*
X254163428Y-139209286D01*
X254163428Y-139318143D01*
X254127142Y-139463286D01*
X254090857Y-139535857D01*
X254018285Y-139608429D01*
X253909428Y-139644714D01*
X253728000Y-139644714D01*
X245869428Y-135919000D02*
X245796857Y-135882714D01*
X245688000Y-135882714D01*
X245579143Y-135919000D01*
X245506571Y-135991571D01*
X245470286Y-136064143D01*
X245434000Y-136209286D01*
X245434000Y-136318143D01*
X245470286Y-136463286D01*
X245506571Y-136535857D01*
X245579143Y-136608429D01*
X245688000Y-136644714D01*
X245760571Y-136644714D01*
X245869428Y-136608429D01*
X245905714Y-136572143D01*
X245905714Y-136318143D01*
X245760571Y-136318143D01*
X246232286Y-136644714D02*
X246232286Y-135882714D01*
X246667714Y-136644714D01*
X246667714Y-135882714D01*
X247030572Y-136644714D02*
X247030572Y-135882714D01*
X247212000Y-135882714D01*
X247320857Y-135919000D01*
X247393429Y-135991571D01*
X247429714Y-136064143D01*
X247466000Y-136209286D01*
X247466000Y-136318143D01*
X247429714Y-136463286D01*
X247393429Y-136535857D01*
X247320857Y-136608429D01*
X247212000Y-136644714D01*
X247030572Y-136644714D01*
X250619429Y-133382714D02*
X251054858Y-133382714D01*
X250837144Y-134144714D02*
X250837144Y-133382714D01*
X251236286Y-133382714D02*
X251744286Y-134144714D01*
X251744286Y-133382714D02*
X251236286Y-134144714D01*
X246323000Y-131644714D02*
X246069000Y-131281857D01*
X245887572Y-131644714D02*
X245887572Y-130882714D01*
X246177857Y-130882714D01*
X246250429Y-130919000D01*
X246286714Y-130955286D01*
X246323000Y-131027857D01*
X246323000Y-131136714D01*
X246286714Y-131209286D01*
X246250429Y-131245571D01*
X246177857Y-131281857D01*
X245887572Y-131281857D01*
X246577000Y-130882714D02*
X247085000Y-131644714D01*
X247085000Y-130882714D02*
X246577000Y-131644714D01*
D12*
X280909809Y-150086519D02*
X280982380Y-150110710D01*
X281103333Y-150110710D01*
X281151714Y-150086519D01*
X281175904Y-150062329D01*
X281200095Y-150013948D01*
X281200095Y-149965567D01*
X281175904Y-149917186D01*
X281151714Y-149892995D01*
X281103333Y-149868805D01*
X281006571Y-149844614D01*
X280958190Y-149820424D01*
X280933999Y-149796233D01*
X280909809Y-149747852D01*
X280909809Y-149699471D01*
X280933999Y-149651090D01*
X280958190Y-149626900D01*
X281006571Y-149602710D01*
X281127523Y-149602710D01*
X281200095Y-149626900D01*
X281369428Y-149772043D02*
X281490381Y-150110710D01*
X281611333Y-149772043D02*
X281490381Y-150110710D01*
X281442000Y-150231662D01*
X281417809Y-150255852D01*
X281369428Y-150280043D01*
X282095143Y-150110710D02*
X281925810Y-149868805D01*
X281804857Y-150110710D02*
X281804857Y-149602710D01*
X281998381Y-149602710D01*
X282046762Y-149626900D01*
X282070953Y-149651090D01*
X282095143Y-149699471D01*
X282095143Y-149772043D01*
X282070953Y-149820424D01*
X282046762Y-149844614D01*
X281998381Y-149868805D01*
X281804857Y-149868805D01*
X282506381Y-150086519D02*
X282458000Y-150110710D01*
X282361238Y-150110710D01*
X282312857Y-150086519D01*
X282288667Y-150038138D01*
X282288667Y-149844614D01*
X282312857Y-149796233D01*
X282361238Y-149772043D01*
X282458000Y-149772043D01*
X282506381Y-149796233D01*
X282530572Y-149844614D01*
X282530572Y-149892995D01*
X282288667Y-149941376D01*
X282748286Y-149772043D02*
X282748286Y-150110710D01*
X282748286Y-149820424D02*
X282772477Y-149796233D01*
X282820858Y-149772043D01*
X282893429Y-149772043D01*
X282941810Y-149796233D01*
X282966001Y-149844614D01*
X282966001Y-150110710D01*
X281562952Y-150440910D02*
X281853238Y-150440910D01*
X281708095Y-150948910D02*
X281708095Y-150440910D01*
X281974190Y-150440910D02*
X282312857Y-150948910D01*
X282312857Y-150440910D02*
X281974190Y-150948910D01*
D13*
X233175000Y-140550000D02*
X233175000Y-142550000D01*
X235225000Y-142550000D02*
X235225000Y-140550000D01*
X238775000Y-139625000D02*
X238775000Y-140700000D01*
X249125000Y-139625000D02*
X249125000Y-140700000D01*
X249125000Y-149975000D02*
X249125000Y-148900000D01*
X238775000Y-149975000D02*
X238775000Y-148900000D01*
X238775000Y-139625000D02*
X239850000Y-139625000D01*
X238775000Y-149975000D02*
X239850000Y-149975000D01*
X249125000Y-149975000D02*
X248050000Y-149975000D01*
X249125000Y-139625000D02*
X248050000Y-139625000D01*
X238775000Y-140700000D02*
X237750000Y-140700000D01*
X235225000Y-149300000D02*
X235225000Y-147300000D01*
X233175000Y-147300000D02*
X233175000Y-149300000D01*
X223675000Y-131550000D02*
X223675000Y-133550000D01*
X225725000Y-133550000D02*
X225725000Y-131550000D01*
X247450000Y-153825000D02*
X249450000Y-153825000D01*
X249450000Y-151775000D02*
X247450000Y-151775000D01*
X242925000Y-131550000D02*
X242925000Y-133550000D01*
X244975000Y-133550000D02*
X244975000Y-131550000D01*
X240175000Y-131550000D02*
X240175000Y-133550000D01*
X242225000Y-133550000D02*
X242225000Y-131550000D01*
X237425000Y-131550000D02*
X237425000Y-133550000D01*
X239475000Y-133550000D02*
X239475000Y-131550000D01*
X234675000Y-131550000D02*
X234675000Y-133550000D01*
X236725000Y-133550000D02*
X236725000Y-131550000D01*
X231925000Y-131550000D02*
X231925000Y-133550000D01*
X233975000Y-133550000D02*
X233975000Y-131550000D01*
X229175000Y-131550000D02*
X229175000Y-133550000D01*
X231225000Y-133550000D02*
X231225000Y-131550000D01*
X226425000Y-131550000D02*
X226425000Y-133550000D01*
X228475000Y-133550000D02*
X228475000Y-131550000D01*
X222700000Y-148825000D02*
X224700000Y-148825000D01*
X224700000Y-146775000D02*
X222700000Y-146775000D01*
X222700000Y-151575000D02*
X224700000Y-151575000D01*
X224700000Y-149525000D02*
X222700000Y-149525000D01*
X224600000Y-144875000D02*
X222600000Y-144875000D01*
X222600000Y-142725000D02*
X224600000Y-142725000D01*
X250220000Y-137102000D02*
X250220000Y-137610000D01*
X250220000Y-137610000D02*
X247680000Y-137610000D01*
X247680000Y-137610000D02*
X247680000Y-135070000D01*
X250220000Y-135070000D02*
X250220000Y-135578000D01*
X247680000Y-132530000D02*
X247680000Y-133038000D01*
X250220000Y-132530000D02*
X250220000Y-135070000D01*
X250220000Y-135070000D02*
X247680000Y-135070000D01*
X247680000Y-135070000D02*
X247680000Y-134562000D01*
X250220000Y-129990000D02*
X247680000Y-129990000D01*
X247680000Y-129990000D02*
X247680000Y-132530000D01*
X247680000Y-132530000D02*
X250220000Y-132530000D01*
X250220000Y-132530000D02*
X250220000Y-132022000D01*
X250220000Y-129990000D02*
X250220000Y-130498000D01*
X249077000Y-136213000D02*
X248823000Y-136213000D01*
X248823000Y-136213000D02*
X248823000Y-136467000D01*
X248823000Y-136467000D02*
X249077000Y-136467000D01*
X249077000Y-136467000D02*
X249077000Y-136213000D01*
X249077000Y-133673000D02*
X248823000Y-133673000D01*
X248823000Y-133673000D02*
X248823000Y-133927000D01*
X248823000Y-133927000D02*
X249077000Y-133927000D01*
X249077000Y-133927000D02*
X249077000Y-133673000D01*
X249077000Y-133673000D02*
X249077000Y-133800000D01*
X249077000Y-131133000D02*
X248823000Y-131133000D01*
X248823000Y-131133000D02*
X248823000Y-131387000D01*
X248823000Y-131387000D02*
X249077000Y-131387000D01*
X249077000Y-131387000D02*
X249077000Y-131133000D01*
X254430000Y-140970000D02*
X256970000Y-140970000D01*
X256970000Y-140970000D02*
X256970000Y-140462000D01*
X254430000Y-140970000D02*
X254430000Y-138430000D01*
X254430000Y-138430000D02*
X256970000Y-138430000D01*
X256970000Y-138430000D02*
X256970000Y-138938000D01*
X256970000Y-140970000D02*
X254430000Y-140970000D01*
X255573000Y-139827000D02*
X255827000Y-139827000D01*
X255827000Y-139827000D02*
X255827000Y-139573000D01*
X255827000Y-139573000D02*
X255573000Y-139573000D01*
X255573000Y-139573000D02*
X255573000Y-139827000D01*
X255573000Y-139827000D02*
X255573000Y-139700000D01*
X255573000Y-144907000D02*
X255573000Y-144780000D01*
X255573000Y-144653000D02*
X255573000Y-144907000D01*
X255827000Y-144653000D02*
X255573000Y-144653000D01*
X255827000Y-144907000D02*
X255827000Y-144653000D01*
X255573000Y-144907000D02*
X255827000Y-144907000D01*
X255573000Y-142113000D02*
X255573000Y-142367000D01*
X255827000Y-142113000D02*
X255573000Y-142113000D01*
X255827000Y-142367000D02*
X255827000Y-142113000D01*
X255573000Y-142367000D02*
X255827000Y-142367000D01*
X256970000Y-146050000D02*
X254430000Y-146050000D01*
X256970000Y-143510000D02*
X256970000Y-144018000D01*
X254430000Y-143510000D02*
X256970000Y-143510000D01*
X254430000Y-146050000D02*
X254430000Y-143510000D01*
X256970000Y-146050000D02*
X256970000Y-145542000D01*
X254430000Y-143510000D02*
X254430000Y-143002000D01*
X256970000Y-140970000D02*
X256970000Y-143510000D01*
X254430000Y-140970000D02*
X256970000Y-140970000D01*
X254430000Y-141478000D02*
X254430000Y-140970000D01*
X254430000Y-146558000D02*
X254430000Y-146050000D01*
X254430000Y-146050000D02*
X256970000Y-146050000D01*
X256970000Y-146050000D02*
X256970000Y-148590000D01*
X254430000Y-148590000D02*
X254430000Y-148082000D01*
X256970000Y-151130000D02*
X256970000Y-150622000D01*
X254430000Y-151130000D02*
X254430000Y-148590000D01*
X254430000Y-148590000D02*
X256970000Y-148590000D01*
X256970000Y-148590000D02*
X256970000Y-149098000D01*
X254430000Y-153670000D02*
X256970000Y-153670000D01*
X256970000Y-153670000D02*
X256970000Y-151130000D01*
X256970000Y-151130000D02*
X254430000Y-151130000D01*
X254430000Y-151130000D02*
X254430000Y-151638000D01*
X254430000Y-153670000D02*
X254430000Y-153162000D01*
X255573000Y-147447000D02*
X255827000Y-147447000D01*
X255827000Y-147447000D02*
X255827000Y-147193000D01*
X255827000Y-147193000D02*
X255573000Y-147193000D01*
X255573000Y-147193000D02*
X255573000Y-147447000D01*
X255573000Y-149987000D02*
X255827000Y-149987000D01*
X255827000Y-149987000D02*
X255827000Y-149733000D01*
X255827000Y-149733000D02*
X255573000Y-149733000D01*
X255573000Y-149733000D02*
X255573000Y-149987000D01*
X255573000Y-149987000D02*
X255573000Y-149860000D01*
X255573000Y-152527000D02*
X255827000Y-152527000D01*
X255827000Y-152527000D02*
X255827000Y-152273000D01*
X255827000Y-152273000D02*
X255573000Y-152273000D01*
X255573000Y-152273000D02*
X255573000Y-152527000D01*
X263950000Y-134625000D02*
X261950000Y-134625000D01*
X261950000Y-132475000D02*
X263950000Y-132475000D01*
X240450000Y-151725000D02*
X242450000Y-151725000D01*
X242450000Y-153875000D02*
X240450000Y-153875000D01*
X231601000Y-139847000D02*
X231220000Y-139847000D01*
X228299000Y-139847000D02*
X228680000Y-139847000D01*
X228299000Y-149753000D02*
X228680000Y-149753000D01*
X231601000Y-149753000D02*
X231220000Y-149753000D01*
X232490000Y-150515000D02*
X231220000Y-150515000D01*
X227410000Y-150515000D02*
X228680000Y-150515000D01*
X227410000Y-139085000D02*
X228680000Y-139085000D01*
X232490000Y-139085000D02*
X231220000Y-139085000D01*
X228299000Y-139847000D02*
X227664000Y-140482000D01*
X227664000Y-140482000D02*
X227664000Y-149118000D01*
X227664000Y-149118000D02*
X228299000Y-149753000D01*
X231601000Y-149753000D02*
X232236000Y-149118000D01*
X232236000Y-149118000D02*
X232236000Y-140482000D01*
X232236000Y-140482000D02*
X231601000Y-139847000D01*
X227410000Y-150515000D02*
X227410000Y-139085000D01*
X232490000Y-139085000D02*
X232490000Y-150515000D01*
X266635800Y-147725000D02*
X283526800Y-147725000D01*
X283526800Y-147725000D02*
X283526800Y-132485000D01*
X283526800Y-132485000D02*
X266635800Y-132485000D01*
X266635800Y-132485000D02*
X266635800Y-147725000D01*
X252875000Y-136375000D02*
X253020000Y-136375000D01*
X252875000Y-132225000D02*
X253020000Y-132225000D01*
X258025000Y-132225000D02*
X257880000Y-132225000D01*
X258025000Y-136375000D02*
X257880000Y-136375000D01*
X252875000Y-136375000D02*
X252875000Y-132225000D01*
X258025000Y-136375000D02*
X258025000Y-132225000D01*
X253020000Y-136375000D02*
X253020000Y-137775000D01*
X223300000Y-137675000D02*
X222100000Y-137675000D01*
X222100000Y-135925000D02*
X223300000Y-135925000D01*
X223300000Y-139675000D02*
X222100000Y-139675000D01*
X222100000Y-137925000D02*
X223300000Y-137925000D01*
X224450000Y-142125000D02*
X222450000Y-142125000D01*
X222450000Y-139975000D02*
X224450000Y-139975000D01*
X236233334Y-138957143D02*
X236185715Y-139004762D01*
X236042858Y-139052381D01*
X235947620Y-139052381D01*
X235804762Y-139004762D01*
X235709524Y-138909524D01*
X235661905Y-138814286D01*
X235614286Y-138623810D01*
X235614286Y-138480952D01*
X235661905Y-138290476D01*
X235709524Y-138195238D01*
X235804762Y-138100000D01*
X235947620Y-138052381D01*
X236042858Y-138052381D01*
X236185715Y-138100000D01*
X236233334Y-138147619D01*
X237185715Y-139052381D02*
X236614286Y-139052381D01*
X236900000Y-139052381D02*
X236900000Y-138052381D01*
X236804762Y-138195238D01*
X236709524Y-138290476D01*
X236614286Y-138338095D01*
X249638095Y-138252381D02*
X249638095Y-139061905D01*
X249685714Y-139157143D01*
X249733333Y-139204762D01*
X249828571Y-139252381D01*
X250019048Y-139252381D01*
X250114286Y-139204762D01*
X250161905Y-139157143D01*
X250209524Y-139061905D01*
X250209524Y-138252381D01*
X251209524Y-139252381D02*
X250638095Y-139252381D01*
X250923809Y-139252381D02*
X250923809Y-138252381D01*
X250828571Y-138395238D01*
X250733333Y-138490476D01*
X250638095Y-138538095D01*
X234233334Y-152757143D02*
X234185715Y-152804762D01*
X234042858Y-152852381D01*
X233947620Y-152852381D01*
X233804762Y-152804762D01*
X233709524Y-152709524D01*
X233661905Y-152614286D01*
X233614286Y-152423810D01*
X233614286Y-152280952D01*
X233661905Y-152090476D01*
X233709524Y-151995238D01*
X233804762Y-151900000D01*
X233947620Y-151852381D01*
X234042858Y-151852381D01*
X234185715Y-151900000D01*
X234233334Y-151947619D01*
X234614286Y-151947619D02*
X234661905Y-151900000D01*
X234757143Y-151852381D01*
X234995239Y-151852381D01*
X235090477Y-151900000D01*
X235138096Y-151947619D01*
X235185715Y-152042857D01*
X235185715Y-152138095D01*
X235138096Y-152280952D01*
X234566667Y-152852381D01*
X235185715Y-152852381D01*
X223057143Y-133716666D02*
X223104762Y-133764285D01*
X223152381Y-133907142D01*
X223152381Y-134002380D01*
X223104762Y-134145238D01*
X223009524Y-134240476D01*
X222914286Y-134288095D01*
X222723810Y-134335714D01*
X222580952Y-134335714D01*
X222390476Y-134288095D01*
X222295238Y-134240476D01*
X222200000Y-134145238D01*
X222152381Y-134002380D01*
X222152381Y-133907142D01*
X222200000Y-133764285D01*
X222247619Y-133716666D01*
X222152381Y-133383333D02*
X222152381Y-132764285D01*
X222533333Y-133097619D01*
X222533333Y-132954761D01*
X222580952Y-132859523D01*
X222628571Y-132811904D01*
X222723810Y-132764285D01*
X222961905Y-132764285D01*
X223057143Y-132811904D01*
X223104762Y-132859523D01*
X223152381Y-132954761D01*
X223152381Y-133240476D01*
X223104762Y-133335714D01*
X223057143Y-133383333D01*
X250283334Y-151407143D02*
X250235715Y-151454762D01*
X250092858Y-151502381D01*
X249997620Y-151502381D01*
X249854762Y-151454762D01*
X249759524Y-151359524D01*
X249711905Y-151264286D01*
X249664286Y-151073810D01*
X249664286Y-150930952D01*
X249711905Y-150740476D01*
X249759524Y-150645238D01*
X249854762Y-150550000D01*
X249997620Y-150502381D01*
X250092858Y-150502381D01*
X250235715Y-150550000D01*
X250283334Y-150597619D01*
X251140477Y-150835714D02*
X251140477Y-151502381D01*
X250902381Y-150454762D02*
X250664286Y-151169048D01*
X251283334Y-151169048D01*
X244357143Y-136966666D02*
X244404762Y-137014285D01*
X244452381Y-137157142D01*
X244452381Y-137252380D01*
X244404762Y-137395238D01*
X244309524Y-137490476D01*
X244214286Y-137538095D01*
X244023810Y-137585714D01*
X243880952Y-137585714D01*
X243690476Y-137538095D01*
X243595238Y-137490476D01*
X243500000Y-137395238D01*
X243452381Y-137252380D01*
X243452381Y-137157142D01*
X243500000Y-137014285D01*
X243547619Y-136966666D01*
X243452381Y-136061904D02*
X243452381Y-136538095D01*
X243928571Y-136585714D01*
X243880952Y-136538095D01*
X243833333Y-136442857D01*
X243833333Y-136204761D01*
X243880952Y-136109523D01*
X243928571Y-136061904D01*
X244023810Y-136014285D01*
X244261905Y-136014285D01*
X244357143Y-136061904D01*
X244404762Y-136109523D01*
X244452381Y-136204761D01*
X244452381Y-136442857D01*
X244404762Y-136538095D01*
X244357143Y-136585714D01*
X241557143Y-136966666D02*
X241604762Y-137014285D01*
X241652381Y-137157142D01*
X241652381Y-137252380D01*
X241604762Y-137395238D01*
X241509524Y-137490476D01*
X241414286Y-137538095D01*
X241223810Y-137585714D01*
X241080952Y-137585714D01*
X240890476Y-137538095D01*
X240795238Y-137490476D01*
X240700000Y-137395238D01*
X240652381Y-137252380D01*
X240652381Y-137157142D01*
X240700000Y-137014285D01*
X240747619Y-136966666D01*
X240652381Y-136109523D02*
X240652381Y-136300000D01*
X240700000Y-136395238D01*
X240747619Y-136442857D01*
X240890476Y-136538095D01*
X241080952Y-136585714D01*
X241461905Y-136585714D01*
X241557143Y-136538095D01*
X241604762Y-136490476D01*
X241652381Y-136395238D01*
X241652381Y-136204761D01*
X241604762Y-136109523D01*
X241557143Y-136061904D01*
X241461905Y-136014285D01*
X241223810Y-136014285D01*
X241128571Y-136061904D01*
X241080952Y-136109523D01*
X241033333Y-136204761D01*
X241033333Y-136395238D01*
X241080952Y-136490476D01*
X241128571Y-136538095D01*
X241223810Y-136585714D01*
X238957143Y-136966666D02*
X239004762Y-137014285D01*
X239052381Y-137157142D01*
X239052381Y-137252380D01*
X239004762Y-137395238D01*
X238909524Y-137490476D01*
X238814286Y-137538095D01*
X238623810Y-137585714D01*
X238480952Y-137585714D01*
X238290476Y-137538095D01*
X238195238Y-137490476D01*
X238100000Y-137395238D01*
X238052381Y-137252380D01*
X238052381Y-137157142D01*
X238100000Y-137014285D01*
X238147619Y-136966666D01*
X238052381Y-136633333D02*
X238052381Y-135966666D01*
X239052381Y-136395238D01*
X236157143Y-136966666D02*
X236204762Y-137014285D01*
X236252381Y-137157142D01*
X236252381Y-137252380D01*
X236204762Y-137395238D01*
X236109524Y-137490476D01*
X236014286Y-137538095D01*
X235823810Y-137585714D01*
X235680952Y-137585714D01*
X235490476Y-137538095D01*
X235395238Y-137490476D01*
X235300000Y-137395238D01*
X235252381Y-137252380D01*
X235252381Y-137157142D01*
X235300000Y-137014285D01*
X235347619Y-136966666D01*
X235680952Y-136395238D02*
X235633333Y-136490476D01*
X235585714Y-136538095D01*
X235490476Y-136585714D01*
X235442857Y-136585714D01*
X235347619Y-136538095D01*
X235300000Y-136490476D01*
X235252381Y-136395238D01*
X235252381Y-136204761D01*
X235300000Y-136109523D01*
X235347619Y-136061904D01*
X235442857Y-136014285D01*
X235490476Y-136014285D01*
X235585714Y-136061904D01*
X235633333Y-136109523D01*
X235680952Y-136204761D01*
X235680952Y-136395238D01*
X235728571Y-136490476D01*
X235776190Y-136538095D01*
X235871429Y-136585714D01*
X236061905Y-136585714D01*
X236157143Y-136538095D01*
X236204762Y-136490476D01*
X236252381Y-136395238D01*
X236252381Y-136204761D01*
X236204762Y-136109523D01*
X236157143Y-136061904D01*
X236061905Y-136014285D01*
X235871429Y-136014285D01*
X235776190Y-136061904D01*
X235728571Y-136109523D01*
X235680952Y-136204761D01*
X233357143Y-136966666D02*
X233404762Y-137014285D01*
X233452381Y-137157142D01*
X233452381Y-137252380D01*
X233404762Y-137395238D01*
X233309524Y-137490476D01*
X233214286Y-137538095D01*
X233023810Y-137585714D01*
X232880952Y-137585714D01*
X232690476Y-137538095D01*
X232595238Y-137490476D01*
X232500000Y-137395238D01*
X232452381Y-137252380D01*
X232452381Y-137157142D01*
X232500000Y-137014285D01*
X232547619Y-136966666D01*
X233452381Y-136490476D02*
X233452381Y-136300000D01*
X233404762Y-136204761D01*
X233357143Y-136157142D01*
X233214286Y-136061904D01*
X233023810Y-136014285D01*
X232642857Y-136014285D01*
X232547619Y-136061904D01*
X232500000Y-136109523D01*
X232452381Y-136204761D01*
X232452381Y-136395238D01*
X232500000Y-136490476D01*
X232547619Y-136538095D01*
X232642857Y-136585714D01*
X232880952Y-136585714D01*
X232976190Y-136538095D01*
X233023810Y-136490476D01*
X233071429Y-136395238D01*
X233071429Y-136204761D01*
X233023810Y-136109523D01*
X232976190Y-136061904D01*
X232880952Y-136014285D01*
X229557143Y-136907143D02*
X229509524Y-136954762D01*
X229366667Y-137002381D01*
X229271429Y-137002381D01*
X229128571Y-136954762D01*
X229033333Y-136859524D01*
X228985714Y-136764286D01*
X228938095Y-136573810D01*
X228938095Y-136430952D01*
X228985714Y-136240476D01*
X229033333Y-136145238D01*
X229128571Y-136050000D01*
X229271429Y-136002381D01*
X229366667Y-136002381D01*
X229509524Y-136050000D01*
X229557143Y-136097619D01*
X230509524Y-137002381D02*
X229938095Y-137002381D01*
X230223809Y-137002381D02*
X230223809Y-136002381D01*
X230128571Y-136145238D01*
X230033333Y-136240476D01*
X229938095Y-136288095D01*
X231128571Y-136002381D02*
X231223810Y-136002381D01*
X231319048Y-136050000D01*
X231366667Y-136097619D01*
X231414286Y-136192857D01*
X231461905Y-136383333D01*
X231461905Y-136621429D01*
X231414286Y-136811905D01*
X231366667Y-136907143D01*
X231319048Y-136954762D01*
X231223810Y-137002381D01*
X231128571Y-137002381D01*
X231033333Y-136954762D01*
X230985714Y-136907143D01*
X230938095Y-136811905D01*
X230890476Y-136621429D01*
X230890476Y-136383333D01*
X230938095Y-136192857D01*
X230985714Y-136097619D01*
X231033333Y-136050000D01*
X231128571Y-136002381D01*
X228307143Y-137942857D02*
X228354762Y-137990476D01*
X228402381Y-138133333D01*
X228402381Y-138228571D01*
X228354762Y-138371429D01*
X228259524Y-138466667D01*
X228164286Y-138514286D01*
X227973810Y-138561905D01*
X227830952Y-138561905D01*
X227640476Y-138514286D01*
X227545238Y-138466667D01*
X227450000Y-138371429D01*
X227402381Y-138228571D01*
X227402381Y-138133333D01*
X227450000Y-137990476D01*
X227497619Y-137942857D01*
X228402381Y-136990476D02*
X228402381Y-137561905D01*
X228402381Y-137276191D02*
X227402381Y-137276191D01*
X227545238Y-137371429D01*
X227640476Y-137466667D01*
X227688095Y-137561905D01*
X228402381Y-136038095D02*
X228402381Y-136609524D01*
X228402381Y-136323810D02*
X227402381Y-136323810D01*
X227545238Y-136419048D01*
X227640476Y-136514286D01*
X227688095Y-136609524D01*
X220907143Y-146707143D02*
X220859524Y-146754762D01*
X220716667Y-146802381D01*
X220621429Y-146802381D01*
X220478571Y-146754762D01*
X220383333Y-146659524D01*
X220335714Y-146564286D01*
X220288095Y-146373810D01*
X220288095Y-146230952D01*
X220335714Y-146040476D01*
X220383333Y-145945238D01*
X220478571Y-145850000D01*
X220621429Y-145802381D01*
X220716667Y-145802381D01*
X220859524Y-145850000D01*
X220907143Y-145897619D01*
X221859524Y-146802381D02*
X221288095Y-146802381D01*
X221573809Y-146802381D02*
X221573809Y-145802381D01*
X221478571Y-145945238D01*
X221383333Y-146040476D01*
X221288095Y-146088095D01*
X222240476Y-145897619D02*
X222288095Y-145850000D01*
X222383333Y-145802381D01*
X222621429Y-145802381D01*
X222716667Y-145850000D01*
X222764286Y-145897619D01*
X222811905Y-145992857D01*
X222811905Y-146088095D01*
X222764286Y-146230952D01*
X222192857Y-146802381D01*
X222811905Y-146802381D01*
X225057143Y-149307143D02*
X225009524Y-149354762D01*
X224866667Y-149402381D01*
X224771429Y-149402381D01*
X224628571Y-149354762D01*
X224533333Y-149259524D01*
X224485714Y-149164286D01*
X224438095Y-148973810D01*
X224438095Y-148830952D01*
X224485714Y-148640476D01*
X224533333Y-148545238D01*
X224628571Y-148450000D01*
X224771429Y-148402381D01*
X224866667Y-148402381D01*
X225009524Y-148450000D01*
X225057143Y-148497619D01*
X226009524Y-149402381D02*
X225438095Y-149402381D01*
X225723809Y-149402381D02*
X225723809Y-148402381D01*
X225628571Y-148545238D01*
X225533333Y-148640476D01*
X225438095Y-148688095D01*
X226342857Y-148402381D02*
X226961905Y-148402381D01*
X226628571Y-148783333D01*
X226771429Y-148783333D01*
X226866667Y-148830952D01*
X226914286Y-148878571D01*
X226961905Y-148973810D01*
X226961905Y-149211905D01*
X226914286Y-149307143D01*
X226866667Y-149354762D01*
X226771429Y-149402381D01*
X226485714Y-149402381D01*
X226390476Y-149354762D01*
X226342857Y-149307143D01*
X225116667Y-145478571D02*
X224783333Y-145478571D01*
X224783333Y-146002381D02*
X224783333Y-145002381D01*
X225259524Y-145002381D01*
X225973810Y-145478571D02*
X226116667Y-145526190D01*
X226164286Y-145573810D01*
X226211905Y-145669048D01*
X226211905Y-145811905D01*
X226164286Y-145907143D01*
X226116667Y-145954762D01*
X226021429Y-146002381D01*
X225640476Y-146002381D01*
X225640476Y-145002381D01*
X225973810Y-145002381D01*
X226069048Y-145050000D01*
X226116667Y-145097619D01*
X226164286Y-145192857D01*
X226164286Y-145288095D01*
X226116667Y-145383333D01*
X226069048Y-145430952D01*
X225973810Y-145478571D01*
X225640476Y-145478571D01*
X227164286Y-146002381D02*
X226592857Y-146002381D01*
X226878571Y-146002381D02*
X226878571Y-145002381D01*
X226783333Y-145145238D01*
X226688095Y-145240476D01*
X226592857Y-145288095D01*
X246004762Y-130052381D02*
X245671428Y-129576190D01*
X245433333Y-130052381D02*
X245433333Y-129052381D01*
X245814286Y-129052381D01*
X245909524Y-129100000D01*
X245957143Y-129147619D01*
X246004762Y-129242857D01*
X246004762Y-129385714D01*
X245957143Y-129480952D01*
X245909524Y-129528571D01*
X245814286Y-129576190D01*
X245433333Y-129576190D01*
X246385714Y-130004762D02*
X246528571Y-130052381D01*
X246766667Y-130052381D01*
X246861905Y-130004762D01*
X246909524Y-129957143D01*
X246957143Y-129861905D01*
X246957143Y-129766667D01*
X246909524Y-129671429D01*
X246861905Y-129623810D01*
X246766667Y-129576190D01*
X246576190Y-129528571D01*
X246480952Y-129480952D01*
X246433333Y-129433333D01*
X246385714Y-129338095D01*
X246385714Y-129242857D01*
X246433333Y-129147619D01*
X246480952Y-129100000D01*
X246576190Y-129052381D01*
X246814286Y-129052381D01*
X246957143Y-129100000D01*
X247338095Y-129147619D02*
X247385714Y-129100000D01*
X247480952Y-129052381D01*
X247719048Y-129052381D01*
X247814286Y-129100000D01*
X247861905Y-129147619D01*
X247909524Y-129242857D01*
X247909524Y-129338095D01*
X247861905Y-129480952D01*
X247290476Y-130052381D01*
X247909524Y-130052381D01*
X248242857Y-129052381D02*
X248861905Y-129052381D01*
X248528571Y-129433333D01*
X248671429Y-129433333D01*
X248766667Y-129480952D01*
X248814286Y-129528571D01*
X248861905Y-129623810D01*
X248861905Y-129861905D01*
X248814286Y-129957143D01*
X248766667Y-130004762D01*
X248671429Y-130052381D01*
X248385714Y-130052381D01*
X248290476Y-130004762D01*
X248242857Y-129957143D01*
X249242857Y-129147619D02*
X249290476Y-129100000D01*
X249385714Y-129052381D01*
X249623810Y-129052381D01*
X249719048Y-129100000D01*
X249766667Y-129147619D01*
X249814286Y-129242857D01*
X249814286Y-129338095D01*
X249766667Y-129480952D01*
X249195238Y-130052381D01*
X249814286Y-130052381D01*
X262833334Y-132052381D02*
X262500000Y-131576190D01*
X262261905Y-132052381D02*
X262261905Y-131052381D01*
X262642858Y-131052381D01*
X262738096Y-131100000D01*
X262785715Y-131147619D01*
X262833334Y-131242857D01*
X262833334Y-131385714D01*
X262785715Y-131480952D01*
X262738096Y-131528571D01*
X262642858Y-131576190D01*
X262261905Y-131576190D01*
X263785715Y-132052381D02*
X263214286Y-132052381D01*
X263500000Y-132052381D02*
X263500000Y-131052381D01*
X263404762Y-131195238D01*
X263309524Y-131290476D01*
X263214286Y-131338095D01*
X236833334Y-153852381D02*
X236500000Y-153376190D01*
X236261905Y-153852381D02*
X236261905Y-152852381D01*
X236642858Y-152852381D01*
X236738096Y-152900000D01*
X236785715Y-152947619D01*
X236833334Y-153042857D01*
X236833334Y-153185714D01*
X236785715Y-153280952D01*
X236738096Y-153328571D01*
X236642858Y-153376190D01*
X236261905Y-153376190D01*
X237214286Y-152947619D02*
X237261905Y-152900000D01*
X237357143Y-152852381D01*
X237595239Y-152852381D01*
X237690477Y-152900000D01*
X237738096Y-152947619D01*
X237785715Y-153042857D01*
X237785715Y-153138095D01*
X237738096Y-153280952D01*
X237166667Y-153852381D01*
X237785715Y-153852381D01*
X226152381Y-142109524D02*
X227152381Y-141442857D01*
X226152381Y-141442857D02*
X227152381Y-142109524D01*
X227152381Y-140538095D02*
X227152381Y-141109524D01*
X227152381Y-140823810D02*
X226152381Y-140823810D01*
X226295238Y-140919048D01*
X226390476Y-141014286D01*
X226438095Y-141109524D01*
X281866667Y-148252381D02*
X281866667Y-148966667D01*
X281819047Y-149109524D01*
X281723809Y-149204762D01*
X281580952Y-149252381D01*
X281485714Y-149252381D01*
X282866667Y-149252381D02*
X282295238Y-149252381D01*
X282580952Y-149252381D02*
X282580952Y-148252381D01*
X282485714Y-148395238D01*
X282390476Y-148490476D01*
X282295238Y-148538095D01*
X258438095Y-131052381D02*
X258438095Y-131861905D01*
X258485714Y-131957143D01*
X258533333Y-132004762D01*
X258628571Y-132052381D01*
X258819048Y-132052381D01*
X258914286Y-132004762D01*
X258961905Y-131957143D01*
X259009524Y-131861905D01*
X259009524Y-131052381D01*
X259438095Y-131147619D02*
X259485714Y-131100000D01*
X259580952Y-131052381D01*
X259819048Y-131052381D01*
X259914286Y-131100000D01*
X259961905Y-131147619D01*
X260009524Y-131242857D01*
X260009524Y-131338095D01*
X259961905Y-131480952D01*
X259390476Y-132052381D01*
X260009524Y-132052381D01*
X225461905Y-137252381D02*
X225461905Y-136252381D01*
X225700000Y-136252381D01*
X225842858Y-136300000D01*
X225938096Y-136395238D01*
X225985715Y-136490476D01*
X226033334Y-136680952D01*
X226033334Y-136823810D01*
X225985715Y-137014286D01*
X225938096Y-137109524D01*
X225842858Y-137204762D01*
X225700000Y-137252381D01*
X225461905Y-137252381D01*
X226985715Y-137252381D02*
X226414286Y-137252381D01*
X226700000Y-137252381D02*
X226700000Y-136252381D01*
X226604762Y-136395238D01*
X226509524Y-136490476D01*
X226414286Y-136538095D01*
X225461905Y-138502381D02*
X225461905Y-137502381D01*
X225700000Y-137502381D01*
X225842858Y-137550000D01*
X225938096Y-137645238D01*
X225985715Y-137740476D01*
X226033334Y-137930952D01*
X226033334Y-138073810D01*
X225985715Y-138264286D01*
X225938096Y-138359524D01*
X225842858Y-138454762D01*
X225700000Y-138502381D01*
X225461905Y-138502381D01*
X226414286Y-137597619D02*
X226461905Y-137550000D01*
X226557143Y-137502381D01*
X226795239Y-137502381D01*
X226890477Y-137550000D01*
X226938096Y-137597619D01*
X226985715Y-137692857D01*
X226985715Y-137788095D01*
X226938096Y-137930952D01*
X226366667Y-138502381D01*
X226985715Y-138502381D01*
X226033334Y-139752381D02*
X225700000Y-139276190D01*
X225461905Y-139752381D02*
X225461905Y-138752381D01*
X225842858Y-138752381D01*
X225938096Y-138800000D01*
X225985715Y-138847619D01*
X226033334Y-138942857D01*
X226033334Y-139085714D01*
X225985715Y-139180952D01*
X225938096Y-139228571D01*
X225842858Y-139276190D01*
X225461905Y-139276190D01*
X226890477Y-138752381D02*
X226700000Y-138752381D01*
X226604762Y-138800000D01*
X226557143Y-138847619D01*
X226461905Y-138990476D01*
X226414286Y-139180952D01*
X226414286Y-139561905D01*
X226461905Y-139657143D01*
X226509524Y-139704762D01*
X226604762Y-139752381D01*
X226795239Y-139752381D01*
X226890477Y-139704762D01*
X226938096Y-139657143D01*
X226985715Y-139561905D01*
X226985715Y-139323810D01*
X226938096Y-139228571D01*
X226890477Y-139180952D01*
X226795239Y-139133333D01*
X226604762Y-139133333D01*
X226509524Y-139180952D01*
X226461905Y-139228571D01*
X226414286Y-139323810D01*
X222783334Y-143802381D02*
X222211905Y-143802381D01*
X222497619Y-143802381D02*
X222497619Y-142802381D01*
X222402381Y-142945238D01*
X222307143Y-143040476D01*
X222211905Y-143088095D01*
X223402381Y-142802381D02*
X223497620Y-142802381D01*
X223592858Y-142850000D01*
X223640477Y-142897619D01*
X223688096Y-142992857D01*
X223735715Y-143183333D01*
X223735715Y-143421429D01*
X223688096Y-143611905D01*
X223640477Y-143707143D01*
X223592858Y-143754762D01*
X223497620Y-143802381D01*
X223402381Y-143802381D01*
X223307143Y-143754762D01*
X223259524Y-143707143D01*
X223211905Y-143611905D01*
X223164286Y-143421429D01*
X223164286Y-143183333D01*
X223211905Y-142992857D01*
X223259524Y-142897619D01*
X223307143Y-142850000D01*
X223402381Y-142802381D01*
X224354762Y-142802381D02*
X224450001Y-142802381D01*
X224545239Y-142850000D01*
X224592858Y-142897619D01*
X224640477Y-142992857D01*
X224688096Y-143183333D01*
X224688096Y-143421429D01*
X224640477Y-143611905D01*
X224592858Y-143707143D01*
X224545239Y-143754762D01*
X224450001Y-143802381D01*
X224354762Y-143802381D01*
X224259524Y-143754762D01*
X224211905Y-143707143D01*
X224164286Y-143611905D01*
X224116667Y-143421429D01*
X224116667Y-143183333D01*
X224164286Y-142992857D01*
X224211905Y-142897619D01*
X224259524Y-142850000D01*
X224354762Y-142802381D01*
M02*
