G04 #@! TF.FileFunction,Copper,L1,Top,Signal*
%FSLAX46Y46*%
G04 Gerber Fmt 4.6, Leading zero omitted, Abs format (unit mm)*
G04 Created by KiCad (PCBNEW (2015-01-16 BZR 5376)-product) date 3/8/2015 1:32:21 AM*
%MOMM*%
G01*
G04 APERTURE LIST*
%ADD10C,0.149860*%
%ADD11R,1.600000X2.000000*%
%ADD12R,1.000000X0.250000*%
%ADD13R,0.250000X1.000000*%
%ADD14R,2.000000X1.600000*%
%ADD15R,2.000000X1.700000*%
%ADD16R,1.998980X5.499100*%
%ADD17R,2.540000X0.635000*%
%ADD18R,5.207000X4.521200*%
%ADD19R,0.600000X1.550000*%
%ADD20R,6.350000X2.540000*%
%ADD21R,1.524000X4.318000*%
%ADD22R,1.500000X1.300000*%
%ADD23R,4.559300X0.990600*%
%ADD24R,0.990600X4.559300*%
%ADD25C,0.889000*%
%ADD26C,0.203200*%
%ADD27C,1.270000*%
%ADD28C,0.177800*%
G04 APERTURE END LIST*
D10*
D11*
X234200000Y-143550000D03*
X234200000Y-139550000D03*
D12*
X238250000Y-141050000D03*
X238250000Y-141550000D03*
X238250000Y-142050000D03*
X238250000Y-142550000D03*
X238250000Y-143050000D03*
X238250000Y-143550000D03*
X238250000Y-144050000D03*
X238250000Y-144550000D03*
X238250000Y-145050000D03*
X238250000Y-145550000D03*
X238250000Y-146050000D03*
X238250000Y-146550000D03*
X238250000Y-147050000D03*
X238250000Y-147550000D03*
X238250000Y-148050000D03*
X238250000Y-148550000D03*
D13*
X240200000Y-150500000D03*
X240700000Y-150500000D03*
X241200000Y-150500000D03*
X241700000Y-150500000D03*
X242200000Y-150500000D03*
X242700000Y-150500000D03*
X243200000Y-150500000D03*
X243700000Y-150500000D03*
X244200000Y-150500000D03*
X244700000Y-150500000D03*
X245200000Y-150500000D03*
X245700000Y-150500000D03*
X246200000Y-150500000D03*
X246700000Y-150500000D03*
X247200000Y-150500000D03*
X247700000Y-150500000D03*
D12*
X249650000Y-148550000D03*
X249650000Y-148050000D03*
X249650000Y-147550000D03*
X249650000Y-147050000D03*
X249650000Y-146550000D03*
X249650000Y-146050000D03*
X249650000Y-145550000D03*
X249650000Y-145050000D03*
X249650000Y-144550000D03*
X249650000Y-144050000D03*
X249650000Y-143550000D03*
X249650000Y-143050000D03*
X249650000Y-142550000D03*
X249650000Y-142050000D03*
X249650000Y-141550000D03*
X249650000Y-141050000D03*
D13*
X247700000Y-139100000D03*
X247200000Y-139100000D03*
X246700000Y-139100000D03*
X246200000Y-139100000D03*
X245700000Y-139100000D03*
X245200000Y-139100000D03*
X244700000Y-139100000D03*
X244200000Y-139100000D03*
X243700000Y-139100000D03*
X243200000Y-139100000D03*
X242700000Y-139100000D03*
X242200000Y-139100000D03*
X241700000Y-139100000D03*
X241200000Y-139100000D03*
X240700000Y-139100000D03*
X240200000Y-139100000D03*
D11*
X234200000Y-146300000D03*
X234200000Y-150300000D03*
X224700000Y-134550000D03*
X224700000Y-130550000D03*
D14*
X250450000Y-152800000D03*
X246450000Y-152800000D03*
D11*
X243950000Y-134550000D03*
X243950000Y-130550000D03*
X241200000Y-134550000D03*
X241200000Y-130550000D03*
X238450000Y-134550000D03*
X238450000Y-130550000D03*
X235700000Y-134550000D03*
X235700000Y-130550000D03*
X232950000Y-134550000D03*
X232950000Y-130550000D03*
X230200000Y-134550000D03*
X230200000Y-130550000D03*
X227450000Y-134550000D03*
X227450000Y-130550000D03*
D14*
X225700000Y-147800000D03*
X221700000Y-147800000D03*
X225700000Y-150550000D03*
X221700000Y-150550000D03*
D15*
X221600000Y-143800000D03*
X225600000Y-143800000D03*
X260950000Y-133550000D03*
X264950000Y-133550000D03*
X242450000Y-152800000D03*
X238450000Y-152800000D03*
D16*
X229950000Y-140101000D03*
X229950000Y-149499000D03*
D17*
X265950000Y-144550000D03*
X265950000Y-143280000D03*
X265950000Y-142010000D03*
X265950000Y-140740000D03*
X265950000Y-139470000D03*
X265950000Y-138200000D03*
X265950000Y-136930000D03*
X265950000Y-135660000D03*
D18*
X277748300Y-131659500D03*
X277748300Y-148233000D03*
D19*
X254545000Y-137000000D03*
X255815000Y-137000000D03*
X257085000Y-137000000D03*
X258355000Y-137000000D03*
X258355000Y-131600000D03*
X257085000Y-131600000D03*
X255815000Y-131600000D03*
X254545000Y-131600000D03*
D20*
X279700000Y-152550000D03*
D21*
X261200000Y-151550000D03*
X263700000Y-151550000D03*
X266200000Y-151550000D03*
X268700000Y-151550000D03*
X271200000Y-151550000D03*
X273700000Y-151550000D03*
D22*
X221350000Y-136800000D03*
X224050000Y-136800000D03*
X221350000Y-138800000D03*
X224050000Y-138800000D03*
D15*
X221450000Y-141050000D03*
X225450000Y-141050000D03*
D23*
X252920350Y-144934700D03*
X257479650Y-142394700D03*
X252920350Y-139854700D03*
X257479650Y-152554700D03*
X252920350Y-150014700D03*
X257479650Y-147474700D03*
D24*
X251954700Y-131270350D03*
X249414700Y-135829650D03*
X246874700Y-131270350D03*
D25*
X249200000Y-130550000D03*
X253450000Y-129800000D03*
X251950000Y-141050000D03*
X257450000Y-141050000D03*
X279600000Y-141800000D03*
X236400000Y-140000000D03*
X242400000Y-136800000D03*
X222200000Y-132050000D03*
X240700000Y-152050000D03*
X235200000Y-152550000D03*
X250450000Y-132550000D03*
X256450000Y-133300000D03*
X237770158Y-139429842D03*
X238600000Y-137800000D03*
X242450000Y-147550000D03*
X244450000Y-145550000D03*
X263800000Y-146800000D03*
X251600000Y-148000000D03*
X266800000Y-147800000D03*
X252950000Y-146907806D03*
X265700000Y-148550000D03*
X251600000Y-146907797D03*
X256450000Y-135050000D03*
X250950000Y-135300000D03*
X254450000Y-142300000D03*
X241700000Y-142800000D03*
X251200000Y-142050000D03*
X252950000Y-143800000D03*
X248200000Y-140300000D03*
X248200000Y-144050000D03*
X239895503Y-148055187D03*
X258950000Y-144300000D03*
X260700000Y-144300000D03*
X258950000Y-145550000D03*
X236950000Y-148800000D03*
X247200000Y-135050000D03*
X254950000Y-133300000D03*
D26*
X229950000Y-140101000D02*
X230751000Y-140101000D01*
X230751000Y-140101000D02*
X233700000Y-143050000D01*
X233700000Y-143050000D02*
X238250000Y-143050000D01*
X248479650Y-131270350D02*
X249200000Y-130550000D01*
X246874700Y-131270350D02*
X248479650Y-131270350D01*
X249650000Y-141550000D02*
X250450000Y-141550000D01*
X250950000Y-141050000D02*
X251950000Y-141050000D01*
X250450000Y-141550000D02*
X250950000Y-141050000D01*
X259810000Y-135660000D02*
X265950000Y-135660000D01*
X257355000Y-133205000D02*
X259810000Y-135660000D01*
X234200000Y-139550000D02*
X235950000Y-139550000D01*
X235950000Y-139550000D02*
X236400000Y-140000000D01*
X240700000Y-139100000D02*
X240700000Y-138500000D01*
X240700000Y-138500000D02*
X242400000Y-136800000D01*
X242450000Y-153300000D02*
X242450000Y-152800000D01*
X247200000Y-150500000D02*
X247200000Y-148800000D01*
X244950000Y-146550000D02*
X239450000Y-146550000D01*
X247200000Y-148800000D02*
X244950000Y-146550000D01*
X238250000Y-146550000D02*
X239450000Y-146550000D01*
X240700000Y-147800000D02*
X240700000Y-150500000D01*
X239450000Y-146550000D02*
X240700000Y-147800000D01*
X221700000Y-150550000D02*
X222050000Y-150550000D01*
X221700000Y-147800000D02*
X221700000Y-150550000D01*
X227450000Y-130550000D02*
X224700000Y-130550000D01*
X230200000Y-130550000D02*
X227450000Y-130550000D01*
X232950000Y-130550000D02*
X230200000Y-130550000D01*
X235700000Y-130550000D02*
X232950000Y-130550000D01*
X238450000Y-130550000D02*
X235700000Y-130550000D01*
X241200000Y-130550000D02*
X238450000Y-130550000D01*
X243950000Y-130550000D02*
X241200000Y-130550000D01*
X246450000Y-152800000D02*
X242450000Y-152800000D01*
X267560000Y-135660000D02*
X267950000Y-136050000D01*
X267950000Y-136050000D02*
X267950000Y-137800000D01*
X267950000Y-137800000D02*
X267550000Y-138200000D01*
X267550000Y-138200000D02*
X265950000Y-138200000D01*
X265950000Y-135660000D02*
X267560000Y-135660000D01*
X221600000Y-146996800D02*
X221700000Y-147800000D01*
X222904801Y-145691999D02*
X221600000Y-146996800D01*
X222904801Y-143445199D02*
X222904801Y-145691999D01*
X225300000Y-141050000D02*
X222904801Y-143445199D01*
X225450000Y-141050000D02*
X225300000Y-141050000D01*
X223700000Y-130550000D02*
X222200000Y-132050000D01*
X224700000Y-130550000D02*
X223700000Y-130550000D01*
X222950000Y-151800000D02*
X221700000Y-150550000D01*
X225700000Y-151800000D02*
X222950000Y-151800000D01*
X227200000Y-153300000D02*
X225700000Y-151800000D01*
X231200000Y-153300000D02*
X227200000Y-153300000D01*
X234200000Y-150300000D02*
X231200000Y-153300000D01*
X235200000Y-152550000D02*
X234200000Y-151550000D01*
X234200000Y-151550000D02*
X234200000Y-150300000D01*
X240700000Y-150500000D02*
X240700000Y-152050000D01*
X229950000Y-149499000D02*
X231001000Y-149499000D01*
X231001000Y-149499000D02*
X234200000Y-146300000D01*
X234200000Y-146300000D02*
X236950000Y-143550000D01*
X236950000Y-143550000D02*
X238250000Y-143550000D01*
X242200000Y-139800000D02*
X242200000Y-139100000D01*
X241700000Y-140300000D02*
X242200000Y-139800000D01*
X239700000Y-140300000D02*
X241700000Y-140300000D01*
X235450000Y-136050000D02*
X239700000Y-140300000D01*
X225950000Y-136050000D02*
X235450000Y-136050000D01*
X224700000Y-134800000D02*
X225950000Y-136050000D01*
X224700000Y-134550000D02*
X224700000Y-134800000D01*
X250450000Y-152800000D02*
X248950000Y-152800000D01*
X246700000Y-151300000D02*
X246700000Y-150500000D01*
X246950000Y-151550000D02*
X246700000Y-151300000D01*
X247700000Y-151550000D02*
X246950000Y-151550000D01*
X248950000Y-152800000D02*
X247700000Y-151550000D01*
X260080000Y-136930000D02*
X256450000Y-133300000D01*
X243950000Y-134550000D02*
X244953200Y-134550000D01*
X244953200Y-134550000D02*
X245202501Y-134300699D01*
X245202501Y-134300699D02*
X247624551Y-134300699D01*
X247624551Y-134300699D02*
X249374560Y-132550690D01*
X249374560Y-132550690D02*
X250450000Y-132550690D01*
X265950000Y-136930000D02*
X260080000Y-136930000D01*
X247700000Y-145300000D02*
X247302487Y-144902487D01*
X245450000Y-143050000D02*
X243450000Y-141050000D01*
X247302487Y-144902487D02*
X245450000Y-143050000D01*
X237770158Y-139429842D02*
X237770158Y-140570158D01*
X237770158Y-140570158D02*
X238250000Y-141050000D01*
X240200000Y-139100000D02*
X240200000Y-138725000D01*
X240200000Y-138725000D02*
X239275000Y-137800000D01*
X239275000Y-137800000D02*
X238600000Y-137800000D01*
X247700000Y-150500000D02*
X247700000Y-145300000D01*
X238250000Y-141050000D02*
X243450000Y-141050000D01*
X243450000Y-141050000D02*
X249650000Y-141050000D01*
X241200000Y-134550000D02*
X241200000Y-137050000D01*
X240200000Y-138050000D02*
X240200000Y-139100000D01*
X241200000Y-137050000D02*
X240200000Y-138050000D01*
X241200000Y-134550000D02*
X243950000Y-134550000D01*
X238450000Y-134550000D02*
X241200000Y-134550000D01*
X235700000Y-134550000D02*
X238450000Y-134550000D01*
X232950000Y-134550000D02*
X235700000Y-134550000D01*
X232950000Y-134550000D02*
X230200000Y-134550000D01*
X227450000Y-134550000D02*
X230200000Y-134550000D01*
X243950000Y-133300000D02*
X243950000Y-134550000D01*
X225450000Y-132800000D02*
X227450000Y-134550000D01*
X223200000Y-132800000D02*
X225450000Y-132800000D01*
X222950000Y-133050000D02*
X223200000Y-132800000D01*
X222950000Y-142700000D02*
X222950000Y-133050000D01*
X221600000Y-143800000D02*
X222950000Y-142700000D01*
X252954700Y-152554700D02*
X251700000Y-151300000D01*
X251700000Y-151300000D02*
X248500000Y-151300000D01*
X248500000Y-151300000D02*
X247700000Y-150500000D01*
X257479650Y-152554700D02*
X252954700Y-152554700D01*
X241200000Y-148800000D02*
X242450000Y-147550000D01*
X244450000Y-145550000D02*
X245450000Y-144550000D01*
X245450000Y-144550000D02*
X245450000Y-143050000D01*
X241200000Y-150500000D02*
X241200000Y-148800000D01*
X225700000Y-147800000D02*
X225700000Y-150550000D01*
X225600000Y-143800000D02*
X225700000Y-147800000D01*
X227950000Y-152800000D02*
X225700000Y-150550000D01*
X230950000Y-152800000D02*
X232700000Y-151050000D01*
X232700000Y-151050000D02*
X232700000Y-149300000D01*
X232700000Y-149300000D02*
X233950000Y-148050000D01*
X233950000Y-148050000D02*
X235450000Y-148050000D01*
X235450000Y-148050000D02*
X236450000Y-147050000D01*
X238250000Y-147050000D02*
X236450000Y-147050000D01*
X230950000Y-152800000D02*
X227950000Y-152800000D01*
X254545000Y-131600000D02*
X254545000Y-131205000D01*
X254545000Y-131205000D02*
X256200000Y-129550000D01*
X266200000Y-151550000D02*
X266200000Y-150153000D01*
X264997500Y-142010000D02*
X265950000Y-142010000D01*
X254545000Y-131600000D02*
X254545000Y-130955000D01*
X256200000Y-129550000D02*
X264450000Y-129550000D01*
X264450000Y-129550000D02*
X269700000Y-134800000D01*
X269700000Y-134800000D02*
X269700000Y-140050000D01*
X269700000Y-140050000D02*
X267740000Y-142010000D01*
X267740000Y-142010000D02*
X265950000Y-142010000D01*
X266200000Y-150550000D02*
X266200000Y-151550000D01*
X263050699Y-143956801D02*
X264997500Y-142010000D01*
X266200000Y-150550000D02*
X263050699Y-147300000D01*
X263050699Y-147300000D02*
X263050699Y-143956801D01*
X264428617Y-146800000D02*
X263800000Y-146800000D01*
X269597000Y-146800000D02*
X264428617Y-146800000D01*
X273700000Y-150153000D02*
X269597000Y-146800000D01*
X273700000Y-151550000D02*
X273700000Y-150153000D01*
X249650000Y-148050000D02*
X251550000Y-148050000D01*
X251550000Y-148050000D02*
X251600000Y-148000000D01*
X266800000Y-147800000D02*
X267244499Y-148244499D01*
X267244499Y-148244499D02*
X268541499Y-148244499D01*
X268541499Y-148244499D02*
X271200000Y-150153000D01*
X271200000Y-150153000D02*
X271200000Y-151550000D01*
X248946800Y-144550000D02*
X249650000Y-144550000D01*
X248845199Y-144651601D02*
X248946800Y-144550000D01*
X248906159Y-148979801D02*
X248845199Y-148918841D01*
X251729165Y-148979801D02*
X248906159Y-148979801D01*
X252950000Y-147758966D02*
X251729165Y-148979801D01*
X248845199Y-148918841D02*
X248845199Y-144651601D01*
X252950000Y-146907806D02*
X252950000Y-147758966D01*
X268700000Y-150693298D02*
X268700000Y-151550000D01*
X265700000Y-148550000D02*
X266450000Y-148550000D01*
X266450000Y-148550000D02*
X266700000Y-148800000D01*
X266700000Y-148800000D02*
X268200000Y-148800000D01*
X268200000Y-148800000D02*
X268700000Y-149300000D01*
X268700000Y-149300000D02*
X268700000Y-151550000D01*
X250957797Y-147550000D02*
X251600000Y-146907797D01*
X249650000Y-147550000D02*
X250957797Y-147550000D01*
X249414700Y-135829650D02*
X250420350Y-135829650D01*
X258355000Y-135955000D02*
X258355000Y-137000000D01*
X257450000Y-135050000D02*
X258355000Y-135955000D01*
X256450000Y-135050000D02*
X257450000Y-135050000D01*
X250420350Y-135829650D02*
X250950000Y-135300000D01*
X255450000Y-141300000D02*
X255700000Y-141300000D01*
X249650000Y-144050000D02*
X251200000Y-144050000D01*
X253950000Y-141300000D02*
X255450000Y-141300000D01*
X251200000Y-144050000D02*
X253950000Y-141300000D01*
X258355000Y-138645000D02*
X258355000Y-137000000D01*
X255700000Y-141300000D02*
X258355000Y-138645000D01*
X258355000Y-137000000D02*
X258355000Y-137645000D01*
X254545000Y-137000000D02*
X253900000Y-137000000D01*
X251954700Y-135054700D02*
X251954700Y-131270350D01*
X253900000Y-137000000D02*
X251954700Y-135054700D01*
X255700000Y-139300000D02*
X255700000Y-138800000D01*
X249650000Y-143550000D02*
X250950000Y-143550000D01*
X255700000Y-140300000D02*
X255700000Y-139300000D01*
X255200000Y-140800000D02*
X255700000Y-140300000D01*
X253700000Y-140800000D02*
X255200000Y-140800000D01*
X250950000Y-143550000D02*
X253700000Y-140800000D01*
X255700000Y-138800000D02*
X254545000Y-137645000D01*
X254545000Y-137645000D02*
X254545000Y-137000000D01*
X238250000Y-144050000D02*
X240450000Y-144050000D01*
X240450000Y-144050000D02*
X241700000Y-142800000D01*
X254544700Y-142394700D02*
X254450000Y-142300000D01*
X257479650Y-142394700D02*
X254544700Y-142394700D01*
X251150000Y-144550000D02*
X251400000Y-144800000D01*
X252950000Y-143800000D02*
X252920350Y-144270350D01*
X252920350Y-144270350D02*
X252920350Y-144934700D01*
X249650000Y-142050000D02*
X251200000Y-142050000D01*
X248160351Y-140260351D02*
X248200000Y-140300000D01*
X247700000Y-139100000D02*
X248160351Y-140260351D01*
X250437500Y-150014700D02*
X252920350Y-150014700D01*
X249366308Y-150014700D02*
X250437500Y-150014700D01*
X248200000Y-148848392D02*
X249366308Y-150014700D01*
X248200000Y-144050000D02*
X248200000Y-148848392D01*
X238250000Y-147550000D02*
X239390316Y-147550000D01*
X239390316Y-147550000D02*
X239895503Y-148055187D01*
X235950000Y-150050000D02*
X238450000Y-152800000D01*
X238250000Y-147550000D02*
X236950000Y-147550000D01*
X235950000Y-148550000D02*
X235950000Y-149300000D01*
X236950000Y-147550000D02*
X235950000Y-148550000D01*
X235950000Y-149300000D02*
X235950000Y-150050000D01*
D27*
X258950000Y-145550000D02*
X258950000Y-144300000D01*
X258950000Y-144300000D02*
X260700000Y-144300000D01*
X260700000Y-144300000D02*
X261200000Y-144800000D01*
X261200000Y-144800000D02*
X261200000Y-146050000D01*
X261200000Y-151550000D02*
X261200000Y-146050000D01*
D26*
X236950000Y-148646800D02*
X236950000Y-148800000D01*
X237546800Y-148050000D02*
X236950000Y-148646800D01*
X238250000Y-148050000D02*
X237546800Y-148050000D01*
X255815000Y-131600000D02*
X255815000Y-131185000D01*
X255815000Y-131185000D02*
X257043598Y-129956402D01*
X264950000Y-132300000D02*
X264950000Y-133550000D01*
X262606402Y-129956402D02*
X264950000Y-132300000D01*
X257043598Y-129956402D02*
X262606402Y-129956402D01*
X265200000Y-133550000D02*
X265200000Y-133050000D01*
X268010000Y-140740000D02*
X265950000Y-140740000D01*
X268950000Y-139800000D02*
X268010000Y-140740000D01*
X268950000Y-135050000D02*
X268950000Y-139800000D01*
X267450000Y-133550000D02*
X268950000Y-135050000D01*
X264950000Y-133550000D02*
X267450000Y-133550000D01*
X259512804Y-130362804D02*
X257637196Y-130362804D01*
X259512804Y-130362804D02*
X260950000Y-131800000D01*
X260950000Y-133550000D02*
X260950000Y-131800000D01*
X257637196Y-130362804D02*
X257085000Y-130915000D01*
X257085000Y-130915000D02*
X257085000Y-131600000D01*
X257085000Y-131600000D02*
X257085000Y-131165000D01*
X262200000Y-133550000D02*
X263450000Y-134800000D01*
X260950000Y-133550000D02*
X262200000Y-133550000D01*
X267780000Y-139470000D02*
X265950000Y-139470000D01*
X268450000Y-138800000D02*
X267780000Y-139470000D01*
X268450000Y-135300000D02*
X268450000Y-138800000D01*
X267950000Y-134800000D02*
X268450000Y-135300000D01*
X263450000Y-134800000D02*
X267950000Y-134800000D01*
X260950000Y-133550000D02*
X260200000Y-133550000D01*
X276321800Y-152550000D02*
X279700000Y-152550000D01*
X242200000Y-154013801D02*
X274857999Y-154013801D01*
X242163801Y-154013801D02*
X242200000Y-154013801D01*
X274857999Y-154013801D02*
X276321800Y-152550000D01*
X240913801Y-154013801D02*
X239950000Y-153050000D01*
X239950000Y-153050000D02*
X239950000Y-151600000D01*
X238250000Y-149850000D02*
X238250000Y-148550000D01*
X238250000Y-149850000D02*
X239950000Y-151600000D01*
X242200000Y-154013801D02*
X240913801Y-154013801D01*
X247200000Y-139100000D02*
X247200000Y-135050000D01*
X254950000Y-133300000D02*
X254950000Y-134658966D01*
X254950000Y-134658966D02*
X255815000Y-135523966D01*
X255815000Y-135523966D02*
X255815000Y-136021800D01*
X255815000Y-136021800D02*
X255815000Y-137000000D01*
X255815000Y-136165000D02*
X255815000Y-137000000D01*
X255815000Y-137000000D02*
X255815000Y-136525000D01*
X255815000Y-137000000D02*
X257085000Y-137000000D01*
X221450000Y-138900000D02*
X221350000Y-138800000D01*
X221450000Y-141050000D02*
X221450000Y-138900000D01*
X221350000Y-138800000D02*
X221350000Y-136800000D01*
X238179801Y-141479801D02*
X238250000Y-141550000D01*
X233095199Y-140793841D02*
X233781159Y-141479801D01*
X233095199Y-138445199D02*
X233095199Y-140793841D01*
X231200000Y-136550000D02*
X233095199Y-138445199D01*
X224300000Y-136550000D02*
X231200000Y-136550000D01*
X233781159Y-141479801D02*
X238179801Y-141479801D01*
X224050000Y-136800000D02*
X224300000Y-136550000D01*
X238179801Y-142120199D02*
X238250000Y-142050000D01*
X233846807Y-142120199D02*
X238179801Y-142120199D01*
X232688790Y-140962182D02*
X233846807Y-142120199D01*
X232688789Y-138613539D02*
X232688790Y-140962182D01*
X231031660Y-136956410D02*
X232688789Y-138613539D01*
X225993590Y-136956410D02*
X231031660Y-136956410D01*
X224150000Y-138800000D02*
X225993590Y-136956410D01*
X224050000Y-138800000D02*
X224150000Y-138800000D01*
D28*
G36*
X237562051Y-138718827D02*
X237353453Y-138805019D01*
X237146063Y-139012047D01*
X237033686Y-139282680D01*
X237033430Y-139575718D01*
X237145335Y-139846547D01*
X237352363Y-140053937D01*
X237376458Y-140063942D01*
X237376458Y-140570158D01*
X237406427Y-140720821D01*
X237473110Y-140820619D01*
X237452177Y-140925000D01*
X237452177Y-141086101D01*
X235266700Y-141086101D01*
X235266700Y-140603050D01*
X235266700Y-139781775D01*
X235266700Y-139318225D01*
X235266700Y-138496950D01*
X235226097Y-138398927D01*
X235151073Y-138323903D01*
X235053050Y-138283300D01*
X234946950Y-138283300D01*
X234431775Y-138283300D01*
X234365100Y-138349975D01*
X234365100Y-139384900D01*
X235200025Y-139384900D01*
X235266700Y-139318225D01*
X235266700Y-139781775D01*
X235200025Y-139715100D01*
X234365100Y-139715100D01*
X234365100Y-140750025D01*
X234431775Y-140816700D01*
X234946950Y-140816700D01*
X235053050Y-140816700D01*
X235151073Y-140776097D01*
X235226097Y-140701073D01*
X235266700Y-140603050D01*
X235266700Y-141086101D01*
X233944235Y-141086101D01*
X233674834Y-140816700D01*
X233968225Y-140816700D01*
X234034900Y-140750025D01*
X234034900Y-139715100D01*
X234014900Y-139715100D01*
X234014900Y-139384900D01*
X234034900Y-139384900D01*
X234034900Y-138349975D01*
X233968225Y-138283300D01*
X233453050Y-138283300D01*
X233451422Y-138283300D01*
X233373587Y-138166811D01*
X231650475Y-136443700D01*
X235286924Y-136443700D01*
X237562051Y-138718827D01*
X237562051Y-138718827D01*
G37*
X237562051Y-138718827D02*
X237353453Y-138805019D01*
X237146063Y-139012047D01*
X237033686Y-139282680D01*
X237033430Y-139575718D01*
X237145335Y-139846547D01*
X237352363Y-140053937D01*
X237376458Y-140063942D01*
X237376458Y-140570158D01*
X237406427Y-140720821D01*
X237473110Y-140820619D01*
X237452177Y-140925000D01*
X237452177Y-141086101D01*
X235266700Y-141086101D01*
X235266700Y-140603050D01*
X235266700Y-139781775D01*
X235266700Y-139318225D01*
X235266700Y-138496950D01*
X235226097Y-138398927D01*
X235151073Y-138323903D01*
X235053050Y-138283300D01*
X234946950Y-138283300D01*
X234431775Y-138283300D01*
X234365100Y-138349975D01*
X234365100Y-139384900D01*
X235200025Y-139384900D01*
X235266700Y-139318225D01*
X235266700Y-139781775D01*
X235200025Y-139715100D01*
X234365100Y-139715100D01*
X234365100Y-140750025D01*
X234431775Y-140816700D01*
X234946950Y-140816700D01*
X235053050Y-140816700D01*
X235151073Y-140776097D01*
X235226097Y-140701073D01*
X235266700Y-140603050D01*
X235266700Y-141086101D01*
X233944235Y-141086101D01*
X233674834Y-140816700D01*
X233968225Y-140816700D01*
X234034900Y-140750025D01*
X234034900Y-139715100D01*
X234014900Y-139715100D01*
X234014900Y-139384900D01*
X234034900Y-139384900D01*
X234034900Y-138349975D01*
X233968225Y-138283300D01*
X233453050Y-138283300D01*
X233451422Y-138283300D01*
X233373587Y-138166811D01*
X231650475Y-136443700D01*
X235286924Y-136443700D01*
X237562051Y-138718827D01*
G36*
X246806300Y-138302177D02*
X246575000Y-138302177D01*
X246463623Y-138323787D01*
X246450501Y-138332406D01*
X246439835Y-138325207D01*
X246325000Y-138302177D01*
X246075000Y-138302177D01*
X245963623Y-138323787D01*
X245950501Y-138332406D01*
X245939835Y-138325207D01*
X245825000Y-138302177D01*
X245575000Y-138302177D01*
X245463623Y-138323787D01*
X245450501Y-138332406D01*
X245439835Y-138325207D01*
X245325000Y-138302177D01*
X245075000Y-138302177D01*
X244963623Y-138323787D01*
X244950501Y-138332406D01*
X244939835Y-138325207D01*
X244825000Y-138302177D01*
X244575000Y-138302177D01*
X244463623Y-138323787D01*
X244450501Y-138332406D01*
X244439835Y-138325207D01*
X244325000Y-138302177D01*
X244075000Y-138302177D01*
X243963623Y-138323787D01*
X243950501Y-138332406D01*
X243939835Y-138325207D01*
X243825000Y-138302177D01*
X243575000Y-138302177D01*
X243463623Y-138323787D01*
X243450501Y-138332406D01*
X243439835Y-138325207D01*
X243325000Y-138302177D01*
X243075000Y-138302177D01*
X242963623Y-138323787D01*
X242950501Y-138332406D01*
X242939835Y-138325207D01*
X242825000Y-138302177D01*
X242575000Y-138302177D01*
X242463623Y-138323787D01*
X242450501Y-138332406D01*
X242439835Y-138325207D01*
X242325000Y-138302177D01*
X242075000Y-138302177D01*
X241963623Y-138323787D01*
X241950501Y-138332406D01*
X241939835Y-138325207D01*
X241825000Y-138302177D01*
X241575000Y-138302177D01*
X241463623Y-138323787D01*
X241450501Y-138332406D01*
X241439835Y-138325207D01*
X241325000Y-138302177D01*
X241075000Y-138302177D01*
X240963623Y-138323787D01*
X240921648Y-138351359D01*
X240878050Y-138333300D01*
X240829175Y-138333300D01*
X240762500Y-138399975D01*
X240762500Y-138934900D01*
X240777177Y-138934900D01*
X240777177Y-139265100D01*
X240762500Y-139265100D01*
X240762500Y-139800025D01*
X240829175Y-139866700D01*
X240878050Y-139866700D01*
X240921507Y-139848699D01*
X240960165Y-139874793D01*
X241075000Y-139897823D01*
X241325000Y-139897823D01*
X241436377Y-139876213D01*
X241449498Y-139867593D01*
X241460165Y-139874793D01*
X241550345Y-139892878D01*
X241536924Y-139906300D01*
X239863076Y-139906300D01*
X238493283Y-138536507D01*
X238745876Y-138536728D01*
X239016705Y-138424823D01*
X239180018Y-138261794D01*
X239777177Y-138858953D01*
X239777177Y-139600000D01*
X239798787Y-139711377D01*
X239863090Y-139809267D01*
X239960165Y-139874793D01*
X240075000Y-139897823D01*
X240325000Y-139897823D01*
X240436377Y-139876213D01*
X240478351Y-139848640D01*
X240521950Y-139866700D01*
X240570825Y-139866700D01*
X240637500Y-139800025D01*
X240637500Y-139265100D01*
X240622823Y-139265100D01*
X240622823Y-138934900D01*
X240637500Y-138934900D01*
X240637500Y-138399975D01*
X240593700Y-138356175D01*
X240593700Y-138333300D01*
X240593700Y-138213076D01*
X241478388Y-137328388D01*
X241563731Y-137200662D01*
X241593700Y-137050000D01*
X241593700Y-135847823D01*
X242000000Y-135847823D01*
X242111377Y-135826213D01*
X242209267Y-135761910D01*
X242274793Y-135664835D01*
X242297823Y-135550000D01*
X242297823Y-134943700D01*
X242852177Y-134943700D01*
X242852177Y-135550000D01*
X242873787Y-135661377D01*
X242938090Y-135759267D01*
X243035165Y-135824793D01*
X243150000Y-135847823D01*
X244750000Y-135847823D01*
X244861377Y-135826213D01*
X244959267Y-135761910D01*
X245024793Y-135664835D01*
X245047823Y-135550000D01*
X245047823Y-134924878D01*
X245103862Y-134913731D01*
X245103863Y-134913731D01*
X245231588Y-134828388D01*
X245365576Y-134694399D01*
X246550079Y-134694399D01*
X246463528Y-134902838D01*
X246463272Y-135195876D01*
X246575177Y-135466705D01*
X246782205Y-135674095D01*
X246806300Y-135684100D01*
X246806300Y-138302177D01*
X246806300Y-138302177D01*
G37*
X246806300Y-138302177D02*
X246575000Y-138302177D01*
X246463623Y-138323787D01*
X246450501Y-138332406D01*
X246439835Y-138325207D01*
X246325000Y-138302177D01*
X246075000Y-138302177D01*
X245963623Y-138323787D01*
X245950501Y-138332406D01*
X245939835Y-138325207D01*
X245825000Y-138302177D01*
X245575000Y-138302177D01*
X245463623Y-138323787D01*
X245450501Y-138332406D01*
X245439835Y-138325207D01*
X245325000Y-138302177D01*
X245075000Y-138302177D01*
X244963623Y-138323787D01*
X244950501Y-138332406D01*
X244939835Y-138325207D01*
X244825000Y-138302177D01*
X244575000Y-138302177D01*
X244463623Y-138323787D01*
X244450501Y-138332406D01*
X244439835Y-138325207D01*
X244325000Y-138302177D01*
X244075000Y-138302177D01*
X243963623Y-138323787D01*
X243950501Y-138332406D01*
X243939835Y-138325207D01*
X243825000Y-138302177D01*
X243575000Y-138302177D01*
X243463623Y-138323787D01*
X243450501Y-138332406D01*
X243439835Y-138325207D01*
X243325000Y-138302177D01*
X243075000Y-138302177D01*
X242963623Y-138323787D01*
X242950501Y-138332406D01*
X242939835Y-138325207D01*
X242825000Y-138302177D01*
X242575000Y-138302177D01*
X242463623Y-138323787D01*
X242450501Y-138332406D01*
X242439835Y-138325207D01*
X242325000Y-138302177D01*
X242075000Y-138302177D01*
X241963623Y-138323787D01*
X241950501Y-138332406D01*
X241939835Y-138325207D01*
X241825000Y-138302177D01*
X241575000Y-138302177D01*
X241463623Y-138323787D01*
X241450501Y-138332406D01*
X241439835Y-138325207D01*
X241325000Y-138302177D01*
X241075000Y-138302177D01*
X240963623Y-138323787D01*
X240921648Y-138351359D01*
X240878050Y-138333300D01*
X240829175Y-138333300D01*
X240762500Y-138399975D01*
X240762500Y-138934900D01*
X240777177Y-138934900D01*
X240777177Y-139265100D01*
X240762500Y-139265100D01*
X240762500Y-139800025D01*
X240829175Y-139866700D01*
X240878050Y-139866700D01*
X240921507Y-139848699D01*
X240960165Y-139874793D01*
X241075000Y-139897823D01*
X241325000Y-139897823D01*
X241436377Y-139876213D01*
X241449498Y-139867593D01*
X241460165Y-139874793D01*
X241550345Y-139892878D01*
X241536924Y-139906300D01*
X239863076Y-139906300D01*
X238493283Y-138536507D01*
X238745876Y-138536728D01*
X239016705Y-138424823D01*
X239180018Y-138261794D01*
X239777177Y-138858953D01*
X239777177Y-139600000D01*
X239798787Y-139711377D01*
X239863090Y-139809267D01*
X239960165Y-139874793D01*
X240075000Y-139897823D01*
X240325000Y-139897823D01*
X240436377Y-139876213D01*
X240478351Y-139848640D01*
X240521950Y-139866700D01*
X240570825Y-139866700D01*
X240637500Y-139800025D01*
X240637500Y-139265100D01*
X240622823Y-139265100D01*
X240622823Y-138934900D01*
X240637500Y-138934900D01*
X240637500Y-138399975D01*
X240593700Y-138356175D01*
X240593700Y-138333300D01*
X240593700Y-138213076D01*
X241478388Y-137328388D01*
X241563731Y-137200662D01*
X241593700Y-137050000D01*
X241593700Y-135847823D01*
X242000000Y-135847823D01*
X242111377Y-135826213D01*
X242209267Y-135761910D01*
X242274793Y-135664835D01*
X242297823Y-135550000D01*
X242297823Y-134943700D01*
X242852177Y-134943700D01*
X242852177Y-135550000D01*
X242873787Y-135661377D01*
X242938090Y-135759267D01*
X243035165Y-135824793D01*
X243150000Y-135847823D01*
X244750000Y-135847823D01*
X244861377Y-135826213D01*
X244959267Y-135761910D01*
X245024793Y-135664835D01*
X245047823Y-135550000D01*
X245047823Y-134924878D01*
X245103862Y-134913731D01*
X245103863Y-134913731D01*
X245231588Y-134828388D01*
X245365576Y-134694399D01*
X246550079Y-134694399D01*
X246463528Y-134902838D01*
X246463272Y-135195876D01*
X246575177Y-135466705D01*
X246782205Y-135674095D01*
X246806300Y-135684100D01*
X246806300Y-138302177D01*
G36*
X249156077Y-153620101D02*
X247716700Y-153620101D01*
X247716700Y-153546950D01*
X247716700Y-153031775D01*
X247650025Y-152965100D01*
X246615100Y-152965100D01*
X246615100Y-152985100D01*
X246284900Y-152985100D01*
X246284900Y-152965100D01*
X246284900Y-152634900D01*
X246284900Y-151799975D01*
X246218225Y-151733300D01*
X245396950Y-151733300D01*
X245298927Y-151773903D01*
X245223903Y-151848927D01*
X245183300Y-151946950D01*
X245183300Y-152053050D01*
X245183300Y-152568225D01*
X245249975Y-152634900D01*
X246284900Y-152634900D01*
X246284900Y-152965100D01*
X245249975Y-152965100D01*
X245183300Y-153031775D01*
X245183300Y-153546950D01*
X245183300Y-153620101D01*
X243716700Y-153620101D01*
X243716700Y-153596950D01*
X243716700Y-153031775D01*
X243716700Y-152568225D01*
X243716700Y-152003050D01*
X243716700Y-151896950D01*
X243676097Y-151798927D01*
X243601073Y-151723903D01*
X243503050Y-151683300D01*
X242681775Y-151683300D01*
X242615100Y-151749975D01*
X242615100Y-152634900D01*
X243650025Y-152634900D01*
X243716700Y-152568225D01*
X243716700Y-153031775D01*
X243650025Y-152965100D01*
X242615100Y-152965100D01*
X242615100Y-152985100D01*
X242284900Y-152985100D01*
X242284900Y-152965100D01*
X242284900Y-152634900D01*
X242284900Y-151749975D01*
X242218225Y-151683300D01*
X241396950Y-151683300D01*
X241298927Y-151723903D01*
X241223903Y-151798927D01*
X241183300Y-151896950D01*
X241183300Y-152003050D01*
X241183300Y-152568225D01*
X241249975Y-152634900D01*
X242284900Y-152634900D01*
X242284900Y-152965100D01*
X241249975Y-152965100D01*
X241183300Y-153031775D01*
X241183300Y-153596950D01*
X241183300Y-153620101D01*
X241076877Y-153620101D01*
X240343700Y-152886924D01*
X240343700Y-151600000D01*
X240329262Y-151527419D01*
X240315876Y-151454624D01*
X240314297Y-151452185D01*
X240313731Y-151449338D01*
X240272615Y-151387803D01*
X240232393Y-151325676D01*
X240205335Y-151297823D01*
X240325000Y-151297823D01*
X240436377Y-151276213D01*
X240478351Y-151248640D01*
X240521950Y-151266700D01*
X240570825Y-151266700D01*
X240637500Y-151200025D01*
X240637500Y-150665100D01*
X240622823Y-150665100D01*
X240622823Y-150334900D01*
X240637500Y-150334900D01*
X240637500Y-149799975D01*
X240570825Y-149733300D01*
X240521950Y-149733300D01*
X240478492Y-149751300D01*
X240439835Y-149725207D01*
X240325000Y-149702177D01*
X240075000Y-149702177D01*
X239963623Y-149723787D01*
X239865733Y-149788090D01*
X239800207Y-149885165D01*
X239777177Y-150000000D01*
X239777177Y-150857071D01*
X238643700Y-149690255D01*
X238643700Y-148972823D01*
X238750000Y-148972823D01*
X238861377Y-148951213D01*
X238959267Y-148886910D01*
X239024793Y-148789835D01*
X239047823Y-148675000D01*
X239047823Y-148425000D01*
X239026213Y-148313623D01*
X239017593Y-148300501D01*
X239024793Y-148289835D01*
X239047823Y-148175000D01*
X239047823Y-147943700D01*
X239158999Y-147943700D01*
X239158775Y-148201063D01*
X239270680Y-148471892D01*
X239477708Y-148679282D01*
X239748341Y-148791659D01*
X240041379Y-148791915D01*
X240312208Y-148680010D01*
X240519598Y-148472982D01*
X240631975Y-148202349D01*
X240632231Y-147909311D01*
X240520326Y-147638482D01*
X240313298Y-147431092D01*
X240042665Y-147318715D01*
X239749627Y-147318459D01*
X239725514Y-147328422D01*
X239668704Y-147271612D01*
X239540979Y-147186269D01*
X239390316Y-147156300D01*
X239047823Y-147156300D01*
X239047823Y-146925000D01*
X239026213Y-146813623D01*
X238998640Y-146771648D01*
X239016700Y-146728050D01*
X239016700Y-146679175D01*
X238950025Y-146612500D01*
X238415100Y-146612500D01*
X238415100Y-146627177D01*
X238084900Y-146627177D01*
X238084900Y-146612500D01*
X237549975Y-146612500D01*
X237506175Y-146656300D01*
X237483300Y-146656300D01*
X236450000Y-146656300D01*
X236299338Y-146686269D01*
X236171612Y-146771612D01*
X235286924Y-147656300D01*
X233950000Y-147656300D01*
X233799337Y-147686269D01*
X233671612Y-147771612D01*
X232421612Y-149021612D01*
X232336269Y-149149337D01*
X232306300Y-149300000D01*
X232306300Y-150886924D01*
X231247313Y-151945911D01*
X231247313Y-149798819D01*
X231279388Y-149777388D01*
X233458953Y-147597823D01*
X235000000Y-147597823D01*
X235111377Y-147576213D01*
X235209267Y-147511910D01*
X235274793Y-147414835D01*
X235297823Y-147300000D01*
X235297823Y-145758953D01*
X237113076Y-143943700D01*
X237452177Y-143943700D01*
X237452177Y-144175000D01*
X237473787Y-144286377D01*
X237482406Y-144299498D01*
X237475207Y-144310165D01*
X237452177Y-144425000D01*
X237452177Y-144675000D01*
X237473787Y-144786377D01*
X237482406Y-144799498D01*
X237475207Y-144810165D01*
X237452177Y-144925000D01*
X237452177Y-145175000D01*
X237473787Y-145286377D01*
X237482406Y-145299498D01*
X237475207Y-145310165D01*
X237452177Y-145425000D01*
X237452177Y-145675000D01*
X237473787Y-145786377D01*
X237482406Y-145799498D01*
X237475207Y-145810165D01*
X237452177Y-145925000D01*
X237452177Y-146175000D01*
X237473787Y-146286377D01*
X237501359Y-146328351D01*
X237483300Y-146371950D01*
X237483300Y-146420825D01*
X237549975Y-146487500D01*
X238084900Y-146487500D01*
X238084900Y-146472823D01*
X238415100Y-146472823D01*
X238415100Y-146487500D01*
X238950025Y-146487500D01*
X239016700Y-146420825D01*
X239016700Y-146371950D01*
X238998699Y-146328492D01*
X239024793Y-146289835D01*
X239047823Y-146175000D01*
X239047823Y-145925000D01*
X239026213Y-145813623D01*
X239017593Y-145800501D01*
X239024793Y-145789835D01*
X239047823Y-145675000D01*
X239047823Y-145425000D01*
X239026213Y-145313623D01*
X239017593Y-145300501D01*
X239024793Y-145289835D01*
X239047823Y-145175000D01*
X239047823Y-144925000D01*
X239026213Y-144813623D01*
X239017593Y-144800501D01*
X239024793Y-144789835D01*
X239047823Y-144675000D01*
X239047823Y-144443700D01*
X240450000Y-144443700D01*
X240600662Y-144413731D01*
X240600663Y-144413731D01*
X240728388Y-144328388D01*
X241529849Y-143526926D01*
X241552838Y-143536472D01*
X241845876Y-143536728D01*
X242116705Y-143424823D01*
X242324095Y-143217795D01*
X242436472Y-142947162D01*
X242436728Y-142654124D01*
X242324823Y-142383295D01*
X242117795Y-142175905D01*
X241847162Y-142063528D01*
X241554124Y-142063272D01*
X241283295Y-142175177D01*
X241075905Y-142382205D01*
X240963528Y-142652838D01*
X240963272Y-142945876D01*
X240973235Y-142969988D01*
X240286924Y-143656300D01*
X239047823Y-143656300D01*
X239047823Y-143425000D01*
X239026213Y-143313623D01*
X239017593Y-143300501D01*
X239024793Y-143289835D01*
X239047823Y-143175000D01*
X239047823Y-142925000D01*
X239026213Y-142813623D01*
X239017593Y-142800501D01*
X239024793Y-142789835D01*
X239047823Y-142675000D01*
X239047823Y-142425000D01*
X239026213Y-142313623D01*
X239017593Y-142300501D01*
X239024793Y-142289835D01*
X239047823Y-142175000D01*
X239047823Y-141925000D01*
X239026213Y-141813623D01*
X239017593Y-141800501D01*
X239024793Y-141789835D01*
X239047823Y-141675000D01*
X239047823Y-141443700D01*
X243286924Y-141443700D01*
X245056300Y-143213076D01*
X245056300Y-144386924D01*
X244620150Y-144823073D01*
X244597162Y-144813528D01*
X244304124Y-144813272D01*
X244033295Y-144925177D01*
X243825905Y-145132205D01*
X243713528Y-145402838D01*
X243713272Y-145695876D01*
X243825177Y-145966705D01*
X244032205Y-146174095D01*
X244302838Y-146286472D01*
X244595876Y-146286728D01*
X244866705Y-146174823D01*
X245074095Y-145967795D01*
X245186472Y-145697162D01*
X245186728Y-145404124D01*
X245176764Y-145380011D01*
X245728388Y-144828388D01*
X245813731Y-144700662D01*
X245843700Y-144550000D01*
X245843700Y-144000476D01*
X247024099Y-145180875D01*
X247306300Y-145463076D01*
X247306300Y-149733300D01*
X247306300Y-149756175D01*
X247262500Y-149799975D01*
X247262500Y-150334900D01*
X247277177Y-150334900D01*
X247277177Y-150665100D01*
X247262500Y-150665100D01*
X247262500Y-150685100D01*
X247137500Y-150685100D01*
X247137500Y-150665100D01*
X247122823Y-150665100D01*
X247122823Y-150334900D01*
X247137500Y-150334900D01*
X247137500Y-149799975D01*
X247070825Y-149733300D01*
X247021950Y-149733300D01*
X246978492Y-149751300D01*
X246939835Y-149725207D01*
X246825000Y-149702177D01*
X246575000Y-149702177D01*
X246463623Y-149723787D01*
X246450501Y-149732406D01*
X246439835Y-149725207D01*
X246325000Y-149702177D01*
X246075000Y-149702177D01*
X245963623Y-149723787D01*
X245950501Y-149732406D01*
X245939835Y-149725207D01*
X245825000Y-149702177D01*
X245575000Y-149702177D01*
X245463623Y-149723787D01*
X245450501Y-149732406D01*
X245439835Y-149725207D01*
X245325000Y-149702177D01*
X245075000Y-149702177D01*
X244963623Y-149723787D01*
X244950501Y-149732406D01*
X244939835Y-149725207D01*
X244825000Y-149702177D01*
X244575000Y-149702177D01*
X244463623Y-149723787D01*
X244450501Y-149732406D01*
X244439835Y-149725207D01*
X244325000Y-149702177D01*
X244075000Y-149702177D01*
X243963623Y-149723787D01*
X243950501Y-149732406D01*
X243939835Y-149725207D01*
X243825000Y-149702177D01*
X243575000Y-149702177D01*
X243463623Y-149723787D01*
X243450501Y-149732406D01*
X243439835Y-149725207D01*
X243325000Y-149702177D01*
X243075000Y-149702177D01*
X242963623Y-149723787D01*
X242950501Y-149732406D01*
X242939835Y-149725207D01*
X242825000Y-149702177D01*
X242575000Y-149702177D01*
X242463623Y-149723787D01*
X242450501Y-149732406D01*
X242439835Y-149725207D01*
X242325000Y-149702177D01*
X242075000Y-149702177D01*
X241963623Y-149723787D01*
X241950501Y-149732406D01*
X241939835Y-149725207D01*
X241825000Y-149702177D01*
X241593700Y-149702177D01*
X241593700Y-148963076D01*
X242279849Y-148276926D01*
X242302838Y-148286472D01*
X242595876Y-148286728D01*
X242866705Y-148174823D01*
X243074095Y-147967795D01*
X243186472Y-147697162D01*
X243186728Y-147404124D01*
X243074823Y-147133295D01*
X242867795Y-146925905D01*
X242597162Y-146813528D01*
X242304124Y-146813272D01*
X242033295Y-146925177D01*
X241825905Y-147132205D01*
X241713528Y-147402838D01*
X241713272Y-147695876D01*
X241723235Y-147719988D01*
X240921612Y-148521612D01*
X240836269Y-148649337D01*
X240806300Y-148800000D01*
X240806300Y-149733300D01*
X240806300Y-149756175D01*
X240762500Y-149799975D01*
X240762500Y-150334900D01*
X240777177Y-150334900D01*
X240777177Y-150665100D01*
X240762500Y-150665100D01*
X240762500Y-151200025D01*
X240829175Y-151266700D01*
X240878050Y-151266700D01*
X240921507Y-151248699D01*
X240960165Y-151274793D01*
X241075000Y-151297823D01*
X241325000Y-151297823D01*
X241436377Y-151276213D01*
X241449498Y-151267593D01*
X241460165Y-151274793D01*
X241575000Y-151297823D01*
X241825000Y-151297823D01*
X241936377Y-151276213D01*
X241949498Y-151267593D01*
X241960165Y-151274793D01*
X242075000Y-151297823D01*
X242325000Y-151297823D01*
X242436377Y-151276213D01*
X242449498Y-151267593D01*
X242460165Y-151274793D01*
X242575000Y-151297823D01*
X242825000Y-151297823D01*
X242936377Y-151276213D01*
X242949498Y-151267593D01*
X242960165Y-151274793D01*
X243075000Y-151297823D01*
X243325000Y-151297823D01*
X243436377Y-151276213D01*
X243449498Y-151267593D01*
X243460165Y-151274793D01*
X243575000Y-151297823D01*
X243825000Y-151297823D01*
X243936377Y-151276213D01*
X243949498Y-151267593D01*
X243960165Y-151274793D01*
X244075000Y-151297823D01*
X244325000Y-151297823D01*
X244436377Y-151276213D01*
X244449498Y-151267593D01*
X244460165Y-151274793D01*
X244575000Y-151297823D01*
X244825000Y-151297823D01*
X244936377Y-151276213D01*
X244949498Y-151267593D01*
X244960165Y-151274793D01*
X245075000Y-151297823D01*
X245325000Y-151297823D01*
X245436377Y-151276213D01*
X245449498Y-151267593D01*
X245460165Y-151274793D01*
X245575000Y-151297823D01*
X245825000Y-151297823D01*
X245936377Y-151276213D01*
X245949498Y-151267593D01*
X245960165Y-151274793D01*
X246075000Y-151297823D01*
X246306300Y-151297823D01*
X246306300Y-151300000D01*
X246336269Y-151450663D01*
X246421612Y-151578388D01*
X246629149Y-151785925D01*
X246615100Y-151799975D01*
X246615100Y-152634900D01*
X247650025Y-152634900D01*
X247716700Y-152568225D01*
X247716700Y-152123476D01*
X248671612Y-153078388D01*
X248799337Y-153163731D01*
X248799338Y-153163731D01*
X248950000Y-153193700D01*
X249152177Y-153193700D01*
X249152177Y-153600000D01*
X249156077Y-153620101D01*
X249156077Y-153620101D01*
G37*
X249156077Y-153620101D02*
X247716700Y-153620101D01*
X247716700Y-153546950D01*
X247716700Y-153031775D01*
X247650025Y-152965100D01*
X246615100Y-152965100D01*
X246615100Y-152985100D01*
X246284900Y-152985100D01*
X246284900Y-152965100D01*
X246284900Y-152634900D01*
X246284900Y-151799975D01*
X246218225Y-151733300D01*
X245396950Y-151733300D01*
X245298927Y-151773903D01*
X245223903Y-151848927D01*
X245183300Y-151946950D01*
X245183300Y-152053050D01*
X245183300Y-152568225D01*
X245249975Y-152634900D01*
X246284900Y-152634900D01*
X246284900Y-152965100D01*
X245249975Y-152965100D01*
X245183300Y-153031775D01*
X245183300Y-153546950D01*
X245183300Y-153620101D01*
X243716700Y-153620101D01*
X243716700Y-153596950D01*
X243716700Y-153031775D01*
X243716700Y-152568225D01*
X243716700Y-152003050D01*
X243716700Y-151896950D01*
X243676097Y-151798927D01*
X243601073Y-151723903D01*
X243503050Y-151683300D01*
X242681775Y-151683300D01*
X242615100Y-151749975D01*
X242615100Y-152634900D01*
X243650025Y-152634900D01*
X243716700Y-152568225D01*
X243716700Y-153031775D01*
X243650025Y-152965100D01*
X242615100Y-152965100D01*
X242615100Y-152985100D01*
X242284900Y-152985100D01*
X242284900Y-152965100D01*
X242284900Y-152634900D01*
X242284900Y-151749975D01*
X242218225Y-151683300D01*
X241396950Y-151683300D01*
X241298927Y-151723903D01*
X241223903Y-151798927D01*
X241183300Y-151896950D01*
X241183300Y-152003050D01*
X241183300Y-152568225D01*
X241249975Y-152634900D01*
X242284900Y-152634900D01*
X242284900Y-152965100D01*
X241249975Y-152965100D01*
X241183300Y-153031775D01*
X241183300Y-153596950D01*
X241183300Y-153620101D01*
X241076877Y-153620101D01*
X240343700Y-152886924D01*
X240343700Y-151600000D01*
X240329262Y-151527419D01*
X240315876Y-151454624D01*
X240314297Y-151452185D01*
X240313731Y-151449338D01*
X240272615Y-151387803D01*
X240232393Y-151325676D01*
X240205335Y-151297823D01*
X240325000Y-151297823D01*
X240436377Y-151276213D01*
X240478351Y-151248640D01*
X240521950Y-151266700D01*
X240570825Y-151266700D01*
X240637500Y-151200025D01*
X240637500Y-150665100D01*
X240622823Y-150665100D01*
X240622823Y-150334900D01*
X240637500Y-150334900D01*
X240637500Y-149799975D01*
X240570825Y-149733300D01*
X240521950Y-149733300D01*
X240478492Y-149751300D01*
X240439835Y-149725207D01*
X240325000Y-149702177D01*
X240075000Y-149702177D01*
X239963623Y-149723787D01*
X239865733Y-149788090D01*
X239800207Y-149885165D01*
X239777177Y-150000000D01*
X239777177Y-150857071D01*
X238643700Y-149690255D01*
X238643700Y-148972823D01*
X238750000Y-148972823D01*
X238861377Y-148951213D01*
X238959267Y-148886910D01*
X239024793Y-148789835D01*
X239047823Y-148675000D01*
X239047823Y-148425000D01*
X239026213Y-148313623D01*
X239017593Y-148300501D01*
X239024793Y-148289835D01*
X239047823Y-148175000D01*
X239047823Y-147943700D01*
X239158999Y-147943700D01*
X239158775Y-148201063D01*
X239270680Y-148471892D01*
X239477708Y-148679282D01*
X239748341Y-148791659D01*
X240041379Y-148791915D01*
X240312208Y-148680010D01*
X240519598Y-148472982D01*
X240631975Y-148202349D01*
X240632231Y-147909311D01*
X240520326Y-147638482D01*
X240313298Y-147431092D01*
X240042665Y-147318715D01*
X239749627Y-147318459D01*
X239725514Y-147328422D01*
X239668704Y-147271612D01*
X239540979Y-147186269D01*
X239390316Y-147156300D01*
X239047823Y-147156300D01*
X239047823Y-146925000D01*
X239026213Y-146813623D01*
X238998640Y-146771648D01*
X239016700Y-146728050D01*
X239016700Y-146679175D01*
X238950025Y-146612500D01*
X238415100Y-146612500D01*
X238415100Y-146627177D01*
X238084900Y-146627177D01*
X238084900Y-146612500D01*
X237549975Y-146612500D01*
X237506175Y-146656300D01*
X237483300Y-146656300D01*
X236450000Y-146656300D01*
X236299338Y-146686269D01*
X236171612Y-146771612D01*
X235286924Y-147656300D01*
X233950000Y-147656300D01*
X233799337Y-147686269D01*
X233671612Y-147771612D01*
X232421612Y-149021612D01*
X232336269Y-149149337D01*
X232306300Y-149300000D01*
X232306300Y-150886924D01*
X231247313Y-151945911D01*
X231247313Y-149798819D01*
X231279388Y-149777388D01*
X233458953Y-147597823D01*
X235000000Y-147597823D01*
X235111377Y-147576213D01*
X235209267Y-147511910D01*
X235274793Y-147414835D01*
X235297823Y-147300000D01*
X235297823Y-145758953D01*
X237113076Y-143943700D01*
X237452177Y-143943700D01*
X237452177Y-144175000D01*
X237473787Y-144286377D01*
X237482406Y-144299498D01*
X237475207Y-144310165D01*
X237452177Y-144425000D01*
X237452177Y-144675000D01*
X237473787Y-144786377D01*
X237482406Y-144799498D01*
X237475207Y-144810165D01*
X237452177Y-144925000D01*
X237452177Y-145175000D01*
X237473787Y-145286377D01*
X237482406Y-145299498D01*
X237475207Y-145310165D01*
X237452177Y-145425000D01*
X237452177Y-145675000D01*
X237473787Y-145786377D01*
X237482406Y-145799498D01*
X237475207Y-145810165D01*
X237452177Y-145925000D01*
X237452177Y-146175000D01*
X237473787Y-146286377D01*
X237501359Y-146328351D01*
X237483300Y-146371950D01*
X237483300Y-146420825D01*
X237549975Y-146487500D01*
X238084900Y-146487500D01*
X238084900Y-146472823D01*
X238415100Y-146472823D01*
X238415100Y-146487500D01*
X238950025Y-146487500D01*
X239016700Y-146420825D01*
X239016700Y-146371950D01*
X238998699Y-146328492D01*
X239024793Y-146289835D01*
X239047823Y-146175000D01*
X239047823Y-145925000D01*
X239026213Y-145813623D01*
X239017593Y-145800501D01*
X239024793Y-145789835D01*
X239047823Y-145675000D01*
X239047823Y-145425000D01*
X239026213Y-145313623D01*
X239017593Y-145300501D01*
X239024793Y-145289835D01*
X239047823Y-145175000D01*
X239047823Y-144925000D01*
X239026213Y-144813623D01*
X239017593Y-144800501D01*
X239024793Y-144789835D01*
X239047823Y-144675000D01*
X239047823Y-144443700D01*
X240450000Y-144443700D01*
X240600662Y-144413731D01*
X240600663Y-144413731D01*
X240728388Y-144328388D01*
X241529849Y-143526926D01*
X241552838Y-143536472D01*
X241845876Y-143536728D01*
X242116705Y-143424823D01*
X242324095Y-143217795D01*
X242436472Y-142947162D01*
X242436728Y-142654124D01*
X242324823Y-142383295D01*
X242117795Y-142175905D01*
X241847162Y-142063528D01*
X241554124Y-142063272D01*
X241283295Y-142175177D01*
X241075905Y-142382205D01*
X240963528Y-142652838D01*
X240963272Y-142945876D01*
X240973235Y-142969988D01*
X240286924Y-143656300D01*
X239047823Y-143656300D01*
X239047823Y-143425000D01*
X239026213Y-143313623D01*
X239017593Y-143300501D01*
X239024793Y-143289835D01*
X239047823Y-143175000D01*
X239047823Y-142925000D01*
X239026213Y-142813623D01*
X239017593Y-142800501D01*
X239024793Y-142789835D01*
X239047823Y-142675000D01*
X239047823Y-142425000D01*
X239026213Y-142313623D01*
X239017593Y-142300501D01*
X239024793Y-142289835D01*
X239047823Y-142175000D01*
X239047823Y-141925000D01*
X239026213Y-141813623D01*
X239017593Y-141800501D01*
X239024793Y-141789835D01*
X239047823Y-141675000D01*
X239047823Y-141443700D01*
X243286924Y-141443700D01*
X245056300Y-143213076D01*
X245056300Y-144386924D01*
X244620150Y-144823073D01*
X244597162Y-144813528D01*
X244304124Y-144813272D01*
X244033295Y-144925177D01*
X243825905Y-145132205D01*
X243713528Y-145402838D01*
X243713272Y-145695876D01*
X243825177Y-145966705D01*
X244032205Y-146174095D01*
X244302838Y-146286472D01*
X244595876Y-146286728D01*
X244866705Y-146174823D01*
X245074095Y-145967795D01*
X245186472Y-145697162D01*
X245186728Y-145404124D01*
X245176764Y-145380011D01*
X245728388Y-144828388D01*
X245813731Y-144700662D01*
X245843700Y-144550000D01*
X245843700Y-144000476D01*
X247024099Y-145180875D01*
X247306300Y-145463076D01*
X247306300Y-149733300D01*
X247306300Y-149756175D01*
X247262500Y-149799975D01*
X247262500Y-150334900D01*
X247277177Y-150334900D01*
X247277177Y-150665100D01*
X247262500Y-150665100D01*
X247262500Y-150685100D01*
X247137500Y-150685100D01*
X247137500Y-150665100D01*
X247122823Y-150665100D01*
X247122823Y-150334900D01*
X247137500Y-150334900D01*
X247137500Y-149799975D01*
X247070825Y-149733300D01*
X247021950Y-149733300D01*
X246978492Y-149751300D01*
X246939835Y-149725207D01*
X246825000Y-149702177D01*
X246575000Y-149702177D01*
X246463623Y-149723787D01*
X246450501Y-149732406D01*
X246439835Y-149725207D01*
X246325000Y-149702177D01*
X246075000Y-149702177D01*
X245963623Y-149723787D01*
X245950501Y-149732406D01*
X245939835Y-149725207D01*
X245825000Y-149702177D01*
X245575000Y-149702177D01*
X245463623Y-149723787D01*
X245450501Y-149732406D01*
X245439835Y-149725207D01*
X245325000Y-149702177D01*
X245075000Y-149702177D01*
X244963623Y-149723787D01*
X244950501Y-149732406D01*
X244939835Y-149725207D01*
X244825000Y-149702177D01*
X244575000Y-149702177D01*
X244463623Y-149723787D01*
X244450501Y-149732406D01*
X244439835Y-149725207D01*
X244325000Y-149702177D01*
X244075000Y-149702177D01*
X243963623Y-149723787D01*
X243950501Y-149732406D01*
X243939835Y-149725207D01*
X243825000Y-149702177D01*
X243575000Y-149702177D01*
X243463623Y-149723787D01*
X243450501Y-149732406D01*
X243439835Y-149725207D01*
X243325000Y-149702177D01*
X243075000Y-149702177D01*
X242963623Y-149723787D01*
X242950501Y-149732406D01*
X242939835Y-149725207D01*
X242825000Y-149702177D01*
X242575000Y-149702177D01*
X242463623Y-149723787D01*
X242450501Y-149732406D01*
X242439835Y-149725207D01*
X242325000Y-149702177D01*
X242075000Y-149702177D01*
X241963623Y-149723787D01*
X241950501Y-149732406D01*
X241939835Y-149725207D01*
X241825000Y-149702177D01*
X241593700Y-149702177D01*
X241593700Y-148963076D01*
X242279849Y-148276926D01*
X242302838Y-148286472D01*
X242595876Y-148286728D01*
X242866705Y-148174823D01*
X243074095Y-147967795D01*
X243186472Y-147697162D01*
X243186728Y-147404124D01*
X243074823Y-147133295D01*
X242867795Y-146925905D01*
X242597162Y-146813528D01*
X242304124Y-146813272D01*
X242033295Y-146925177D01*
X241825905Y-147132205D01*
X241713528Y-147402838D01*
X241713272Y-147695876D01*
X241723235Y-147719988D01*
X240921612Y-148521612D01*
X240836269Y-148649337D01*
X240806300Y-148800000D01*
X240806300Y-149733300D01*
X240806300Y-149756175D01*
X240762500Y-149799975D01*
X240762500Y-150334900D01*
X240777177Y-150334900D01*
X240777177Y-150665100D01*
X240762500Y-150665100D01*
X240762500Y-151200025D01*
X240829175Y-151266700D01*
X240878050Y-151266700D01*
X240921507Y-151248699D01*
X240960165Y-151274793D01*
X241075000Y-151297823D01*
X241325000Y-151297823D01*
X241436377Y-151276213D01*
X241449498Y-151267593D01*
X241460165Y-151274793D01*
X241575000Y-151297823D01*
X241825000Y-151297823D01*
X241936377Y-151276213D01*
X241949498Y-151267593D01*
X241960165Y-151274793D01*
X242075000Y-151297823D01*
X242325000Y-151297823D01*
X242436377Y-151276213D01*
X242449498Y-151267593D01*
X242460165Y-151274793D01*
X242575000Y-151297823D01*
X242825000Y-151297823D01*
X242936377Y-151276213D01*
X242949498Y-151267593D01*
X242960165Y-151274793D01*
X243075000Y-151297823D01*
X243325000Y-151297823D01*
X243436377Y-151276213D01*
X243449498Y-151267593D01*
X243460165Y-151274793D01*
X243575000Y-151297823D01*
X243825000Y-151297823D01*
X243936377Y-151276213D01*
X243949498Y-151267593D01*
X243960165Y-151274793D01*
X244075000Y-151297823D01*
X244325000Y-151297823D01*
X244436377Y-151276213D01*
X244449498Y-151267593D01*
X244460165Y-151274793D01*
X244575000Y-151297823D01*
X244825000Y-151297823D01*
X244936377Y-151276213D01*
X244949498Y-151267593D01*
X244960165Y-151274793D01*
X245075000Y-151297823D01*
X245325000Y-151297823D01*
X245436377Y-151276213D01*
X245449498Y-151267593D01*
X245460165Y-151274793D01*
X245575000Y-151297823D01*
X245825000Y-151297823D01*
X245936377Y-151276213D01*
X245949498Y-151267593D01*
X245960165Y-151274793D01*
X246075000Y-151297823D01*
X246306300Y-151297823D01*
X246306300Y-151300000D01*
X246336269Y-151450663D01*
X246421612Y-151578388D01*
X246629149Y-151785925D01*
X246615100Y-151799975D01*
X246615100Y-152634900D01*
X247650025Y-152634900D01*
X247716700Y-152568225D01*
X247716700Y-152123476D01*
X248671612Y-153078388D01*
X248799337Y-153163731D01*
X248799338Y-153163731D01*
X248950000Y-153193700D01*
X249152177Y-153193700D01*
X249152177Y-153600000D01*
X249156077Y-153620101D01*
G36*
X251161577Y-132343254D02*
X251074823Y-132133295D01*
X250867795Y-131925905D01*
X250597162Y-131813528D01*
X250304124Y-131813272D01*
X250033295Y-131925177D01*
X249825905Y-132132205D01*
X249815613Y-132156990D01*
X249374560Y-132156990D01*
X249223898Y-132186959D01*
X249096172Y-132272302D01*
X247636700Y-133731774D01*
X247636700Y-133603050D01*
X247636700Y-133496950D01*
X247636700Y-131502125D01*
X247570025Y-131435450D01*
X247039800Y-131435450D01*
X247039800Y-133750025D01*
X247106475Y-133816700D01*
X247423050Y-133816700D01*
X247521073Y-133776097D01*
X247596097Y-133701073D01*
X247636700Y-133603050D01*
X247636700Y-133731774D01*
X247461475Y-133906999D01*
X246709600Y-133906999D01*
X246709600Y-133750025D01*
X246709600Y-131435450D01*
X246179375Y-131435450D01*
X246112700Y-131502125D01*
X246112700Y-133496950D01*
X246112700Y-133603050D01*
X246153303Y-133701073D01*
X246228327Y-133776097D01*
X246326350Y-133816700D01*
X246642925Y-133816700D01*
X246709600Y-133750025D01*
X246709600Y-133906999D01*
X245202501Y-133906999D01*
X245051839Y-133936968D01*
X245047823Y-133939651D01*
X245047823Y-133550000D01*
X245026213Y-133438623D01*
X245016700Y-133424141D01*
X245016700Y-131603050D01*
X245016700Y-130781775D01*
X245016700Y-130318225D01*
X245016700Y-129496950D01*
X244976097Y-129398927D01*
X244901073Y-129323903D01*
X244803050Y-129283300D01*
X244696950Y-129283300D01*
X244181775Y-129283300D01*
X244115100Y-129349975D01*
X244115100Y-130384900D01*
X244950025Y-130384900D01*
X245016700Y-130318225D01*
X245016700Y-130781775D01*
X244950025Y-130715100D01*
X244115100Y-130715100D01*
X244115100Y-131750025D01*
X244181775Y-131816700D01*
X244696950Y-131816700D01*
X244803050Y-131816700D01*
X244901073Y-131776097D01*
X244976097Y-131701073D01*
X245016700Y-131603050D01*
X245016700Y-133424141D01*
X244961910Y-133340733D01*
X244864835Y-133275207D01*
X244750000Y-133252177D01*
X244334187Y-133252177D01*
X244313731Y-133149338D01*
X244228388Y-133021612D01*
X244100662Y-132936269D01*
X243950000Y-132906300D01*
X243799338Y-132936269D01*
X243784900Y-132945916D01*
X243784900Y-131750025D01*
X243784900Y-130715100D01*
X243784900Y-130384900D01*
X243784900Y-129349975D01*
X243718225Y-129283300D01*
X243203050Y-129283300D01*
X243096950Y-129283300D01*
X242998927Y-129323903D01*
X242923903Y-129398927D01*
X242883300Y-129496950D01*
X242883300Y-130318225D01*
X242949975Y-130384900D01*
X243784900Y-130384900D01*
X243784900Y-130715100D01*
X242949975Y-130715100D01*
X242883300Y-130781775D01*
X242883300Y-131603050D01*
X242923903Y-131701073D01*
X242998927Y-131776097D01*
X243096950Y-131816700D01*
X243203050Y-131816700D01*
X243718225Y-131816700D01*
X243784900Y-131750025D01*
X243784900Y-132945916D01*
X243671612Y-133021612D01*
X243586269Y-133149338D01*
X243565812Y-133252177D01*
X243150000Y-133252177D01*
X243038623Y-133273787D01*
X242940733Y-133338090D01*
X242875207Y-133435165D01*
X242852177Y-133550000D01*
X242852177Y-134156300D01*
X242297823Y-134156300D01*
X242297823Y-133550000D01*
X242276213Y-133438623D01*
X242266700Y-133424141D01*
X242266700Y-131603050D01*
X242266700Y-130781775D01*
X242266700Y-130318225D01*
X242266700Y-129496950D01*
X242226097Y-129398927D01*
X242151073Y-129323903D01*
X242053050Y-129283300D01*
X241946950Y-129283300D01*
X241431775Y-129283300D01*
X241365100Y-129349975D01*
X241365100Y-130384900D01*
X242200025Y-130384900D01*
X242266700Y-130318225D01*
X242266700Y-130781775D01*
X242200025Y-130715100D01*
X241365100Y-130715100D01*
X241365100Y-131750025D01*
X241431775Y-131816700D01*
X241946950Y-131816700D01*
X242053050Y-131816700D01*
X242151073Y-131776097D01*
X242226097Y-131701073D01*
X242266700Y-131603050D01*
X242266700Y-133424141D01*
X242211910Y-133340733D01*
X242114835Y-133275207D01*
X242000000Y-133252177D01*
X241034900Y-133252177D01*
X241034900Y-131750025D01*
X241034900Y-130715100D01*
X241034900Y-130384900D01*
X241034900Y-129349975D01*
X240968225Y-129283300D01*
X240453050Y-129283300D01*
X240346950Y-129283300D01*
X240248927Y-129323903D01*
X240173903Y-129398927D01*
X240133300Y-129496950D01*
X240133300Y-130318225D01*
X240199975Y-130384900D01*
X241034900Y-130384900D01*
X241034900Y-130715100D01*
X240199975Y-130715100D01*
X240133300Y-130781775D01*
X240133300Y-131603050D01*
X240173903Y-131701073D01*
X240248927Y-131776097D01*
X240346950Y-131816700D01*
X240453050Y-131816700D01*
X240968225Y-131816700D01*
X241034900Y-131750025D01*
X241034900Y-133252177D01*
X240400000Y-133252177D01*
X240288623Y-133273787D01*
X240190733Y-133338090D01*
X240125207Y-133435165D01*
X240102177Y-133550000D01*
X240102177Y-134156300D01*
X239547823Y-134156300D01*
X239547823Y-133550000D01*
X239526213Y-133438623D01*
X239516700Y-133424141D01*
X239516700Y-131603050D01*
X239516700Y-130781775D01*
X239516700Y-130318225D01*
X239516700Y-129496950D01*
X239476097Y-129398927D01*
X239401073Y-129323903D01*
X239303050Y-129283300D01*
X239196950Y-129283300D01*
X238681775Y-129283300D01*
X238615100Y-129349975D01*
X238615100Y-130384900D01*
X239450025Y-130384900D01*
X239516700Y-130318225D01*
X239516700Y-130781775D01*
X239450025Y-130715100D01*
X238615100Y-130715100D01*
X238615100Y-131750025D01*
X238681775Y-131816700D01*
X239196950Y-131816700D01*
X239303050Y-131816700D01*
X239401073Y-131776097D01*
X239476097Y-131701073D01*
X239516700Y-131603050D01*
X239516700Y-133424141D01*
X239461910Y-133340733D01*
X239364835Y-133275207D01*
X239250000Y-133252177D01*
X238284900Y-133252177D01*
X238284900Y-131750025D01*
X238284900Y-130715100D01*
X238284900Y-130384900D01*
X238284900Y-129349975D01*
X238218225Y-129283300D01*
X237703050Y-129283300D01*
X237596950Y-129283300D01*
X237498927Y-129323903D01*
X237423903Y-129398927D01*
X237383300Y-129496950D01*
X237383300Y-130318225D01*
X237449975Y-130384900D01*
X238284900Y-130384900D01*
X238284900Y-130715100D01*
X237449975Y-130715100D01*
X237383300Y-130781775D01*
X237383300Y-131603050D01*
X237423903Y-131701073D01*
X237498927Y-131776097D01*
X237596950Y-131816700D01*
X237703050Y-131816700D01*
X238218225Y-131816700D01*
X238284900Y-131750025D01*
X238284900Y-133252177D01*
X237650000Y-133252177D01*
X237538623Y-133273787D01*
X237440733Y-133338090D01*
X237375207Y-133435165D01*
X237352177Y-133550000D01*
X237352177Y-134156300D01*
X236797823Y-134156300D01*
X236797823Y-133550000D01*
X236776213Y-133438623D01*
X236766700Y-133424141D01*
X236766700Y-131603050D01*
X236766700Y-130781775D01*
X236766700Y-130318225D01*
X236766700Y-129496950D01*
X236726097Y-129398927D01*
X236651073Y-129323903D01*
X236553050Y-129283300D01*
X236446950Y-129283300D01*
X235931775Y-129283300D01*
X235865100Y-129349975D01*
X235865100Y-130384900D01*
X236700025Y-130384900D01*
X236766700Y-130318225D01*
X236766700Y-130781775D01*
X236700025Y-130715100D01*
X235865100Y-130715100D01*
X235865100Y-131750025D01*
X235931775Y-131816700D01*
X236446950Y-131816700D01*
X236553050Y-131816700D01*
X236651073Y-131776097D01*
X236726097Y-131701073D01*
X236766700Y-131603050D01*
X236766700Y-133424141D01*
X236711910Y-133340733D01*
X236614835Y-133275207D01*
X236500000Y-133252177D01*
X235534900Y-133252177D01*
X235534900Y-131750025D01*
X235534900Y-130715100D01*
X235534900Y-130384900D01*
X235534900Y-129349975D01*
X235468225Y-129283300D01*
X234953050Y-129283300D01*
X234846950Y-129283300D01*
X234748927Y-129323903D01*
X234673903Y-129398927D01*
X234633300Y-129496950D01*
X234633300Y-130318225D01*
X234699975Y-130384900D01*
X235534900Y-130384900D01*
X235534900Y-130715100D01*
X234699975Y-130715100D01*
X234633300Y-130781775D01*
X234633300Y-131603050D01*
X234673903Y-131701073D01*
X234748927Y-131776097D01*
X234846950Y-131816700D01*
X234953050Y-131816700D01*
X235468225Y-131816700D01*
X235534900Y-131750025D01*
X235534900Y-133252177D01*
X234900000Y-133252177D01*
X234788623Y-133273787D01*
X234690733Y-133338090D01*
X234625207Y-133435165D01*
X234602177Y-133550000D01*
X234602177Y-134156300D01*
X234047823Y-134156300D01*
X234047823Y-133550000D01*
X234026213Y-133438623D01*
X234016700Y-133424141D01*
X234016700Y-131603050D01*
X234016700Y-130781775D01*
X234016700Y-130318225D01*
X234016700Y-129496950D01*
X233976097Y-129398927D01*
X233901073Y-129323903D01*
X233803050Y-129283300D01*
X233696950Y-129283300D01*
X233181775Y-129283300D01*
X233115100Y-129349975D01*
X233115100Y-130384900D01*
X233950025Y-130384900D01*
X234016700Y-130318225D01*
X234016700Y-130781775D01*
X233950025Y-130715100D01*
X233115100Y-130715100D01*
X233115100Y-131750025D01*
X233181775Y-131816700D01*
X233696950Y-131816700D01*
X233803050Y-131816700D01*
X233901073Y-131776097D01*
X233976097Y-131701073D01*
X234016700Y-131603050D01*
X234016700Y-133424141D01*
X233961910Y-133340733D01*
X233864835Y-133275207D01*
X233750000Y-133252177D01*
X232784900Y-133252177D01*
X232784900Y-131750025D01*
X232784900Y-130715100D01*
X232784900Y-130384900D01*
X232784900Y-129349975D01*
X232718225Y-129283300D01*
X232203050Y-129283300D01*
X232096950Y-129283300D01*
X231998927Y-129323903D01*
X231923903Y-129398927D01*
X231883300Y-129496950D01*
X231883300Y-130318225D01*
X231949975Y-130384900D01*
X232784900Y-130384900D01*
X232784900Y-130715100D01*
X231949975Y-130715100D01*
X231883300Y-130781775D01*
X231883300Y-131603050D01*
X231923903Y-131701073D01*
X231998927Y-131776097D01*
X232096950Y-131816700D01*
X232203050Y-131816700D01*
X232718225Y-131816700D01*
X232784900Y-131750025D01*
X232784900Y-133252177D01*
X232150000Y-133252177D01*
X232038623Y-133273787D01*
X231940733Y-133338090D01*
X231875207Y-133435165D01*
X231852177Y-133550000D01*
X231852177Y-134156300D01*
X231297823Y-134156300D01*
X231297823Y-133550000D01*
X231276213Y-133438623D01*
X231266700Y-133424141D01*
X231266700Y-131603050D01*
X231266700Y-130781775D01*
X231266700Y-130318225D01*
X231266700Y-129496950D01*
X231226097Y-129398927D01*
X231151073Y-129323903D01*
X231053050Y-129283300D01*
X230946950Y-129283300D01*
X230431775Y-129283300D01*
X230365100Y-129349975D01*
X230365100Y-130384900D01*
X231200025Y-130384900D01*
X231266700Y-130318225D01*
X231266700Y-130781775D01*
X231200025Y-130715100D01*
X230365100Y-130715100D01*
X230365100Y-131750025D01*
X230431775Y-131816700D01*
X230946950Y-131816700D01*
X231053050Y-131816700D01*
X231151073Y-131776097D01*
X231226097Y-131701073D01*
X231266700Y-131603050D01*
X231266700Y-133424141D01*
X231211910Y-133340733D01*
X231114835Y-133275207D01*
X231000000Y-133252177D01*
X230034900Y-133252177D01*
X230034900Y-131750025D01*
X230034900Y-130715100D01*
X230034900Y-130384900D01*
X230034900Y-129349975D01*
X229968225Y-129283300D01*
X229453050Y-129283300D01*
X229346950Y-129283300D01*
X229248927Y-129323903D01*
X229173903Y-129398927D01*
X229133300Y-129496950D01*
X229133300Y-130318225D01*
X229199975Y-130384900D01*
X230034900Y-130384900D01*
X230034900Y-130715100D01*
X229199975Y-130715100D01*
X229133300Y-130781775D01*
X229133300Y-131603050D01*
X229173903Y-131701073D01*
X229248927Y-131776097D01*
X229346950Y-131816700D01*
X229453050Y-131816700D01*
X229968225Y-131816700D01*
X230034900Y-131750025D01*
X230034900Y-133252177D01*
X229400000Y-133252177D01*
X229288623Y-133273787D01*
X229190733Y-133338090D01*
X229125207Y-133435165D01*
X229102177Y-133550000D01*
X229102177Y-134156300D01*
X228547823Y-134156300D01*
X228547823Y-133550000D01*
X228526213Y-133438623D01*
X228516700Y-133424141D01*
X228516700Y-131603050D01*
X228516700Y-130781775D01*
X228516700Y-130318225D01*
X228516700Y-129496950D01*
X228476097Y-129398927D01*
X228401073Y-129323903D01*
X228303050Y-129283300D01*
X228196950Y-129283300D01*
X227681775Y-129283300D01*
X227615100Y-129349975D01*
X227615100Y-130384900D01*
X228450025Y-130384900D01*
X228516700Y-130318225D01*
X228516700Y-130781775D01*
X228450025Y-130715100D01*
X227615100Y-130715100D01*
X227615100Y-131750025D01*
X227681775Y-131816700D01*
X228196950Y-131816700D01*
X228303050Y-131816700D01*
X228401073Y-131776097D01*
X228476097Y-131701073D01*
X228516700Y-131603050D01*
X228516700Y-133424141D01*
X228461910Y-133340733D01*
X228364835Y-133275207D01*
X228250000Y-133252177D01*
X227284900Y-133252177D01*
X227284900Y-131750025D01*
X227284900Y-130715100D01*
X227284900Y-130384900D01*
X227284900Y-129349975D01*
X227218225Y-129283300D01*
X226703050Y-129283300D01*
X226596950Y-129283300D01*
X226498927Y-129323903D01*
X226423903Y-129398927D01*
X226383300Y-129496950D01*
X226383300Y-130318225D01*
X226449975Y-130384900D01*
X227284900Y-130384900D01*
X227284900Y-130715100D01*
X226449975Y-130715100D01*
X226383300Y-130781775D01*
X226383300Y-131603050D01*
X226423903Y-131701073D01*
X226498927Y-131776097D01*
X226596950Y-131816700D01*
X226703050Y-131816700D01*
X227218225Y-131816700D01*
X227284900Y-131750025D01*
X227284900Y-133252177D01*
X226650000Y-133252177D01*
X226580135Y-133265732D01*
X225766700Y-132553977D01*
X225766700Y-131603050D01*
X225766700Y-130781775D01*
X225766700Y-130318225D01*
X225766700Y-129496950D01*
X225726097Y-129398927D01*
X225651073Y-129323903D01*
X225553050Y-129283300D01*
X225446950Y-129283300D01*
X224931775Y-129283300D01*
X224865100Y-129349975D01*
X224865100Y-130384900D01*
X225700025Y-130384900D01*
X225766700Y-130318225D01*
X225766700Y-130781775D01*
X225700025Y-130715100D01*
X224865100Y-130715100D01*
X224865100Y-131750025D01*
X224931775Y-131816700D01*
X225446950Y-131816700D01*
X225553050Y-131816700D01*
X225651073Y-131776097D01*
X225726097Y-131701073D01*
X225766700Y-131603050D01*
X225766700Y-132553977D01*
X225709253Y-132503711D01*
X225653837Y-132471799D01*
X225600662Y-132436269D01*
X225587639Y-132433678D01*
X225576134Y-132427053D01*
X225512724Y-132418776D01*
X225450000Y-132406300D01*
X224534900Y-132406300D01*
X224534900Y-131750025D01*
X224534900Y-130715100D01*
X224534900Y-130384900D01*
X224534900Y-129349975D01*
X224468225Y-129283300D01*
X223953050Y-129283300D01*
X223846950Y-129283300D01*
X223748927Y-129323903D01*
X223673903Y-129398927D01*
X223633300Y-129496950D01*
X223633300Y-130318225D01*
X223699975Y-130384900D01*
X224534900Y-130384900D01*
X224534900Y-130715100D01*
X223699975Y-130715100D01*
X223633300Y-130781775D01*
X223633300Y-131603050D01*
X223673903Y-131701073D01*
X223748927Y-131776097D01*
X223846950Y-131816700D01*
X223953050Y-131816700D01*
X224468225Y-131816700D01*
X224534900Y-131750025D01*
X224534900Y-132406300D01*
X223200000Y-132406300D01*
X223049337Y-132436269D01*
X222921612Y-132521612D01*
X222671612Y-132771612D01*
X222586269Y-132899337D01*
X222556300Y-133050000D01*
X222556300Y-139923495D01*
X222450000Y-139902177D01*
X221843700Y-139902177D01*
X221843700Y-139747823D01*
X222100000Y-139747823D01*
X222211377Y-139726213D01*
X222309267Y-139661910D01*
X222374793Y-139564835D01*
X222397823Y-139450000D01*
X222397823Y-138150000D01*
X222376213Y-138038623D01*
X222311910Y-137940733D01*
X222214835Y-137875207D01*
X222100000Y-137852177D01*
X221743700Y-137852177D01*
X221743700Y-137747823D01*
X222100000Y-137747823D01*
X222211377Y-137726213D01*
X222309267Y-137661910D01*
X222374793Y-137564835D01*
X222397823Y-137450000D01*
X222397823Y-136150000D01*
X222376213Y-136038623D01*
X222311910Y-135940733D01*
X222214835Y-135875207D01*
X222100000Y-135852177D01*
X220600000Y-135852177D01*
X220488623Y-135873787D01*
X220390733Y-135938090D01*
X220325207Y-136035165D01*
X220302177Y-136150000D01*
X220302177Y-137450000D01*
X220323787Y-137561377D01*
X220388090Y-137659267D01*
X220485165Y-137724793D01*
X220600000Y-137747823D01*
X220956300Y-137747823D01*
X220956300Y-137852177D01*
X220600000Y-137852177D01*
X220488623Y-137873787D01*
X220390733Y-137938090D01*
X220325207Y-138035165D01*
X220302177Y-138150000D01*
X220302177Y-139450000D01*
X220323787Y-139561377D01*
X220388090Y-139659267D01*
X220485165Y-139724793D01*
X220600000Y-139747823D01*
X221056300Y-139747823D01*
X221056300Y-139902177D01*
X220450000Y-139902177D01*
X220338623Y-139923787D01*
X220240733Y-139988090D01*
X220175207Y-140085165D01*
X220152177Y-140200000D01*
X220152177Y-141900000D01*
X220173787Y-142011377D01*
X220238090Y-142109267D01*
X220335165Y-142174793D01*
X220450000Y-142197823D01*
X222450000Y-142197823D01*
X222556300Y-142177198D01*
X222556300Y-142512946D01*
X222385425Y-142652177D01*
X220600000Y-142652177D01*
X220488623Y-142673787D01*
X220390733Y-142738090D01*
X220325207Y-142835165D01*
X220302177Y-142950000D01*
X220302177Y-144650000D01*
X220323787Y-144761377D01*
X220388090Y-144859267D01*
X220485165Y-144924793D01*
X220600000Y-144947823D01*
X222600000Y-144947823D01*
X222711377Y-144926213D01*
X222809267Y-144861910D01*
X222874793Y-144764835D01*
X222897823Y-144650000D01*
X222897823Y-143250360D01*
X223198689Y-143005210D01*
X223211571Y-142989624D01*
X223228388Y-142978388D01*
X223260145Y-142930859D01*
X223296557Y-142886808D01*
X223302495Y-142867477D01*
X223313731Y-142850662D01*
X223324882Y-142794601D01*
X223341666Y-142739966D01*
X223339754Y-142719834D01*
X223343700Y-142700000D01*
X223343700Y-139747823D01*
X224800000Y-139747823D01*
X224911377Y-139726213D01*
X225009267Y-139661910D01*
X225074793Y-139564835D01*
X225097823Y-139450000D01*
X225097823Y-138408953D01*
X226156666Y-137350110D01*
X228652955Y-137350110D01*
X228652687Y-137351450D01*
X228652687Y-142850550D01*
X228674297Y-142961927D01*
X228738600Y-143059817D01*
X228835675Y-143125343D01*
X228950510Y-143148373D01*
X230949490Y-143148373D01*
X231060867Y-143126763D01*
X231158757Y-143062460D01*
X231224283Y-142965385D01*
X231247313Y-142850550D01*
X231247313Y-141154089D01*
X233102177Y-143008953D01*
X233102177Y-144550000D01*
X233123787Y-144661377D01*
X233188090Y-144759267D01*
X233285165Y-144824793D01*
X233400000Y-144847823D01*
X235000000Y-144847823D01*
X235111377Y-144826213D01*
X235127797Y-144815426D01*
X234941047Y-145002177D01*
X233400000Y-145002177D01*
X233288623Y-145023787D01*
X233190733Y-145088090D01*
X233125207Y-145185165D01*
X233102177Y-145300000D01*
X233102177Y-146841047D01*
X231247313Y-148695911D01*
X231247313Y-146749450D01*
X231225703Y-146638073D01*
X231161400Y-146540183D01*
X231064325Y-146474657D01*
X230949490Y-146451627D01*
X228950510Y-146451627D01*
X228839133Y-146473237D01*
X228741243Y-146537540D01*
X228675717Y-146634615D01*
X228652687Y-146749450D01*
X228652687Y-152248550D01*
X228674297Y-152359927D01*
X228704758Y-152406300D01*
X228113076Y-152406300D01*
X226997823Y-151291047D01*
X226997823Y-149750000D01*
X226976213Y-149638623D01*
X226911910Y-149540733D01*
X226814835Y-149475207D01*
X226700000Y-149452177D01*
X226093700Y-149452177D01*
X226093700Y-148897823D01*
X226700000Y-148897823D01*
X226811377Y-148876213D01*
X226909267Y-148811910D01*
X226974793Y-148714835D01*
X226997823Y-148600000D01*
X226997823Y-147000000D01*
X226976213Y-146888623D01*
X226911910Y-146790733D01*
X226814835Y-146725207D01*
X226700000Y-146702177D01*
X226066377Y-146702177D01*
X226022518Y-144947823D01*
X226600000Y-144947823D01*
X226711377Y-144926213D01*
X226809267Y-144861910D01*
X226874793Y-144764835D01*
X226897823Y-144650000D01*
X226897823Y-142950000D01*
X226876213Y-142838623D01*
X226811910Y-142740733D01*
X226716700Y-142676465D01*
X226716700Y-141953050D01*
X226716700Y-141846950D01*
X226716700Y-141281775D01*
X226716700Y-140818225D01*
X226716700Y-140253050D01*
X226716700Y-140146950D01*
X226676097Y-140048927D01*
X226601073Y-139973903D01*
X226503050Y-139933300D01*
X225681775Y-139933300D01*
X225615100Y-139999975D01*
X225615100Y-140884900D01*
X226650025Y-140884900D01*
X226716700Y-140818225D01*
X226716700Y-141281775D01*
X226650025Y-141215100D01*
X225615100Y-141215100D01*
X225615100Y-142100025D01*
X225681775Y-142166700D01*
X226503050Y-142166700D01*
X226601073Y-142126097D01*
X226676097Y-142051073D01*
X226716700Y-141953050D01*
X226716700Y-142676465D01*
X226714835Y-142675207D01*
X226600000Y-142652177D01*
X225284900Y-142652177D01*
X225284900Y-142100025D01*
X225284900Y-141215100D01*
X225284900Y-140884900D01*
X225284900Y-139999975D01*
X225218225Y-139933300D01*
X224396950Y-139933300D01*
X224298927Y-139973903D01*
X224223903Y-140048927D01*
X224183300Y-140146950D01*
X224183300Y-140253050D01*
X224183300Y-140818225D01*
X224249975Y-140884900D01*
X225284900Y-140884900D01*
X225284900Y-141215100D01*
X224249975Y-141215100D01*
X224183300Y-141281775D01*
X224183300Y-141846950D01*
X224183300Y-141953050D01*
X224223903Y-142051073D01*
X224298927Y-142126097D01*
X224396950Y-142166700D01*
X225218225Y-142166700D01*
X225284900Y-142100025D01*
X225284900Y-142652177D01*
X224600000Y-142652177D01*
X224488623Y-142673787D01*
X224390733Y-142738090D01*
X224325207Y-142835165D01*
X224302177Y-142950000D01*
X224302177Y-144650000D01*
X224323787Y-144761377D01*
X224388090Y-144859267D01*
X224485165Y-144924793D01*
X224600000Y-144947823D01*
X225234872Y-144947823D01*
X225278731Y-146702177D01*
X224700000Y-146702177D01*
X224588623Y-146723787D01*
X224490733Y-146788090D01*
X224425207Y-146885165D01*
X224402177Y-147000000D01*
X224402177Y-148600000D01*
X224423787Y-148711377D01*
X224488090Y-148809267D01*
X224585165Y-148874793D01*
X224700000Y-148897823D01*
X225306300Y-148897823D01*
X225306300Y-149452177D01*
X224700000Y-149452177D01*
X224588623Y-149473787D01*
X224490733Y-149538090D01*
X224425207Y-149635165D01*
X224402177Y-149750000D01*
X224402177Y-151350000D01*
X224423787Y-151461377D01*
X224488090Y-151559267D01*
X224585165Y-151624793D01*
X224700000Y-151647823D01*
X226241047Y-151647823D01*
X227671612Y-153078388D01*
X227799338Y-153163731D01*
X227950000Y-153193700D01*
X230950000Y-153193700D01*
X231100662Y-153163731D01*
X231100663Y-153163731D01*
X231228388Y-153078388D01*
X232978388Y-151328388D01*
X233063731Y-151200662D01*
X233093700Y-151050000D01*
X233093700Y-149463076D01*
X233133300Y-149423476D01*
X233133300Y-150068225D01*
X233199975Y-150134900D01*
X234034900Y-150134900D01*
X234034900Y-149099975D01*
X233968225Y-149033300D01*
X233523476Y-149033300D01*
X234113076Y-148443700D01*
X235450000Y-148443700D01*
X235582694Y-148417305D01*
X235556300Y-148550000D01*
X235556300Y-149300000D01*
X235556300Y-150050000D01*
X235569493Y-150116329D01*
X235579515Y-150183191D01*
X235584414Y-150191336D01*
X235586269Y-150200662D01*
X235623839Y-150256891D01*
X235658686Y-150314831D01*
X237152177Y-151957671D01*
X237152177Y-153650000D01*
X237173787Y-153761377D01*
X237238090Y-153859267D01*
X237335165Y-153924793D01*
X237450000Y-153947823D01*
X239450000Y-153947823D01*
X239561377Y-153926213D01*
X239659267Y-153861910D01*
X239724793Y-153764835D01*
X239747823Y-153650000D01*
X239747823Y-153404599D01*
X240304324Y-153961100D01*
X235266700Y-153961100D01*
X235266700Y-151353050D01*
X235266700Y-150531775D01*
X235266700Y-150068225D01*
X235266700Y-149246950D01*
X235226097Y-149148927D01*
X235151073Y-149073903D01*
X235053050Y-149033300D01*
X234946950Y-149033300D01*
X234431775Y-149033300D01*
X234365100Y-149099975D01*
X234365100Y-150134900D01*
X235200025Y-150134900D01*
X235266700Y-150068225D01*
X235266700Y-150531775D01*
X235200025Y-150465100D01*
X234365100Y-150465100D01*
X234365100Y-151500025D01*
X234431775Y-151566700D01*
X234946950Y-151566700D01*
X235053050Y-151566700D01*
X235151073Y-151526097D01*
X235226097Y-151451073D01*
X235266700Y-151353050D01*
X235266700Y-153961100D01*
X234034900Y-153961100D01*
X234034900Y-151500025D01*
X234034900Y-150465100D01*
X233199975Y-150465100D01*
X233133300Y-150531775D01*
X233133300Y-151353050D01*
X233173903Y-151451073D01*
X233248927Y-151526097D01*
X233346950Y-151566700D01*
X233453050Y-151566700D01*
X233968225Y-151566700D01*
X234034900Y-151500025D01*
X234034900Y-153961100D01*
X222966700Y-153961100D01*
X222966700Y-151403050D01*
X222966700Y-151296950D01*
X222966700Y-150781775D01*
X222966700Y-150318225D01*
X222966700Y-149803050D01*
X222966700Y-149696950D01*
X222966700Y-148653050D01*
X222966700Y-148546950D01*
X222966700Y-148031775D01*
X222966700Y-147568225D01*
X222966700Y-147053050D01*
X222966700Y-146946950D01*
X222926097Y-146848927D01*
X222851073Y-146773903D01*
X222753050Y-146733300D01*
X221931775Y-146733300D01*
X221865100Y-146799975D01*
X221865100Y-147634900D01*
X222900025Y-147634900D01*
X222966700Y-147568225D01*
X222966700Y-148031775D01*
X222900025Y-147965100D01*
X221865100Y-147965100D01*
X221865100Y-148800025D01*
X221931775Y-148866700D01*
X222753050Y-148866700D01*
X222851073Y-148826097D01*
X222926097Y-148751073D01*
X222966700Y-148653050D01*
X222966700Y-149696950D01*
X222926097Y-149598927D01*
X222851073Y-149523903D01*
X222753050Y-149483300D01*
X221931775Y-149483300D01*
X221865100Y-149549975D01*
X221865100Y-150384900D01*
X222900025Y-150384900D01*
X222966700Y-150318225D01*
X222966700Y-150781775D01*
X222900025Y-150715100D01*
X221865100Y-150715100D01*
X221865100Y-151550025D01*
X221931775Y-151616700D01*
X222753050Y-151616700D01*
X222851073Y-151576097D01*
X222926097Y-151501073D01*
X222966700Y-151403050D01*
X222966700Y-153961100D01*
X221534900Y-153961100D01*
X221534900Y-151550025D01*
X221534900Y-150715100D01*
X221534900Y-150384900D01*
X221534900Y-149549975D01*
X221534900Y-148800025D01*
X221534900Y-147965100D01*
X221534900Y-147634900D01*
X221534900Y-146799975D01*
X221468225Y-146733300D01*
X220646950Y-146733300D01*
X220548927Y-146773903D01*
X220473903Y-146848927D01*
X220433300Y-146946950D01*
X220433300Y-147053050D01*
X220433300Y-147568225D01*
X220499975Y-147634900D01*
X221534900Y-147634900D01*
X221534900Y-147965100D01*
X220499975Y-147965100D01*
X220433300Y-148031775D01*
X220433300Y-148546950D01*
X220433300Y-148653050D01*
X220473903Y-148751073D01*
X220548927Y-148826097D01*
X220646950Y-148866700D01*
X221468225Y-148866700D01*
X221534900Y-148800025D01*
X221534900Y-149549975D01*
X221468225Y-149483300D01*
X220646950Y-149483300D01*
X220548927Y-149523903D01*
X220473903Y-149598927D01*
X220433300Y-149696950D01*
X220433300Y-149803050D01*
X220433300Y-150318225D01*
X220499975Y-150384900D01*
X221534900Y-150384900D01*
X221534900Y-150715100D01*
X220499975Y-150715100D01*
X220433300Y-150781775D01*
X220433300Y-151296950D01*
X220433300Y-151403050D01*
X220473903Y-151501073D01*
X220548927Y-151576097D01*
X220646950Y-151616700D01*
X221468225Y-151616700D01*
X221534900Y-151550025D01*
X221534900Y-153961100D01*
X220038900Y-153961100D01*
X220038900Y-129138900D01*
X246112700Y-129138900D01*
X246112700Y-131038575D01*
X246179375Y-131105250D01*
X246709600Y-131105250D01*
X246709600Y-131085250D01*
X247039800Y-131085250D01*
X247039800Y-131105250D01*
X247570025Y-131105250D01*
X247636700Y-131038575D01*
X247636700Y-129138900D01*
X251161577Y-129138900D01*
X251161577Y-132343254D01*
X251161577Y-132343254D01*
G37*
X251161577Y-132343254D02*
X251074823Y-132133295D01*
X250867795Y-131925905D01*
X250597162Y-131813528D01*
X250304124Y-131813272D01*
X250033295Y-131925177D01*
X249825905Y-132132205D01*
X249815613Y-132156990D01*
X249374560Y-132156990D01*
X249223898Y-132186959D01*
X249096172Y-132272302D01*
X247636700Y-133731774D01*
X247636700Y-133603050D01*
X247636700Y-133496950D01*
X247636700Y-131502125D01*
X247570025Y-131435450D01*
X247039800Y-131435450D01*
X247039800Y-133750025D01*
X247106475Y-133816700D01*
X247423050Y-133816700D01*
X247521073Y-133776097D01*
X247596097Y-133701073D01*
X247636700Y-133603050D01*
X247636700Y-133731774D01*
X247461475Y-133906999D01*
X246709600Y-133906999D01*
X246709600Y-133750025D01*
X246709600Y-131435450D01*
X246179375Y-131435450D01*
X246112700Y-131502125D01*
X246112700Y-133496950D01*
X246112700Y-133603050D01*
X246153303Y-133701073D01*
X246228327Y-133776097D01*
X246326350Y-133816700D01*
X246642925Y-133816700D01*
X246709600Y-133750025D01*
X246709600Y-133906999D01*
X245202501Y-133906999D01*
X245051839Y-133936968D01*
X245047823Y-133939651D01*
X245047823Y-133550000D01*
X245026213Y-133438623D01*
X245016700Y-133424141D01*
X245016700Y-131603050D01*
X245016700Y-130781775D01*
X245016700Y-130318225D01*
X245016700Y-129496950D01*
X244976097Y-129398927D01*
X244901073Y-129323903D01*
X244803050Y-129283300D01*
X244696950Y-129283300D01*
X244181775Y-129283300D01*
X244115100Y-129349975D01*
X244115100Y-130384900D01*
X244950025Y-130384900D01*
X245016700Y-130318225D01*
X245016700Y-130781775D01*
X244950025Y-130715100D01*
X244115100Y-130715100D01*
X244115100Y-131750025D01*
X244181775Y-131816700D01*
X244696950Y-131816700D01*
X244803050Y-131816700D01*
X244901073Y-131776097D01*
X244976097Y-131701073D01*
X245016700Y-131603050D01*
X245016700Y-133424141D01*
X244961910Y-133340733D01*
X244864835Y-133275207D01*
X244750000Y-133252177D01*
X244334187Y-133252177D01*
X244313731Y-133149338D01*
X244228388Y-133021612D01*
X244100662Y-132936269D01*
X243950000Y-132906300D01*
X243799338Y-132936269D01*
X243784900Y-132945916D01*
X243784900Y-131750025D01*
X243784900Y-130715100D01*
X243784900Y-130384900D01*
X243784900Y-129349975D01*
X243718225Y-129283300D01*
X243203050Y-129283300D01*
X243096950Y-129283300D01*
X242998927Y-129323903D01*
X242923903Y-129398927D01*
X242883300Y-129496950D01*
X242883300Y-130318225D01*
X242949975Y-130384900D01*
X243784900Y-130384900D01*
X243784900Y-130715100D01*
X242949975Y-130715100D01*
X242883300Y-130781775D01*
X242883300Y-131603050D01*
X242923903Y-131701073D01*
X242998927Y-131776097D01*
X243096950Y-131816700D01*
X243203050Y-131816700D01*
X243718225Y-131816700D01*
X243784900Y-131750025D01*
X243784900Y-132945916D01*
X243671612Y-133021612D01*
X243586269Y-133149338D01*
X243565812Y-133252177D01*
X243150000Y-133252177D01*
X243038623Y-133273787D01*
X242940733Y-133338090D01*
X242875207Y-133435165D01*
X242852177Y-133550000D01*
X242852177Y-134156300D01*
X242297823Y-134156300D01*
X242297823Y-133550000D01*
X242276213Y-133438623D01*
X242266700Y-133424141D01*
X242266700Y-131603050D01*
X242266700Y-130781775D01*
X242266700Y-130318225D01*
X242266700Y-129496950D01*
X242226097Y-129398927D01*
X242151073Y-129323903D01*
X242053050Y-129283300D01*
X241946950Y-129283300D01*
X241431775Y-129283300D01*
X241365100Y-129349975D01*
X241365100Y-130384900D01*
X242200025Y-130384900D01*
X242266700Y-130318225D01*
X242266700Y-130781775D01*
X242200025Y-130715100D01*
X241365100Y-130715100D01*
X241365100Y-131750025D01*
X241431775Y-131816700D01*
X241946950Y-131816700D01*
X242053050Y-131816700D01*
X242151073Y-131776097D01*
X242226097Y-131701073D01*
X242266700Y-131603050D01*
X242266700Y-133424141D01*
X242211910Y-133340733D01*
X242114835Y-133275207D01*
X242000000Y-133252177D01*
X241034900Y-133252177D01*
X241034900Y-131750025D01*
X241034900Y-130715100D01*
X241034900Y-130384900D01*
X241034900Y-129349975D01*
X240968225Y-129283300D01*
X240453050Y-129283300D01*
X240346950Y-129283300D01*
X240248927Y-129323903D01*
X240173903Y-129398927D01*
X240133300Y-129496950D01*
X240133300Y-130318225D01*
X240199975Y-130384900D01*
X241034900Y-130384900D01*
X241034900Y-130715100D01*
X240199975Y-130715100D01*
X240133300Y-130781775D01*
X240133300Y-131603050D01*
X240173903Y-131701073D01*
X240248927Y-131776097D01*
X240346950Y-131816700D01*
X240453050Y-131816700D01*
X240968225Y-131816700D01*
X241034900Y-131750025D01*
X241034900Y-133252177D01*
X240400000Y-133252177D01*
X240288623Y-133273787D01*
X240190733Y-133338090D01*
X240125207Y-133435165D01*
X240102177Y-133550000D01*
X240102177Y-134156300D01*
X239547823Y-134156300D01*
X239547823Y-133550000D01*
X239526213Y-133438623D01*
X239516700Y-133424141D01*
X239516700Y-131603050D01*
X239516700Y-130781775D01*
X239516700Y-130318225D01*
X239516700Y-129496950D01*
X239476097Y-129398927D01*
X239401073Y-129323903D01*
X239303050Y-129283300D01*
X239196950Y-129283300D01*
X238681775Y-129283300D01*
X238615100Y-129349975D01*
X238615100Y-130384900D01*
X239450025Y-130384900D01*
X239516700Y-130318225D01*
X239516700Y-130781775D01*
X239450025Y-130715100D01*
X238615100Y-130715100D01*
X238615100Y-131750025D01*
X238681775Y-131816700D01*
X239196950Y-131816700D01*
X239303050Y-131816700D01*
X239401073Y-131776097D01*
X239476097Y-131701073D01*
X239516700Y-131603050D01*
X239516700Y-133424141D01*
X239461910Y-133340733D01*
X239364835Y-133275207D01*
X239250000Y-133252177D01*
X238284900Y-133252177D01*
X238284900Y-131750025D01*
X238284900Y-130715100D01*
X238284900Y-130384900D01*
X238284900Y-129349975D01*
X238218225Y-129283300D01*
X237703050Y-129283300D01*
X237596950Y-129283300D01*
X237498927Y-129323903D01*
X237423903Y-129398927D01*
X237383300Y-129496950D01*
X237383300Y-130318225D01*
X237449975Y-130384900D01*
X238284900Y-130384900D01*
X238284900Y-130715100D01*
X237449975Y-130715100D01*
X237383300Y-130781775D01*
X237383300Y-131603050D01*
X237423903Y-131701073D01*
X237498927Y-131776097D01*
X237596950Y-131816700D01*
X237703050Y-131816700D01*
X238218225Y-131816700D01*
X238284900Y-131750025D01*
X238284900Y-133252177D01*
X237650000Y-133252177D01*
X237538623Y-133273787D01*
X237440733Y-133338090D01*
X237375207Y-133435165D01*
X237352177Y-133550000D01*
X237352177Y-134156300D01*
X236797823Y-134156300D01*
X236797823Y-133550000D01*
X236776213Y-133438623D01*
X236766700Y-133424141D01*
X236766700Y-131603050D01*
X236766700Y-130781775D01*
X236766700Y-130318225D01*
X236766700Y-129496950D01*
X236726097Y-129398927D01*
X236651073Y-129323903D01*
X236553050Y-129283300D01*
X236446950Y-129283300D01*
X235931775Y-129283300D01*
X235865100Y-129349975D01*
X235865100Y-130384900D01*
X236700025Y-130384900D01*
X236766700Y-130318225D01*
X236766700Y-130781775D01*
X236700025Y-130715100D01*
X235865100Y-130715100D01*
X235865100Y-131750025D01*
X235931775Y-131816700D01*
X236446950Y-131816700D01*
X236553050Y-131816700D01*
X236651073Y-131776097D01*
X236726097Y-131701073D01*
X236766700Y-131603050D01*
X236766700Y-133424141D01*
X236711910Y-133340733D01*
X236614835Y-133275207D01*
X236500000Y-133252177D01*
X235534900Y-133252177D01*
X235534900Y-131750025D01*
X235534900Y-130715100D01*
X235534900Y-130384900D01*
X235534900Y-129349975D01*
X235468225Y-129283300D01*
X234953050Y-129283300D01*
X234846950Y-129283300D01*
X234748927Y-129323903D01*
X234673903Y-129398927D01*
X234633300Y-129496950D01*
X234633300Y-130318225D01*
X234699975Y-130384900D01*
X235534900Y-130384900D01*
X235534900Y-130715100D01*
X234699975Y-130715100D01*
X234633300Y-130781775D01*
X234633300Y-131603050D01*
X234673903Y-131701073D01*
X234748927Y-131776097D01*
X234846950Y-131816700D01*
X234953050Y-131816700D01*
X235468225Y-131816700D01*
X235534900Y-131750025D01*
X235534900Y-133252177D01*
X234900000Y-133252177D01*
X234788623Y-133273787D01*
X234690733Y-133338090D01*
X234625207Y-133435165D01*
X234602177Y-133550000D01*
X234602177Y-134156300D01*
X234047823Y-134156300D01*
X234047823Y-133550000D01*
X234026213Y-133438623D01*
X234016700Y-133424141D01*
X234016700Y-131603050D01*
X234016700Y-130781775D01*
X234016700Y-130318225D01*
X234016700Y-129496950D01*
X233976097Y-129398927D01*
X233901073Y-129323903D01*
X233803050Y-129283300D01*
X233696950Y-129283300D01*
X233181775Y-129283300D01*
X233115100Y-129349975D01*
X233115100Y-130384900D01*
X233950025Y-130384900D01*
X234016700Y-130318225D01*
X234016700Y-130781775D01*
X233950025Y-130715100D01*
X233115100Y-130715100D01*
X233115100Y-131750025D01*
X233181775Y-131816700D01*
X233696950Y-131816700D01*
X233803050Y-131816700D01*
X233901073Y-131776097D01*
X233976097Y-131701073D01*
X234016700Y-131603050D01*
X234016700Y-133424141D01*
X233961910Y-133340733D01*
X233864835Y-133275207D01*
X233750000Y-133252177D01*
X232784900Y-133252177D01*
X232784900Y-131750025D01*
X232784900Y-130715100D01*
X232784900Y-130384900D01*
X232784900Y-129349975D01*
X232718225Y-129283300D01*
X232203050Y-129283300D01*
X232096950Y-129283300D01*
X231998927Y-129323903D01*
X231923903Y-129398927D01*
X231883300Y-129496950D01*
X231883300Y-130318225D01*
X231949975Y-130384900D01*
X232784900Y-130384900D01*
X232784900Y-130715100D01*
X231949975Y-130715100D01*
X231883300Y-130781775D01*
X231883300Y-131603050D01*
X231923903Y-131701073D01*
X231998927Y-131776097D01*
X232096950Y-131816700D01*
X232203050Y-131816700D01*
X232718225Y-131816700D01*
X232784900Y-131750025D01*
X232784900Y-133252177D01*
X232150000Y-133252177D01*
X232038623Y-133273787D01*
X231940733Y-133338090D01*
X231875207Y-133435165D01*
X231852177Y-133550000D01*
X231852177Y-134156300D01*
X231297823Y-134156300D01*
X231297823Y-133550000D01*
X231276213Y-133438623D01*
X231266700Y-133424141D01*
X231266700Y-131603050D01*
X231266700Y-130781775D01*
X231266700Y-130318225D01*
X231266700Y-129496950D01*
X231226097Y-129398927D01*
X231151073Y-129323903D01*
X231053050Y-129283300D01*
X230946950Y-129283300D01*
X230431775Y-129283300D01*
X230365100Y-129349975D01*
X230365100Y-130384900D01*
X231200025Y-130384900D01*
X231266700Y-130318225D01*
X231266700Y-130781775D01*
X231200025Y-130715100D01*
X230365100Y-130715100D01*
X230365100Y-131750025D01*
X230431775Y-131816700D01*
X230946950Y-131816700D01*
X231053050Y-131816700D01*
X231151073Y-131776097D01*
X231226097Y-131701073D01*
X231266700Y-131603050D01*
X231266700Y-133424141D01*
X231211910Y-133340733D01*
X231114835Y-133275207D01*
X231000000Y-133252177D01*
X230034900Y-133252177D01*
X230034900Y-131750025D01*
X230034900Y-130715100D01*
X230034900Y-130384900D01*
X230034900Y-129349975D01*
X229968225Y-129283300D01*
X229453050Y-129283300D01*
X229346950Y-129283300D01*
X229248927Y-129323903D01*
X229173903Y-129398927D01*
X229133300Y-129496950D01*
X229133300Y-130318225D01*
X229199975Y-130384900D01*
X230034900Y-130384900D01*
X230034900Y-130715100D01*
X229199975Y-130715100D01*
X229133300Y-130781775D01*
X229133300Y-131603050D01*
X229173903Y-131701073D01*
X229248927Y-131776097D01*
X229346950Y-131816700D01*
X229453050Y-131816700D01*
X229968225Y-131816700D01*
X230034900Y-131750025D01*
X230034900Y-133252177D01*
X229400000Y-133252177D01*
X229288623Y-133273787D01*
X229190733Y-133338090D01*
X229125207Y-133435165D01*
X229102177Y-133550000D01*
X229102177Y-134156300D01*
X228547823Y-134156300D01*
X228547823Y-133550000D01*
X228526213Y-133438623D01*
X228516700Y-133424141D01*
X228516700Y-131603050D01*
X228516700Y-130781775D01*
X228516700Y-130318225D01*
X228516700Y-129496950D01*
X228476097Y-129398927D01*
X228401073Y-129323903D01*
X228303050Y-129283300D01*
X228196950Y-129283300D01*
X227681775Y-129283300D01*
X227615100Y-129349975D01*
X227615100Y-130384900D01*
X228450025Y-130384900D01*
X228516700Y-130318225D01*
X228516700Y-130781775D01*
X228450025Y-130715100D01*
X227615100Y-130715100D01*
X227615100Y-131750025D01*
X227681775Y-131816700D01*
X228196950Y-131816700D01*
X228303050Y-131816700D01*
X228401073Y-131776097D01*
X228476097Y-131701073D01*
X228516700Y-131603050D01*
X228516700Y-133424141D01*
X228461910Y-133340733D01*
X228364835Y-133275207D01*
X228250000Y-133252177D01*
X227284900Y-133252177D01*
X227284900Y-131750025D01*
X227284900Y-130715100D01*
X227284900Y-130384900D01*
X227284900Y-129349975D01*
X227218225Y-129283300D01*
X226703050Y-129283300D01*
X226596950Y-129283300D01*
X226498927Y-129323903D01*
X226423903Y-129398927D01*
X226383300Y-129496950D01*
X226383300Y-130318225D01*
X226449975Y-130384900D01*
X227284900Y-130384900D01*
X227284900Y-130715100D01*
X226449975Y-130715100D01*
X226383300Y-130781775D01*
X226383300Y-131603050D01*
X226423903Y-131701073D01*
X226498927Y-131776097D01*
X226596950Y-131816700D01*
X226703050Y-131816700D01*
X227218225Y-131816700D01*
X227284900Y-131750025D01*
X227284900Y-133252177D01*
X226650000Y-133252177D01*
X226580135Y-133265732D01*
X225766700Y-132553977D01*
X225766700Y-131603050D01*
X225766700Y-130781775D01*
X225766700Y-130318225D01*
X225766700Y-129496950D01*
X225726097Y-129398927D01*
X225651073Y-129323903D01*
X225553050Y-129283300D01*
X225446950Y-129283300D01*
X224931775Y-129283300D01*
X224865100Y-129349975D01*
X224865100Y-130384900D01*
X225700025Y-130384900D01*
X225766700Y-130318225D01*
X225766700Y-130781775D01*
X225700025Y-130715100D01*
X224865100Y-130715100D01*
X224865100Y-131750025D01*
X224931775Y-131816700D01*
X225446950Y-131816700D01*
X225553050Y-131816700D01*
X225651073Y-131776097D01*
X225726097Y-131701073D01*
X225766700Y-131603050D01*
X225766700Y-132553977D01*
X225709253Y-132503711D01*
X225653837Y-132471799D01*
X225600662Y-132436269D01*
X225587639Y-132433678D01*
X225576134Y-132427053D01*
X225512724Y-132418776D01*
X225450000Y-132406300D01*
X224534900Y-132406300D01*
X224534900Y-131750025D01*
X224534900Y-130715100D01*
X224534900Y-130384900D01*
X224534900Y-129349975D01*
X224468225Y-129283300D01*
X223953050Y-129283300D01*
X223846950Y-129283300D01*
X223748927Y-129323903D01*
X223673903Y-129398927D01*
X223633300Y-129496950D01*
X223633300Y-130318225D01*
X223699975Y-130384900D01*
X224534900Y-130384900D01*
X224534900Y-130715100D01*
X223699975Y-130715100D01*
X223633300Y-130781775D01*
X223633300Y-131603050D01*
X223673903Y-131701073D01*
X223748927Y-131776097D01*
X223846950Y-131816700D01*
X223953050Y-131816700D01*
X224468225Y-131816700D01*
X224534900Y-131750025D01*
X224534900Y-132406300D01*
X223200000Y-132406300D01*
X223049337Y-132436269D01*
X222921612Y-132521612D01*
X222671612Y-132771612D01*
X222586269Y-132899337D01*
X222556300Y-133050000D01*
X222556300Y-139923495D01*
X222450000Y-139902177D01*
X221843700Y-139902177D01*
X221843700Y-139747823D01*
X222100000Y-139747823D01*
X222211377Y-139726213D01*
X222309267Y-139661910D01*
X222374793Y-139564835D01*
X222397823Y-139450000D01*
X222397823Y-138150000D01*
X222376213Y-138038623D01*
X222311910Y-137940733D01*
X222214835Y-137875207D01*
X222100000Y-137852177D01*
X221743700Y-137852177D01*
X221743700Y-137747823D01*
X222100000Y-137747823D01*
X222211377Y-137726213D01*
X222309267Y-137661910D01*
X222374793Y-137564835D01*
X222397823Y-137450000D01*
X222397823Y-136150000D01*
X222376213Y-136038623D01*
X222311910Y-135940733D01*
X222214835Y-135875207D01*
X222100000Y-135852177D01*
X220600000Y-135852177D01*
X220488623Y-135873787D01*
X220390733Y-135938090D01*
X220325207Y-136035165D01*
X220302177Y-136150000D01*
X220302177Y-137450000D01*
X220323787Y-137561377D01*
X220388090Y-137659267D01*
X220485165Y-137724793D01*
X220600000Y-137747823D01*
X220956300Y-137747823D01*
X220956300Y-137852177D01*
X220600000Y-137852177D01*
X220488623Y-137873787D01*
X220390733Y-137938090D01*
X220325207Y-138035165D01*
X220302177Y-138150000D01*
X220302177Y-139450000D01*
X220323787Y-139561377D01*
X220388090Y-139659267D01*
X220485165Y-139724793D01*
X220600000Y-139747823D01*
X221056300Y-139747823D01*
X221056300Y-139902177D01*
X220450000Y-139902177D01*
X220338623Y-139923787D01*
X220240733Y-139988090D01*
X220175207Y-140085165D01*
X220152177Y-140200000D01*
X220152177Y-141900000D01*
X220173787Y-142011377D01*
X220238090Y-142109267D01*
X220335165Y-142174793D01*
X220450000Y-142197823D01*
X222450000Y-142197823D01*
X222556300Y-142177198D01*
X222556300Y-142512946D01*
X222385425Y-142652177D01*
X220600000Y-142652177D01*
X220488623Y-142673787D01*
X220390733Y-142738090D01*
X220325207Y-142835165D01*
X220302177Y-142950000D01*
X220302177Y-144650000D01*
X220323787Y-144761377D01*
X220388090Y-144859267D01*
X220485165Y-144924793D01*
X220600000Y-144947823D01*
X222600000Y-144947823D01*
X222711377Y-144926213D01*
X222809267Y-144861910D01*
X222874793Y-144764835D01*
X222897823Y-144650000D01*
X222897823Y-143250360D01*
X223198689Y-143005210D01*
X223211571Y-142989624D01*
X223228388Y-142978388D01*
X223260145Y-142930859D01*
X223296557Y-142886808D01*
X223302495Y-142867477D01*
X223313731Y-142850662D01*
X223324882Y-142794601D01*
X223341666Y-142739966D01*
X223339754Y-142719834D01*
X223343700Y-142700000D01*
X223343700Y-139747823D01*
X224800000Y-139747823D01*
X224911377Y-139726213D01*
X225009267Y-139661910D01*
X225074793Y-139564835D01*
X225097823Y-139450000D01*
X225097823Y-138408953D01*
X226156666Y-137350110D01*
X228652955Y-137350110D01*
X228652687Y-137351450D01*
X228652687Y-142850550D01*
X228674297Y-142961927D01*
X228738600Y-143059817D01*
X228835675Y-143125343D01*
X228950510Y-143148373D01*
X230949490Y-143148373D01*
X231060867Y-143126763D01*
X231158757Y-143062460D01*
X231224283Y-142965385D01*
X231247313Y-142850550D01*
X231247313Y-141154089D01*
X233102177Y-143008953D01*
X233102177Y-144550000D01*
X233123787Y-144661377D01*
X233188090Y-144759267D01*
X233285165Y-144824793D01*
X233400000Y-144847823D01*
X235000000Y-144847823D01*
X235111377Y-144826213D01*
X235127797Y-144815426D01*
X234941047Y-145002177D01*
X233400000Y-145002177D01*
X233288623Y-145023787D01*
X233190733Y-145088090D01*
X233125207Y-145185165D01*
X233102177Y-145300000D01*
X233102177Y-146841047D01*
X231247313Y-148695911D01*
X231247313Y-146749450D01*
X231225703Y-146638073D01*
X231161400Y-146540183D01*
X231064325Y-146474657D01*
X230949490Y-146451627D01*
X228950510Y-146451627D01*
X228839133Y-146473237D01*
X228741243Y-146537540D01*
X228675717Y-146634615D01*
X228652687Y-146749450D01*
X228652687Y-152248550D01*
X228674297Y-152359927D01*
X228704758Y-152406300D01*
X228113076Y-152406300D01*
X226997823Y-151291047D01*
X226997823Y-149750000D01*
X226976213Y-149638623D01*
X226911910Y-149540733D01*
X226814835Y-149475207D01*
X226700000Y-149452177D01*
X226093700Y-149452177D01*
X226093700Y-148897823D01*
X226700000Y-148897823D01*
X226811377Y-148876213D01*
X226909267Y-148811910D01*
X226974793Y-148714835D01*
X226997823Y-148600000D01*
X226997823Y-147000000D01*
X226976213Y-146888623D01*
X226911910Y-146790733D01*
X226814835Y-146725207D01*
X226700000Y-146702177D01*
X226066377Y-146702177D01*
X226022518Y-144947823D01*
X226600000Y-144947823D01*
X226711377Y-144926213D01*
X226809267Y-144861910D01*
X226874793Y-144764835D01*
X226897823Y-144650000D01*
X226897823Y-142950000D01*
X226876213Y-142838623D01*
X226811910Y-142740733D01*
X226716700Y-142676465D01*
X226716700Y-141953050D01*
X226716700Y-141846950D01*
X226716700Y-141281775D01*
X226716700Y-140818225D01*
X226716700Y-140253050D01*
X226716700Y-140146950D01*
X226676097Y-140048927D01*
X226601073Y-139973903D01*
X226503050Y-139933300D01*
X225681775Y-139933300D01*
X225615100Y-139999975D01*
X225615100Y-140884900D01*
X226650025Y-140884900D01*
X226716700Y-140818225D01*
X226716700Y-141281775D01*
X226650025Y-141215100D01*
X225615100Y-141215100D01*
X225615100Y-142100025D01*
X225681775Y-142166700D01*
X226503050Y-142166700D01*
X226601073Y-142126097D01*
X226676097Y-142051073D01*
X226716700Y-141953050D01*
X226716700Y-142676465D01*
X226714835Y-142675207D01*
X226600000Y-142652177D01*
X225284900Y-142652177D01*
X225284900Y-142100025D01*
X225284900Y-141215100D01*
X225284900Y-140884900D01*
X225284900Y-139999975D01*
X225218225Y-139933300D01*
X224396950Y-139933300D01*
X224298927Y-139973903D01*
X224223903Y-140048927D01*
X224183300Y-140146950D01*
X224183300Y-140253050D01*
X224183300Y-140818225D01*
X224249975Y-140884900D01*
X225284900Y-140884900D01*
X225284900Y-141215100D01*
X224249975Y-141215100D01*
X224183300Y-141281775D01*
X224183300Y-141846950D01*
X224183300Y-141953050D01*
X224223903Y-142051073D01*
X224298927Y-142126097D01*
X224396950Y-142166700D01*
X225218225Y-142166700D01*
X225284900Y-142100025D01*
X225284900Y-142652177D01*
X224600000Y-142652177D01*
X224488623Y-142673787D01*
X224390733Y-142738090D01*
X224325207Y-142835165D01*
X224302177Y-142950000D01*
X224302177Y-144650000D01*
X224323787Y-144761377D01*
X224388090Y-144859267D01*
X224485165Y-144924793D01*
X224600000Y-144947823D01*
X225234872Y-144947823D01*
X225278731Y-146702177D01*
X224700000Y-146702177D01*
X224588623Y-146723787D01*
X224490733Y-146788090D01*
X224425207Y-146885165D01*
X224402177Y-147000000D01*
X224402177Y-148600000D01*
X224423787Y-148711377D01*
X224488090Y-148809267D01*
X224585165Y-148874793D01*
X224700000Y-148897823D01*
X225306300Y-148897823D01*
X225306300Y-149452177D01*
X224700000Y-149452177D01*
X224588623Y-149473787D01*
X224490733Y-149538090D01*
X224425207Y-149635165D01*
X224402177Y-149750000D01*
X224402177Y-151350000D01*
X224423787Y-151461377D01*
X224488090Y-151559267D01*
X224585165Y-151624793D01*
X224700000Y-151647823D01*
X226241047Y-151647823D01*
X227671612Y-153078388D01*
X227799338Y-153163731D01*
X227950000Y-153193700D01*
X230950000Y-153193700D01*
X231100662Y-153163731D01*
X231100663Y-153163731D01*
X231228388Y-153078388D01*
X232978388Y-151328388D01*
X233063731Y-151200662D01*
X233093700Y-151050000D01*
X233093700Y-149463076D01*
X233133300Y-149423476D01*
X233133300Y-150068225D01*
X233199975Y-150134900D01*
X234034900Y-150134900D01*
X234034900Y-149099975D01*
X233968225Y-149033300D01*
X233523476Y-149033300D01*
X234113076Y-148443700D01*
X235450000Y-148443700D01*
X235582694Y-148417305D01*
X235556300Y-148550000D01*
X235556300Y-149300000D01*
X235556300Y-150050000D01*
X235569493Y-150116329D01*
X235579515Y-150183191D01*
X235584414Y-150191336D01*
X235586269Y-150200662D01*
X235623839Y-150256891D01*
X235658686Y-150314831D01*
X237152177Y-151957671D01*
X237152177Y-153650000D01*
X237173787Y-153761377D01*
X237238090Y-153859267D01*
X237335165Y-153924793D01*
X237450000Y-153947823D01*
X239450000Y-153947823D01*
X239561377Y-153926213D01*
X239659267Y-153861910D01*
X239724793Y-153764835D01*
X239747823Y-153650000D01*
X239747823Y-153404599D01*
X240304324Y-153961100D01*
X235266700Y-153961100D01*
X235266700Y-151353050D01*
X235266700Y-150531775D01*
X235266700Y-150068225D01*
X235266700Y-149246950D01*
X235226097Y-149148927D01*
X235151073Y-149073903D01*
X235053050Y-149033300D01*
X234946950Y-149033300D01*
X234431775Y-149033300D01*
X234365100Y-149099975D01*
X234365100Y-150134900D01*
X235200025Y-150134900D01*
X235266700Y-150068225D01*
X235266700Y-150531775D01*
X235200025Y-150465100D01*
X234365100Y-150465100D01*
X234365100Y-151500025D01*
X234431775Y-151566700D01*
X234946950Y-151566700D01*
X235053050Y-151566700D01*
X235151073Y-151526097D01*
X235226097Y-151451073D01*
X235266700Y-151353050D01*
X235266700Y-153961100D01*
X234034900Y-153961100D01*
X234034900Y-151500025D01*
X234034900Y-150465100D01*
X233199975Y-150465100D01*
X233133300Y-150531775D01*
X233133300Y-151353050D01*
X233173903Y-151451073D01*
X233248927Y-151526097D01*
X233346950Y-151566700D01*
X233453050Y-151566700D01*
X233968225Y-151566700D01*
X234034900Y-151500025D01*
X234034900Y-153961100D01*
X222966700Y-153961100D01*
X222966700Y-151403050D01*
X222966700Y-151296950D01*
X222966700Y-150781775D01*
X222966700Y-150318225D01*
X222966700Y-149803050D01*
X222966700Y-149696950D01*
X222966700Y-148653050D01*
X222966700Y-148546950D01*
X222966700Y-148031775D01*
X222966700Y-147568225D01*
X222966700Y-147053050D01*
X222966700Y-146946950D01*
X222926097Y-146848927D01*
X222851073Y-146773903D01*
X222753050Y-146733300D01*
X221931775Y-146733300D01*
X221865100Y-146799975D01*
X221865100Y-147634900D01*
X222900025Y-147634900D01*
X222966700Y-147568225D01*
X222966700Y-148031775D01*
X222900025Y-147965100D01*
X221865100Y-147965100D01*
X221865100Y-148800025D01*
X221931775Y-148866700D01*
X222753050Y-148866700D01*
X222851073Y-148826097D01*
X222926097Y-148751073D01*
X222966700Y-148653050D01*
X222966700Y-149696950D01*
X222926097Y-149598927D01*
X222851073Y-149523903D01*
X222753050Y-149483300D01*
X221931775Y-149483300D01*
X221865100Y-149549975D01*
X221865100Y-150384900D01*
X222900025Y-150384900D01*
X222966700Y-150318225D01*
X222966700Y-150781775D01*
X222900025Y-150715100D01*
X221865100Y-150715100D01*
X221865100Y-151550025D01*
X221931775Y-151616700D01*
X222753050Y-151616700D01*
X222851073Y-151576097D01*
X222926097Y-151501073D01*
X222966700Y-151403050D01*
X222966700Y-153961100D01*
X221534900Y-153961100D01*
X221534900Y-151550025D01*
X221534900Y-150715100D01*
X221534900Y-150384900D01*
X221534900Y-149549975D01*
X221534900Y-148800025D01*
X221534900Y-147965100D01*
X221534900Y-147634900D01*
X221534900Y-146799975D01*
X221468225Y-146733300D01*
X220646950Y-146733300D01*
X220548927Y-146773903D01*
X220473903Y-146848927D01*
X220433300Y-146946950D01*
X220433300Y-147053050D01*
X220433300Y-147568225D01*
X220499975Y-147634900D01*
X221534900Y-147634900D01*
X221534900Y-147965100D01*
X220499975Y-147965100D01*
X220433300Y-148031775D01*
X220433300Y-148546950D01*
X220433300Y-148653050D01*
X220473903Y-148751073D01*
X220548927Y-148826097D01*
X220646950Y-148866700D01*
X221468225Y-148866700D01*
X221534900Y-148800025D01*
X221534900Y-149549975D01*
X221468225Y-149483300D01*
X220646950Y-149483300D01*
X220548927Y-149523903D01*
X220473903Y-149598927D01*
X220433300Y-149696950D01*
X220433300Y-149803050D01*
X220433300Y-150318225D01*
X220499975Y-150384900D01*
X221534900Y-150384900D01*
X221534900Y-150715100D01*
X220499975Y-150715100D01*
X220433300Y-150781775D01*
X220433300Y-151296950D01*
X220433300Y-151403050D01*
X220473903Y-151501073D01*
X220548927Y-151576097D01*
X220646950Y-151616700D01*
X221468225Y-151616700D01*
X221534900Y-151550025D01*
X221534900Y-153961100D01*
X220038900Y-153961100D01*
X220038900Y-129138900D01*
X246112700Y-129138900D01*
X246112700Y-131038575D01*
X246179375Y-131105250D01*
X246709600Y-131105250D01*
X246709600Y-131085250D01*
X247039800Y-131085250D01*
X247039800Y-131105250D01*
X247570025Y-131105250D01*
X247636700Y-131038575D01*
X247636700Y-129138900D01*
X251161577Y-129138900D01*
X251161577Y-132343254D01*
G36*
X255306300Y-139082895D02*
X255200000Y-139061577D01*
X250640700Y-139061577D01*
X250529323Y-139083187D01*
X250431433Y-139147490D01*
X250365907Y-139244565D01*
X250342877Y-139359400D01*
X250342877Y-140350000D01*
X250364487Y-140461377D01*
X250428790Y-140559267D01*
X250525865Y-140624793D01*
X250640700Y-140647823D01*
X253295401Y-140647823D01*
X251936638Y-142006585D01*
X251936728Y-141904124D01*
X251824823Y-141633295D01*
X251617795Y-141425905D01*
X251347162Y-141313528D01*
X251054124Y-141313272D01*
X250783295Y-141425177D01*
X250575905Y-141632205D01*
X250565899Y-141656300D01*
X250416700Y-141656300D01*
X250393825Y-141656300D01*
X250350025Y-141612500D01*
X249815100Y-141612500D01*
X249815100Y-141627177D01*
X249484900Y-141627177D01*
X249484900Y-141612500D01*
X248949975Y-141612500D01*
X248883300Y-141679175D01*
X248883300Y-141728050D01*
X248901300Y-141771507D01*
X248875207Y-141810165D01*
X248852177Y-141925000D01*
X248852177Y-142175000D01*
X248873787Y-142286377D01*
X248882406Y-142299498D01*
X248875207Y-142310165D01*
X248852177Y-142425000D01*
X248852177Y-142675000D01*
X248873787Y-142786377D01*
X248882406Y-142799498D01*
X248875207Y-142810165D01*
X248852177Y-142925000D01*
X248852177Y-143175000D01*
X248873787Y-143286377D01*
X248882406Y-143299498D01*
X248875207Y-143310165D01*
X248852177Y-143425000D01*
X248852177Y-143675000D01*
X248861137Y-143721182D01*
X248824823Y-143633295D01*
X248617795Y-143425905D01*
X248347162Y-143313528D01*
X248054124Y-143313272D01*
X247783295Y-143425177D01*
X247575905Y-143632205D01*
X247463528Y-143902838D01*
X247463272Y-144195876D01*
X247575177Y-144466705D01*
X247782205Y-144674095D01*
X247806300Y-144684100D01*
X247806300Y-144849524D01*
X247580875Y-144624099D01*
X245728388Y-142771612D01*
X244400476Y-141443700D01*
X248883300Y-141443700D01*
X248906175Y-141443700D01*
X248949975Y-141487500D01*
X249484900Y-141487500D01*
X249484900Y-141472823D01*
X249815100Y-141472823D01*
X249815100Y-141487500D01*
X250350025Y-141487500D01*
X250416700Y-141420825D01*
X250416700Y-141371950D01*
X250398699Y-141328492D01*
X250424793Y-141289835D01*
X250447823Y-141175000D01*
X250447823Y-140925000D01*
X250426213Y-140813623D01*
X250361910Y-140715733D01*
X250264835Y-140650207D01*
X250150000Y-140627177D01*
X249150000Y-140627177D01*
X249038623Y-140648787D01*
X249027185Y-140656300D01*
X248849630Y-140656300D01*
X248936472Y-140447162D01*
X248936728Y-140154124D01*
X248824823Y-139883295D01*
X248617795Y-139675905D01*
X248347162Y-139563528D01*
X248307435Y-139563493D01*
X248122823Y-139098161D01*
X248122823Y-138600000D01*
X248101213Y-138488623D01*
X248036910Y-138390733D01*
X247939835Y-138325207D01*
X247825000Y-138302177D01*
X247593700Y-138302177D01*
X247593700Y-135684328D01*
X247616705Y-135674823D01*
X247824095Y-135467795D01*
X247936472Y-135197162D01*
X247936728Y-134904124D01*
X247824823Y-134633295D01*
X247823617Y-134632087D01*
X247902939Y-134579087D01*
X248621577Y-133860449D01*
X248621577Y-138109300D01*
X248643187Y-138220677D01*
X248707490Y-138318567D01*
X248804565Y-138384093D01*
X248919400Y-138407123D01*
X249910000Y-138407123D01*
X250021377Y-138385513D01*
X250119267Y-138321210D01*
X250184793Y-138224135D01*
X250207823Y-138109300D01*
X250207823Y-136223350D01*
X250420350Y-136223350D01*
X250571012Y-136193381D01*
X250571013Y-136193381D01*
X250698738Y-136108038D01*
X250779849Y-136026926D01*
X250802838Y-136036472D01*
X251095876Y-136036728D01*
X251366705Y-135924823D01*
X251574095Y-135717795D01*
X251686472Y-135447162D01*
X251686562Y-135343338D01*
X253621612Y-137278388D01*
X253749338Y-137363731D01*
X253900000Y-137393700D01*
X253947177Y-137393700D01*
X253947177Y-137775000D01*
X253968787Y-137886377D01*
X254033090Y-137984267D01*
X254130165Y-138049793D01*
X254245000Y-138072823D01*
X254416047Y-138072823D01*
X255306300Y-138963076D01*
X255306300Y-139082895D01*
X255306300Y-139082895D01*
G37*
X255306300Y-139082895D02*
X255200000Y-139061577D01*
X250640700Y-139061577D01*
X250529323Y-139083187D01*
X250431433Y-139147490D01*
X250365907Y-139244565D01*
X250342877Y-139359400D01*
X250342877Y-140350000D01*
X250364487Y-140461377D01*
X250428790Y-140559267D01*
X250525865Y-140624793D01*
X250640700Y-140647823D01*
X253295401Y-140647823D01*
X251936638Y-142006585D01*
X251936728Y-141904124D01*
X251824823Y-141633295D01*
X251617795Y-141425905D01*
X251347162Y-141313528D01*
X251054124Y-141313272D01*
X250783295Y-141425177D01*
X250575905Y-141632205D01*
X250565899Y-141656300D01*
X250416700Y-141656300D01*
X250393825Y-141656300D01*
X250350025Y-141612500D01*
X249815100Y-141612500D01*
X249815100Y-141627177D01*
X249484900Y-141627177D01*
X249484900Y-141612500D01*
X248949975Y-141612500D01*
X248883300Y-141679175D01*
X248883300Y-141728050D01*
X248901300Y-141771507D01*
X248875207Y-141810165D01*
X248852177Y-141925000D01*
X248852177Y-142175000D01*
X248873787Y-142286377D01*
X248882406Y-142299498D01*
X248875207Y-142310165D01*
X248852177Y-142425000D01*
X248852177Y-142675000D01*
X248873787Y-142786377D01*
X248882406Y-142799498D01*
X248875207Y-142810165D01*
X248852177Y-142925000D01*
X248852177Y-143175000D01*
X248873787Y-143286377D01*
X248882406Y-143299498D01*
X248875207Y-143310165D01*
X248852177Y-143425000D01*
X248852177Y-143675000D01*
X248861137Y-143721182D01*
X248824823Y-143633295D01*
X248617795Y-143425905D01*
X248347162Y-143313528D01*
X248054124Y-143313272D01*
X247783295Y-143425177D01*
X247575905Y-143632205D01*
X247463528Y-143902838D01*
X247463272Y-144195876D01*
X247575177Y-144466705D01*
X247782205Y-144674095D01*
X247806300Y-144684100D01*
X247806300Y-144849524D01*
X247580875Y-144624099D01*
X245728388Y-142771612D01*
X244400476Y-141443700D01*
X248883300Y-141443700D01*
X248906175Y-141443700D01*
X248949975Y-141487500D01*
X249484900Y-141487500D01*
X249484900Y-141472823D01*
X249815100Y-141472823D01*
X249815100Y-141487500D01*
X250350025Y-141487500D01*
X250416700Y-141420825D01*
X250416700Y-141371950D01*
X250398699Y-141328492D01*
X250424793Y-141289835D01*
X250447823Y-141175000D01*
X250447823Y-140925000D01*
X250426213Y-140813623D01*
X250361910Y-140715733D01*
X250264835Y-140650207D01*
X250150000Y-140627177D01*
X249150000Y-140627177D01*
X249038623Y-140648787D01*
X249027185Y-140656300D01*
X248849630Y-140656300D01*
X248936472Y-140447162D01*
X248936728Y-140154124D01*
X248824823Y-139883295D01*
X248617795Y-139675905D01*
X248347162Y-139563528D01*
X248307435Y-139563493D01*
X248122823Y-139098161D01*
X248122823Y-138600000D01*
X248101213Y-138488623D01*
X248036910Y-138390733D01*
X247939835Y-138325207D01*
X247825000Y-138302177D01*
X247593700Y-138302177D01*
X247593700Y-135684328D01*
X247616705Y-135674823D01*
X247824095Y-135467795D01*
X247936472Y-135197162D01*
X247936728Y-134904124D01*
X247824823Y-134633295D01*
X247823617Y-134632087D01*
X247902939Y-134579087D01*
X248621577Y-133860449D01*
X248621577Y-138109300D01*
X248643187Y-138220677D01*
X248707490Y-138318567D01*
X248804565Y-138384093D01*
X248919400Y-138407123D01*
X249910000Y-138407123D01*
X250021377Y-138385513D01*
X250119267Y-138321210D01*
X250184793Y-138224135D01*
X250207823Y-138109300D01*
X250207823Y-136223350D01*
X250420350Y-136223350D01*
X250571012Y-136193381D01*
X250571013Y-136193381D01*
X250698738Y-136108038D01*
X250779849Y-136026926D01*
X250802838Y-136036472D01*
X251095876Y-136036728D01*
X251366705Y-135924823D01*
X251574095Y-135717795D01*
X251686472Y-135447162D01*
X251686562Y-135343338D01*
X253621612Y-137278388D01*
X253749338Y-137363731D01*
X253900000Y-137393700D01*
X253947177Y-137393700D01*
X253947177Y-137775000D01*
X253968787Y-137886377D01*
X254033090Y-137984267D01*
X254130165Y-138049793D01*
X254245000Y-138072823D01*
X254416047Y-138072823D01*
X255306300Y-138963076D01*
X255306300Y-139082895D01*
G36*
X268556300Y-139636924D02*
X267846924Y-140346300D01*
X267503038Y-140346300D01*
X267496213Y-140311123D01*
X267431910Y-140213233D01*
X267334835Y-140147707D01*
X267220000Y-140124677D01*
X264680000Y-140124677D01*
X264568623Y-140146287D01*
X264470733Y-140210590D01*
X264405207Y-140307665D01*
X264382177Y-140422500D01*
X264382177Y-141057500D01*
X264403787Y-141168877D01*
X264468090Y-141266767D01*
X264565165Y-141332293D01*
X264680000Y-141355323D01*
X267220000Y-141355323D01*
X267331377Y-141333713D01*
X267429267Y-141269410D01*
X267494793Y-141172335D01*
X267502541Y-141133700D01*
X268010000Y-141133700D01*
X268071821Y-141121402D01*
X267576924Y-141616300D01*
X267503038Y-141616300D01*
X267496213Y-141581123D01*
X267431910Y-141483233D01*
X267334835Y-141417707D01*
X267220000Y-141394677D01*
X264680000Y-141394677D01*
X264568623Y-141416287D01*
X264470733Y-141480590D01*
X264405207Y-141577665D01*
X264382177Y-141692500D01*
X264382177Y-142068547D01*
X262772311Y-143678413D01*
X262686968Y-143806138D01*
X262656999Y-143956801D01*
X262656999Y-147300000D01*
X262671394Y-147372370D01*
X262684643Y-147444921D01*
X262686352Y-147447569D01*
X262686968Y-147450662D01*
X262727951Y-147511998D01*
X262767965Y-147573973D01*
X264270256Y-149124300D01*
X263931775Y-149124300D01*
X263865100Y-149190975D01*
X263865100Y-151384900D01*
X264662025Y-151384900D01*
X264728700Y-151318225D01*
X264728700Y-149597402D01*
X265140177Y-150022036D01*
X265140177Y-153620101D01*
X264728700Y-153620101D01*
X264728700Y-151781775D01*
X264662025Y-151715100D01*
X263865100Y-151715100D01*
X263865100Y-151735100D01*
X263534900Y-151735100D01*
X263534900Y-151715100D01*
X263534900Y-151384900D01*
X263534900Y-149190975D01*
X263468225Y-149124300D01*
X262884950Y-149124300D01*
X262786927Y-149164903D01*
X262711903Y-149239927D01*
X262671300Y-149337950D01*
X262671300Y-149444050D01*
X262671300Y-151318225D01*
X262737975Y-151384900D01*
X263534900Y-151384900D01*
X263534900Y-151715100D01*
X262737975Y-151715100D01*
X262671300Y-151781775D01*
X262671300Y-153620101D01*
X262259823Y-153620101D01*
X262259823Y-149391000D01*
X262238213Y-149279623D01*
X262173910Y-149181733D01*
X262127100Y-149150136D01*
X262127100Y-146050000D01*
X262127100Y-144800005D01*
X262127100Y-144800000D01*
X262127101Y-144800000D01*
X262056529Y-144445214D01*
X261855559Y-144144441D01*
X261355559Y-143644441D01*
X261054786Y-143443471D01*
X260700000Y-143372900D01*
X258950000Y-143372900D01*
X258595214Y-143443471D01*
X258294441Y-143644441D01*
X258093471Y-143945214D01*
X258022900Y-144300000D01*
X258022900Y-145550000D01*
X258093471Y-145904786D01*
X258294441Y-146205559D01*
X258595214Y-146406529D01*
X258950000Y-146477100D01*
X259304786Y-146406529D01*
X259605559Y-146205559D01*
X259806529Y-145904786D01*
X259877100Y-145550000D01*
X259877100Y-145227100D01*
X260272900Y-145227100D01*
X260272900Y-146050000D01*
X260272900Y-149150077D01*
X260228733Y-149179090D01*
X260163207Y-149276165D01*
X260140177Y-149391000D01*
X260140177Y-153620101D01*
X251743791Y-153620101D01*
X251747823Y-153600000D01*
X251747823Y-152000000D01*
X251726213Y-151888623D01*
X251715426Y-151872202D01*
X252676312Y-152833088D01*
X252804038Y-152918431D01*
X252954700Y-152948400D01*
X254902177Y-152948400D01*
X254902177Y-153050000D01*
X254923787Y-153161377D01*
X254988090Y-153259267D01*
X255085165Y-153324793D01*
X255200000Y-153347823D01*
X259759300Y-153347823D01*
X259870677Y-153326213D01*
X259968567Y-153261910D01*
X260034093Y-153164835D01*
X260057123Y-153050000D01*
X260057123Y-152059400D01*
X260035513Y-151948023D01*
X260026000Y-151933541D01*
X260026000Y-148023050D01*
X260026000Y-147706475D01*
X260026000Y-147242925D01*
X260026000Y-146926350D01*
X259985397Y-146828327D01*
X259910373Y-146753303D01*
X259812350Y-146712700D01*
X259706250Y-146712700D01*
X257711425Y-146712700D01*
X257644750Y-146779375D01*
X257644750Y-147309600D01*
X259959325Y-147309600D01*
X260026000Y-147242925D01*
X260026000Y-147706475D01*
X259959325Y-147639800D01*
X257644750Y-147639800D01*
X257644750Y-148170025D01*
X257711425Y-148236700D01*
X259706250Y-148236700D01*
X259812350Y-148236700D01*
X259910373Y-148196097D01*
X259985397Y-148121073D01*
X260026000Y-148023050D01*
X260026000Y-151933541D01*
X259971210Y-151850133D01*
X259874135Y-151784607D01*
X259759300Y-151761577D01*
X257314550Y-151761577D01*
X257314550Y-148170025D01*
X257314550Y-147639800D01*
X257314550Y-147309600D01*
X257314550Y-146779375D01*
X257247875Y-146712700D01*
X255253050Y-146712700D01*
X255146950Y-146712700D01*
X255048927Y-146753303D01*
X254973903Y-146828327D01*
X254933300Y-146926350D01*
X254933300Y-147242925D01*
X254999975Y-147309600D01*
X257314550Y-147309600D01*
X257314550Y-147639800D01*
X254999975Y-147639800D01*
X254933300Y-147706475D01*
X254933300Y-148023050D01*
X254973903Y-148121073D01*
X255048927Y-148196097D01*
X255146950Y-148236700D01*
X255253050Y-148236700D01*
X257247875Y-148236700D01*
X257314550Y-148170025D01*
X257314550Y-151761577D01*
X255200000Y-151761577D01*
X255088623Y-151783187D01*
X254990733Y-151847490D01*
X254925207Y-151944565D01*
X254902177Y-152059400D01*
X254902177Y-152161000D01*
X253117776Y-152161000D01*
X251978388Y-151021612D01*
X251850663Y-150936269D01*
X251700000Y-150906300D01*
X248663076Y-150906300D01*
X248122823Y-150366047D01*
X248122823Y-150000000D01*
X248101213Y-149888623D01*
X248093700Y-149877185D01*
X248093700Y-149298868D01*
X249087920Y-150293088D01*
X249215646Y-150378431D01*
X249366308Y-150408400D01*
X250342877Y-150408400D01*
X250342877Y-150510000D01*
X250364487Y-150621377D01*
X250428790Y-150719267D01*
X250525865Y-150784793D01*
X250640700Y-150807823D01*
X255200000Y-150807823D01*
X255311377Y-150786213D01*
X255409267Y-150721910D01*
X255474793Y-150624835D01*
X255497823Y-150510000D01*
X255497823Y-149519400D01*
X255476213Y-149408023D01*
X255411910Y-149310133D01*
X255314835Y-149244607D01*
X255200000Y-149221577D01*
X252044165Y-149221577D01*
X253228388Y-148037354D01*
X253313730Y-147909629D01*
X253313731Y-147909628D01*
X253343700Y-147758966D01*
X253343700Y-147542134D01*
X253366705Y-147532629D01*
X253574095Y-147325601D01*
X253686472Y-147054968D01*
X253686728Y-146761930D01*
X253574823Y-146491101D01*
X253367795Y-146283711D01*
X253097162Y-146171334D01*
X252804124Y-146171078D01*
X252533295Y-146282983D01*
X252325905Y-146490011D01*
X252275015Y-146612566D01*
X252224823Y-146491092D01*
X252017795Y-146283702D01*
X251747162Y-146171325D01*
X251454124Y-146171069D01*
X251183295Y-146282974D01*
X250975905Y-146490002D01*
X250863528Y-146760635D01*
X250863272Y-147053673D01*
X250873235Y-147077785D01*
X250794720Y-147156300D01*
X250447823Y-147156300D01*
X250447823Y-146925000D01*
X250426213Y-146813623D01*
X250417593Y-146800501D01*
X250424793Y-146789835D01*
X250447823Y-146675000D01*
X250447823Y-146425000D01*
X250426213Y-146313623D01*
X250417593Y-146300501D01*
X250424793Y-146289835D01*
X250447823Y-146175000D01*
X250447823Y-145925000D01*
X250426213Y-145813623D01*
X250417593Y-145800501D01*
X250424793Y-145789835D01*
X250447823Y-145675000D01*
X250447823Y-145652114D01*
X250525865Y-145704793D01*
X250640700Y-145727823D01*
X255200000Y-145727823D01*
X255311377Y-145706213D01*
X255409267Y-145641910D01*
X255474793Y-145544835D01*
X255497823Y-145430000D01*
X255497823Y-144439400D01*
X255476213Y-144328023D01*
X255411910Y-144230133D01*
X255314835Y-144164607D01*
X255200000Y-144141577D01*
X253605743Y-144141577D01*
X253686472Y-143947162D01*
X253686728Y-143654124D01*
X253574823Y-143383295D01*
X253367795Y-143175905D01*
X253097162Y-143063528D01*
X252804124Y-143063272D01*
X252700818Y-143105957D01*
X253755842Y-142050933D01*
X253713528Y-142152838D01*
X253713272Y-142445876D01*
X253825177Y-142716705D01*
X254032205Y-142924095D01*
X254302838Y-143036472D01*
X254595876Y-143036728D01*
X254866705Y-142924823D01*
X254902177Y-142889412D01*
X254902177Y-142890000D01*
X254923787Y-143001377D01*
X254988090Y-143099267D01*
X255085165Y-143164793D01*
X255200000Y-143187823D01*
X259759300Y-143187823D01*
X259870677Y-143166213D01*
X259968567Y-143101910D01*
X260034093Y-143004835D01*
X260057123Y-142890000D01*
X260057123Y-141899400D01*
X260035513Y-141788023D01*
X259971210Y-141690133D01*
X259874135Y-141624607D01*
X259759300Y-141601577D01*
X255943683Y-141601577D01*
X255978388Y-141578388D01*
X258633388Y-138923388D01*
X258718731Y-138795663D01*
X258718731Y-138795662D01*
X258748700Y-138645000D01*
X258748700Y-138054642D01*
X258766377Y-138051213D01*
X258864267Y-137986910D01*
X258929793Y-137889835D01*
X258952823Y-137775000D01*
X258952823Y-136359599D01*
X259801612Y-137208388D01*
X259929337Y-137293731D01*
X259929338Y-137293731D01*
X260080000Y-137323700D01*
X264396961Y-137323700D01*
X264403787Y-137358877D01*
X264468090Y-137456767D01*
X264565165Y-137522293D01*
X264680000Y-137545323D01*
X267220000Y-137545323D01*
X267331377Y-137523713D01*
X267429267Y-137459410D01*
X267494793Y-137362335D01*
X267517823Y-137247500D01*
X267517823Y-136612500D01*
X267496213Y-136501123D01*
X267486700Y-136486641D01*
X267486700Y-136030550D01*
X267486700Y-135885425D01*
X267420025Y-135818750D01*
X266115100Y-135818750D01*
X266115100Y-136177525D01*
X266181775Y-136244200D01*
X267166950Y-136244200D01*
X267273050Y-136244200D01*
X267371073Y-136203597D01*
X267446097Y-136128573D01*
X267486700Y-136030550D01*
X267486700Y-136486641D01*
X267431910Y-136403233D01*
X267334835Y-136337707D01*
X267220000Y-136314677D01*
X265784900Y-136314677D01*
X265784900Y-136177525D01*
X265784900Y-135818750D01*
X264479975Y-135818750D01*
X264413300Y-135885425D01*
X264413300Y-136030550D01*
X264453903Y-136128573D01*
X264528927Y-136203597D01*
X264626950Y-136244200D01*
X264733050Y-136244200D01*
X265718225Y-136244200D01*
X265784900Y-136177525D01*
X265784900Y-136314677D01*
X264680000Y-136314677D01*
X264568623Y-136336287D01*
X264470733Y-136400590D01*
X264405207Y-136497665D01*
X264397458Y-136536300D01*
X260243076Y-136536300D01*
X258921700Y-135214924D01*
X258921700Y-132428050D01*
X258921700Y-131831775D01*
X258855025Y-131765100D01*
X258505000Y-131765100D01*
X258505000Y-132575025D01*
X258571675Y-132641700D01*
X258601950Y-132641700D01*
X258708050Y-132641700D01*
X258806073Y-132601097D01*
X258881097Y-132526073D01*
X258921700Y-132428050D01*
X258921700Y-135214924D01*
X258205000Y-134498224D01*
X258205000Y-132575025D01*
X258205000Y-131765100D01*
X257854975Y-131765100D01*
X257788300Y-131831775D01*
X257788300Y-132428050D01*
X257828903Y-132526073D01*
X257903927Y-132601097D01*
X258001950Y-132641700D01*
X258108050Y-132641700D01*
X258138325Y-132641700D01*
X258205000Y-132575025D01*
X258205000Y-134498224D01*
X257176926Y-133470150D01*
X257186472Y-133447162D01*
X257186728Y-133154124D01*
X257074823Y-132883295D01*
X256867795Y-132675905D01*
X256860372Y-132672823D01*
X257385000Y-132672823D01*
X257496377Y-132651213D01*
X257594267Y-132586910D01*
X257659793Y-132489835D01*
X257682823Y-132375000D01*
X257682823Y-130873953D01*
X257790756Y-130766019D01*
X257788300Y-130771950D01*
X257788300Y-131368225D01*
X257854975Y-131434900D01*
X258205000Y-131434900D01*
X258205000Y-131414900D01*
X258505000Y-131414900D01*
X258505000Y-131434900D01*
X258855025Y-131434900D01*
X258921700Y-131368225D01*
X258921700Y-130771950D01*
X258915301Y-130756504D01*
X259349728Y-130756504D01*
X260556300Y-131963076D01*
X260556300Y-132402177D01*
X259950000Y-132402177D01*
X259838623Y-132423787D01*
X259740733Y-132488090D01*
X259675207Y-132585165D01*
X259652177Y-132700000D01*
X259652177Y-134400000D01*
X259673787Y-134511377D01*
X259738090Y-134609267D01*
X259835165Y-134674793D01*
X259950000Y-134697823D01*
X261950000Y-134697823D01*
X262061377Y-134676213D01*
X262159267Y-134611910D01*
X262224793Y-134514835D01*
X262247823Y-134400000D01*
X262247823Y-134154599D01*
X263171612Y-135078388D01*
X263299337Y-135163731D01*
X263299338Y-135163731D01*
X263450000Y-135193700D01*
X264452961Y-135193700D01*
X264413300Y-135289450D01*
X264413300Y-135434575D01*
X264479975Y-135501250D01*
X265784900Y-135501250D01*
X265784900Y-135474900D01*
X266115100Y-135474900D01*
X266115100Y-135501250D01*
X267420025Y-135501250D01*
X267486700Y-135434575D01*
X267486700Y-135289450D01*
X267447038Y-135193700D01*
X267786924Y-135193700D01*
X268056300Y-135463076D01*
X268056300Y-138636924D01*
X267616924Y-139076300D01*
X267503038Y-139076300D01*
X267496213Y-139041123D01*
X267486700Y-139026641D01*
X267486700Y-138570550D01*
X267486700Y-138425425D01*
X267486700Y-137974575D01*
X267486700Y-137829450D01*
X267446097Y-137731427D01*
X267371073Y-137656403D01*
X267273050Y-137615800D01*
X267166950Y-137615800D01*
X266181775Y-137615800D01*
X266115100Y-137682475D01*
X266115100Y-138041250D01*
X267420025Y-138041250D01*
X267486700Y-137974575D01*
X267486700Y-138425425D01*
X267420025Y-138358750D01*
X266115100Y-138358750D01*
X266115100Y-138717525D01*
X266181775Y-138784200D01*
X267166950Y-138784200D01*
X267273050Y-138784200D01*
X267371073Y-138743597D01*
X267446097Y-138668573D01*
X267486700Y-138570550D01*
X267486700Y-139026641D01*
X267431910Y-138943233D01*
X267334835Y-138877707D01*
X267220000Y-138854677D01*
X265784900Y-138854677D01*
X265784900Y-138717525D01*
X265784900Y-138358750D01*
X265784900Y-138041250D01*
X265784900Y-137682475D01*
X265718225Y-137615800D01*
X264733050Y-137615800D01*
X264626950Y-137615800D01*
X264528927Y-137656403D01*
X264453903Y-137731427D01*
X264413300Y-137829450D01*
X264413300Y-137974575D01*
X264479975Y-138041250D01*
X265784900Y-138041250D01*
X265784900Y-138358750D01*
X264479975Y-138358750D01*
X264413300Y-138425425D01*
X264413300Y-138570550D01*
X264453903Y-138668573D01*
X264528927Y-138743597D01*
X264626950Y-138784200D01*
X264733050Y-138784200D01*
X265718225Y-138784200D01*
X265784900Y-138717525D01*
X265784900Y-138854677D01*
X264680000Y-138854677D01*
X264568623Y-138876287D01*
X264470733Y-138940590D01*
X264405207Y-139037665D01*
X264382177Y-139152500D01*
X264382177Y-139787500D01*
X264403787Y-139898877D01*
X264468090Y-139996767D01*
X264565165Y-140062293D01*
X264680000Y-140085323D01*
X267220000Y-140085323D01*
X267331377Y-140063713D01*
X267429267Y-139999410D01*
X267494793Y-139902335D01*
X267502541Y-139863700D01*
X267780000Y-139863700D01*
X267930662Y-139833731D01*
X267930663Y-139833731D01*
X268058388Y-139748388D01*
X268556300Y-139250476D01*
X268556300Y-139636924D01*
X268556300Y-139636924D01*
G37*
X268556300Y-139636924D02*
X267846924Y-140346300D01*
X267503038Y-140346300D01*
X267496213Y-140311123D01*
X267431910Y-140213233D01*
X267334835Y-140147707D01*
X267220000Y-140124677D01*
X264680000Y-140124677D01*
X264568623Y-140146287D01*
X264470733Y-140210590D01*
X264405207Y-140307665D01*
X264382177Y-140422500D01*
X264382177Y-141057500D01*
X264403787Y-141168877D01*
X264468090Y-141266767D01*
X264565165Y-141332293D01*
X264680000Y-141355323D01*
X267220000Y-141355323D01*
X267331377Y-141333713D01*
X267429267Y-141269410D01*
X267494793Y-141172335D01*
X267502541Y-141133700D01*
X268010000Y-141133700D01*
X268071821Y-141121402D01*
X267576924Y-141616300D01*
X267503038Y-141616300D01*
X267496213Y-141581123D01*
X267431910Y-141483233D01*
X267334835Y-141417707D01*
X267220000Y-141394677D01*
X264680000Y-141394677D01*
X264568623Y-141416287D01*
X264470733Y-141480590D01*
X264405207Y-141577665D01*
X264382177Y-141692500D01*
X264382177Y-142068547D01*
X262772311Y-143678413D01*
X262686968Y-143806138D01*
X262656999Y-143956801D01*
X262656999Y-147300000D01*
X262671394Y-147372370D01*
X262684643Y-147444921D01*
X262686352Y-147447569D01*
X262686968Y-147450662D01*
X262727951Y-147511998D01*
X262767965Y-147573973D01*
X264270256Y-149124300D01*
X263931775Y-149124300D01*
X263865100Y-149190975D01*
X263865100Y-151384900D01*
X264662025Y-151384900D01*
X264728700Y-151318225D01*
X264728700Y-149597402D01*
X265140177Y-150022036D01*
X265140177Y-153620101D01*
X264728700Y-153620101D01*
X264728700Y-151781775D01*
X264662025Y-151715100D01*
X263865100Y-151715100D01*
X263865100Y-151735100D01*
X263534900Y-151735100D01*
X263534900Y-151715100D01*
X263534900Y-151384900D01*
X263534900Y-149190975D01*
X263468225Y-149124300D01*
X262884950Y-149124300D01*
X262786927Y-149164903D01*
X262711903Y-149239927D01*
X262671300Y-149337950D01*
X262671300Y-149444050D01*
X262671300Y-151318225D01*
X262737975Y-151384900D01*
X263534900Y-151384900D01*
X263534900Y-151715100D01*
X262737975Y-151715100D01*
X262671300Y-151781775D01*
X262671300Y-153620101D01*
X262259823Y-153620101D01*
X262259823Y-149391000D01*
X262238213Y-149279623D01*
X262173910Y-149181733D01*
X262127100Y-149150136D01*
X262127100Y-146050000D01*
X262127100Y-144800005D01*
X262127100Y-144800000D01*
X262127101Y-144800000D01*
X262056529Y-144445214D01*
X261855559Y-144144441D01*
X261355559Y-143644441D01*
X261054786Y-143443471D01*
X260700000Y-143372900D01*
X258950000Y-143372900D01*
X258595214Y-143443471D01*
X258294441Y-143644441D01*
X258093471Y-143945214D01*
X258022900Y-144300000D01*
X258022900Y-145550000D01*
X258093471Y-145904786D01*
X258294441Y-146205559D01*
X258595214Y-146406529D01*
X258950000Y-146477100D01*
X259304786Y-146406529D01*
X259605559Y-146205559D01*
X259806529Y-145904786D01*
X259877100Y-145550000D01*
X259877100Y-145227100D01*
X260272900Y-145227100D01*
X260272900Y-146050000D01*
X260272900Y-149150077D01*
X260228733Y-149179090D01*
X260163207Y-149276165D01*
X260140177Y-149391000D01*
X260140177Y-153620101D01*
X251743791Y-153620101D01*
X251747823Y-153600000D01*
X251747823Y-152000000D01*
X251726213Y-151888623D01*
X251715426Y-151872202D01*
X252676312Y-152833088D01*
X252804038Y-152918431D01*
X252954700Y-152948400D01*
X254902177Y-152948400D01*
X254902177Y-153050000D01*
X254923787Y-153161377D01*
X254988090Y-153259267D01*
X255085165Y-153324793D01*
X255200000Y-153347823D01*
X259759300Y-153347823D01*
X259870677Y-153326213D01*
X259968567Y-153261910D01*
X260034093Y-153164835D01*
X260057123Y-153050000D01*
X260057123Y-152059400D01*
X260035513Y-151948023D01*
X260026000Y-151933541D01*
X260026000Y-148023050D01*
X260026000Y-147706475D01*
X260026000Y-147242925D01*
X260026000Y-146926350D01*
X259985397Y-146828327D01*
X259910373Y-146753303D01*
X259812350Y-146712700D01*
X259706250Y-146712700D01*
X257711425Y-146712700D01*
X257644750Y-146779375D01*
X257644750Y-147309600D01*
X259959325Y-147309600D01*
X260026000Y-147242925D01*
X260026000Y-147706475D01*
X259959325Y-147639800D01*
X257644750Y-147639800D01*
X257644750Y-148170025D01*
X257711425Y-148236700D01*
X259706250Y-148236700D01*
X259812350Y-148236700D01*
X259910373Y-148196097D01*
X259985397Y-148121073D01*
X260026000Y-148023050D01*
X260026000Y-151933541D01*
X259971210Y-151850133D01*
X259874135Y-151784607D01*
X259759300Y-151761577D01*
X257314550Y-151761577D01*
X257314550Y-148170025D01*
X257314550Y-147639800D01*
X257314550Y-147309600D01*
X257314550Y-146779375D01*
X257247875Y-146712700D01*
X255253050Y-146712700D01*
X255146950Y-146712700D01*
X255048927Y-146753303D01*
X254973903Y-146828327D01*
X254933300Y-146926350D01*
X254933300Y-147242925D01*
X254999975Y-147309600D01*
X257314550Y-147309600D01*
X257314550Y-147639800D01*
X254999975Y-147639800D01*
X254933300Y-147706475D01*
X254933300Y-148023050D01*
X254973903Y-148121073D01*
X255048927Y-148196097D01*
X255146950Y-148236700D01*
X255253050Y-148236700D01*
X257247875Y-148236700D01*
X257314550Y-148170025D01*
X257314550Y-151761577D01*
X255200000Y-151761577D01*
X255088623Y-151783187D01*
X254990733Y-151847490D01*
X254925207Y-151944565D01*
X254902177Y-152059400D01*
X254902177Y-152161000D01*
X253117776Y-152161000D01*
X251978388Y-151021612D01*
X251850663Y-150936269D01*
X251700000Y-150906300D01*
X248663076Y-150906300D01*
X248122823Y-150366047D01*
X248122823Y-150000000D01*
X248101213Y-149888623D01*
X248093700Y-149877185D01*
X248093700Y-149298868D01*
X249087920Y-150293088D01*
X249215646Y-150378431D01*
X249366308Y-150408400D01*
X250342877Y-150408400D01*
X250342877Y-150510000D01*
X250364487Y-150621377D01*
X250428790Y-150719267D01*
X250525865Y-150784793D01*
X250640700Y-150807823D01*
X255200000Y-150807823D01*
X255311377Y-150786213D01*
X255409267Y-150721910D01*
X255474793Y-150624835D01*
X255497823Y-150510000D01*
X255497823Y-149519400D01*
X255476213Y-149408023D01*
X255411910Y-149310133D01*
X255314835Y-149244607D01*
X255200000Y-149221577D01*
X252044165Y-149221577D01*
X253228388Y-148037354D01*
X253313730Y-147909629D01*
X253313731Y-147909628D01*
X253343700Y-147758966D01*
X253343700Y-147542134D01*
X253366705Y-147532629D01*
X253574095Y-147325601D01*
X253686472Y-147054968D01*
X253686728Y-146761930D01*
X253574823Y-146491101D01*
X253367795Y-146283711D01*
X253097162Y-146171334D01*
X252804124Y-146171078D01*
X252533295Y-146282983D01*
X252325905Y-146490011D01*
X252275015Y-146612566D01*
X252224823Y-146491092D01*
X252017795Y-146283702D01*
X251747162Y-146171325D01*
X251454124Y-146171069D01*
X251183295Y-146282974D01*
X250975905Y-146490002D01*
X250863528Y-146760635D01*
X250863272Y-147053673D01*
X250873235Y-147077785D01*
X250794720Y-147156300D01*
X250447823Y-147156300D01*
X250447823Y-146925000D01*
X250426213Y-146813623D01*
X250417593Y-146800501D01*
X250424793Y-146789835D01*
X250447823Y-146675000D01*
X250447823Y-146425000D01*
X250426213Y-146313623D01*
X250417593Y-146300501D01*
X250424793Y-146289835D01*
X250447823Y-146175000D01*
X250447823Y-145925000D01*
X250426213Y-145813623D01*
X250417593Y-145800501D01*
X250424793Y-145789835D01*
X250447823Y-145675000D01*
X250447823Y-145652114D01*
X250525865Y-145704793D01*
X250640700Y-145727823D01*
X255200000Y-145727823D01*
X255311377Y-145706213D01*
X255409267Y-145641910D01*
X255474793Y-145544835D01*
X255497823Y-145430000D01*
X255497823Y-144439400D01*
X255476213Y-144328023D01*
X255411910Y-144230133D01*
X255314835Y-144164607D01*
X255200000Y-144141577D01*
X253605743Y-144141577D01*
X253686472Y-143947162D01*
X253686728Y-143654124D01*
X253574823Y-143383295D01*
X253367795Y-143175905D01*
X253097162Y-143063528D01*
X252804124Y-143063272D01*
X252700818Y-143105957D01*
X253755842Y-142050933D01*
X253713528Y-142152838D01*
X253713272Y-142445876D01*
X253825177Y-142716705D01*
X254032205Y-142924095D01*
X254302838Y-143036472D01*
X254595876Y-143036728D01*
X254866705Y-142924823D01*
X254902177Y-142889412D01*
X254902177Y-142890000D01*
X254923787Y-143001377D01*
X254988090Y-143099267D01*
X255085165Y-143164793D01*
X255200000Y-143187823D01*
X259759300Y-143187823D01*
X259870677Y-143166213D01*
X259968567Y-143101910D01*
X260034093Y-143004835D01*
X260057123Y-142890000D01*
X260057123Y-141899400D01*
X260035513Y-141788023D01*
X259971210Y-141690133D01*
X259874135Y-141624607D01*
X259759300Y-141601577D01*
X255943683Y-141601577D01*
X255978388Y-141578388D01*
X258633388Y-138923388D01*
X258718731Y-138795663D01*
X258718731Y-138795662D01*
X258748700Y-138645000D01*
X258748700Y-138054642D01*
X258766377Y-138051213D01*
X258864267Y-137986910D01*
X258929793Y-137889835D01*
X258952823Y-137775000D01*
X258952823Y-136359599D01*
X259801612Y-137208388D01*
X259929337Y-137293731D01*
X259929338Y-137293731D01*
X260080000Y-137323700D01*
X264396961Y-137323700D01*
X264403787Y-137358877D01*
X264468090Y-137456767D01*
X264565165Y-137522293D01*
X264680000Y-137545323D01*
X267220000Y-137545323D01*
X267331377Y-137523713D01*
X267429267Y-137459410D01*
X267494793Y-137362335D01*
X267517823Y-137247500D01*
X267517823Y-136612500D01*
X267496213Y-136501123D01*
X267486700Y-136486641D01*
X267486700Y-136030550D01*
X267486700Y-135885425D01*
X267420025Y-135818750D01*
X266115100Y-135818750D01*
X266115100Y-136177525D01*
X266181775Y-136244200D01*
X267166950Y-136244200D01*
X267273050Y-136244200D01*
X267371073Y-136203597D01*
X267446097Y-136128573D01*
X267486700Y-136030550D01*
X267486700Y-136486641D01*
X267431910Y-136403233D01*
X267334835Y-136337707D01*
X267220000Y-136314677D01*
X265784900Y-136314677D01*
X265784900Y-136177525D01*
X265784900Y-135818750D01*
X264479975Y-135818750D01*
X264413300Y-135885425D01*
X264413300Y-136030550D01*
X264453903Y-136128573D01*
X264528927Y-136203597D01*
X264626950Y-136244200D01*
X264733050Y-136244200D01*
X265718225Y-136244200D01*
X265784900Y-136177525D01*
X265784900Y-136314677D01*
X264680000Y-136314677D01*
X264568623Y-136336287D01*
X264470733Y-136400590D01*
X264405207Y-136497665D01*
X264397458Y-136536300D01*
X260243076Y-136536300D01*
X258921700Y-135214924D01*
X258921700Y-132428050D01*
X258921700Y-131831775D01*
X258855025Y-131765100D01*
X258505000Y-131765100D01*
X258505000Y-132575025D01*
X258571675Y-132641700D01*
X258601950Y-132641700D01*
X258708050Y-132641700D01*
X258806073Y-132601097D01*
X258881097Y-132526073D01*
X258921700Y-132428050D01*
X258921700Y-135214924D01*
X258205000Y-134498224D01*
X258205000Y-132575025D01*
X258205000Y-131765100D01*
X257854975Y-131765100D01*
X257788300Y-131831775D01*
X257788300Y-132428050D01*
X257828903Y-132526073D01*
X257903927Y-132601097D01*
X258001950Y-132641700D01*
X258108050Y-132641700D01*
X258138325Y-132641700D01*
X258205000Y-132575025D01*
X258205000Y-134498224D01*
X257176926Y-133470150D01*
X257186472Y-133447162D01*
X257186728Y-133154124D01*
X257074823Y-132883295D01*
X256867795Y-132675905D01*
X256860372Y-132672823D01*
X257385000Y-132672823D01*
X257496377Y-132651213D01*
X257594267Y-132586910D01*
X257659793Y-132489835D01*
X257682823Y-132375000D01*
X257682823Y-130873953D01*
X257790756Y-130766019D01*
X257788300Y-130771950D01*
X257788300Y-131368225D01*
X257854975Y-131434900D01*
X258205000Y-131434900D01*
X258205000Y-131414900D01*
X258505000Y-131414900D01*
X258505000Y-131434900D01*
X258855025Y-131434900D01*
X258921700Y-131368225D01*
X258921700Y-130771950D01*
X258915301Y-130756504D01*
X259349728Y-130756504D01*
X260556300Y-131963076D01*
X260556300Y-132402177D01*
X259950000Y-132402177D01*
X259838623Y-132423787D01*
X259740733Y-132488090D01*
X259675207Y-132585165D01*
X259652177Y-132700000D01*
X259652177Y-134400000D01*
X259673787Y-134511377D01*
X259738090Y-134609267D01*
X259835165Y-134674793D01*
X259950000Y-134697823D01*
X261950000Y-134697823D01*
X262061377Y-134676213D01*
X262159267Y-134611910D01*
X262224793Y-134514835D01*
X262247823Y-134400000D01*
X262247823Y-134154599D01*
X263171612Y-135078388D01*
X263299337Y-135163731D01*
X263299338Y-135163731D01*
X263450000Y-135193700D01*
X264452961Y-135193700D01*
X264413300Y-135289450D01*
X264413300Y-135434575D01*
X264479975Y-135501250D01*
X265784900Y-135501250D01*
X265784900Y-135474900D01*
X266115100Y-135474900D01*
X266115100Y-135501250D01*
X267420025Y-135501250D01*
X267486700Y-135434575D01*
X267486700Y-135289450D01*
X267447038Y-135193700D01*
X267786924Y-135193700D01*
X268056300Y-135463076D01*
X268056300Y-138636924D01*
X267616924Y-139076300D01*
X267503038Y-139076300D01*
X267496213Y-139041123D01*
X267486700Y-139026641D01*
X267486700Y-138570550D01*
X267486700Y-138425425D01*
X267486700Y-137974575D01*
X267486700Y-137829450D01*
X267446097Y-137731427D01*
X267371073Y-137656403D01*
X267273050Y-137615800D01*
X267166950Y-137615800D01*
X266181775Y-137615800D01*
X266115100Y-137682475D01*
X266115100Y-138041250D01*
X267420025Y-138041250D01*
X267486700Y-137974575D01*
X267486700Y-138425425D01*
X267420025Y-138358750D01*
X266115100Y-138358750D01*
X266115100Y-138717525D01*
X266181775Y-138784200D01*
X267166950Y-138784200D01*
X267273050Y-138784200D01*
X267371073Y-138743597D01*
X267446097Y-138668573D01*
X267486700Y-138570550D01*
X267486700Y-139026641D01*
X267431910Y-138943233D01*
X267334835Y-138877707D01*
X267220000Y-138854677D01*
X265784900Y-138854677D01*
X265784900Y-138717525D01*
X265784900Y-138358750D01*
X265784900Y-138041250D01*
X265784900Y-137682475D01*
X265718225Y-137615800D01*
X264733050Y-137615800D01*
X264626950Y-137615800D01*
X264528927Y-137656403D01*
X264453903Y-137731427D01*
X264413300Y-137829450D01*
X264413300Y-137974575D01*
X264479975Y-138041250D01*
X265784900Y-138041250D01*
X265784900Y-138358750D01*
X264479975Y-138358750D01*
X264413300Y-138425425D01*
X264413300Y-138570550D01*
X264453903Y-138668573D01*
X264528927Y-138743597D01*
X264626950Y-138784200D01*
X264733050Y-138784200D01*
X265718225Y-138784200D01*
X265784900Y-138717525D01*
X265784900Y-138854677D01*
X264680000Y-138854677D01*
X264568623Y-138876287D01*
X264470733Y-138940590D01*
X264405207Y-139037665D01*
X264382177Y-139152500D01*
X264382177Y-139787500D01*
X264403787Y-139898877D01*
X264468090Y-139996767D01*
X264565165Y-140062293D01*
X264680000Y-140085323D01*
X267220000Y-140085323D01*
X267331377Y-140063713D01*
X267429267Y-139999410D01*
X267494793Y-139902335D01*
X267502541Y-139863700D01*
X267780000Y-139863700D01*
X267930662Y-139833731D01*
X267930663Y-139833731D01*
X268058388Y-139748388D01*
X268556300Y-139250476D01*
X268556300Y-139636924D01*
G36*
X282861100Y-150982177D02*
X280649623Y-150982177D01*
X280649623Y-150493600D01*
X280649623Y-145972400D01*
X280628013Y-145861023D01*
X280563710Y-145763133D01*
X280466635Y-145697607D01*
X280351800Y-145674577D01*
X275144800Y-145674577D01*
X275033423Y-145696187D01*
X274935533Y-145760490D01*
X274870007Y-145857565D01*
X274846977Y-145972400D01*
X274846977Y-150493600D01*
X274868587Y-150604977D01*
X274932890Y-150702867D01*
X275029965Y-150768393D01*
X275144800Y-150791423D01*
X280351800Y-150791423D01*
X280463177Y-150769813D01*
X280561067Y-150705510D01*
X280626593Y-150608435D01*
X280649623Y-150493600D01*
X280649623Y-150982177D01*
X276525000Y-150982177D01*
X276413623Y-151003787D01*
X276315733Y-151068090D01*
X276250207Y-151165165D01*
X276227177Y-151280000D01*
X276227177Y-152175121D01*
X276171137Y-152186269D01*
X276043412Y-152271612D01*
X274759823Y-153555201D01*
X274759823Y-149391000D01*
X274738213Y-149279623D01*
X274673910Y-149181733D01*
X274576835Y-149116207D01*
X274462000Y-149093177D01*
X273025286Y-149093177D01*
X269846128Y-146495147D01*
X269795412Y-146468174D01*
X269747662Y-146436269D01*
X269728107Y-146432379D01*
X269710502Y-146423016D01*
X269653330Y-146417505D01*
X269597000Y-146406300D01*
X267517823Y-146406300D01*
X267517823Y-144867500D01*
X267517823Y-144232500D01*
X267496213Y-144121123D01*
X267431910Y-144023233D01*
X267334835Y-143957707D01*
X267220000Y-143934677D01*
X264680000Y-143934677D01*
X264568623Y-143956287D01*
X264470733Y-144020590D01*
X264405207Y-144117665D01*
X264382177Y-144232500D01*
X264382177Y-144867500D01*
X264403787Y-144978877D01*
X264468090Y-145076767D01*
X264565165Y-145142293D01*
X264680000Y-145165323D01*
X267220000Y-145165323D01*
X267331377Y-145143713D01*
X267429267Y-145079410D01*
X267494793Y-144982335D01*
X267517823Y-144867500D01*
X267517823Y-146406300D01*
X264434328Y-146406300D01*
X264424823Y-146383295D01*
X264217795Y-146175905D01*
X263947162Y-146063528D01*
X263654124Y-146063272D01*
X263444399Y-146149929D01*
X263444399Y-144119877D01*
X264382177Y-143182099D01*
X264382177Y-143597500D01*
X264403787Y-143708877D01*
X264468090Y-143806767D01*
X264565165Y-143872293D01*
X264680000Y-143895323D01*
X267220000Y-143895323D01*
X267331377Y-143873713D01*
X267429267Y-143809410D01*
X267494793Y-143712335D01*
X267517823Y-143597500D01*
X267517823Y-142962500D01*
X267496213Y-142851123D01*
X267431910Y-142753233D01*
X267334835Y-142687707D01*
X267220000Y-142664677D01*
X264899599Y-142664677D01*
X264938953Y-142625323D01*
X267220000Y-142625323D01*
X267331377Y-142603713D01*
X267429267Y-142539410D01*
X267494793Y-142442335D01*
X267502541Y-142403700D01*
X267740000Y-142403700D01*
X267890662Y-142373731D01*
X267890663Y-142373731D01*
X268018388Y-142288388D01*
X269978388Y-140328388D01*
X270063731Y-140200662D01*
X270093700Y-140050000D01*
X270093700Y-134800000D01*
X270063731Y-134649338D01*
X270063731Y-134649337D01*
X269978388Y-134521612D01*
X264728388Y-129271612D01*
X264600663Y-129186269D01*
X264450000Y-129156300D01*
X256200000Y-129156300D01*
X256049338Y-129186269D01*
X255921612Y-129271612D01*
X254666047Y-130527177D01*
X254245000Y-130527177D01*
X254133623Y-130548787D01*
X254035733Y-130613090D01*
X253970207Y-130710165D01*
X253947177Y-130825000D01*
X253947177Y-132375000D01*
X253968787Y-132486377D01*
X254033090Y-132584267D01*
X254130165Y-132649793D01*
X254245000Y-132672823D01*
X254538992Y-132672823D01*
X254533295Y-132675177D01*
X254325905Y-132882205D01*
X254213528Y-133152838D01*
X254213272Y-133445876D01*
X254325177Y-133716705D01*
X254532205Y-133924095D01*
X254556300Y-133934100D01*
X254556300Y-134658966D01*
X254586269Y-134809629D01*
X254671612Y-134937354D01*
X255421300Y-135687042D01*
X255421300Y-135945357D01*
X255403623Y-135948787D01*
X255305733Y-136013090D01*
X255240207Y-136110165D01*
X255217177Y-136225000D01*
X255217177Y-137760401D01*
X255142823Y-137686047D01*
X255142823Y-136225000D01*
X255121213Y-136113623D01*
X255056910Y-136015733D01*
X254959835Y-135950207D01*
X254845000Y-135927177D01*
X254245000Y-135927177D01*
X254133623Y-135948787D01*
X254035733Y-136013090D01*
X253970207Y-136110165D01*
X253947177Y-136225000D01*
X253947177Y-136490401D01*
X252348400Y-134891624D01*
X252348400Y-133847823D01*
X252450000Y-133847823D01*
X252561377Y-133826213D01*
X252659267Y-133761910D01*
X252724793Y-133664835D01*
X252747823Y-133550000D01*
X252747823Y-129138900D01*
X275008741Y-129138900D01*
X274935533Y-129186990D01*
X274870007Y-129284065D01*
X274846977Y-129398900D01*
X274846977Y-133920100D01*
X274868587Y-134031477D01*
X274932890Y-134129367D01*
X275029965Y-134194893D01*
X275144800Y-134217923D01*
X280351800Y-134217923D01*
X280463177Y-134196313D01*
X280561067Y-134132010D01*
X280626593Y-134034935D01*
X280649623Y-133920100D01*
X280649623Y-129398900D01*
X280628013Y-129287523D01*
X280563710Y-129189633D01*
X280488550Y-129138900D01*
X282861100Y-129138900D01*
X282861100Y-150982177D01*
X282861100Y-150982177D01*
G37*
X282861100Y-150982177D02*
X280649623Y-150982177D01*
X280649623Y-150493600D01*
X280649623Y-145972400D01*
X280628013Y-145861023D01*
X280563710Y-145763133D01*
X280466635Y-145697607D01*
X280351800Y-145674577D01*
X275144800Y-145674577D01*
X275033423Y-145696187D01*
X274935533Y-145760490D01*
X274870007Y-145857565D01*
X274846977Y-145972400D01*
X274846977Y-150493600D01*
X274868587Y-150604977D01*
X274932890Y-150702867D01*
X275029965Y-150768393D01*
X275144800Y-150791423D01*
X280351800Y-150791423D01*
X280463177Y-150769813D01*
X280561067Y-150705510D01*
X280626593Y-150608435D01*
X280649623Y-150493600D01*
X280649623Y-150982177D01*
X276525000Y-150982177D01*
X276413623Y-151003787D01*
X276315733Y-151068090D01*
X276250207Y-151165165D01*
X276227177Y-151280000D01*
X276227177Y-152175121D01*
X276171137Y-152186269D01*
X276043412Y-152271612D01*
X274759823Y-153555201D01*
X274759823Y-149391000D01*
X274738213Y-149279623D01*
X274673910Y-149181733D01*
X274576835Y-149116207D01*
X274462000Y-149093177D01*
X273025286Y-149093177D01*
X269846128Y-146495147D01*
X269795412Y-146468174D01*
X269747662Y-146436269D01*
X269728107Y-146432379D01*
X269710502Y-146423016D01*
X269653330Y-146417505D01*
X269597000Y-146406300D01*
X267517823Y-146406300D01*
X267517823Y-144867500D01*
X267517823Y-144232500D01*
X267496213Y-144121123D01*
X267431910Y-144023233D01*
X267334835Y-143957707D01*
X267220000Y-143934677D01*
X264680000Y-143934677D01*
X264568623Y-143956287D01*
X264470733Y-144020590D01*
X264405207Y-144117665D01*
X264382177Y-144232500D01*
X264382177Y-144867500D01*
X264403787Y-144978877D01*
X264468090Y-145076767D01*
X264565165Y-145142293D01*
X264680000Y-145165323D01*
X267220000Y-145165323D01*
X267331377Y-145143713D01*
X267429267Y-145079410D01*
X267494793Y-144982335D01*
X267517823Y-144867500D01*
X267517823Y-146406300D01*
X264434328Y-146406300D01*
X264424823Y-146383295D01*
X264217795Y-146175905D01*
X263947162Y-146063528D01*
X263654124Y-146063272D01*
X263444399Y-146149929D01*
X263444399Y-144119877D01*
X264382177Y-143182099D01*
X264382177Y-143597500D01*
X264403787Y-143708877D01*
X264468090Y-143806767D01*
X264565165Y-143872293D01*
X264680000Y-143895323D01*
X267220000Y-143895323D01*
X267331377Y-143873713D01*
X267429267Y-143809410D01*
X267494793Y-143712335D01*
X267517823Y-143597500D01*
X267517823Y-142962500D01*
X267496213Y-142851123D01*
X267431910Y-142753233D01*
X267334835Y-142687707D01*
X267220000Y-142664677D01*
X264899599Y-142664677D01*
X264938953Y-142625323D01*
X267220000Y-142625323D01*
X267331377Y-142603713D01*
X267429267Y-142539410D01*
X267494793Y-142442335D01*
X267502541Y-142403700D01*
X267740000Y-142403700D01*
X267890662Y-142373731D01*
X267890663Y-142373731D01*
X268018388Y-142288388D01*
X269978388Y-140328388D01*
X270063731Y-140200662D01*
X270093700Y-140050000D01*
X270093700Y-134800000D01*
X270063731Y-134649338D01*
X270063731Y-134649337D01*
X269978388Y-134521612D01*
X264728388Y-129271612D01*
X264600663Y-129186269D01*
X264450000Y-129156300D01*
X256200000Y-129156300D01*
X256049338Y-129186269D01*
X255921612Y-129271612D01*
X254666047Y-130527177D01*
X254245000Y-130527177D01*
X254133623Y-130548787D01*
X254035733Y-130613090D01*
X253970207Y-130710165D01*
X253947177Y-130825000D01*
X253947177Y-132375000D01*
X253968787Y-132486377D01*
X254033090Y-132584267D01*
X254130165Y-132649793D01*
X254245000Y-132672823D01*
X254538992Y-132672823D01*
X254533295Y-132675177D01*
X254325905Y-132882205D01*
X254213528Y-133152838D01*
X254213272Y-133445876D01*
X254325177Y-133716705D01*
X254532205Y-133924095D01*
X254556300Y-133934100D01*
X254556300Y-134658966D01*
X254586269Y-134809629D01*
X254671612Y-134937354D01*
X255421300Y-135687042D01*
X255421300Y-135945357D01*
X255403623Y-135948787D01*
X255305733Y-136013090D01*
X255240207Y-136110165D01*
X255217177Y-136225000D01*
X255217177Y-137760401D01*
X255142823Y-137686047D01*
X255142823Y-136225000D01*
X255121213Y-136113623D01*
X255056910Y-136015733D01*
X254959835Y-135950207D01*
X254845000Y-135927177D01*
X254245000Y-135927177D01*
X254133623Y-135948787D01*
X254035733Y-136013090D01*
X253970207Y-136110165D01*
X253947177Y-136225000D01*
X253947177Y-136490401D01*
X252348400Y-134891624D01*
X252348400Y-133847823D01*
X252450000Y-133847823D01*
X252561377Y-133826213D01*
X252659267Y-133761910D01*
X252724793Y-133664835D01*
X252747823Y-133550000D01*
X252747823Y-129138900D01*
X275008741Y-129138900D01*
X274935533Y-129186990D01*
X274870007Y-129284065D01*
X274846977Y-129398900D01*
X274846977Y-133920100D01*
X274868587Y-134031477D01*
X274932890Y-134129367D01*
X275029965Y-134194893D01*
X275144800Y-134217923D01*
X280351800Y-134217923D01*
X280463177Y-134196313D01*
X280561067Y-134132010D01*
X280626593Y-134034935D01*
X280649623Y-133920100D01*
X280649623Y-129398900D01*
X280628013Y-129287523D01*
X280563710Y-129189633D01*
X280488550Y-129138900D01*
X282861100Y-129138900D01*
X282861100Y-150982177D01*
M02*
