G04 #@! TF.FileFunction,Copper,L2,Bot,Signal*
%FSLAX46Y46*%
G04 Gerber Fmt 4.6, Leading zero omitted, Abs format (unit mm)*
G04 Created by KiCad (PCBNEW (2015-01-16 BZR 5376)-product) date 3/7/2015 4:06:46 PM*
%MOMM*%
G01*
G04 APERTURE LIST*
%ADD10C,0.149860*%
%ADD11R,2.000000X1.700000*%
%ADD12R,1.700000X2.000000*%
%ADD13R,1.800860X0.800100*%
%ADD14R,6.350000X10.160000*%
%ADD15C,0.889000*%
%ADD16C,0.203200*%
%ADD17C,1.016000*%
%ADD18C,0.177800*%
G04 APERTURE END LIST*
D10*
D11*
X264700000Y-136050000D03*
X260700000Y-136050000D03*
X259200000Y-142550000D03*
X263200000Y-142550000D03*
D12*
X265950000Y-140800000D03*
X265950000Y-144800000D03*
D13*
X263451140Y-138100000D03*
X263451140Y-140000000D03*
X260448860Y-139050000D03*
X268698860Y-142500000D03*
X268698860Y-140600000D03*
X271701140Y-141550000D03*
D14*
X279590000Y-148800000D03*
X270700000Y-148800000D03*
X279640000Y-134300000D03*
X270960000Y-134300000D03*
D15*
X221800000Y-131200000D03*
X279600000Y-141800000D03*
X236400000Y-140000000D03*
X254800000Y-144200000D03*
X251000000Y-140000000D03*
X242400000Y-136800000D03*
X258000000Y-141200000D03*
X248000000Y-144200000D03*
X241400000Y-147400000D03*
X237770158Y-139429842D03*
X238600000Y-137800000D03*
X263800000Y-146800000D03*
X251600000Y-148000000D03*
X266800000Y-147800000D03*
X251400000Y-144800000D03*
X266000000Y-148743298D03*
X251600000Y-146907797D03*
X240000000Y-144800000D03*
X248449310Y-147800000D03*
X257200000Y-142050000D03*
X250950000Y-142050000D03*
X248700000Y-139050000D03*
X254950000Y-140050000D03*
X239895503Y-148055187D03*
X260389490Y-145399991D03*
X260400000Y-144200000D03*
X262000000Y-141200000D03*
X238000000Y-149800000D03*
X249600000Y-149729111D03*
X258400000Y-151800000D03*
X238600000Y-150800000D03*
X248000000Y-137200000D03*
X252800000Y-135000000D03*
D16*
X279590000Y-148800000D02*
X279590000Y-141810000D01*
X279590000Y-141810000D02*
X279600000Y-141800000D01*
X255600000Y-143400000D02*
X258350000Y-143400000D01*
X254800000Y-144200000D02*
X255600000Y-143400000D01*
X258350000Y-143400000D02*
X259200000Y-142550000D01*
X259200000Y-142550000D02*
X259200000Y-142400000D01*
X259200000Y-142400000D02*
X258000000Y-141200000D01*
X259200000Y-142550000D02*
X259950000Y-142550000D01*
X241400000Y-147400000D02*
X242549301Y-148549301D01*
X242549301Y-148549301D02*
X248808975Y-148549301D01*
X248808975Y-148549301D02*
X249198611Y-148159665D01*
X249198611Y-148159665D02*
X249198611Y-145398611D01*
X249198611Y-145398611D02*
X248000000Y-144200000D01*
X238600000Y-137800000D02*
X238600000Y-138600000D01*
X238600000Y-138600000D02*
X237770158Y-139429842D01*
X262600000Y-148000000D02*
X252228617Y-148000000D01*
X263800000Y-146800000D02*
X262600000Y-148000000D01*
X252228617Y-148000000D02*
X251600000Y-148000000D01*
X261121859Y-145949301D02*
X264320684Y-145949301D01*
X261121859Y-145949301D02*
X260921859Y-146149301D01*
X260959665Y-145949301D02*
X261121859Y-145949301D01*
X260921859Y-146149301D02*
X252749301Y-146149301D01*
X251400000Y-144800000D02*
X252749301Y-146149301D01*
X266171383Y-147800000D02*
X266800000Y-147800000D01*
X260759665Y-146149301D02*
X260959665Y-145949301D01*
X264320684Y-145949301D02*
X266171383Y-147800000D01*
X251600000Y-146907797D02*
X250850699Y-147657098D01*
X250850699Y-147657098D02*
X250850699Y-148359665D01*
X250850699Y-148359665D02*
X251290335Y-148799301D01*
X251290335Y-148799301D02*
X265943997Y-148799301D01*
X265943997Y-148799301D02*
X266000000Y-148743298D01*
X242755501Y-147355501D02*
X240200000Y-144800000D01*
X240200000Y-144800000D02*
X240000000Y-144800000D01*
X248449310Y-147800000D02*
X248004811Y-147355501D01*
X248004811Y-147355501D02*
X242755501Y-147355501D01*
X257200000Y-142050000D02*
X250950000Y-142050000D01*
X253950000Y-139050000D02*
X248700000Y-139050000D01*
X254950000Y-140050000D02*
X253950000Y-139050000D01*
X261943841Y-134895199D02*
X259782564Y-134895199D01*
X248691034Y-135000000D02*
X249625250Y-135000000D01*
X249625250Y-135000000D02*
X250374551Y-134250699D01*
X250374551Y-134250699D02*
X259138064Y-134250699D01*
X259138064Y-134250699D02*
X259782564Y-134895199D01*
X263451140Y-138100000D02*
X262004801Y-136653661D01*
X239250699Y-147410383D02*
X239895503Y-148055187D01*
X239250699Y-144440335D02*
X239250699Y-147410383D01*
X248691034Y-135000000D02*
X239250699Y-144440335D01*
X262004801Y-134956159D02*
X261943841Y-134895199D01*
X262004801Y-136653661D02*
X262004801Y-134956159D01*
X263200000Y-141496800D02*
X262903200Y-141200000D01*
X262628617Y-141200000D02*
X262000000Y-141200000D01*
X263200000Y-142550000D02*
X263200000Y-141496800D01*
X262903200Y-141200000D02*
X262628617Y-141200000D01*
X238000000Y-149800000D02*
X249529111Y-149800000D01*
X249529111Y-149800000D02*
X249600000Y-149729111D01*
X268698860Y-142500000D02*
X263250000Y-142500000D01*
X263250000Y-142500000D02*
X263200000Y-142550000D01*
D17*
X265950000Y-144800000D02*
X266700000Y-144800000D01*
X266700000Y-144800000D02*
X270700000Y-148800000D01*
D16*
X257400000Y-150800000D02*
X257955501Y-151355501D01*
X238600000Y-150800000D02*
X257400000Y-150800000D01*
X257955501Y-151355501D02*
X258400000Y-151800000D01*
X252800000Y-135000000D02*
X250200000Y-135000000D01*
X250200000Y-135000000D02*
X248000000Y-137200000D01*
D18*
G36*
X282861100Y-143471132D02*
X282818050Y-143453300D01*
X279821775Y-143453300D01*
X279755100Y-143519975D01*
X279755100Y-148634900D01*
X279775100Y-148634900D01*
X279775100Y-148965100D01*
X279755100Y-148965100D01*
X279755100Y-148985100D01*
X279474900Y-148985100D01*
X279474900Y-139580025D01*
X279474900Y-134465100D01*
X276264975Y-134465100D01*
X276198300Y-134531775D01*
X276198300Y-139326950D01*
X276198300Y-139433050D01*
X276238903Y-139531073D01*
X276313927Y-139606097D01*
X276411950Y-139646700D01*
X279408225Y-139646700D01*
X279474900Y-139580025D01*
X279474900Y-148985100D01*
X279424900Y-148985100D01*
X279424900Y-148965100D01*
X279424900Y-148634900D01*
X279424900Y-143519975D01*
X279358225Y-143453300D01*
X276361950Y-143453300D01*
X276263927Y-143493903D01*
X276188903Y-143568927D01*
X276148300Y-143666950D01*
X276148300Y-143773050D01*
X276148300Y-148568225D01*
X276214975Y-148634900D01*
X279424900Y-148634900D01*
X279424900Y-148965100D01*
X276214975Y-148965100D01*
X276148300Y-149031775D01*
X276148300Y-153826950D01*
X276148300Y-153933050D01*
X276159918Y-153961100D01*
X275538900Y-153961100D01*
X275538900Y-129138900D01*
X276209918Y-129138900D01*
X276198300Y-129166950D01*
X276198300Y-129273050D01*
X276198300Y-134068225D01*
X276264975Y-134134900D01*
X279474900Y-134134900D01*
X279474900Y-134114900D01*
X279805100Y-134114900D01*
X279805100Y-134134900D01*
X279825100Y-134134900D01*
X279825100Y-134465100D01*
X279805100Y-134465100D01*
X279805100Y-139580025D01*
X279871775Y-139646700D01*
X282861100Y-139646700D01*
X282861100Y-143471132D01*
X282861100Y-143471132D01*
G37*
X282861100Y-143471132D02*
X282818050Y-143453300D01*
X279821775Y-143453300D01*
X279755100Y-143519975D01*
X279755100Y-148634900D01*
X279775100Y-148634900D01*
X279775100Y-148965100D01*
X279755100Y-148965100D01*
X279755100Y-148985100D01*
X279474900Y-148985100D01*
X279474900Y-139580025D01*
X279474900Y-134465100D01*
X276264975Y-134465100D01*
X276198300Y-134531775D01*
X276198300Y-139326950D01*
X276198300Y-139433050D01*
X276238903Y-139531073D01*
X276313927Y-139606097D01*
X276411950Y-139646700D01*
X279408225Y-139646700D01*
X279474900Y-139580025D01*
X279474900Y-148985100D01*
X279424900Y-148985100D01*
X279424900Y-148965100D01*
X279424900Y-148634900D01*
X279424900Y-143519975D01*
X279358225Y-143453300D01*
X276361950Y-143453300D01*
X276263927Y-143493903D01*
X276188903Y-143568927D01*
X276148300Y-143666950D01*
X276148300Y-143773050D01*
X276148300Y-148568225D01*
X276214975Y-148634900D01*
X279424900Y-148634900D01*
X279424900Y-148965100D01*
X276214975Y-148965100D01*
X276148300Y-149031775D01*
X276148300Y-153826950D01*
X276148300Y-153933050D01*
X276159918Y-153961100D01*
X275538900Y-153961100D01*
X275538900Y-129138900D01*
X276209918Y-129138900D01*
X276198300Y-129166950D01*
X276198300Y-129273050D01*
X276198300Y-134068225D01*
X276264975Y-134134900D01*
X279474900Y-134134900D01*
X279474900Y-134114900D01*
X279805100Y-134114900D01*
X279805100Y-134134900D01*
X279825100Y-134134900D01*
X279825100Y-134465100D01*
X279805100Y-134465100D01*
X279805100Y-139580025D01*
X279871775Y-139646700D01*
X282861100Y-139646700D01*
X282861100Y-143471132D01*
G36*
X275111100Y-140661985D02*
X274401700Y-140669079D01*
X274401700Y-139433050D01*
X274401700Y-139326950D01*
X274401700Y-134531775D01*
X274335025Y-134465100D01*
X271125100Y-134465100D01*
X271125100Y-139580025D01*
X271191775Y-139646700D01*
X274188050Y-139646700D01*
X274286073Y-139606097D01*
X274361097Y-139531073D01*
X274401700Y-139433050D01*
X274401700Y-140669079D01*
X270794900Y-140705147D01*
X270794900Y-139580025D01*
X270794900Y-134465100D01*
X267584975Y-134465100D01*
X267518300Y-134531775D01*
X267518300Y-139326950D01*
X267518300Y-139433050D01*
X267558903Y-139531073D01*
X267633927Y-139606097D01*
X267731950Y-139646700D01*
X270728225Y-139646700D01*
X270794900Y-139580025D01*
X270794900Y-140705147D01*
X270111100Y-140711985D01*
X270111100Y-141750000D01*
X270111100Y-143211100D01*
X264497823Y-143211100D01*
X264497823Y-142893700D01*
X267500607Y-142893700D01*
X267500607Y-142900050D01*
X267522217Y-143011427D01*
X267586520Y-143109317D01*
X267683595Y-143174843D01*
X267798430Y-143197873D01*
X269599290Y-143197873D01*
X269710667Y-143176263D01*
X269808557Y-143111960D01*
X269874083Y-143014885D01*
X269897113Y-142900050D01*
X269897113Y-142099950D01*
X269875503Y-141988573D01*
X269865990Y-141974091D01*
X269865990Y-141053100D01*
X269865990Y-140831775D01*
X269865990Y-140368225D01*
X269865990Y-140146900D01*
X269825387Y-140048877D01*
X269750363Y-139973853D01*
X269652340Y-139933250D01*
X269546240Y-139933250D01*
X268930635Y-139933250D01*
X268863960Y-139999925D01*
X268863960Y-140434900D01*
X269799315Y-140434900D01*
X269865990Y-140368225D01*
X269865990Y-140831775D01*
X269799315Y-140765100D01*
X268863960Y-140765100D01*
X268863960Y-141200075D01*
X268930635Y-141266750D01*
X269546240Y-141266750D01*
X269652340Y-141266750D01*
X269750363Y-141226147D01*
X269825387Y-141151123D01*
X269865990Y-141053100D01*
X269865990Y-141974091D01*
X269811200Y-141890683D01*
X269714125Y-141825157D01*
X269599290Y-141802127D01*
X268533760Y-141802127D01*
X268533760Y-141200075D01*
X268533760Y-140765100D01*
X268533760Y-140434900D01*
X268533760Y-139999925D01*
X268467085Y-139933250D01*
X267851480Y-139933250D01*
X267745380Y-139933250D01*
X267647357Y-139973853D01*
X267572333Y-140048877D01*
X267531730Y-140146900D01*
X267531730Y-140368225D01*
X267598405Y-140434900D01*
X268533760Y-140434900D01*
X268533760Y-140765100D01*
X267598405Y-140765100D01*
X267531730Y-140831775D01*
X267531730Y-141053100D01*
X267572333Y-141151123D01*
X267647357Y-141226147D01*
X267745380Y-141266750D01*
X267851480Y-141266750D01*
X268467085Y-141266750D01*
X268533760Y-141200075D01*
X268533760Y-141802127D01*
X267798430Y-141802127D01*
X267687053Y-141823737D01*
X267589163Y-141888040D01*
X267523637Y-141985115D01*
X267500607Y-142099950D01*
X267500607Y-142106300D01*
X267066700Y-142106300D01*
X267066700Y-141853050D01*
X267066700Y-141031775D01*
X267066700Y-140568225D01*
X267066700Y-139746950D01*
X267026097Y-139648927D01*
X266951073Y-139573903D01*
X266853050Y-139533300D01*
X266746950Y-139533300D01*
X266181775Y-139533300D01*
X266115100Y-139599975D01*
X266115100Y-140634900D01*
X267000025Y-140634900D01*
X267066700Y-140568225D01*
X267066700Y-141031775D01*
X267000025Y-140965100D01*
X266115100Y-140965100D01*
X266115100Y-142000025D01*
X266181775Y-142066700D01*
X266746950Y-142066700D01*
X266853050Y-142066700D01*
X266951073Y-142026097D01*
X267026097Y-141951073D01*
X267066700Y-141853050D01*
X267066700Y-142106300D01*
X265966700Y-142106300D01*
X265966700Y-136953050D01*
X265966700Y-136846950D01*
X265966700Y-136281775D01*
X265966700Y-135818225D01*
X265966700Y-135253050D01*
X265966700Y-135146950D01*
X265926097Y-135048927D01*
X265851073Y-134973903D01*
X265753050Y-134933300D01*
X264931775Y-134933300D01*
X264865100Y-134999975D01*
X264865100Y-135884900D01*
X265900025Y-135884900D01*
X265966700Y-135818225D01*
X265966700Y-136281775D01*
X265900025Y-136215100D01*
X264865100Y-136215100D01*
X264865100Y-137100025D01*
X264931775Y-137166700D01*
X265753050Y-137166700D01*
X265851073Y-137126097D01*
X265926097Y-137051073D01*
X265966700Y-136953050D01*
X265966700Y-142106300D01*
X265784900Y-142106300D01*
X265784900Y-142000025D01*
X265784900Y-140965100D01*
X265784900Y-140634900D01*
X265784900Y-139599975D01*
X265718225Y-139533300D01*
X265153050Y-139533300D01*
X265046950Y-139533300D01*
X264948927Y-139573903D01*
X264873903Y-139648927D01*
X264833300Y-139746950D01*
X264833300Y-140568225D01*
X264899975Y-140634900D01*
X265784900Y-140634900D01*
X265784900Y-140965100D01*
X264899975Y-140965100D01*
X264833300Y-141031775D01*
X264833300Y-141853050D01*
X264873903Y-141951073D01*
X264948927Y-142026097D01*
X265046950Y-142066700D01*
X265153050Y-142066700D01*
X265718225Y-142066700D01*
X265784900Y-142000025D01*
X265784900Y-142106300D01*
X264618270Y-142106300D01*
X264618270Y-140453100D01*
X264618270Y-140231775D01*
X264618270Y-139768225D01*
X264618270Y-139546900D01*
X264577667Y-139448877D01*
X264502643Y-139373853D01*
X264404620Y-139333250D01*
X264298520Y-139333250D01*
X263682915Y-139333250D01*
X263616240Y-139399925D01*
X263616240Y-139834900D01*
X264551595Y-139834900D01*
X264618270Y-139768225D01*
X264618270Y-140231775D01*
X264551595Y-140165100D01*
X263616240Y-140165100D01*
X263616240Y-140600075D01*
X263682915Y-140666750D01*
X264298520Y-140666750D01*
X264404620Y-140666750D01*
X264502643Y-140626147D01*
X264577667Y-140551123D01*
X264618270Y-140453100D01*
X264618270Y-142106300D01*
X264497823Y-142106300D01*
X264497823Y-141700000D01*
X264476213Y-141588623D01*
X264411910Y-141490733D01*
X264314835Y-141425207D01*
X264200000Y-141402177D01*
X263574878Y-141402177D01*
X263563731Y-141346138D01*
X263478388Y-141218412D01*
X263181588Y-140921612D01*
X263053863Y-140836269D01*
X262903200Y-140806300D01*
X262634328Y-140806300D01*
X262624823Y-140783295D01*
X262508481Y-140666750D01*
X262603760Y-140666750D01*
X263219365Y-140666750D01*
X263286040Y-140600075D01*
X263286040Y-140165100D01*
X263286040Y-139834900D01*
X263286040Y-139399925D01*
X263219365Y-139333250D01*
X262603760Y-139333250D01*
X262497660Y-139333250D01*
X262399637Y-139373853D01*
X262324613Y-139448877D01*
X262284010Y-139546900D01*
X262284010Y-139768225D01*
X262350685Y-139834900D01*
X263286040Y-139834900D01*
X263286040Y-140165100D01*
X262350685Y-140165100D01*
X262284010Y-140231775D01*
X262284010Y-140453100D01*
X262317653Y-140534322D01*
X262147162Y-140463528D01*
X261854124Y-140463272D01*
X261583295Y-140575177D01*
X261538900Y-140619494D01*
X261538900Y-139674872D01*
X261558557Y-139661960D01*
X261624083Y-139564885D01*
X261647113Y-139450050D01*
X261647113Y-138649950D01*
X261625503Y-138538573D01*
X261561200Y-138440683D01*
X261538900Y-138425630D01*
X261538900Y-137197823D01*
X261700000Y-137197823D01*
X261811377Y-137176213D01*
X261907460Y-137113096D01*
X262317651Y-137523287D01*
X262275917Y-137585115D01*
X262252887Y-137699950D01*
X262252887Y-138500050D01*
X262274497Y-138611427D01*
X262338800Y-138709317D01*
X262435875Y-138774843D01*
X262550710Y-138797873D01*
X264351570Y-138797873D01*
X264462947Y-138776263D01*
X264560837Y-138711960D01*
X264626363Y-138614885D01*
X264649393Y-138500050D01*
X264649393Y-137699950D01*
X264627783Y-137588573D01*
X264563480Y-137490683D01*
X264534900Y-137471391D01*
X264534900Y-137100025D01*
X264534900Y-136215100D01*
X264534900Y-135884900D01*
X264534900Y-134999975D01*
X264468225Y-134933300D01*
X263646950Y-134933300D01*
X263548927Y-134973903D01*
X263473903Y-135048927D01*
X263433300Y-135146950D01*
X263433300Y-135253050D01*
X263433300Y-135818225D01*
X263499975Y-135884900D01*
X264534900Y-135884900D01*
X264534900Y-136215100D01*
X263499975Y-136215100D01*
X263433300Y-136281775D01*
X263433300Y-136846950D01*
X263433300Y-136953050D01*
X263473903Y-137051073D01*
X263548927Y-137126097D01*
X263646950Y-137166700D01*
X264468225Y-137166700D01*
X264534900Y-137100025D01*
X264534900Y-137471391D01*
X264466405Y-137425157D01*
X264351570Y-137402127D01*
X263310043Y-137402127D01*
X262398501Y-136490585D01*
X262398501Y-134956159D01*
X262368532Y-134805497D01*
X262368531Y-134805496D01*
X262283189Y-134677771D01*
X262222229Y-134616811D01*
X262094504Y-134531468D01*
X261943841Y-134501499D01*
X261538900Y-134501499D01*
X261538900Y-129138900D01*
X267450000Y-129138900D01*
X267529918Y-129138900D01*
X267518300Y-129166950D01*
X267518300Y-129273050D01*
X267518300Y-134068225D01*
X267584975Y-134134900D01*
X270794900Y-134134900D01*
X270794900Y-134114900D01*
X271125100Y-134114900D01*
X271125100Y-134134900D01*
X274335025Y-134134900D01*
X274401700Y-134068225D01*
X274401700Y-129273050D01*
X274401700Y-129166950D01*
X274390081Y-129138900D01*
X275111100Y-129138900D01*
X275111100Y-140661985D01*
X275111100Y-140661985D01*
G37*
X275111100Y-140661985D02*
X274401700Y-140669079D01*
X274401700Y-139433050D01*
X274401700Y-139326950D01*
X274401700Y-134531775D01*
X274335025Y-134465100D01*
X271125100Y-134465100D01*
X271125100Y-139580025D01*
X271191775Y-139646700D01*
X274188050Y-139646700D01*
X274286073Y-139606097D01*
X274361097Y-139531073D01*
X274401700Y-139433050D01*
X274401700Y-140669079D01*
X270794900Y-140705147D01*
X270794900Y-139580025D01*
X270794900Y-134465100D01*
X267584975Y-134465100D01*
X267518300Y-134531775D01*
X267518300Y-139326950D01*
X267518300Y-139433050D01*
X267558903Y-139531073D01*
X267633927Y-139606097D01*
X267731950Y-139646700D01*
X270728225Y-139646700D01*
X270794900Y-139580025D01*
X270794900Y-140705147D01*
X270111100Y-140711985D01*
X270111100Y-141750000D01*
X270111100Y-143211100D01*
X264497823Y-143211100D01*
X264497823Y-142893700D01*
X267500607Y-142893700D01*
X267500607Y-142900050D01*
X267522217Y-143011427D01*
X267586520Y-143109317D01*
X267683595Y-143174843D01*
X267798430Y-143197873D01*
X269599290Y-143197873D01*
X269710667Y-143176263D01*
X269808557Y-143111960D01*
X269874083Y-143014885D01*
X269897113Y-142900050D01*
X269897113Y-142099950D01*
X269875503Y-141988573D01*
X269865990Y-141974091D01*
X269865990Y-141053100D01*
X269865990Y-140831775D01*
X269865990Y-140368225D01*
X269865990Y-140146900D01*
X269825387Y-140048877D01*
X269750363Y-139973853D01*
X269652340Y-139933250D01*
X269546240Y-139933250D01*
X268930635Y-139933250D01*
X268863960Y-139999925D01*
X268863960Y-140434900D01*
X269799315Y-140434900D01*
X269865990Y-140368225D01*
X269865990Y-140831775D01*
X269799315Y-140765100D01*
X268863960Y-140765100D01*
X268863960Y-141200075D01*
X268930635Y-141266750D01*
X269546240Y-141266750D01*
X269652340Y-141266750D01*
X269750363Y-141226147D01*
X269825387Y-141151123D01*
X269865990Y-141053100D01*
X269865990Y-141974091D01*
X269811200Y-141890683D01*
X269714125Y-141825157D01*
X269599290Y-141802127D01*
X268533760Y-141802127D01*
X268533760Y-141200075D01*
X268533760Y-140765100D01*
X268533760Y-140434900D01*
X268533760Y-139999925D01*
X268467085Y-139933250D01*
X267851480Y-139933250D01*
X267745380Y-139933250D01*
X267647357Y-139973853D01*
X267572333Y-140048877D01*
X267531730Y-140146900D01*
X267531730Y-140368225D01*
X267598405Y-140434900D01*
X268533760Y-140434900D01*
X268533760Y-140765100D01*
X267598405Y-140765100D01*
X267531730Y-140831775D01*
X267531730Y-141053100D01*
X267572333Y-141151123D01*
X267647357Y-141226147D01*
X267745380Y-141266750D01*
X267851480Y-141266750D01*
X268467085Y-141266750D01*
X268533760Y-141200075D01*
X268533760Y-141802127D01*
X267798430Y-141802127D01*
X267687053Y-141823737D01*
X267589163Y-141888040D01*
X267523637Y-141985115D01*
X267500607Y-142099950D01*
X267500607Y-142106300D01*
X267066700Y-142106300D01*
X267066700Y-141853050D01*
X267066700Y-141031775D01*
X267066700Y-140568225D01*
X267066700Y-139746950D01*
X267026097Y-139648927D01*
X266951073Y-139573903D01*
X266853050Y-139533300D01*
X266746950Y-139533300D01*
X266181775Y-139533300D01*
X266115100Y-139599975D01*
X266115100Y-140634900D01*
X267000025Y-140634900D01*
X267066700Y-140568225D01*
X267066700Y-141031775D01*
X267000025Y-140965100D01*
X266115100Y-140965100D01*
X266115100Y-142000025D01*
X266181775Y-142066700D01*
X266746950Y-142066700D01*
X266853050Y-142066700D01*
X266951073Y-142026097D01*
X267026097Y-141951073D01*
X267066700Y-141853050D01*
X267066700Y-142106300D01*
X265966700Y-142106300D01*
X265966700Y-136953050D01*
X265966700Y-136846950D01*
X265966700Y-136281775D01*
X265966700Y-135818225D01*
X265966700Y-135253050D01*
X265966700Y-135146950D01*
X265926097Y-135048927D01*
X265851073Y-134973903D01*
X265753050Y-134933300D01*
X264931775Y-134933300D01*
X264865100Y-134999975D01*
X264865100Y-135884900D01*
X265900025Y-135884900D01*
X265966700Y-135818225D01*
X265966700Y-136281775D01*
X265900025Y-136215100D01*
X264865100Y-136215100D01*
X264865100Y-137100025D01*
X264931775Y-137166700D01*
X265753050Y-137166700D01*
X265851073Y-137126097D01*
X265926097Y-137051073D01*
X265966700Y-136953050D01*
X265966700Y-142106300D01*
X265784900Y-142106300D01*
X265784900Y-142000025D01*
X265784900Y-140965100D01*
X265784900Y-140634900D01*
X265784900Y-139599975D01*
X265718225Y-139533300D01*
X265153050Y-139533300D01*
X265046950Y-139533300D01*
X264948927Y-139573903D01*
X264873903Y-139648927D01*
X264833300Y-139746950D01*
X264833300Y-140568225D01*
X264899975Y-140634900D01*
X265784900Y-140634900D01*
X265784900Y-140965100D01*
X264899975Y-140965100D01*
X264833300Y-141031775D01*
X264833300Y-141853050D01*
X264873903Y-141951073D01*
X264948927Y-142026097D01*
X265046950Y-142066700D01*
X265153050Y-142066700D01*
X265718225Y-142066700D01*
X265784900Y-142000025D01*
X265784900Y-142106300D01*
X264618270Y-142106300D01*
X264618270Y-140453100D01*
X264618270Y-140231775D01*
X264618270Y-139768225D01*
X264618270Y-139546900D01*
X264577667Y-139448877D01*
X264502643Y-139373853D01*
X264404620Y-139333250D01*
X264298520Y-139333250D01*
X263682915Y-139333250D01*
X263616240Y-139399925D01*
X263616240Y-139834900D01*
X264551595Y-139834900D01*
X264618270Y-139768225D01*
X264618270Y-140231775D01*
X264551595Y-140165100D01*
X263616240Y-140165100D01*
X263616240Y-140600075D01*
X263682915Y-140666750D01*
X264298520Y-140666750D01*
X264404620Y-140666750D01*
X264502643Y-140626147D01*
X264577667Y-140551123D01*
X264618270Y-140453100D01*
X264618270Y-142106300D01*
X264497823Y-142106300D01*
X264497823Y-141700000D01*
X264476213Y-141588623D01*
X264411910Y-141490733D01*
X264314835Y-141425207D01*
X264200000Y-141402177D01*
X263574878Y-141402177D01*
X263563731Y-141346138D01*
X263478388Y-141218412D01*
X263181588Y-140921612D01*
X263053863Y-140836269D01*
X262903200Y-140806300D01*
X262634328Y-140806300D01*
X262624823Y-140783295D01*
X262508481Y-140666750D01*
X262603760Y-140666750D01*
X263219365Y-140666750D01*
X263286040Y-140600075D01*
X263286040Y-140165100D01*
X263286040Y-139834900D01*
X263286040Y-139399925D01*
X263219365Y-139333250D01*
X262603760Y-139333250D01*
X262497660Y-139333250D01*
X262399637Y-139373853D01*
X262324613Y-139448877D01*
X262284010Y-139546900D01*
X262284010Y-139768225D01*
X262350685Y-139834900D01*
X263286040Y-139834900D01*
X263286040Y-140165100D01*
X262350685Y-140165100D01*
X262284010Y-140231775D01*
X262284010Y-140453100D01*
X262317653Y-140534322D01*
X262147162Y-140463528D01*
X261854124Y-140463272D01*
X261583295Y-140575177D01*
X261538900Y-140619494D01*
X261538900Y-139674872D01*
X261558557Y-139661960D01*
X261624083Y-139564885D01*
X261647113Y-139450050D01*
X261647113Y-138649950D01*
X261625503Y-138538573D01*
X261561200Y-138440683D01*
X261538900Y-138425630D01*
X261538900Y-137197823D01*
X261700000Y-137197823D01*
X261811377Y-137176213D01*
X261907460Y-137113096D01*
X262317651Y-137523287D01*
X262275917Y-137585115D01*
X262252887Y-137699950D01*
X262252887Y-138500050D01*
X262274497Y-138611427D01*
X262338800Y-138709317D01*
X262435875Y-138774843D01*
X262550710Y-138797873D01*
X264351570Y-138797873D01*
X264462947Y-138776263D01*
X264560837Y-138711960D01*
X264626363Y-138614885D01*
X264649393Y-138500050D01*
X264649393Y-137699950D01*
X264627783Y-137588573D01*
X264563480Y-137490683D01*
X264534900Y-137471391D01*
X264534900Y-137100025D01*
X264534900Y-136215100D01*
X264534900Y-135884900D01*
X264534900Y-134999975D01*
X264468225Y-134933300D01*
X263646950Y-134933300D01*
X263548927Y-134973903D01*
X263473903Y-135048927D01*
X263433300Y-135146950D01*
X263433300Y-135253050D01*
X263433300Y-135818225D01*
X263499975Y-135884900D01*
X264534900Y-135884900D01*
X264534900Y-136215100D01*
X263499975Y-136215100D01*
X263433300Y-136281775D01*
X263433300Y-136846950D01*
X263433300Y-136953050D01*
X263473903Y-137051073D01*
X263548927Y-137126097D01*
X263646950Y-137166700D01*
X264468225Y-137166700D01*
X264534900Y-137100025D01*
X264534900Y-137471391D01*
X264466405Y-137425157D01*
X264351570Y-137402127D01*
X263310043Y-137402127D01*
X262398501Y-136490585D01*
X262398501Y-134956159D01*
X262368532Y-134805497D01*
X262368531Y-134805496D01*
X262283189Y-134677771D01*
X262222229Y-134616811D01*
X262094504Y-134531468D01*
X261943841Y-134501499D01*
X261538900Y-134501499D01*
X261538900Y-129138900D01*
X267450000Y-129138900D01*
X267529918Y-129138900D01*
X267518300Y-129166950D01*
X267518300Y-129273050D01*
X267518300Y-134068225D01*
X267584975Y-134134900D01*
X270794900Y-134134900D01*
X270794900Y-134114900D01*
X271125100Y-134114900D01*
X271125100Y-134134900D01*
X274335025Y-134134900D01*
X274401700Y-134068225D01*
X274401700Y-129273050D01*
X274401700Y-129166950D01*
X274390081Y-129138900D01*
X275111100Y-129138900D01*
X275111100Y-140661985D01*
G36*
X267269918Y-143638900D02*
X267258300Y-143666950D01*
X267258300Y-143773050D01*
X267258300Y-147216480D01*
X267217795Y-147175905D01*
X267066700Y-147113164D01*
X267066700Y-145853050D01*
X267066700Y-145031775D01*
X267000025Y-144965100D01*
X266115100Y-144965100D01*
X266115100Y-146000025D01*
X266181775Y-146066700D01*
X266746950Y-146066700D01*
X266853050Y-146066700D01*
X266951073Y-146026097D01*
X267026097Y-145951073D01*
X267066700Y-145853050D01*
X267066700Y-147113164D01*
X266947162Y-147063528D01*
X266654124Y-147063272D01*
X266383295Y-147175177D01*
X266243193Y-147315034D01*
X264958024Y-146029865D01*
X265046950Y-146066700D01*
X265153050Y-146066700D01*
X265718225Y-146066700D01*
X265784900Y-146000025D01*
X265784900Y-144965100D01*
X264899975Y-144965100D01*
X264833300Y-145031775D01*
X264833300Y-145853050D01*
X264870134Y-145941975D01*
X264788900Y-145860741D01*
X264788900Y-143638900D01*
X264883930Y-143638900D01*
X264873903Y-143648927D01*
X264833300Y-143746950D01*
X264833300Y-144568225D01*
X264899975Y-144634900D01*
X265784900Y-144634900D01*
X265784900Y-144614900D01*
X266115100Y-144614900D01*
X266115100Y-144634900D01*
X267000025Y-144634900D01*
X267066700Y-144568225D01*
X267066700Y-143746950D01*
X267026097Y-143648927D01*
X267016070Y-143638900D01*
X267269918Y-143638900D01*
X267269918Y-143638900D01*
G37*
X267269918Y-143638900D02*
X267258300Y-143666950D01*
X267258300Y-143773050D01*
X267258300Y-147216480D01*
X267217795Y-147175905D01*
X267066700Y-147113164D01*
X267066700Y-145853050D01*
X267066700Y-145031775D01*
X267000025Y-144965100D01*
X266115100Y-144965100D01*
X266115100Y-146000025D01*
X266181775Y-146066700D01*
X266746950Y-146066700D01*
X266853050Y-146066700D01*
X266951073Y-146026097D01*
X267026097Y-145951073D01*
X267066700Y-145853050D01*
X267066700Y-147113164D01*
X266947162Y-147063528D01*
X266654124Y-147063272D01*
X266383295Y-147175177D01*
X266243193Y-147315034D01*
X264958024Y-146029865D01*
X265046950Y-146066700D01*
X265153050Y-146066700D01*
X265718225Y-146066700D01*
X265784900Y-146000025D01*
X265784900Y-144965100D01*
X264899975Y-144965100D01*
X264833300Y-145031775D01*
X264833300Y-145853050D01*
X264870134Y-145941975D01*
X264788900Y-145860741D01*
X264788900Y-143638900D01*
X264883930Y-143638900D01*
X264873903Y-143648927D01*
X264833300Y-143746950D01*
X264833300Y-144568225D01*
X264899975Y-144634900D01*
X265784900Y-144634900D01*
X265784900Y-144614900D01*
X266115100Y-144614900D01*
X266115100Y-144634900D01*
X267000025Y-144634900D01*
X267066700Y-144568225D01*
X267066700Y-143746950D01*
X267026097Y-143648927D01*
X267016070Y-143638900D01*
X267269918Y-143638900D01*
G36*
X275111100Y-153961100D02*
X274130081Y-153961100D01*
X274141700Y-153933050D01*
X274141700Y-153826950D01*
X274141700Y-149031775D01*
X274141700Y-148568225D01*
X274141700Y-143773050D01*
X274141700Y-143666950D01*
X274101097Y-143568927D01*
X274026073Y-143493903D01*
X273928050Y-143453300D01*
X272868270Y-143453300D01*
X272868270Y-142003100D01*
X272868270Y-141781775D01*
X272801595Y-141715100D01*
X271866240Y-141715100D01*
X271866240Y-142150075D01*
X271932915Y-142216750D01*
X272548520Y-142216750D01*
X272654620Y-142216750D01*
X272752643Y-142176147D01*
X272827667Y-142101123D01*
X272868270Y-142003100D01*
X272868270Y-143453300D01*
X270931775Y-143453300D01*
X270865100Y-143519975D01*
X270865100Y-148634900D01*
X274075025Y-148634900D01*
X274141700Y-148568225D01*
X274141700Y-149031775D01*
X274075025Y-148965100D01*
X270865100Y-148965100D01*
X270865100Y-148985100D01*
X270534900Y-148985100D01*
X270534900Y-148965100D01*
X267324975Y-148965100D01*
X267258300Y-149031775D01*
X267258300Y-153826950D01*
X267258300Y-153933050D01*
X267269918Y-153961100D01*
X264788900Y-153961100D01*
X264788900Y-149193001D01*
X265408117Y-149193001D01*
X265582205Y-149367393D01*
X265852838Y-149479770D01*
X266145876Y-149480026D01*
X266416705Y-149368121D01*
X266624095Y-149161093D01*
X266736472Y-148890460D01*
X266736728Y-148597422D01*
X266711565Y-148536523D01*
X266945876Y-148536728D01*
X267216705Y-148424823D01*
X267258300Y-148383300D01*
X267258300Y-148568225D01*
X267324975Y-148634900D01*
X270534900Y-148634900D01*
X270534900Y-143638900D01*
X270538900Y-143638900D01*
X270538900Y-142014905D01*
X270574613Y-142101123D01*
X270649637Y-142176147D01*
X270747660Y-142216750D01*
X270853760Y-142216750D01*
X271469365Y-142216750D01*
X271536040Y-142150075D01*
X271536040Y-141715100D01*
X271516040Y-141715100D01*
X271516040Y-141384900D01*
X271536040Y-141384900D01*
X271536040Y-141364900D01*
X271866240Y-141364900D01*
X271866240Y-141384900D01*
X272801595Y-141384900D01*
X272868270Y-141318225D01*
X272868270Y-141096900D01*
X272864956Y-141088900D01*
X275111100Y-141088900D01*
X275111100Y-153961100D01*
X275111100Y-153961100D01*
G37*
X275111100Y-153961100D02*
X274130081Y-153961100D01*
X274141700Y-153933050D01*
X274141700Y-153826950D01*
X274141700Y-149031775D01*
X274141700Y-148568225D01*
X274141700Y-143773050D01*
X274141700Y-143666950D01*
X274101097Y-143568927D01*
X274026073Y-143493903D01*
X273928050Y-143453300D01*
X272868270Y-143453300D01*
X272868270Y-142003100D01*
X272868270Y-141781775D01*
X272801595Y-141715100D01*
X271866240Y-141715100D01*
X271866240Y-142150075D01*
X271932915Y-142216750D01*
X272548520Y-142216750D01*
X272654620Y-142216750D01*
X272752643Y-142176147D01*
X272827667Y-142101123D01*
X272868270Y-142003100D01*
X272868270Y-143453300D01*
X270931775Y-143453300D01*
X270865100Y-143519975D01*
X270865100Y-148634900D01*
X274075025Y-148634900D01*
X274141700Y-148568225D01*
X274141700Y-149031775D01*
X274075025Y-148965100D01*
X270865100Y-148965100D01*
X270865100Y-148985100D01*
X270534900Y-148985100D01*
X270534900Y-148965100D01*
X267324975Y-148965100D01*
X267258300Y-149031775D01*
X267258300Y-153826950D01*
X267258300Y-153933050D01*
X267269918Y-153961100D01*
X264788900Y-153961100D01*
X264788900Y-149193001D01*
X265408117Y-149193001D01*
X265582205Y-149367393D01*
X265852838Y-149479770D01*
X266145876Y-149480026D01*
X266416705Y-149368121D01*
X266624095Y-149161093D01*
X266736472Y-148890460D01*
X266736728Y-148597422D01*
X266711565Y-148536523D01*
X266945876Y-148536728D01*
X267216705Y-148424823D01*
X267258300Y-148383300D01*
X267258300Y-148568225D01*
X267324975Y-148634900D01*
X270534900Y-148634900D01*
X270534900Y-143638900D01*
X270538900Y-143638900D01*
X270538900Y-142014905D01*
X270574613Y-142101123D01*
X270649637Y-142176147D01*
X270747660Y-142216750D01*
X270853760Y-142216750D01*
X271469365Y-142216750D01*
X271536040Y-142150075D01*
X271536040Y-141715100D01*
X271516040Y-141715100D01*
X271516040Y-141384900D01*
X271536040Y-141384900D01*
X271536040Y-141364900D01*
X271866240Y-141364900D01*
X271866240Y-141384900D01*
X272801595Y-141384900D01*
X272868270Y-141318225D01*
X272868270Y-141096900D01*
X272864956Y-141088900D01*
X275111100Y-141088900D01*
X275111100Y-153961100D01*
G36*
X261111100Y-145555601D02*
X260959665Y-145555601D01*
X260809003Y-145585570D01*
X260681277Y-145670913D01*
X260596589Y-145755601D01*
X260534900Y-145755601D01*
X260534900Y-137100025D01*
X260534900Y-136215100D01*
X259499975Y-136215100D01*
X259433300Y-136281775D01*
X259433300Y-136846950D01*
X259433300Y-136953050D01*
X259473903Y-137051073D01*
X259548927Y-137126097D01*
X259646950Y-137166700D01*
X260468225Y-137166700D01*
X260534900Y-137100025D01*
X260534900Y-145755601D01*
X258788900Y-145755601D01*
X258788900Y-143697823D01*
X260200000Y-143697823D01*
X260311377Y-143676213D01*
X260409267Y-143611910D01*
X260474793Y-143514835D01*
X260497823Y-143400000D01*
X260497823Y-141700000D01*
X260476213Y-141588623D01*
X260411910Y-141490733D01*
X260314835Y-141425207D01*
X260283760Y-141418974D01*
X260283760Y-139650075D01*
X260283760Y-139215100D01*
X260283760Y-138884900D01*
X260283760Y-138449925D01*
X260217085Y-138383250D01*
X259601480Y-138383250D01*
X259495380Y-138383250D01*
X259397357Y-138423853D01*
X259322333Y-138498877D01*
X259281730Y-138596900D01*
X259281730Y-138818225D01*
X259348405Y-138884900D01*
X260283760Y-138884900D01*
X260283760Y-139215100D01*
X259348405Y-139215100D01*
X259281730Y-139281775D01*
X259281730Y-139503100D01*
X259322333Y-139601123D01*
X259397357Y-139676147D01*
X259495380Y-139716750D01*
X259601480Y-139716750D01*
X260217085Y-139716750D01*
X260283760Y-139650075D01*
X260283760Y-141418974D01*
X260200000Y-141402177D01*
X258788900Y-141402177D01*
X258788900Y-134644399D01*
X258974987Y-134644399D01*
X259446257Y-135115668D01*
X259433300Y-135146950D01*
X259433300Y-135253050D01*
X259433300Y-135818225D01*
X259499975Y-135884900D01*
X260534900Y-135884900D01*
X260534900Y-135864900D01*
X260865100Y-135864900D01*
X260865100Y-135884900D01*
X260885100Y-135884900D01*
X260885100Y-136215100D01*
X260865100Y-136215100D01*
X260865100Y-137100025D01*
X260931775Y-137166700D01*
X261111100Y-137166700D01*
X261111100Y-138383250D01*
X260680635Y-138383250D01*
X260613960Y-138449925D01*
X260613960Y-138884900D01*
X260633960Y-138884900D01*
X260633960Y-139215100D01*
X260613960Y-139215100D01*
X260613960Y-139650075D01*
X260680635Y-139716750D01*
X261111100Y-139716750D01*
X261111100Y-145555601D01*
X261111100Y-145555601D01*
G37*
X261111100Y-145555601D02*
X260959665Y-145555601D01*
X260809003Y-145585570D01*
X260681277Y-145670913D01*
X260596589Y-145755601D01*
X260534900Y-145755601D01*
X260534900Y-137100025D01*
X260534900Y-136215100D01*
X259499975Y-136215100D01*
X259433300Y-136281775D01*
X259433300Y-136846950D01*
X259433300Y-136953050D01*
X259473903Y-137051073D01*
X259548927Y-137126097D01*
X259646950Y-137166700D01*
X260468225Y-137166700D01*
X260534900Y-137100025D01*
X260534900Y-145755601D01*
X258788900Y-145755601D01*
X258788900Y-143697823D01*
X260200000Y-143697823D01*
X260311377Y-143676213D01*
X260409267Y-143611910D01*
X260474793Y-143514835D01*
X260497823Y-143400000D01*
X260497823Y-141700000D01*
X260476213Y-141588623D01*
X260411910Y-141490733D01*
X260314835Y-141425207D01*
X260283760Y-141418974D01*
X260283760Y-139650075D01*
X260283760Y-139215100D01*
X260283760Y-138884900D01*
X260283760Y-138449925D01*
X260217085Y-138383250D01*
X259601480Y-138383250D01*
X259495380Y-138383250D01*
X259397357Y-138423853D01*
X259322333Y-138498877D01*
X259281730Y-138596900D01*
X259281730Y-138818225D01*
X259348405Y-138884900D01*
X260283760Y-138884900D01*
X260283760Y-139215100D01*
X259348405Y-139215100D01*
X259281730Y-139281775D01*
X259281730Y-139503100D01*
X259322333Y-139601123D01*
X259397357Y-139676147D01*
X259495380Y-139716750D01*
X259601480Y-139716750D01*
X260217085Y-139716750D01*
X260283760Y-139650075D01*
X260283760Y-141418974D01*
X260200000Y-141402177D01*
X258788900Y-141402177D01*
X258788900Y-134644399D01*
X258974987Y-134644399D01*
X259446257Y-135115668D01*
X259433300Y-135146950D01*
X259433300Y-135253050D01*
X259433300Y-135818225D01*
X259499975Y-135884900D01*
X260534900Y-135884900D01*
X260534900Y-135864900D01*
X260865100Y-135864900D01*
X260865100Y-135884900D01*
X260885100Y-135884900D01*
X260885100Y-136215100D01*
X260865100Y-136215100D01*
X260865100Y-137100025D01*
X260931775Y-137166700D01*
X261111100Y-137166700D01*
X261111100Y-138383250D01*
X260680635Y-138383250D01*
X260613960Y-138449925D01*
X260613960Y-138884900D01*
X260633960Y-138884900D01*
X260633960Y-139215100D01*
X260613960Y-139215100D01*
X260613960Y-139650075D01*
X260680635Y-139716750D01*
X261111100Y-139716750D01*
X261111100Y-145555601D01*
G36*
X264111100Y-153961100D02*
X259136728Y-153961100D01*
X259136728Y-151654124D01*
X259024823Y-151383295D01*
X258817795Y-151175905D01*
X258547162Y-151063528D01*
X258254124Y-151063272D01*
X258230011Y-151073235D01*
X257678388Y-150521612D01*
X257550663Y-150436269D01*
X257400000Y-150406300D01*
X249889970Y-150406300D01*
X250016705Y-150353934D01*
X250224095Y-150146906D01*
X250336472Y-149876273D01*
X250336728Y-149583235D01*
X250224823Y-149312406D01*
X250017795Y-149105016D01*
X249747162Y-148992639D01*
X249454124Y-148992383D01*
X249183295Y-149104288D01*
X248975905Y-149311316D01*
X248936464Y-149406300D01*
X238634328Y-149406300D01*
X238624823Y-149383295D01*
X238417795Y-149175905D01*
X238147162Y-149063528D01*
X237854124Y-149063272D01*
X237583295Y-149175177D01*
X237375905Y-149382205D01*
X237263528Y-149652838D01*
X237263272Y-149945876D01*
X237375177Y-150216705D01*
X237582205Y-150424095D01*
X237852838Y-150536472D01*
X237911826Y-150536523D01*
X237863528Y-150652838D01*
X237863272Y-150945876D01*
X237975177Y-151216705D01*
X238182205Y-151424095D01*
X238452838Y-151536472D01*
X238745876Y-151536728D01*
X239016705Y-151424823D01*
X239224095Y-151217795D01*
X239234100Y-151193700D01*
X257236924Y-151193700D01*
X257673073Y-151629849D01*
X257663528Y-151652838D01*
X257663272Y-151945876D01*
X257775177Y-152216705D01*
X257982205Y-152424095D01*
X258252838Y-152536472D01*
X258545876Y-152536728D01*
X258816705Y-152424823D01*
X259024095Y-152217795D01*
X259136472Y-151947162D01*
X259136728Y-151654124D01*
X259136728Y-153961100D01*
X220038900Y-153961100D01*
X220038900Y-129138900D01*
X261111100Y-129138900D01*
X261111100Y-130267114D01*
X258111100Y-133767114D01*
X258111100Y-133856999D01*
X250374551Y-133856999D01*
X250223889Y-133886968D01*
X250096163Y-133972311D01*
X249462174Y-134606300D01*
X248691034Y-134606300D01*
X248540372Y-134636269D01*
X248412646Y-134721612D01*
X239336728Y-143797530D01*
X239336728Y-137654124D01*
X239224823Y-137383295D01*
X239017795Y-137175905D01*
X238747162Y-137063528D01*
X238454124Y-137063272D01*
X238183295Y-137175177D01*
X237975905Y-137382205D01*
X237863528Y-137652838D01*
X237863272Y-137945876D01*
X237975177Y-138216705D01*
X238182205Y-138424095D01*
X238206300Y-138434100D01*
X238206300Y-138436924D01*
X237940308Y-138702915D01*
X237917320Y-138693370D01*
X237624282Y-138693114D01*
X237353453Y-138805019D01*
X237146063Y-139012047D01*
X237033686Y-139282680D01*
X237033430Y-139575718D01*
X237145335Y-139846547D01*
X237352363Y-140053937D01*
X237622996Y-140166314D01*
X237916034Y-140166570D01*
X238186863Y-140054665D01*
X238394253Y-139847637D01*
X238506630Y-139577004D01*
X238506886Y-139283966D01*
X238496922Y-139259853D01*
X238878388Y-138878388D01*
X238963731Y-138750662D01*
X238993700Y-138600000D01*
X238993700Y-138434328D01*
X239016705Y-138424823D01*
X239224095Y-138217795D01*
X239336472Y-137947162D01*
X239336728Y-137654124D01*
X239336728Y-143797530D01*
X238972311Y-144161947D01*
X238886968Y-144289672D01*
X238856999Y-144440335D01*
X238856999Y-147410383D01*
X238886968Y-147561046D01*
X238972311Y-147688771D01*
X239168576Y-147885036D01*
X239159031Y-147908025D01*
X239158775Y-148201063D01*
X239270680Y-148471892D01*
X239477708Y-148679282D01*
X239748341Y-148791659D01*
X240041379Y-148791915D01*
X240312208Y-148680010D01*
X240519598Y-148472982D01*
X240631975Y-148202349D01*
X240632231Y-147909311D01*
X240520326Y-147638482D01*
X240313298Y-147431092D01*
X240042665Y-147318715D01*
X239749627Y-147318459D01*
X239725514Y-147328422D01*
X239644399Y-147247307D01*
X239644399Y-145449920D01*
X239852838Y-145536472D01*
X240145876Y-145536728D01*
X240311512Y-145468288D01*
X241506716Y-146663492D01*
X241254124Y-146663272D01*
X240983295Y-146775177D01*
X240775905Y-146982205D01*
X240663528Y-147252838D01*
X240663272Y-147545876D01*
X240775177Y-147816705D01*
X240982205Y-148024095D01*
X241252838Y-148136472D01*
X241545876Y-148136728D01*
X241569988Y-148126764D01*
X242270913Y-148827689D01*
X242398638Y-148913032D01*
X242398639Y-148913032D01*
X242549301Y-148943001D01*
X248808975Y-148943001D01*
X248959637Y-148913032D01*
X248959638Y-148913032D01*
X249087363Y-148827689D01*
X249476999Y-148438053D01*
X249562342Y-148310327D01*
X249592311Y-148159665D01*
X249592311Y-145398611D01*
X249562342Y-145247949D01*
X249476999Y-145120223D01*
X248726926Y-144370150D01*
X248736472Y-144347162D01*
X248736728Y-144054124D01*
X248624823Y-143783295D01*
X248417795Y-143575905D01*
X248147162Y-143463528D01*
X247854124Y-143463272D01*
X247583295Y-143575177D01*
X247375905Y-143782205D01*
X247263528Y-144052838D01*
X247263272Y-144345876D01*
X247375177Y-144616705D01*
X247582205Y-144824095D01*
X247852838Y-144936472D01*
X248145876Y-144936728D01*
X248169988Y-144926764D01*
X248804911Y-145561687D01*
X248804911Y-147150079D01*
X248596472Y-147063528D01*
X248303434Y-147063272D01*
X248278131Y-147073726D01*
X248155474Y-146991770D01*
X248004811Y-146961801D01*
X242918577Y-146961801D01*
X240736618Y-144779842D01*
X240736728Y-144654124D01*
X240624823Y-144383295D01*
X240417795Y-144175905D01*
X240173390Y-144074419D01*
X247312209Y-136935600D01*
X247263528Y-137052838D01*
X247263272Y-137345876D01*
X247375177Y-137616705D01*
X247582205Y-137824095D01*
X247852838Y-137936472D01*
X248145876Y-137936728D01*
X248416705Y-137824823D01*
X248624095Y-137617795D01*
X248736472Y-137347162D01*
X248736728Y-137054124D01*
X248726764Y-137030011D01*
X250363076Y-135393700D01*
X252165671Y-135393700D01*
X252175177Y-135416705D01*
X252382205Y-135624095D01*
X252652838Y-135736472D01*
X252945876Y-135736728D01*
X253216705Y-135624823D01*
X253424095Y-135417795D01*
X253536472Y-135147162D01*
X253536728Y-134854124D01*
X253450070Y-134644399D01*
X258111100Y-134644399D01*
X258111100Y-141448149D01*
X258048927Y-141473903D01*
X257973903Y-141548927D01*
X257933300Y-141646950D01*
X257933300Y-141753050D01*
X257933300Y-141895827D01*
X257824823Y-141633295D01*
X257617795Y-141425905D01*
X257347162Y-141313528D01*
X257054124Y-141313272D01*
X256783295Y-141425177D01*
X256575905Y-141632205D01*
X256565899Y-141656300D01*
X255686728Y-141656300D01*
X255686728Y-139904124D01*
X255574823Y-139633295D01*
X255367795Y-139425905D01*
X255097162Y-139313528D01*
X254804124Y-139313272D01*
X254780011Y-139323235D01*
X254228388Y-138771612D01*
X254100663Y-138686269D01*
X253950000Y-138656300D01*
X249334328Y-138656300D01*
X249324823Y-138633295D01*
X249117795Y-138425905D01*
X248847162Y-138313528D01*
X248554124Y-138313272D01*
X248283295Y-138425177D01*
X248075905Y-138632205D01*
X247963528Y-138902838D01*
X247963272Y-139195876D01*
X248075177Y-139466705D01*
X248282205Y-139674095D01*
X248552838Y-139786472D01*
X248845876Y-139786728D01*
X249116705Y-139674823D01*
X249324095Y-139467795D01*
X249334100Y-139443700D01*
X253786924Y-139443700D01*
X254223073Y-139879849D01*
X254213528Y-139902838D01*
X254213272Y-140195876D01*
X254325177Y-140466705D01*
X254532205Y-140674095D01*
X254802838Y-140786472D01*
X255095876Y-140786728D01*
X255366705Y-140674823D01*
X255574095Y-140467795D01*
X255686472Y-140197162D01*
X255686728Y-139904124D01*
X255686728Y-141656300D01*
X251584328Y-141656300D01*
X251574823Y-141633295D01*
X251367795Y-141425905D01*
X251097162Y-141313528D01*
X250804124Y-141313272D01*
X250533295Y-141425177D01*
X250325905Y-141632205D01*
X250213528Y-141902838D01*
X250213272Y-142195876D01*
X250325177Y-142466705D01*
X250532205Y-142674095D01*
X250802838Y-142786472D01*
X251095876Y-142786728D01*
X251366705Y-142674823D01*
X251574095Y-142467795D01*
X251584100Y-142443700D01*
X256565671Y-142443700D01*
X256575177Y-142466705D01*
X256782205Y-142674095D01*
X257052838Y-142786472D01*
X257345876Y-142786728D01*
X257616705Y-142674823D01*
X257824095Y-142467795D01*
X257933300Y-142204800D01*
X257933300Y-142318225D01*
X257999975Y-142384900D01*
X258111100Y-142384900D01*
X258111100Y-142715100D01*
X257999975Y-142715100D01*
X257933300Y-142781775D01*
X257933300Y-143346950D01*
X257933300Y-143453050D01*
X257973903Y-143551073D01*
X258048927Y-143626097D01*
X258111100Y-143651850D01*
X258111100Y-145755601D01*
X252912377Y-145755601D01*
X252126926Y-144970150D01*
X252136472Y-144947162D01*
X252136728Y-144654124D01*
X252024823Y-144383295D01*
X251817795Y-144175905D01*
X251547162Y-144063528D01*
X251254124Y-144063272D01*
X250983295Y-144175177D01*
X250775905Y-144382205D01*
X250663528Y-144652838D01*
X250663272Y-144945876D01*
X250775177Y-145216705D01*
X250982205Y-145424095D01*
X251252838Y-145536472D01*
X251545876Y-145536728D01*
X251569988Y-145526764D01*
X252470913Y-146427689D01*
X252598639Y-146513032D01*
X252749301Y-146543001D01*
X258111100Y-146543001D01*
X258111100Y-147606300D01*
X252234328Y-147606300D01*
X252224823Y-147583295D01*
X252095608Y-147453854D01*
X252224095Y-147325592D01*
X252336472Y-147054959D01*
X252336728Y-146761921D01*
X252224823Y-146491092D01*
X252017795Y-146283702D01*
X251747162Y-146171325D01*
X251454124Y-146171069D01*
X251183295Y-146282974D01*
X250975905Y-146490002D01*
X250863528Y-146760635D01*
X250863272Y-147053673D01*
X250873235Y-147077785D01*
X250572311Y-147378710D01*
X250486968Y-147506435D01*
X250456999Y-147657098D01*
X250456999Y-148359665D01*
X250486968Y-148510328D01*
X250572311Y-148638053D01*
X251011947Y-149077689D01*
X251139672Y-149163032D01*
X251139673Y-149163032D01*
X251290335Y-149193001D01*
X264111100Y-149193001D01*
X264111100Y-153961100D01*
X264111100Y-153961100D01*
G37*
X264111100Y-153961100D02*
X259136728Y-153961100D01*
X259136728Y-151654124D01*
X259024823Y-151383295D01*
X258817795Y-151175905D01*
X258547162Y-151063528D01*
X258254124Y-151063272D01*
X258230011Y-151073235D01*
X257678388Y-150521612D01*
X257550663Y-150436269D01*
X257400000Y-150406300D01*
X249889970Y-150406300D01*
X250016705Y-150353934D01*
X250224095Y-150146906D01*
X250336472Y-149876273D01*
X250336728Y-149583235D01*
X250224823Y-149312406D01*
X250017795Y-149105016D01*
X249747162Y-148992639D01*
X249454124Y-148992383D01*
X249183295Y-149104288D01*
X248975905Y-149311316D01*
X248936464Y-149406300D01*
X238634328Y-149406300D01*
X238624823Y-149383295D01*
X238417795Y-149175905D01*
X238147162Y-149063528D01*
X237854124Y-149063272D01*
X237583295Y-149175177D01*
X237375905Y-149382205D01*
X237263528Y-149652838D01*
X237263272Y-149945876D01*
X237375177Y-150216705D01*
X237582205Y-150424095D01*
X237852838Y-150536472D01*
X237911826Y-150536523D01*
X237863528Y-150652838D01*
X237863272Y-150945876D01*
X237975177Y-151216705D01*
X238182205Y-151424095D01*
X238452838Y-151536472D01*
X238745876Y-151536728D01*
X239016705Y-151424823D01*
X239224095Y-151217795D01*
X239234100Y-151193700D01*
X257236924Y-151193700D01*
X257673073Y-151629849D01*
X257663528Y-151652838D01*
X257663272Y-151945876D01*
X257775177Y-152216705D01*
X257982205Y-152424095D01*
X258252838Y-152536472D01*
X258545876Y-152536728D01*
X258816705Y-152424823D01*
X259024095Y-152217795D01*
X259136472Y-151947162D01*
X259136728Y-151654124D01*
X259136728Y-153961100D01*
X220038900Y-153961100D01*
X220038900Y-129138900D01*
X261111100Y-129138900D01*
X261111100Y-130267114D01*
X258111100Y-133767114D01*
X258111100Y-133856999D01*
X250374551Y-133856999D01*
X250223889Y-133886968D01*
X250096163Y-133972311D01*
X249462174Y-134606300D01*
X248691034Y-134606300D01*
X248540372Y-134636269D01*
X248412646Y-134721612D01*
X239336728Y-143797530D01*
X239336728Y-137654124D01*
X239224823Y-137383295D01*
X239017795Y-137175905D01*
X238747162Y-137063528D01*
X238454124Y-137063272D01*
X238183295Y-137175177D01*
X237975905Y-137382205D01*
X237863528Y-137652838D01*
X237863272Y-137945876D01*
X237975177Y-138216705D01*
X238182205Y-138424095D01*
X238206300Y-138434100D01*
X238206300Y-138436924D01*
X237940308Y-138702915D01*
X237917320Y-138693370D01*
X237624282Y-138693114D01*
X237353453Y-138805019D01*
X237146063Y-139012047D01*
X237033686Y-139282680D01*
X237033430Y-139575718D01*
X237145335Y-139846547D01*
X237352363Y-140053937D01*
X237622996Y-140166314D01*
X237916034Y-140166570D01*
X238186863Y-140054665D01*
X238394253Y-139847637D01*
X238506630Y-139577004D01*
X238506886Y-139283966D01*
X238496922Y-139259853D01*
X238878388Y-138878388D01*
X238963731Y-138750662D01*
X238993700Y-138600000D01*
X238993700Y-138434328D01*
X239016705Y-138424823D01*
X239224095Y-138217795D01*
X239336472Y-137947162D01*
X239336728Y-137654124D01*
X239336728Y-143797530D01*
X238972311Y-144161947D01*
X238886968Y-144289672D01*
X238856999Y-144440335D01*
X238856999Y-147410383D01*
X238886968Y-147561046D01*
X238972311Y-147688771D01*
X239168576Y-147885036D01*
X239159031Y-147908025D01*
X239158775Y-148201063D01*
X239270680Y-148471892D01*
X239477708Y-148679282D01*
X239748341Y-148791659D01*
X240041379Y-148791915D01*
X240312208Y-148680010D01*
X240519598Y-148472982D01*
X240631975Y-148202349D01*
X240632231Y-147909311D01*
X240520326Y-147638482D01*
X240313298Y-147431092D01*
X240042665Y-147318715D01*
X239749627Y-147318459D01*
X239725514Y-147328422D01*
X239644399Y-147247307D01*
X239644399Y-145449920D01*
X239852838Y-145536472D01*
X240145876Y-145536728D01*
X240311512Y-145468288D01*
X241506716Y-146663492D01*
X241254124Y-146663272D01*
X240983295Y-146775177D01*
X240775905Y-146982205D01*
X240663528Y-147252838D01*
X240663272Y-147545876D01*
X240775177Y-147816705D01*
X240982205Y-148024095D01*
X241252838Y-148136472D01*
X241545876Y-148136728D01*
X241569988Y-148126764D01*
X242270913Y-148827689D01*
X242398638Y-148913032D01*
X242398639Y-148913032D01*
X242549301Y-148943001D01*
X248808975Y-148943001D01*
X248959637Y-148913032D01*
X248959638Y-148913032D01*
X249087363Y-148827689D01*
X249476999Y-148438053D01*
X249562342Y-148310327D01*
X249592311Y-148159665D01*
X249592311Y-145398611D01*
X249562342Y-145247949D01*
X249476999Y-145120223D01*
X248726926Y-144370150D01*
X248736472Y-144347162D01*
X248736728Y-144054124D01*
X248624823Y-143783295D01*
X248417795Y-143575905D01*
X248147162Y-143463528D01*
X247854124Y-143463272D01*
X247583295Y-143575177D01*
X247375905Y-143782205D01*
X247263528Y-144052838D01*
X247263272Y-144345876D01*
X247375177Y-144616705D01*
X247582205Y-144824095D01*
X247852838Y-144936472D01*
X248145876Y-144936728D01*
X248169988Y-144926764D01*
X248804911Y-145561687D01*
X248804911Y-147150079D01*
X248596472Y-147063528D01*
X248303434Y-147063272D01*
X248278131Y-147073726D01*
X248155474Y-146991770D01*
X248004811Y-146961801D01*
X242918577Y-146961801D01*
X240736618Y-144779842D01*
X240736728Y-144654124D01*
X240624823Y-144383295D01*
X240417795Y-144175905D01*
X240173390Y-144074419D01*
X247312209Y-136935600D01*
X247263528Y-137052838D01*
X247263272Y-137345876D01*
X247375177Y-137616705D01*
X247582205Y-137824095D01*
X247852838Y-137936472D01*
X248145876Y-137936728D01*
X248416705Y-137824823D01*
X248624095Y-137617795D01*
X248736472Y-137347162D01*
X248736728Y-137054124D01*
X248726764Y-137030011D01*
X250363076Y-135393700D01*
X252165671Y-135393700D01*
X252175177Y-135416705D01*
X252382205Y-135624095D01*
X252652838Y-135736472D01*
X252945876Y-135736728D01*
X253216705Y-135624823D01*
X253424095Y-135417795D01*
X253536472Y-135147162D01*
X253536728Y-134854124D01*
X253450070Y-134644399D01*
X258111100Y-134644399D01*
X258111100Y-141448149D01*
X258048927Y-141473903D01*
X257973903Y-141548927D01*
X257933300Y-141646950D01*
X257933300Y-141753050D01*
X257933300Y-141895827D01*
X257824823Y-141633295D01*
X257617795Y-141425905D01*
X257347162Y-141313528D01*
X257054124Y-141313272D01*
X256783295Y-141425177D01*
X256575905Y-141632205D01*
X256565899Y-141656300D01*
X255686728Y-141656300D01*
X255686728Y-139904124D01*
X255574823Y-139633295D01*
X255367795Y-139425905D01*
X255097162Y-139313528D01*
X254804124Y-139313272D01*
X254780011Y-139323235D01*
X254228388Y-138771612D01*
X254100663Y-138686269D01*
X253950000Y-138656300D01*
X249334328Y-138656300D01*
X249324823Y-138633295D01*
X249117795Y-138425905D01*
X248847162Y-138313528D01*
X248554124Y-138313272D01*
X248283295Y-138425177D01*
X248075905Y-138632205D01*
X247963528Y-138902838D01*
X247963272Y-139195876D01*
X248075177Y-139466705D01*
X248282205Y-139674095D01*
X248552838Y-139786472D01*
X248845876Y-139786728D01*
X249116705Y-139674823D01*
X249324095Y-139467795D01*
X249334100Y-139443700D01*
X253786924Y-139443700D01*
X254223073Y-139879849D01*
X254213528Y-139902838D01*
X254213272Y-140195876D01*
X254325177Y-140466705D01*
X254532205Y-140674095D01*
X254802838Y-140786472D01*
X255095876Y-140786728D01*
X255366705Y-140674823D01*
X255574095Y-140467795D01*
X255686472Y-140197162D01*
X255686728Y-139904124D01*
X255686728Y-141656300D01*
X251584328Y-141656300D01*
X251574823Y-141633295D01*
X251367795Y-141425905D01*
X251097162Y-141313528D01*
X250804124Y-141313272D01*
X250533295Y-141425177D01*
X250325905Y-141632205D01*
X250213528Y-141902838D01*
X250213272Y-142195876D01*
X250325177Y-142466705D01*
X250532205Y-142674095D01*
X250802838Y-142786472D01*
X251095876Y-142786728D01*
X251366705Y-142674823D01*
X251574095Y-142467795D01*
X251584100Y-142443700D01*
X256565671Y-142443700D01*
X256575177Y-142466705D01*
X256782205Y-142674095D01*
X257052838Y-142786472D01*
X257345876Y-142786728D01*
X257616705Y-142674823D01*
X257824095Y-142467795D01*
X257933300Y-142204800D01*
X257933300Y-142318225D01*
X257999975Y-142384900D01*
X258111100Y-142384900D01*
X258111100Y-142715100D01*
X257999975Y-142715100D01*
X257933300Y-142781775D01*
X257933300Y-143346950D01*
X257933300Y-143453050D01*
X257973903Y-143551073D01*
X258048927Y-143626097D01*
X258111100Y-143651850D01*
X258111100Y-145755601D01*
X252912377Y-145755601D01*
X252126926Y-144970150D01*
X252136472Y-144947162D01*
X252136728Y-144654124D01*
X252024823Y-144383295D01*
X251817795Y-144175905D01*
X251547162Y-144063528D01*
X251254124Y-144063272D01*
X250983295Y-144175177D01*
X250775905Y-144382205D01*
X250663528Y-144652838D01*
X250663272Y-144945876D01*
X250775177Y-145216705D01*
X250982205Y-145424095D01*
X251252838Y-145536472D01*
X251545876Y-145536728D01*
X251569988Y-145526764D01*
X252470913Y-146427689D01*
X252598639Y-146513032D01*
X252749301Y-146543001D01*
X258111100Y-146543001D01*
X258111100Y-147606300D01*
X252234328Y-147606300D01*
X252224823Y-147583295D01*
X252095608Y-147453854D01*
X252224095Y-147325592D01*
X252336472Y-147054959D01*
X252336728Y-146761921D01*
X252224823Y-146491092D01*
X252017795Y-146283702D01*
X251747162Y-146171325D01*
X251454124Y-146171069D01*
X251183295Y-146282974D01*
X250975905Y-146490002D01*
X250863528Y-146760635D01*
X250863272Y-147053673D01*
X250873235Y-147077785D01*
X250572311Y-147378710D01*
X250486968Y-147506435D01*
X250456999Y-147657098D01*
X250456999Y-148359665D01*
X250486968Y-148510328D01*
X250572311Y-148638053D01*
X251011947Y-149077689D01*
X251139672Y-149163032D01*
X251139673Y-149163032D01*
X251290335Y-149193001D01*
X264111100Y-149193001D01*
X264111100Y-153961100D01*
M02*
