G04 #@! TF.FileFunction,Soldermask,Top*
%FSLAX46Y46*%
G04 Gerber Fmt 4.6, Leading zero omitted, Abs format (unit mm)*
G04 Created by KiCad (PCBNEW (2015-01-16 BZR 5376)-product) date 3/5/2015 10:56:42 PM*
%MOMM*%
G01*
G04 APERTURE LIST*
%ADD10C,0.149860*%
%ADD11C,5.080000*%
%ADD12R,1.600000X2.000000*%
%ADD13R,2.000000X1.600000*%
%ADD14R,2.000000X1.700000*%
%ADD15R,2.200000X1.270000*%
%ADD16R,1.270000X2.200000*%
%ADD17R,1.700000X2.000000*%
%ADD18R,1.000000X0.250000*%
%ADD19R,0.250000X1.000000*%
%ADD20R,1.998980X5.499100*%
%ADD21R,2.540000X0.635000*%
%ADD22R,5.207000X4.521200*%
%ADD23R,1.550000X0.600000*%
%ADD24R,0.800100X1.800860*%
%ADD25R,6.350000X10.160000*%
%ADD26R,2.540000X7.620000*%
%ADD27C,4.318000*%
G04 APERTURE END LIST*
D10*
D11*
X264400000Y-151000000D03*
D12*
X208300000Y-144100000D03*
X208300000Y-140100000D03*
X208400000Y-147600000D03*
X208400000Y-151600000D03*
X201400000Y-135400000D03*
X201400000Y-131400000D03*
D13*
X230600000Y-151400000D03*
X226600000Y-151400000D03*
D12*
X219600000Y-135400000D03*
X219600000Y-131400000D03*
X217000000Y-135400000D03*
X217000000Y-131400000D03*
X214400000Y-135400000D03*
X214400000Y-131400000D03*
X211800000Y-135400000D03*
X211800000Y-131400000D03*
X209200000Y-135400000D03*
X209200000Y-131400000D03*
X206600000Y-135400000D03*
X206600000Y-131400000D03*
X204000000Y-135400000D03*
X204000000Y-131400000D03*
D13*
X199200000Y-149800000D03*
X195200000Y-149800000D03*
X199200000Y-152400000D03*
X195200000Y-152400000D03*
D14*
X195200000Y-147200000D03*
X199200000Y-147200000D03*
D15*
X229350000Y-143350000D03*
X232650000Y-140810000D03*
X229350000Y-138270000D03*
X229350000Y-133190000D03*
X232650000Y-130650000D03*
X232650000Y-135730000D03*
D16*
X236100000Y-151650000D03*
X233560000Y-148350000D03*
X238640000Y-148350000D03*
D15*
X194950000Y-143350000D03*
X198250000Y-140810000D03*
X194950000Y-138270000D03*
X194950000Y-133190000D03*
X198250000Y-130650000D03*
X198250000Y-135730000D03*
D17*
X259400000Y-141200000D03*
X259400000Y-137200000D03*
X226200000Y-134400000D03*
X226200000Y-130400000D03*
X235600000Y-134800000D03*
X235600000Y-130800000D03*
D14*
X255200000Y-141400000D03*
X251200000Y-141400000D03*
D17*
X236000000Y-141200000D03*
X236000000Y-145200000D03*
D18*
X212600000Y-141850000D03*
X212600000Y-142350000D03*
X212600000Y-142850000D03*
X212600000Y-143350000D03*
X212600000Y-143850000D03*
X212600000Y-144350000D03*
X212600000Y-144850000D03*
X212600000Y-145350000D03*
X212600000Y-145850000D03*
X212600000Y-146350000D03*
X212600000Y-146850000D03*
X212600000Y-147350000D03*
X212600000Y-147850000D03*
X212600000Y-148350000D03*
X212600000Y-148850000D03*
X212600000Y-149350000D03*
D19*
X214550000Y-151300000D03*
X215050000Y-151300000D03*
X215550000Y-151300000D03*
X216050000Y-151300000D03*
X216550000Y-151300000D03*
X217050000Y-151300000D03*
X217550000Y-151300000D03*
X218050000Y-151300000D03*
X218550000Y-151300000D03*
X219050000Y-151300000D03*
X219550000Y-151300000D03*
X220050000Y-151300000D03*
X220550000Y-151300000D03*
X221050000Y-151300000D03*
X221550000Y-151300000D03*
X222050000Y-151300000D03*
D18*
X224000000Y-149350000D03*
X224000000Y-148850000D03*
X224000000Y-148350000D03*
X224000000Y-147850000D03*
X224000000Y-147350000D03*
X224000000Y-146850000D03*
X224000000Y-146350000D03*
X224000000Y-145850000D03*
X224000000Y-145350000D03*
X224000000Y-144850000D03*
X224000000Y-144350000D03*
X224000000Y-143850000D03*
X224000000Y-143350000D03*
X224000000Y-142850000D03*
X224000000Y-142350000D03*
X224000000Y-141850000D03*
D19*
X222050000Y-139900000D03*
X221550000Y-139900000D03*
X221050000Y-139900000D03*
X220550000Y-139900000D03*
X220050000Y-139900000D03*
X219550000Y-139900000D03*
X219050000Y-139900000D03*
X218550000Y-139900000D03*
X218050000Y-139900000D03*
X217550000Y-139900000D03*
X217050000Y-139900000D03*
X216550000Y-139900000D03*
X216050000Y-139900000D03*
X215550000Y-139900000D03*
X215050000Y-139900000D03*
X214550000Y-139900000D03*
D20*
X203900000Y-140701000D03*
X203900000Y-150099000D03*
D21*
X265800000Y-146800000D03*
X265800000Y-145530000D03*
X265800000Y-144260000D03*
X265800000Y-142990000D03*
X265800000Y-141720000D03*
X265800000Y-140450000D03*
X265800000Y-139180000D03*
X265800000Y-137910000D03*
D22*
X277598300Y-133909500D03*
X277598300Y-150483000D03*
D23*
X259500000Y-130695000D03*
X259500000Y-131965000D03*
X259500000Y-133235000D03*
X259500000Y-134505000D03*
X264900000Y-134505000D03*
X264900000Y-133235000D03*
X264900000Y-131965000D03*
X264900000Y-130695000D03*
D24*
X237650000Y-133701140D03*
X239550000Y-133701140D03*
X238600000Y-130698860D03*
X240150000Y-141098860D03*
X238250000Y-141098860D03*
X239200000Y-144101140D03*
D25*
X253390000Y-148100000D03*
X244500000Y-148100000D03*
D26*
X259500000Y-147900000D03*
D25*
X253240000Y-134700000D03*
X244560000Y-134700000D03*
D27*
X271800000Y-132000000D03*
M02*
