M48
INCH,TZ
T1C0.025
%
G90
G05
T1
X87480Y-51988
X93071Y-55118
X93610Y-54894
X93701Y-58976
X93937Y-54252
X93937Y-59370
X94447Y-58289
X94488Y-57008
X95039Y-58031
X95433Y-53858
X97638Y-54016
X97638Y-56772
X97815Y-58189
X97913Y-54744
X98268Y-58948
X98799Y-55925
X98819Y-55118
X98976Y-57008
X99055Y-57838
X99055Y-58268
X99528Y-53150
X100315Y-56772
X100374Y-55138
X101260Y-55925
X101575Y-55591
X101732Y-59764
X102516Y-57244
X102520Y-56772
X103031Y-56811
X103858Y-57795
X104724Y-58560
X105039Y-58189
X110079Y-55827
T0
M30
