G04 #@! TF.FileFunction,Legend,Top*
%FSLAX46Y46*%
G04 Gerber Fmt 4.6, Leading zero omitted, Abs format (unit mm)*
G04 Created by KiCad (PCBNEW (2015-01-16 BZR 5376)-product) date 3/8/2015 9:59:01 PM*
%MOMM*%
G01*
G04 APERTURE LIST*
%ADD10C,0.149860*%
%ADD11C,0.177800*%
%ADD12C,0.127000*%
%ADD13C,0.150000*%
G04 APERTURE END LIST*
D10*
D11*
X267066857Y-130522414D02*
X266812857Y-130159557D01*
X266631429Y-130522414D02*
X266631429Y-129760414D01*
X266921714Y-129760414D01*
X266994286Y-129796700D01*
X267030571Y-129832986D01*
X267066857Y-129905557D01*
X267066857Y-130014414D01*
X267030571Y-130086986D01*
X266994286Y-130123271D01*
X266921714Y-130159557D01*
X266631429Y-130159557D01*
X267611143Y-129760414D02*
X267611143Y-130304700D01*
X267574857Y-130413557D01*
X267502286Y-130486129D01*
X267393429Y-130522414D01*
X267320857Y-130522414D01*
X267974000Y-130232129D02*
X268554571Y-130232129D01*
X269244000Y-130014414D02*
X269244000Y-130522414D01*
X269062571Y-129724129D02*
X268881143Y-130268414D01*
X269352857Y-130268414D01*
X270006000Y-129760414D02*
X269643143Y-129760414D01*
X269606857Y-130123271D01*
X269643143Y-130086986D01*
X269715714Y-130050700D01*
X269897143Y-130050700D01*
X269969714Y-130086986D01*
X270006000Y-130123271D01*
X270042285Y-130195843D01*
X270042285Y-130377271D01*
X270006000Y-130449843D01*
X269969714Y-130486129D01*
X269897143Y-130522414D01*
X269715714Y-130522414D01*
X269643143Y-130486129D01*
X269606857Y-130449843D01*
X266522571Y-131005014D02*
X266958000Y-131005014D01*
X266740286Y-131767014D02*
X266740286Y-131005014D01*
X267320857Y-131767014D02*
X267248285Y-131730729D01*
X267212000Y-131694443D01*
X267175714Y-131621871D01*
X267175714Y-131404157D01*
X267212000Y-131331586D01*
X267248285Y-131295300D01*
X267320857Y-131259014D01*
X267429714Y-131259014D01*
X267502285Y-131295300D01*
X267538571Y-131331586D01*
X267574857Y-131404157D01*
X267574857Y-131621871D01*
X267538571Y-131694443D01*
X267502285Y-131730729D01*
X267429714Y-131767014D01*
X267320857Y-131767014D01*
X268482000Y-131767014D02*
X268482000Y-131005014D01*
X268736000Y-131549300D01*
X268990000Y-131005014D01*
X268990000Y-131767014D01*
X269679428Y-131767014D02*
X269679428Y-131367871D01*
X269643142Y-131295300D01*
X269570571Y-131259014D01*
X269425428Y-131259014D01*
X269352857Y-131295300D01*
X269679428Y-131730729D02*
X269606857Y-131767014D01*
X269425428Y-131767014D01*
X269352857Y-131730729D01*
X269316571Y-131658157D01*
X269316571Y-131585586D01*
X269352857Y-131513014D01*
X269425428Y-131476729D01*
X269606857Y-131476729D01*
X269679428Y-131440443D01*
X270042286Y-131767014D02*
X270042286Y-131259014D01*
X270042286Y-131005014D02*
X270006000Y-131041300D01*
X270042286Y-131077586D01*
X270078571Y-131041300D01*
X270042286Y-131005014D01*
X270042286Y-131077586D01*
X270405143Y-131259014D02*
X270405143Y-131767014D01*
X270405143Y-131331586D02*
X270441428Y-131295300D01*
X270514000Y-131259014D01*
X270622857Y-131259014D01*
X270695428Y-131295300D01*
X270731714Y-131367871D01*
X270731714Y-131767014D01*
X271929143Y-131367871D02*
X272038000Y-131404157D01*
X272074285Y-131440443D01*
X272110571Y-131513014D01*
X272110571Y-131621871D01*
X272074285Y-131694443D01*
X272038000Y-131730729D01*
X271965428Y-131767014D01*
X271675143Y-131767014D01*
X271675143Y-131005014D01*
X271929143Y-131005014D01*
X272001714Y-131041300D01*
X272038000Y-131077586D01*
X272074285Y-131150157D01*
X272074285Y-131222729D01*
X272038000Y-131295300D01*
X272001714Y-131331586D01*
X271929143Y-131367871D01*
X271675143Y-131367871D01*
X272546000Y-131767014D02*
X272473428Y-131730729D01*
X272437143Y-131694443D01*
X272400857Y-131621871D01*
X272400857Y-131404157D01*
X272437143Y-131331586D01*
X272473428Y-131295300D01*
X272546000Y-131259014D01*
X272654857Y-131259014D01*
X272727428Y-131295300D01*
X272763714Y-131331586D01*
X272800000Y-131404157D01*
X272800000Y-131621871D01*
X272763714Y-131694443D01*
X272727428Y-131730729D01*
X272654857Y-131767014D01*
X272546000Y-131767014D01*
X273453143Y-131767014D02*
X273453143Y-131367871D01*
X273416857Y-131295300D01*
X273344286Y-131259014D01*
X273199143Y-131259014D01*
X273126572Y-131295300D01*
X273453143Y-131730729D02*
X273380572Y-131767014D01*
X273199143Y-131767014D01*
X273126572Y-131730729D01*
X273090286Y-131658157D01*
X273090286Y-131585586D01*
X273126572Y-131513014D01*
X273199143Y-131476729D01*
X273380572Y-131476729D01*
X273453143Y-131440443D01*
X273816001Y-131767014D02*
X273816001Y-131259014D01*
X273816001Y-131404157D02*
X273852286Y-131331586D01*
X273888572Y-131295300D01*
X273961143Y-131259014D01*
X274033715Y-131259014D01*
X274614286Y-131767014D02*
X274614286Y-131005014D01*
X274614286Y-131730729D02*
X274541715Y-131767014D01*
X274396572Y-131767014D01*
X274324000Y-131730729D01*
X274287715Y-131694443D01*
X274251429Y-131621871D01*
X274251429Y-131404157D01*
X274287715Y-131331586D01*
X274324000Y-131295300D01*
X274396572Y-131259014D01*
X274541715Y-131259014D01*
X274614286Y-131295300D01*
X273192000Y-148495571D02*
X273446000Y-148495571D01*
X273554857Y-148894714D02*
X273192000Y-148894714D01*
X273192000Y-148132714D01*
X273554857Y-148132714D01*
X273881429Y-148386714D02*
X273881429Y-148894714D01*
X273881429Y-148459286D02*
X273917714Y-148423000D01*
X273990286Y-148386714D01*
X274099143Y-148386714D01*
X274171714Y-148423000D01*
X274208000Y-148495571D01*
X274208000Y-148894714D01*
X270419857Y-148858429D02*
X270528714Y-148894714D01*
X270710143Y-148894714D01*
X270782714Y-148858429D01*
X270819000Y-148822143D01*
X270855285Y-148749571D01*
X270855285Y-148677000D01*
X270819000Y-148604429D01*
X270782714Y-148568143D01*
X270710143Y-148531857D01*
X270565000Y-148495571D01*
X270492428Y-148459286D01*
X270456143Y-148423000D01*
X270419857Y-148350429D01*
X270419857Y-148277857D01*
X270456143Y-148205286D01*
X270492428Y-148169000D01*
X270565000Y-148132714D01*
X270746428Y-148132714D01*
X270855285Y-148169000D01*
X271072999Y-148386714D02*
X271363285Y-148386714D01*
X271181857Y-148132714D02*
X271181857Y-148785857D01*
X271218142Y-148858429D01*
X271290714Y-148894714D01*
X271363285Y-148894714D01*
X271617286Y-148386714D02*
X271617286Y-149148714D01*
X271617286Y-148423000D02*
X271689857Y-148386714D01*
X271835000Y-148386714D01*
X271907571Y-148423000D01*
X271943857Y-148459286D01*
X271980143Y-148531857D01*
X271980143Y-148749571D01*
X271943857Y-148822143D01*
X271907571Y-148858429D01*
X271835000Y-148894714D01*
X271689857Y-148894714D01*
X271617286Y-148858429D01*
X268083144Y-148894714D02*
X268083144Y-148132714D01*
X268264572Y-148132714D01*
X268373429Y-148169000D01*
X268446001Y-148241571D01*
X268482286Y-148314143D01*
X268518572Y-148459286D01*
X268518572Y-148568143D01*
X268482286Y-148713286D01*
X268446001Y-148785857D01*
X268373429Y-148858429D01*
X268264572Y-148894714D01*
X268083144Y-148894714D01*
X268845144Y-148894714D02*
X268845144Y-148386714D01*
X268845144Y-148132714D02*
X268808858Y-148169000D01*
X268845144Y-148205286D01*
X268881429Y-148169000D01*
X268845144Y-148132714D01*
X268845144Y-148205286D01*
X269208001Y-148894714D02*
X269208001Y-148386714D01*
X269208001Y-148531857D02*
X269244286Y-148459286D01*
X269280572Y-148423000D01*
X269353143Y-148386714D01*
X269425715Y-148386714D01*
X266004429Y-148368571D02*
X266004429Y-147788000D01*
X266294714Y-148078286D02*
X265714143Y-148078286D01*
X265532714Y-147062285D02*
X265532714Y-147425142D01*
X265895571Y-147461428D01*
X265859286Y-147425142D01*
X265823000Y-147352571D01*
X265823000Y-147171142D01*
X265859286Y-147098571D01*
X265895571Y-147062285D01*
X265968143Y-147026000D01*
X266149571Y-147026000D01*
X266222143Y-147062285D01*
X266258429Y-147098571D01*
X266294714Y-147171142D01*
X266294714Y-147352571D01*
X266258429Y-147425142D01*
X266222143Y-147461428D01*
X265532714Y-146808286D02*
X266294714Y-146554286D01*
X265532714Y-146300286D01*
X263319000Y-148469429D02*
X263282714Y-148542000D01*
X263282714Y-148650857D01*
X263319000Y-148759714D01*
X263391571Y-148832286D01*
X263464143Y-148868571D01*
X263609286Y-148904857D01*
X263718143Y-148904857D01*
X263863286Y-148868571D01*
X263935857Y-148832286D01*
X264008429Y-148759714D01*
X264044714Y-148650857D01*
X264044714Y-148578286D01*
X264008429Y-148469429D01*
X263972143Y-148433143D01*
X263718143Y-148433143D01*
X263718143Y-148578286D01*
X264044714Y-148106571D02*
X263282714Y-148106571D01*
X264044714Y-147671143D01*
X263282714Y-147671143D01*
X264044714Y-147308285D02*
X263282714Y-147308285D01*
X263282714Y-147126857D01*
X263319000Y-147018000D01*
X263391571Y-146945428D01*
X263464143Y-146909143D01*
X263609286Y-146872857D01*
X263718143Y-146872857D01*
X263863286Y-146909143D01*
X263935857Y-146945428D01*
X264008429Y-147018000D01*
X264044714Y-147126857D01*
X264044714Y-147308285D01*
X261013829Y-148904857D02*
X261050114Y-148796000D01*
X261050114Y-148614571D01*
X261013829Y-148542000D01*
X260977543Y-148505714D01*
X260904971Y-148469429D01*
X260832400Y-148469429D01*
X260759829Y-148505714D01*
X260723543Y-148542000D01*
X260687257Y-148614571D01*
X260650971Y-148759714D01*
X260614686Y-148832286D01*
X260578400Y-148868571D01*
X260505829Y-148904857D01*
X260433257Y-148904857D01*
X260360686Y-148868571D01*
X260324400Y-148832286D01*
X260288114Y-148759714D01*
X260288114Y-148578286D01*
X260324400Y-148469429D01*
X260542114Y-148251715D02*
X260542114Y-147961429D01*
X260288114Y-148142857D02*
X260941257Y-148142857D01*
X261013829Y-148106572D01*
X261050114Y-148034000D01*
X261050114Y-147961429D01*
X261013829Y-147417143D02*
X261050114Y-147489714D01*
X261050114Y-147634857D01*
X261013829Y-147707428D01*
X260941257Y-147743714D01*
X260650971Y-147743714D01*
X260578400Y-147707428D01*
X260542114Y-147634857D01*
X260542114Y-147489714D01*
X260578400Y-147417143D01*
X260650971Y-147380857D01*
X260723543Y-147380857D01*
X260796114Y-147743714D01*
X260542114Y-147054285D02*
X261304114Y-147054285D01*
X260578400Y-147054285D02*
X260542114Y-146981714D01*
X260542114Y-146836571D01*
X260578400Y-146764000D01*
X260614686Y-146727714D01*
X260687257Y-146691428D01*
X260904971Y-146691428D01*
X260977543Y-146727714D01*
X261013829Y-146764000D01*
X261050114Y-146836571D01*
X261050114Y-146981714D01*
X261013829Y-147054285D01*
X260542114Y-146364856D02*
X261304114Y-146364856D01*
X260578400Y-146364856D02*
X260542114Y-146292285D01*
X260542114Y-146147142D01*
X260578400Y-146074571D01*
X260614686Y-146038285D01*
X260687257Y-146001999D01*
X260904971Y-146001999D01*
X260977543Y-146038285D01*
X261013829Y-146074571D01*
X261050114Y-146147142D01*
X261050114Y-146292285D01*
X261013829Y-146364856D01*
X261013829Y-145385142D02*
X261050114Y-145457713D01*
X261050114Y-145602856D01*
X261013829Y-145675427D01*
X260941257Y-145711713D01*
X260650971Y-145711713D01*
X260578400Y-145675427D01*
X260542114Y-145602856D01*
X260542114Y-145457713D01*
X260578400Y-145385142D01*
X260650971Y-145348856D01*
X260723543Y-145348856D01*
X260796114Y-145711713D01*
X261050114Y-145022284D02*
X260542114Y-145022284D01*
X260687257Y-145022284D02*
X260614686Y-144985999D01*
X260578400Y-144949713D01*
X260542114Y-144877142D01*
X260542114Y-144804570D01*
X262004429Y-148868571D02*
X262004429Y-148288000D01*
X262294714Y-148578286D02*
X261714143Y-148578286D01*
X262294714Y-147526000D02*
X262294714Y-147961428D01*
X262294714Y-147743714D02*
X261532714Y-147743714D01*
X261641571Y-147816285D01*
X261714143Y-147888857D01*
X261750429Y-147961428D01*
X261605286Y-147235714D02*
X261569000Y-147199428D01*
X261532714Y-147126857D01*
X261532714Y-146945428D01*
X261569000Y-146872857D01*
X261605286Y-146836571D01*
X261677857Y-146800286D01*
X261750429Y-146800286D01*
X261859286Y-146836571D01*
X262294714Y-147272000D01*
X262294714Y-146800286D01*
X261532714Y-146582572D02*
X262294714Y-146328572D01*
X261532714Y-146074572D01*
X256808857Y-150882714D02*
X257280571Y-150882714D01*
X257026571Y-151173000D01*
X257135429Y-151173000D01*
X257208000Y-151209286D01*
X257244286Y-151245571D01*
X257280571Y-151318143D01*
X257280571Y-151499571D01*
X257244286Y-151572143D01*
X257208000Y-151608429D01*
X257135429Y-151644714D01*
X256917714Y-151644714D01*
X256845143Y-151608429D01*
X256808857Y-151572143D01*
X257498285Y-150882714D02*
X257752285Y-151644714D01*
X258006285Y-150882714D01*
X258187714Y-150882714D02*
X258659428Y-150882714D01*
X258405428Y-151173000D01*
X258514286Y-151173000D01*
X258586857Y-151209286D01*
X258623143Y-151245571D01*
X258659428Y-151318143D01*
X258659428Y-151499571D01*
X258623143Y-151572143D01*
X258586857Y-151608429D01*
X258514286Y-151644714D01*
X258296571Y-151644714D01*
X258224000Y-151608429D01*
X258187714Y-151572143D01*
X256845143Y-150358429D02*
X256954000Y-150394714D01*
X257135429Y-150394714D01*
X257208000Y-150358429D01*
X257244286Y-150322143D01*
X257280571Y-150249571D01*
X257280571Y-150177000D01*
X257244286Y-150104429D01*
X257208000Y-150068143D01*
X257135429Y-150031857D01*
X256990286Y-149995571D01*
X256917714Y-149959286D01*
X256881429Y-149923000D01*
X256845143Y-149850429D01*
X256845143Y-149777857D01*
X256881429Y-149705286D01*
X256917714Y-149669000D01*
X256990286Y-149632714D01*
X257171714Y-149632714D01*
X257280571Y-149669000D01*
X257534571Y-149632714D02*
X257716000Y-150394714D01*
X257861143Y-149850429D01*
X258006285Y-150394714D01*
X258187714Y-149632714D01*
X258913428Y-150322143D02*
X258877142Y-150358429D01*
X258768285Y-150394714D01*
X258695714Y-150394714D01*
X258586857Y-150358429D01*
X258514285Y-150285857D01*
X258478000Y-150213286D01*
X258441714Y-150068143D01*
X258441714Y-149959286D01*
X258478000Y-149814143D01*
X258514285Y-149741571D01*
X258586857Y-149669000D01*
X258695714Y-149632714D01*
X258768285Y-149632714D01*
X258877142Y-149669000D01*
X258913428Y-149705286D01*
X259602857Y-150394714D02*
X259240000Y-150394714D01*
X259240000Y-149632714D01*
X259856857Y-150394714D02*
X259856857Y-149632714D01*
X260292285Y-150394714D02*
X259965714Y-149959286D01*
X260292285Y-149632714D02*
X259856857Y-150068143D01*
X257280571Y-148419000D02*
X257208000Y-148382714D01*
X257099143Y-148382714D01*
X256990286Y-148419000D01*
X256917714Y-148491571D01*
X256881429Y-148564143D01*
X256845143Y-148709286D01*
X256845143Y-148818143D01*
X256881429Y-148963286D01*
X256917714Y-149035857D01*
X256990286Y-149108429D01*
X257099143Y-149144714D01*
X257171714Y-149144714D01*
X257280571Y-149108429D01*
X257316857Y-149072143D01*
X257316857Y-148818143D01*
X257171714Y-148818143D01*
X257643429Y-149144714D02*
X257643429Y-148382714D01*
X258078857Y-149144714D01*
X258078857Y-148382714D01*
X258441715Y-149144714D02*
X258441715Y-148382714D01*
X258623143Y-148382714D01*
X258732000Y-148419000D01*
X258804572Y-148491571D01*
X258840857Y-148564143D01*
X258877143Y-148709286D01*
X258877143Y-148818143D01*
X258840857Y-148963286D01*
X258804572Y-149035857D01*
X258732000Y-149108429D01*
X258623143Y-149144714D01*
X258441715Y-149144714D01*
X256845143Y-145358429D02*
X256954000Y-145394714D01*
X257135429Y-145394714D01*
X257208000Y-145358429D01*
X257244286Y-145322143D01*
X257280571Y-145249571D01*
X257280571Y-145177000D01*
X257244286Y-145104429D01*
X257208000Y-145068143D01*
X257135429Y-145031857D01*
X256990286Y-144995571D01*
X256917714Y-144959286D01*
X256881429Y-144923000D01*
X256845143Y-144850429D01*
X256845143Y-144777857D01*
X256881429Y-144705286D01*
X256917714Y-144669000D01*
X256990286Y-144632714D01*
X257171714Y-144632714D01*
X257280571Y-144669000D01*
X257534571Y-144632714D02*
X257716000Y-145394714D01*
X257861143Y-144850429D01*
X258006285Y-145394714D01*
X258187714Y-144632714D01*
X258478000Y-145394714D02*
X258478000Y-144632714D01*
X258659428Y-144632714D01*
X258768285Y-144669000D01*
X258840857Y-144741571D01*
X258877142Y-144814143D01*
X258913428Y-144959286D01*
X258913428Y-145068143D01*
X258877142Y-145213286D01*
X258840857Y-145285857D01*
X258768285Y-145358429D01*
X258659428Y-145394714D01*
X258478000Y-145394714D01*
X259240000Y-145394714D02*
X259240000Y-144632714D01*
X259747999Y-144632714D02*
X259893142Y-144632714D01*
X259965714Y-144669000D01*
X260038285Y-144741571D01*
X260074571Y-144886714D01*
X260074571Y-145140714D01*
X260038285Y-145285857D01*
X259965714Y-145358429D01*
X259893142Y-145394714D01*
X259747999Y-145394714D01*
X259675428Y-145358429D01*
X259602857Y-145285857D01*
X259566571Y-145140714D01*
X259566571Y-144886714D01*
X259602857Y-144741571D01*
X259675428Y-144669000D01*
X259747999Y-144632714D01*
X256881429Y-144144714D02*
X256881429Y-143382714D01*
X257316857Y-144144714D01*
X257316857Y-143382714D01*
X258115143Y-144144714D02*
X257861143Y-143781857D01*
X257679715Y-144144714D02*
X257679715Y-143382714D01*
X257970000Y-143382714D01*
X258042572Y-143419000D01*
X258078857Y-143455286D01*
X258115143Y-143527857D01*
X258115143Y-143636714D01*
X258078857Y-143709286D01*
X258042572Y-143745571D01*
X257970000Y-143781857D01*
X257679715Y-143781857D01*
X258405429Y-144108429D02*
X258514286Y-144144714D01*
X258695715Y-144144714D01*
X258768286Y-144108429D01*
X258804572Y-144072143D01*
X258840857Y-143999571D01*
X258840857Y-143927000D01*
X258804572Y-143854429D01*
X258768286Y-143818143D01*
X258695715Y-143781857D01*
X258550572Y-143745571D01*
X258478000Y-143709286D01*
X258441715Y-143673000D01*
X258405429Y-143600429D01*
X258405429Y-143527857D01*
X258441715Y-143455286D01*
X258478000Y-143419000D01*
X258550572Y-143382714D01*
X258732000Y-143382714D01*
X258840857Y-143419000D01*
X259058571Y-143382714D02*
X259494000Y-143382714D01*
X259276286Y-144144714D02*
X259276286Y-143382714D01*
X257095143Y-139858429D02*
X257204000Y-139894714D01*
X257385429Y-139894714D01*
X257458000Y-139858429D01*
X257494286Y-139822143D01*
X257530571Y-139749571D01*
X257530571Y-139677000D01*
X257494286Y-139604429D01*
X257458000Y-139568143D01*
X257385429Y-139531857D01*
X257240286Y-139495571D01*
X257167714Y-139459286D01*
X257131429Y-139423000D01*
X257095143Y-139350429D01*
X257095143Y-139277857D01*
X257131429Y-139205286D01*
X257167714Y-139169000D01*
X257240286Y-139132714D01*
X257421714Y-139132714D01*
X257530571Y-139169000D01*
X257784571Y-139132714D02*
X257966000Y-139894714D01*
X258111143Y-139350429D01*
X258256285Y-139894714D01*
X258437714Y-139132714D01*
X258728000Y-139894714D02*
X258728000Y-139132714D01*
X258909428Y-139132714D01*
X259018285Y-139169000D01*
X259090857Y-139241571D01*
X259127142Y-139314143D01*
X259163428Y-139459286D01*
X259163428Y-139568143D01*
X259127142Y-139713286D01*
X259090857Y-139785857D01*
X259018285Y-139858429D01*
X258909428Y-139894714D01*
X258728000Y-139894714D01*
X248119428Y-131169000D02*
X248046857Y-131132714D01*
X247938000Y-131132714D01*
X247829143Y-131169000D01*
X247756571Y-131241571D01*
X247720286Y-131314143D01*
X247684000Y-131459286D01*
X247684000Y-131568143D01*
X247720286Y-131713286D01*
X247756571Y-131785857D01*
X247829143Y-131858429D01*
X247938000Y-131894714D01*
X248010571Y-131894714D01*
X248119428Y-131858429D01*
X248155714Y-131822143D01*
X248155714Y-131568143D01*
X248010571Y-131568143D01*
X248482286Y-131894714D02*
X248482286Y-131132714D01*
X248917714Y-131894714D01*
X248917714Y-131132714D01*
X249280572Y-131894714D02*
X249280572Y-131132714D01*
X249462000Y-131132714D01*
X249570857Y-131169000D01*
X249643429Y-131241571D01*
X249679714Y-131314143D01*
X249716000Y-131459286D01*
X249716000Y-131568143D01*
X249679714Y-131713286D01*
X249643429Y-131785857D01*
X249570857Y-131858429D01*
X249462000Y-131894714D01*
X249280572Y-131894714D01*
X249869429Y-129382714D02*
X250304858Y-129382714D01*
X250087144Y-130144714D02*
X250087144Y-129382714D01*
X250486286Y-129382714D02*
X250994286Y-130144714D01*
X250994286Y-129382714D02*
X250486286Y-130144714D01*
X250823000Y-137144714D02*
X250569000Y-136781857D01*
X250387572Y-137144714D02*
X250387572Y-136382714D01*
X250677857Y-136382714D01*
X250750429Y-136419000D01*
X250786714Y-136455286D01*
X250823000Y-136527857D01*
X250823000Y-136636714D01*
X250786714Y-136709286D01*
X250750429Y-136745571D01*
X250677857Y-136781857D01*
X250387572Y-136781857D01*
X251077000Y-136382714D02*
X251585000Y-137144714D01*
X251585000Y-136382714D02*
X251077000Y-137144714D01*
D12*
X280909809Y-150086519D02*
X280982380Y-150110710D01*
X281103333Y-150110710D01*
X281151714Y-150086519D01*
X281175904Y-150062329D01*
X281200095Y-150013948D01*
X281200095Y-149965567D01*
X281175904Y-149917186D01*
X281151714Y-149892995D01*
X281103333Y-149868805D01*
X281006571Y-149844614D01*
X280958190Y-149820424D01*
X280933999Y-149796233D01*
X280909809Y-149747852D01*
X280909809Y-149699471D01*
X280933999Y-149651090D01*
X280958190Y-149626900D01*
X281006571Y-149602710D01*
X281127523Y-149602710D01*
X281200095Y-149626900D01*
X281369428Y-149772043D02*
X281490381Y-150110710D01*
X281611333Y-149772043D02*
X281490381Y-150110710D01*
X281442000Y-150231662D01*
X281417809Y-150255852D01*
X281369428Y-150280043D01*
X282095143Y-150110710D02*
X281925810Y-149868805D01*
X281804857Y-150110710D02*
X281804857Y-149602710D01*
X281998381Y-149602710D01*
X282046762Y-149626900D01*
X282070953Y-149651090D01*
X282095143Y-149699471D01*
X282095143Y-149772043D01*
X282070953Y-149820424D01*
X282046762Y-149844614D01*
X281998381Y-149868805D01*
X281804857Y-149868805D01*
X282506381Y-150086519D02*
X282458000Y-150110710D01*
X282361238Y-150110710D01*
X282312857Y-150086519D01*
X282288667Y-150038138D01*
X282288667Y-149844614D01*
X282312857Y-149796233D01*
X282361238Y-149772043D01*
X282458000Y-149772043D01*
X282506381Y-149796233D01*
X282530572Y-149844614D01*
X282530572Y-149892995D01*
X282288667Y-149941376D01*
X282748286Y-149772043D02*
X282748286Y-150110710D01*
X282748286Y-149820424D02*
X282772477Y-149796233D01*
X282820858Y-149772043D01*
X282893429Y-149772043D01*
X282941810Y-149796233D01*
X282966001Y-149844614D01*
X282966001Y-150110710D01*
X281562952Y-150440910D02*
X281853238Y-150440910D01*
X281708095Y-150948910D02*
X281708095Y-150440910D01*
X281974190Y-150440910D02*
X282312857Y-150948910D01*
X282312857Y-150440910D02*
X281974190Y-150948910D01*
D13*
X233175000Y-140550000D02*
X233175000Y-142550000D01*
X235225000Y-142550000D02*
X235225000Y-140550000D01*
X238775000Y-139625000D02*
X238775000Y-140700000D01*
X249125000Y-139625000D02*
X249125000Y-140700000D01*
X249125000Y-149975000D02*
X249125000Y-148900000D01*
X238775000Y-149975000D02*
X238775000Y-148900000D01*
X238775000Y-139625000D02*
X239850000Y-139625000D01*
X238775000Y-149975000D02*
X239850000Y-149975000D01*
X249125000Y-149975000D02*
X248050000Y-149975000D01*
X249125000Y-139625000D02*
X248050000Y-139625000D01*
X238775000Y-140700000D02*
X237750000Y-140700000D01*
X235225000Y-149300000D02*
X235225000Y-147300000D01*
X233175000Y-147300000D02*
X233175000Y-149300000D01*
X223675000Y-131550000D02*
X223675000Y-133550000D01*
X225725000Y-133550000D02*
X225725000Y-131550000D01*
X247450000Y-153825000D02*
X249450000Y-153825000D01*
X249450000Y-151775000D02*
X247450000Y-151775000D01*
X242925000Y-131550000D02*
X242925000Y-133550000D01*
X244975000Y-133550000D02*
X244975000Y-131550000D01*
X240175000Y-131550000D02*
X240175000Y-133550000D01*
X242225000Y-133550000D02*
X242225000Y-131550000D01*
X237425000Y-131550000D02*
X237425000Y-133550000D01*
X239475000Y-133550000D02*
X239475000Y-131550000D01*
X234675000Y-131550000D02*
X234675000Y-133550000D01*
X236725000Y-133550000D02*
X236725000Y-131550000D01*
X231925000Y-131550000D02*
X231925000Y-133550000D01*
X233975000Y-133550000D02*
X233975000Y-131550000D01*
X229175000Y-131550000D02*
X229175000Y-133550000D01*
X231225000Y-133550000D02*
X231225000Y-131550000D01*
X226425000Y-131550000D02*
X226425000Y-133550000D01*
X228475000Y-133550000D02*
X228475000Y-131550000D01*
X222450000Y-151075000D02*
X224450000Y-151075000D01*
X224450000Y-149025000D02*
X222450000Y-149025000D01*
X222450000Y-153575000D02*
X224450000Y-153575000D01*
X224450000Y-151525000D02*
X222450000Y-151525000D01*
X224450000Y-148625000D02*
X222450000Y-148625000D01*
X222450000Y-146475000D02*
X224450000Y-146475000D01*
X263950000Y-134625000D02*
X261950000Y-134625000D01*
X261950000Y-132475000D02*
X263950000Y-132475000D01*
X239450000Y-151725000D02*
X241450000Y-151725000D01*
X241450000Y-153875000D02*
X239450000Y-153875000D01*
X231601000Y-139847000D02*
X231220000Y-139847000D01*
X228299000Y-139847000D02*
X228680000Y-139847000D01*
X228299000Y-149753000D02*
X228680000Y-149753000D01*
X231601000Y-149753000D02*
X231220000Y-149753000D01*
X232490000Y-150515000D02*
X231220000Y-150515000D01*
X227410000Y-150515000D02*
X228680000Y-150515000D01*
X227410000Y-139085000D02*
X228680000Y-139085000D01*
X232490000Y-139085000D02*
X231220000Y-139085000D01*
X228299000Y-139847000D02*
X227664000Y-140482000D01*
X227664000Y-140482000D02*
X227664000Y-149118000D01*
X227664000Y-149118000D02*
X228299000Y-149753000D01*
X231601000Y-149753000D02*
X232236000Y-149118000D01*
X232236000Y-149118000D02*
X232236000Y-140482000D01*
X232236000Y-140482000D02*
X231601000Y-139847000D01*
X227410000Y-150515000D02*
X227410000Y-139085000D01*
X232490000Y-139085000D02*
X232490000Y-150515000D01*
X266635800Y-147725000D02*
X283526800Y-147725000D01*
X283526800Y-147725000D02*
X283526800Y-132485000D01*
X283526800Y-132485000D02*
X266635800Y-132485000D01*
X266635800Y-132485000D02*
X266635800Y-147725000D01*
X253875000Y-136375000D02*
X254020000Y-136375000D01*
X253875000Y-132225000D02*
X254020000Y-132225000D01*
X259025000Y-132225000D02*
X258880000Y-132225000D01*
X259025000Y-136375000D02*
X258880000Y-136375000D01*
X253875000Y-136375000D02*
X253875000Y-132225000D01*
X259025000Y-136375000D02*
X259025000Y-132225000D01*
X254020000Y-136375000D02*
X254020000Y-137775000D01*
X223800000Y-138425000D02*
X222600000Y-138425000D01*
X222600000Y-136675000D02*
X223800000Y-136675000D01*
X223800000Y-143425000D02*
X222600000Y-143425000D01*
X222600000Y-141675000D02*
X223800000Y-141675000D01*
X224450000Y-141125000D02*
X222450000Y-141125000D01*
X222450000Y-138975000D02*
X224450000Y-138975000D01*
X256470000Y-138572000D02*
X253930000Y-138572000D01*
X256470000Y-141112000D02*
X256470000Y-138572000D01*
X253930000Y-141112000D02*
X256470000Y-141112000D01*
X253930000Y-138572000D02*
X253930000Y-141112000D01*
X253930000Y-143652000D02*
X253930000Y-141112000D01*
X256470000Y-143652000D02*
X253930000Y-143652000D01*
X256470000Y-141112000D02*
X256470000Y-143652000D01*
X253930000Y-146192000D02*
X253930000Y-143652000D01*
X256470000Y-146192000D02*
X253930000Y-146192000D01*
X256470000Y-143652000D02*
X256470000Y-146192000D01*
X253930000Y-148732000D02*
X253930000Y-146192000D01*
X253930000Y-146192000D02*
X256470000Y-146192000D01*
X256470000Y-146192000D02*
X256470000Y-148732000D01*
X253930000Y-151272000D02*
X253930000Y-148732000D01*
X253930000Y-148732000D02*
X256470000Y-148732000D01*
X256470000Y-148732000D02*
X256470000Y-151272000D01*
X256470000Y-153812000D02*
X256470000Y-151272000D01*
X256470000Y-151272000D02*
X253930000Y-151272000D01*
X253930000Y-151272000D02*
X253930000Y-153812000D01*
X253930000Y-153812000D02*
X256470000Y-153812000D01*
X248132000Y-134820000D02*
X245592000Y-134820000D01*
X245592000Y-134820000D02*
X245592000Y-132280000D01*
X245592000Y-132280000D02*
X248132000Y-132280000D01*
X250672000Y-134820000D02*
X248132000Y-134820000D01*
X248132000Y-134820000D02*
X248132000Y-132280000D01*
X248132000Y-132280000D02*
X250672000Y-132280000D01*
X253212000Y-132280000D02*
X250672000Y-132280000D01*
X250672000Y-132280000D02*
X250672000Y-134820000D01*
X250672000Y-134820000D02*
X253212000Y-134820000D01*
X253212000Y-134820000D02*
X253212000Y-132280000D01*
X222450000Y-143975000D02*
X224450000Y-143975000D01*
X224450000Y-146125000D02*
X222450000Y-146125000D01*
X236222143Y-138927000D02*
X236258429Y-138963286D01*
X236294714Y-139072143D01*
X236294714Y-139144714D01*
X236258429Y-139253571D01*
X236185857Y-139326143D01*
X236113286Y-139362428D01*
X235968143Y-139398714D01*
X235859286Y-139398714D01*
X235714143Y-139362428D01*
X235641571Y-139326143D01*
X235569000Y-139253571D01*
X235532714Y-139144714D01*
X235532714Y-139072143D01*
X235569000Y-138963286D01*
X235605286Y-138927000D01*
X236294714Y-138201286D02*
X236294714Y-138636714D01*
X236294714Y-138419000D02*
X235532714Y-138419000D01*
X235641571Y-138491571D01*
X235714143Y-138564143D01*
X235750429Y-138636714D01*
X248688095Y-138252381D02*
X248688095Y-139061905D01*
X248735714Y-139157143D01*
X248783333Y-139204762D01*
X248878571Y-139252381D01*
X249069048Y-139252381D01*
X249164286Y-139204762D01*
X249211905Y-139157143D01*
X249259524Y-139061905D01*
X249259524Y-138252381D01*
X250259524Y-139252381D02*
X249688095Y-139252381D01*
X249973809Y-139252381D02*
X249973809Y-138252381D01*
X249878571Y-138395238D01*
X249783333Y-138490476D01*
X249688095Y-138538095D01*
X236222143Y-151177000D02*
X236258429Y-151213286D01*
X236294714Y-151322143D01*
X236294714Y-151394714D01*
X236258429Y-151503571D01*
X236185857Y-151576143D01*
X236113286Y-151612428D01*
X235968143Y-151648714D01*
X235859286Y-151648714D01*
X235714143Y-151612428D01*
X235641571Y-151576143D01*
X235569000Y-151503571D01*
X235532714Y-151394714D01*
X235532714Y-151322143D01*
X235569000Y-151213286D01*
X235605286Y-151177000D01*
X235605286Y-150886714D02*
X235569000Y-150850428D01*
X235532714Y-150777857D01*
X235532714Y-150596428D01*
X235569000Y-150523857D01*
X235605286Y-150487571D01*
X235677857Y-150451286D01*
X235750429Y-150451286D01*
X235859286Y-150487571D01*
X236294714Y-150923000D01*
X236294714Y-150451286D01*
X223307143Y-132966666D02*
X223354762Y-133014285D01*
X223402381Y-133157142D01*
X223402381Y-133252380D01*
X223354762Y-133395238D01*
X223259524Y-133490476D01*
X223164286Y-133538095D01*
X222973810Y-133585714D01*
X222830952Y-133585714D01*
X222640476Y-133538095D01*
X222545238Y-133490476D01*
X222450000Y-133395238D01*
X222402381Y-133252380D01*
X222402381Y-133157142D01*
X222450000Y-133014285D01*
X222497619Y-132966666D01*
X222402381Y-132633333D02*
X222402381Y-132014285D01*
X222783333Y-132347619D01*
X222783333Y-132204761D01*
X222830952Y-132109523D01*
X222878571Y-132061904D01*
X222973810Y-132014285D01*
X223211905Y-132014285D01*
X223307143Y-132061904D01*
X223354762Y-132109523D01*
X223402381Y-132204761D01*
X223402381Y-132490476D01*
X223354762Y-132585714D01*
X223307143Y-132633333D01*
X252323000Y-153822143D02*
X252286714Y-153858429D01*
X252177857Y-153894714D01*
X252105286Y-153894714D01*
X251996429Y-153858429D01*
X251923857Y-153785857D01*
X251887572Y-153713286D01*
X251851286Y-153568143D01*
X251851286Y-153459286D01*
X251887572Y-153314143D01*
X251923857Y-153241571D01*
X251996429Y-153169000D01*
X252105286Y-153132714D01*
X252177857Y-153132714D01*
X252286714Y-153169000D01*
X252323000Y-153205286D01*
X252976143Y-153386714D02*
X252976143Y-153894714D01*
X252794714Y-153096429D02*
X252613286Y-153640714D01*
X253085000Y-153640714D01*
X243823000Y-136822143D02*
X243786714Y-136858429D01*
X243677857Y-136894714D01*
X243605286Y-136894714D01*
X243496429Y-136858429D01*
X243423857Y-136785857D01*
X243387572Y-136713286D01*
X243351286Y-136568143D01*
X243351286Y-136459286D01*
X243387572Y-136314143D01*
X243423857Y-136241571D01*
X243496429Y-136169000D01*
X243605286Y-136132714D01*
X243677857Y-136132714D01*
X243786714Y-136169000D01*
X243823000Y-136205286D01*
X244512429Y-136132714D02*
X244149572Y-136132714D01*
X244113286Y-136495571D01*
X244149572Y-136459286D01*
X244222143Y-136423000D01*
X244403572Y-136423000D01*
X244476143Y-136459286D01*
X244512429Y-136495571D01*
X244548714Y-136568143D01*
X244548714Y-136749571D01*
X244512429Y-136822143D01*
X244476143Y-136858429D01*
X244403572Y-136894714D01*
X244222143Y-136894714D01*
X244149572Y-136858429D01*
X244113286Y-136822143D01*
X241073000Y-136822143D02*
X241036714Y-136858429D01*
X240927857Y-136894714D01*
X240855286Y-136894714D01*
X240746429Y-136858429D01*
X240673857Y-136785857D01*
X240637572Y-136713286D01*
X240601286Y-136568143D01*
X240601286Y-136459286D01*
X240637572Y-136314143D01*
X240673857Y-136241571D01*
X240746429Y-136169000D01*
X240855286Y-136132714D01*
X240927857Y-136132714D01*
X241036714Y-136169000D01*
X241073000Y-136205286D01*
X241726143Y-136132714D02*
X241581000Y-136132714D01*
X241508429Y-136169000D01*
X241472143Y-136205286D01*
X241399572Y-136314143D01*
X241363286Y-136459286D01*
X241363286Y-136749571D01*
X241399572Y-136822143D01*
X241435857Y-136858429D01*
X241508429Y-136894714D01*
X241653572Y-136894714D01*
X241726143Y-136858429D01*
X241762429Y-136822143D01*
X241798714Y-136749571D01*
X241798714Y-136568143D01*
X241762429Y-136495571D01*
X241726143Y-136459286D01*
X241653572Y-136423000D01*
X241508429Y-136423000D01*
X241435857Y-136459286D01*
X241399572Y-136495571D01*
X241363286Y-136568143D01*
X238323000Y-136822143D02*
X238286714Y-136858429D01*
X238177857Y-136894714D01*
X238105286Y-136894714D01*
X237996429Y-136858429D01*
X237923857Y-136785857D01*
X237887572Y-136713286D01*
X237851286Y-136568143D01*
X237851286Y-136459286D01*
X237887572Y-136314143D01*
X237923857Y-136241571D01*
X237996429Y-136169000D01*
X238105286Y-136132714D01*
X238177857Y-136132714D01*
X238286714Y-136169000D01*
X238323000Y-136205286D01*
X238577000Y-136132714D02*
X239085000Y-136132714D01*
X238758429Y-136894714D01*
X235573000Y-136822143D02*
X235536714Y-136858429D01*
X235427857Y-136894714D01*
X235355286Y-136894714D01*
X235246429Y-136858429D01*
X235173857Y-136785857D01*
X235137572Y-136713286D01*
X235101286Y-136568143D01*
X235101286Y-136459286D01*
X235137572Y-136314143D01*
X235173857Y-136241571D01*
X235246429Y-136169000D01*
X235355286Y-136132714D01*
X235427857Y-136132714D01*
X235536714Y-136169000D01*
X235573000Y-136205286D01*
X236008429Y-136459286D02*
X235935857Y-136423000D01*
X235899572Y-136386714D01*
X235863286Y-136314143D01*
X235863286Y-136277857D01*
X235899572Y-136205286D01*
X235935857Y-136169000D01*
X236008429Y-136132714D01*
X236153572Y-136132714D01*
X236226143Y-136169000D01*
X236262429Y-136205286D01*
X236298714Y-136277857D01*
X236298714Y-136314143D01*
X236262429Y-136386714D01*
X236226143Y-136423000D01*
X236153572Y-136459286D01*
X236008429Y-136459286D01*
X235935857Y-136495571D01*
X235899572Y-136531857D01*
X235863286Y-136604429D01*
X235863286Y-136749571D01*
X235899572Y-136822143D01*
X235935857Y-136858429D01*
X236008429Y-136894714D01*
X236153572Y-136894714D01*
X236226143Y-136858429D01*
X236262429Y-136822143D01*
X236298714Y-136749571D01*
X236298714Y-136604429D01*
X236262429Y-136531857D01*
X236226143Y-136495571D01*
X236153572Y-136459286D01*
X232823000Y-136822143D02*
X232786714Y-136858429D01*
X232677857Y-136894714D01*
X232605286Y-136894714D01*
X232496429Y-136858429D01*
X232423857Y-136785857D01*
X232387572Y-136713286D01*
X232351286Y-136568143D01*
X232351286Y-136459286D01*
X232387572Y-136314143D01*
X232423857Y-136241571D01*
X232496429Y-136169000D01*
X232605286Y-136132714D01*
X232677857Y-136132714D01*
X232786714Y-136169000D01*
X232823000Y-136205286D01*
X233185857Y-136894714D02*
X233331000Y-136894714D01*
X233403572Y-136858429D01*
X233439857Y-136822143D01*
X233512429Y-136713286D01*
X233548714Y-136568143D01*
X233548714Y-136277857D01*
X233512429Y-136205286D01*
X233476143Y-136169000D01*
X233403572Y-136132714D01*
X233258429Y-136132714D01*
X233185857Y-136169000D01*
X233149572Y-136205286D01*
X233113286Y-136277857D01*
X233113286Y-136459286D01*
X233149572Y-136531857D01*
X233185857Y-136568143D01*
X233258429Y-136604429D01*
X233403572Y-136604429D01*
X233476143Y-136568143D01*
X233512429Y-136531857D01*
X233548714Y-136459286D01*
X229710143Y-136822143D02*
X229673857Y-136858429D01*
X229565000Y-136894714D01*
X229492429Y-136894714D01*
X229383572Y-136858429D01*
X229311000Y-136785857D01*
X229274715Y-136713286D01*
X229238429Y-136568143D01*
X229238429Y-136459286D01*
X229274715Y-136314143D01*
X229311000Y-136241571D01*
X229383572Y-136169000D01*
X229492429Y-136132714D01*
X229565000Y-136132714D01*
X229673857Y-136169000D01*
X229710143Y-136205286D01*
X230435857Y-136894714D02*
X230000429Y-136894714D01*
X230218143Y-136894714D02*
X230218143Y-136132714D01*
X230145572Y-136241571D01*
X230073000Y-136314143D01*
X230000429Y-136350429D01*
X230907571Y-136132714D02*
X230980143Y-136132714D01*
X231052714Y-136169000D01*
X231089000Y-136205286D01*
X231125286Y-136277857D01*
X231161571Y-136423000D01*
X231161571Y-136604429D01*
X231125286Y-136749571D01*
X231089000Y-136822143D01*
X231052714Y-136858429D01*
X230980143Y-136894714D01*
X230907571Y-136894714D01*
X230835000Y-136858429D01*
X230798714Y-136822143D01*
X230762429Y-136749571D01*
X230726143Y-136604429D01*
X230726143Y-136423000D01*
X230762429Y-136277857D01*
X230798714Y-136205286D01*
X230835000Y-136169000D01*
X230907571Y-136132714D01*
X226960143Y-136822143D02*
X226923857Y-136858429D01*
X226815000Y-136894714D01*
X226742429Y-136894714D01*
X226633572Y-136858429D01*
X226561000Y-136785857D01*
X226524715Y-136713286D01*
X226488429Y-136568143D01*
X226488429Y-136459286D01*
X226524715Y-136314143D01*
X226561000Y-136241571D01*
X226633572Y-136169000D01*
X226742429Y-136132714D01*
X226815000Y-136132714D01*
X226923857Y-136169000D01*
X226960143Y-136205286D01*
X227685857Y-136894714D02*
X227250429Y-136894714D01*
X227468143Y-136894714D02*
X227468143Y-136132714D01*
X227395572Y-136241571D01*
X227323000Y-136314143D01*
X227250429Y-136350429D01*
X228411571Y-136894714D02*
X227976143Y-136894714D01*
X228193857Y-136894714D02*
X228193857Y-136132714D01*
X228121286Y-136241571D01*
X228048714Y-136314143D01*
X227976143Y-136350429D01*
X227291786Y-152526786D02*
X227261548Y-152557024D01*
X227170833Y-152587262D01*
X227110357Y-152587262D01*
X227019643Y-152557024D01*
X226959167Y-152496548D01*
X226928928Y-152436071D01*
X226898690Y-152315119D01*
X226898690Y-152224405D01*
X226928928Y-152103452D01*
X226959167Y-152042976D01*
X227019643Y-151982500D01*
X227110357Y-151952262D01*
X227170833Y-151952262D01*
X227261548Y-151982500D01*
X227291786Y-152012738D01*
X227896548Y-152587262D02*
X227533690Y-152587262D01*
X227715119Y-152587262D02*
X227715119Y-151952262D01*
X227654643Y-152042976D01*
X227594167Y-152103452D01*
X227533690Y-152133690D01*
X228138452Y-152012738D02*
X228168690Y-151982500D01*
X228229167Y-151952262D01*
X228380357Y-151952262D01*
X228440833Y-151982500D01*
X228471071Y-152012738D01*
X228501310Y-152073214D01*
X228501310Y-152133690D01*
X228471071Y-152224405D01*
X228108214Y-152587262D01*
X228501310Y-152587262D01*
X227291786Y-153526786D02*
X227261548Y-153557024D01*
X227170833Y-153587262D01*
X227110357Y-153587262D01*
X227019643Y-153557024D01*
X226959167Y-153496548D01*
X226928928Y-153436071D01*
X226898690Y-153315119D01*
X226898690Y-153224405D01*
X226928928Y-153103452D01*
X226959167Y-153042976D01*
X227019643Y-152982500D01*
X227110357Y-152952262D01*
X227170833Y-152952262D01*
X227261548Y-152982500D01*
X227291786Y-153012738D01*
X227896548Y-153587262D02*
X227533690Y-153587262D01*
X227715119Y-153587262D02*
X227715119Y-152952262D01*
X227654643Y-153042976D01*
X227594167Y-153103452D01*
X227533690Y-153133690D01*
X228108214Y-152952262D02*
X228501310Y-152952262D01*
X228289643Y-153194167D01*
X228380357Y-153194167D01*
X228440833Y-153224405D01*
X228471071Y-153254643D01*
X228501310Y-153315119D01*
X228501310Y-153466310D01*
X228471071Y-153526786D01*
X228440833Y-153557024D01*
X228380357Y-153587262D01*
X228198929Y-153587262D01*
X228138452Y-153557024D01*
X228108214Y-153526786D01*
X227170833Y-151254643D02*
X226959166Y-151254643D01*
X226959166Y-151587262D02*
X226959166Y-150952262D01*
X227261547Y-150952262D01*
X227715119Y-151254643D02*
X227805833Y-151284881D01*
X227836072Y-151315119D01*
X227866310Y-151375595D01*
X227866310Y-151466310D01*
X227836072Y-151526786D01*
X227805833Y-151557024D01*
X227745357Y-151587262D01*
X227503452Y-151587262D01*
X227503452Y-150952262D01*
X227715119Y-150952262D01*
X227775595Y-150982500D01*
X227805833Y-151012738D01*
X227836072Y-151073214D01*
X227836072Y-151133690D01*
X227805833Y-151194167D01*
X227775595Y-151224405D01*
X227715119Y-151254643D01*
X227503452Y-151254643D01*
X228471072Y-151587262D02*
X228108214Y-151587262D01*
X228289643Y-151587262D02*
X228289643Y-150952262D01*
X228229167Y-151042976D01*
X228168691Y-151103452D01*
X228108214Y-151133690D01*
X262833334Y-132052381D02*
X262500000Y-131576190D01*
X262261905Y-132052381D02*
X262261905Y-131052381D01*
X262642858Y-131052381D01*
X262738096Y-131100000D01*
X262785715Y-131147619D01*
X262833334Y-131242857D01*
X262833334Y-131385714D01*
X262785715Y-131480952D01*
X262738096Y-131528571D01*
X262642858Y-131576190D01*
X262261905Y-131576190D01*
X263785715Y-132052381D02*
X263214286Y-132052381D01*
X263500000Y-132052381D02*
X263500000Y-131052381D01*
X263404762Y-131195238D01*
X263309524Y-131290476D01*
X263214286Y-131338095D01*
X236073000Y-153894714D02*
X235819000Y-153531857D01*
X235637572Y-153894714D02*
X235637572Y-153132714D01*
X235927857Y-153132714D01*
X236000429Y-153169000D01*
X236036714Y-153205286D01*
X236073000Y-153277857D01*
X236073000Y-153386714D01*
X236036714Y-153459286D01*
X236000429Y-153495571D01*
X235927857Y-153531857D01*
X235637572Y-153531857D01*
X236363286Y-153205286D02*
X236399572Y-153169000D01*
X236472143Y-153132714D01*
X236653572Y-153132714D01*
X236726143Y-153169000D01*
X236762429Y-153205286D01*
X236798714Y-153277857D01*
X236798714Y-153350429D01*
X236762429Y-153459286D01*
X236327000Y-153894714D01*
X236798714Y-153894714D01*
X231402381Y-152359524D02*
X232402381Y-151692857D01*
X231402381Y-151692857D02*
X232402381Y-152359524D01*
X232402381Y-150788095D02*
X232402381Y-151359524D01*
X232402381Y-151073810D02*
X231402381Y-151073810D01*
X231545238Y-151169048D01*
X231640476Y-151264286D01*
X231688095Y-151359524D01*
X281866667Y-148252381D02*
X281866667Y-148966667D01*
X281819047Y-149109524D01*
X281723809Y-149204762D01*
X281580952Y-149252381D01*
X281485714Y-149252381D01*
X282866667Y-149252381D02*
X282295238Y-149252381D01*
X282580952Y-149252381D02*
X282580952Y-148252381D01*
X282485714Y-148395238D01*
X282390476Y-148490476D01*
X282295238Y-148538095D01*
X259438095Y-131052381D02*
X259438095Y-131861905D01*
X259485714Y-131957143D01*
X259533333Y-132004762D01*
X259628571Y-132052381D01*
X259819048Y-132052381D01*
X259914286Y-132004762D01*
X259961905Y-131957143D01*
X260009524Y-131861905D01*
X260009524Y-131052381D01*
X260438095Y-131147619D02*
X260485714Y-131100000D01*
X260580952Y-131052381D01*
X260819048Y-131052381D01*
X260914286Y-131100000D01*
X260961905Y-131147619D01*
X261009524Y-131242857D01*
X261009524Y-131338095D01*
X260961905Y-131480952D01*
X260390476Y-132052381D01*
X261009524Y-132052381D01*
X220737262Y-138018691D02*
X220102262Y-138018691D01*
X220102262Y-137867500D01*
X220132500Y-137776786D01*
X220192976Y-137716310D01*
X220253452Y-137686071D01*
X220374405Y-137655833D01*
X220465119Y-137655833D01*
X220586071Y-137686071D01*
X220646548Y-137716310D01*
X220707024Y-137776786D01*
X220737262Y-137867500D01*
X220737262Y-138018691D01*
X220737262Y-137051071D02*
X220737262Y-137413929D01*
X220737262Y-137232500D02*
X220102262Y-137232500D01*
X220192976Y-137292976D01*
X220253452Y-137353452D01*
X220283690Y-137413929D01*
X220737262Y-143018691D02*
X220102262Y-143018691D01*
X220102262Y-142867500D01*
X220132500Y-142776786D01*
X220192976Y-142716310D01*
X220253452Y-142686071D01*
X220374405Y-142655833D01*
X220465119Y-142655833D01*
X220586071Y-142686071D01*
X220646548Y-142716310D01*
X220707024Y-142776786D01*
X220737262Y-142867500D01*
X220737262Y-143018691D01*
X220162738Y-142413929D02*
X220132500Y-142383691D01*
X220102262Y-142323214D01*
X220102262Y-142172024D01*
X220132500Y-142111548D01*
X220162738Y-142081310D01*
X220223214Y-142051071D01*
X220283690Y-142051071D01*
X220374405Y-142081310D01*
X220737262Y-142444167D01*
X220737262Y-142051071D01*
X226323000Y-138644714D02*
X226069000Y-138281857D01*
X225887572Y-138644714D02*
X225887572Y-137882714D01*
X226177857Y-137882714D01*
X226250429Y-137919000D01*
X226286714Y-137955286D01*
X226323000Y-138027857D01*
X226323000Y-138136714D01*
X226286714Y-138209286D01*
X226250429Y-138245571D01*
X226177857Y-138281857D01*
X225887572Y-138281857D01*
X226976143Y-137882714D02*
X226831000Y-137882714D01*
X226758429Y-137919000D01*
X226722143Y-137955286D01*
X226649572Y-138064143D01*
X226613286Y-138209286D01*
X226613286Y-138499571D01*
X226649572Y-138572143D01*
X226685857Y-138608429D01*
X226758429Y-138644714D01*
X226903572Y-138644714D01*
X226976143Y-138608429D01*
X227012429Y-138572143D01*
X227048714Y-138499571D01*
X227048714Y-138318143D01*
X227012429Y-138245571D01*
X226976143Y-138209286D01*
X226903572Y-138173000D01*
X226758429Y-138173000D01*
X226685857Y-138209286D01*
X226649572Y-138245571D01*
X226613286Y-138318143D01*
D12*
X245734429Y-136644714D02*
X245480429Y-136281857D01*
X245299001Y-136644714D02*
X245299001Y-135882714D01*
X245589286Y-135882714D01*
X245661858Y-135919000D01*
X245698143Y-135955286D01*
X245734429Y-136027857D01*
X245734429Y-136136714D01*
X245698143Y-136209286D01*
X245661858Y-136245571D01*
X245589286Y-136281857D01*
X245299001Y-136281857D01*
X246024715Y-136608429D02*
X246133572Y-136644714D01*
X246315001Y-136644714D01*
X246387572Y-136608429D01*
X246423858Y-136572143D01*
X246460143Y-136499571D01*
X246460143Y-136427000D01*
X246423858Y-136354429D01*
X246387572Y-136318143D01*
X246315001Y-136281857D01*
X246169858Y-136245571D01*
X246097286Y-136209286D01*
X246061001Y-136173000D01*
X246024715Y-136100429D01*
X246024715Y-136027857D01*
X246061001Y-135955286D01*
X246097286Y-135919000D01*
X246169858Y-135882714D01*
X246351286Y-135882714D01*
X246460143Y-135919000D01*
X246750429Y-135955286D02*
X246786715Y-135919000D01*
X246859286Y-135882714D01*
X247040715Y-135882714D01*
X247113286Y-135919000D01*
X247149572Y-135955286D01*
X247185857Y-136027857D01*
X247185857Y-136100429D01*
X247149572Y-136209286D01*
X246714143Y-136644714D01*
X247185857Y-136644714D01*
X247439857Y-135882714D02*
X247911571Y-135882714D01*
X247657571Y-136173000D01*
X247766429Y-136173000D01*
X247839000Y-136209286D01*
X247875286Y-136245571D01*
X247911571Y-136318143D01*
X247911571Y-136499571D01*
X247875286Y-136572143D01*
X247839000Y-136608429D01*
X247766429Y-136644714D01*
X247548714Y-136644714D01*
X247476143Y-136608429D01*
X247439857Y-136572143D01*
X248201857Y-135955286D02*
X248238143Y-135919000D01*
X248310714Y-135882714D01*
X248492143Y-135882714D01*
X248564714Y-135919000D01*
X248601000Y-135955286D01*
X248637285Y-136027857D01*
X248637285Y-136100429D01*
X248601000Y-136209286D01*
X248165571Y-136644714D01*
X248637285Y-136644714D01*
D13*
X226323000Y-143644714D02*
X226069000Y-143281857D01*
X225887572Y-143644714D02*
X225887572Y-142882714D01*
X226177857Y-142882714D01*
X226250429Y-142919000D01*
X226286714Y-142955286D01*
X226323000Y-143027857D01*
X226323000Y-143136714D01*
X226286714Y-143209286D01*
X226250429Y-143245571D01*
X226177857Y-143281857D01*
X225887572Y-143281857D01*
X226577000Y-142882714D02*
X227085000Y-142882714D01*
X226758429Y-143644714D01*
M02*
