M48
INCH,TZ
T1C0.025
T2C0.138
%
G90
G05
T1
X77008Y-53780
X77087Y-54961
X77598Y-58819
X78189Y-54016
X81339Y-56850
X82835Y-55118
X82835Y-58976
X82835Y-59843
X82992Y-57165
X84016Y-54094
X84173Y-58583
X84803Y-54094
X84961Y-55827
X85197Y-57874
X85512Y-56535
X86693Y-60157
X87323Y-51260
X87323Y-56220
X87323Y-57244
X87402Y-54567
X87559Y-51969
X87874Y-59606
X88661Y-56457
X88661Y-57874
X89213Y-56063
X89370Y-57559
X89685Y-57244
X89843Y-51772
X90000Y-59370
X90236Y-58031
X90472Y-57638
X90709Y-55512
X91181Y-52283
X91732Y-54173
X92835Y-58189
X92992Y-58819
X93701Y-53465
X93780Y-59921
X94331Y-60472
X94488Y-54724
X101417Y-54961
X101496Y-52047
X101496Y-53228
X101496Y-56299
X101969Y-60157
X103307Y-51654
X103622Y-52677
T2
X104094Y-59449
X107008Y-51969
T0
M30
