G04 #@! TF.FileFunction,Legend,Bot*
%FSLAX46Y46*%
G04 Gerber Fmt 4.6, Leading zero omitted, Abs format (unit mm)*
G04 Created by KiCad (PCBNEW (2015-01-16 BZR 5376)-product) date 3/7/2015 3:49:44 PM*
%MOMM*%
G01*
G04 APERTURE LIST*
%ADD10C,0.149860*%
%ADD11C,0.150000*%
G04 APERTURE END LIST*
D10*
D11*
X261700000Y-137125000D02*
X263700000Y-137125000D01*
X263700000Y-134975000D02*
X261700000Y-134975000D01*
X262200000Y-141475000D02*
X260200000Y-141475000D01*
X260200000Y-143625000D02*
X262200000Y-143625000D01*
X267025000Y-143800000D02*
X267025000Y-141800000D01*
X264875000Y-141800000D02*
X264875000Y-143800000D01*
X262000800Y-137550180D02*
X261299760Y-137550180D01*
X261299760Y-137550180D02*
X261299760Y-137799100D01*
X261299760Y-140349160D02*
X261299760Y-140549820D01*
X261299760Y-140549820D02*
X262000800Y-140549820D01*
X270149200Y-143049820D02*
X270850240Y-143049820D01*
X270850240Y-143049820D02*
X270850240Y-142800900D01*
X270850240Y-140250840D02*
X270850240Y-140050180D01*
X270850240Y-140050180D02*
X270149200Y-140050180D01*
X262766666Y-134652381D02*
X263100000Y-134176190D01*
X263338095Y-134652381D02*
X263338095Y-133652381D01*
X262957142Y-133652381D01*
X262861904Y-133700000D01*
X262814285Y-133747619D01*
X262766666Y-133842857D01*
X262766666Y-133985714D01*
X262814285Y-134080952D01*
X262861904Y-134128571D01*
X262957142Y-134176190D01*
X263338095Y-134176190D01*
X262433333Y-133652381D02*
X261814285Y-133652381D01*
X262147619Y-134033333D01*
X262004761Y-134033333D01*
X261909523Y-134080952D01*
X261861904Y-134128571D01*
X261814285Y-134223810D01*
X261814285Y-134461905D01*
X261861904Y-134557143D01*
X261909523Y-134604762D01*
X262004761Y-134652381D01*
X262290476Y-134652381D01*
X262385714Y-134604762D01*
X262433333Y-134557143D01*
X259966666Y-141052381D02*
X260300000Y-140576190D01*
X260538095Y-141052381D02*
X260538095Y-140052381D01*
X260157142Y-140052381D01*
X260061904Y-140100000D01*
X260014285Y-140147619D01*
X259966666Y-140242857D01*
X259966666Y-140385714D01*
X260014285Y-140480952D01*
X260061904Y-140528571D01*
X260157142Y-140576190D01*
X260538095Y-140576190D01*
X259109523Y-140385714D02*
X259109523Y-141052381D01*
X259347619Y-140004762D02*
X259585714Y-140719048D01*
X258966666Y-140719048D01*
X263966666Y-145452381D02*
X264300000Y-144976190D01*
X264538095Y-145452381D02*
X264538095Y-144452381D01*
X264157142Y-144452381D01*
X264061904Y-144500000D01*
X264014285Y-144547619D01*
X263966666Y-144642857D01*
X263966666Y-144785714D01*
X264014285Y-144880952D01*
X264061904Y-144928571D01*
X264157142Y-144976190D01*
X264538095Y-144976190D01*
X263061904Y-144452381D02*
X263538095Y-144452381D01*
X263585714Y-144928571D01*
X263538095Y-144880952D01*
X263442857Y-144833333D01*
X263204761Y-144833333D01*
X263109523Y-144880952D01*
X263061904Y-144928571D01*
X263014285Y-145023810D01*
X263014285Y-145261905D01*
X263061904Y-145357143D01*
X263109523Y-145404762D01*
X263204761Y-145452381D01*
X263442857Y-145452381D01*
X263538095Y-145404762D01*
X263585714Y-145357143D01*
X266361905Y-137852381D02*
X266361905Y-138661905D01*
X266314286Y-138757143D01*
X266266667Y-138804762D01*
X266171429Y-138852381D01*
X265980952Y-138852381D01*
X265885714Y-138804762D01*
X265838095Y-138757143D01*
X265790476Y-138661905D01*
X265790476Y-137852381D01*
X265409524Y-137852381D02*
X264790476Y-137852381D01*
X265123810Y-138233333D01*
X264980952Y-138233333D01*
X264885714Y-138280952D01*
X264838095Y-138328571D01*
X264790476Y-138423810D01*
X264790476Y-138661905D01*
X264838095Y-138757143D01*
X264885714Y-138804762D01*
X264980952Y-138852381D01*
X265266667Y-138852381D01*
X265361905Y-138804762D01*
X265409524Y-138757143D01*
X272961905Y-142452381D02*
X272961905Y-143261905D01*
X272914286Y-143357143D01*
X272866667Y-143404762D01*
X272771429Y-143452381D01*
X272580952Y-143452381D01*
X272485714Y-143404762D01*
X272438095Y-143357143D01*
X272390476Y-143261905D01*
X272390476Y-142452381D01*
X271485714Y-142785714D02*
X271485714Y-143452381D01*
X271723810Y-142404762D02*
X271961905Y-143119048D01*
X271342857Y-143119048D01*
X275604762Y-143552381D02*
X275652381Y-143695238D01*
X275652381Y-143933334D01*
X275604762Y-144028572D01*
X275557143Y-144076191D01*
X275461905Y-144123810D01*
X275366667Y-144123810D01*
X275271429Y-144076191D01*
X275223810Y-144028572D01*
X275176190Y-143933334D01*
X275128571Y-143742857D01*
X275080952Y-143647619D01*
X275033333Y-143600000D01*
X274938095Y-143552381D01*
X274842857Y-143552381D01*
X274747619Y-143600000D01*
X274700000Y-143647619D01*
X274652381Y-143742857D01*
X274652381Y-143980953D01*
X274700000Y-144123810D01*
X274985714Y-144457143D02*
X275652381Y-144695238D01*
X274985714Y-144933334D02*
X275652381Y-144695238D01*
X275890476Y-144600000D01*
X275938095Y-144552381D01*
X275985714Y-144457143D01*
X275652381Y-145885715D02*
X275176190Y-145552381D01*
X275652381Y-145314286D02*
X274652381Y-145314286D01*
X274652381Y-145695239D01*
X274700000Y-145790477D01*
X274747619Y-145838096D01*
X274842857Y-145885715D01*
X274985714Y-145885715D01*
X275080952Y-145838096D01*
X275128571Y-145790477D01*
X275176190Y-145695239D01*
X275176190Y-145314286D01*
X275604762Y-146695239D02*
X275652381Y-146600001D01*
X275652381Y-146409524D01*
X275604762Y-146314286D01*
X275509524Y-146266667D01*
X275128571Y-146266667D01*
X275033333Y-146314286D01*
X274985714Y-146409524D01*
X274985714Y-146600001D01*
X275033333Y-146695239D01*
X275128571Y-146742858D01*
X275223810Y-146742858D01*
X275319048Y-146266667D01*
X274985714Y-147171429D02*
X275652381Y-147171429D01*
X275080952Y-147171429D02*
X275033333Y-147219048D01*
X274985714Y-147314286D01*
X274985714Y-147457144D01*
X275033333Y-147552382D01*
X275128571Y-147600001D01*
X275652381Y-147600001D01*
X275328571Y-133280953D02*
X275376190Y-133423810D01*
X275423810Y-133471429D01*
X275519048Y-133519048D01*
X275661905Y-133519048D01*
X275757143Y-133471429D01*
X275804762Y-133423810D01*
X275852381Y-133328572D01*
X275852381Y-132947619D01*
X274852381Y-132947619D01*
X274852381Y-133280953D01*
X274900000Y-133376191D01*
X274947619Y-133423810D01*
X275042857Y-133471429D01*
X275138095Y-133471429D01*
X275233333Y-133423810D01*
X275280952Y-133376191D01*
X275328571Y-133280953D01*
X275328571Y-132947619D01*
X275566667Y-133900000D02*
X275566667Y-134376191D01*
X275852381Y-133804762D02*
X274852381Y-134138095D01*
X275852381Y-134471429D01*
X274852381Y-134661905D02*
X274852381Y-135233334D01*
X275852381Y-134947619D02*
X274852381Y-134947619D01*
X274852381Y-135423810D02*
X274852381Y-135995239D01*
X275852381Y-135709524D02*
X274852381Y-135709524D01*
M02*
