G04 #@! TF.FileFunction,Legend,Top*
%FSLAX46Y46*%
G04 Gerber Fmt 4.6, Leading zero omitted, Abs format (unit mm)*
G04 Created by KiCad (PCBNEW (2015-01-16 BZR 5376)-product) date 3/5/2015 10:56:42 PM*
%MOMM*%
G01*
G04 APERTURE LIST*
%ADD10C,0.149860*%
%ADD11C,0.127000*%
%ADD12C,0.254000*%
%ADD13C,0.200000*%
%ADD14C,0.150000*%
G04 APERTURE END LIST*
D10*
D11*
X256892000Y-148974095D02*
X256843619Y-149070857D01*
X256843619Y-149216000D01*
X256892000Y-149361142D01*
X256988762Y-149457904D01*
X257085524Y-149506285D01*
X257279048Y-149554666D01*
X257424190Y-149554666D01*
X257617714Y-149506285D01*
X257714476Y-149457904D01*
X257811238Y-149361142D01*
X257859619Y-149216000D01*
X257859619Y-149119238D01*
X257811238Y-148974095D01*
X257762857Y-148925714D01*
X257424190Y-148925714D01*
X257424190Y-149119238D01*
X257859619Y-148490285D02*
X256843619Y-148490285D01*
X257859619Y-147909714D01*
X256843619Y-147909714D01*
X257859619Y-147425904D02*
X256843619Y-147425904D01*
X256843619Y-147183999D01*
X256892000Y-147038857D01*
X256988762Y-146942095D01*
X257085524Y-146893714D01*
X257279048Y-146845333D01*
X257424190Y-146845333D01*
X257617714Y-146893714D01*
X257714476Y-146942095D01*
X257811238Y-147038857D01*
X257859619Y-147183999D01*
X257859619Y-147425904D01*
X256892000Y-141774095D02*
X256843619Y-141870857D01*
X256843619Y-142016000D01*
X256892000Y-142161142D01*
X256988762Y-142257904D01*
X257085524Y-142306285D01*
X257279048Y-142354666D01*
X257424190Y-142354666D01*
X257617714Y-142306285D01*
X257714476Y-142257904D01*
X257811238Y-142161142D01*
X257859619Y-142016000D01*
X257859619Y-141919238D01*
X257811238Y-141774095D01*
X257762857Y-141725714D01*
X257424190Y-141725714D01*
X257424190Y-141919238D01*
X257859619Y-141290285D02*
X256843619Y-141290285D01*
X257859619Y-140709714D01*
X256843619Y-140709714D01*
X257859619Y-140225904D02*
X256843619Y-140225904D01*
X256843619Y-139983999D01*
X256892000Y-139838857D01*
X256988762Y-139742095D01*
X257085524Y-139693714D01*
X257279048Y-139645333D01*
X257424190Y-139645333D01*
X257617714Y-139693714D01*
X257714476Y-139742095D01*
X257811238Y-139838857D01*
X257859619Y-139983999D01*
X257859619Y-140225904D01*
X256892000Y-135374095D02*
X256843619Y-135470857D01*
X256843619Y-135616000D01*
X256892000Y-135761142D01*
X256988762Y-135857904D01*
X257085524Y-135906285D01*
X257279048Y-135954666D01*
X257424190Y-135954666D01*
X257617714Y-135906285D01*
X257714476Y-135857904D01*
X257811238Y-135761142D01*
X257859619Y-135616000D01*
X257859619Y-135519238D01*
X257811238Y-135374095D01*
X257762857Y-135325714D01*
X257424190Y-135325714D01*
X257424190Y-135519238D01*
X257859619Y-134890285D02*
X256843619Y-134890285D01*
X257859619Y-134309714D01*
X256843619Y-134309714D01*
X257859619Y-133825904D02*
X256843619Y-133825904D01*
X256843619Y-133583999D01*
X256892000Y-133438857D01*
X256988762Y-133342095D01*
X257085524Y-133293714D01*
X257279048Y-133245333D01*
X257424190Y-133245333D01*
X257617714Y-133293714D01*
X257714476Y-133342095D01*
X257811238Y-133438857D01*
X257859619Y-133583999D01*
X257859619Y-133825904D01*
X262411238Y-151538285D02*
X262459619Y-151393142D01*
X262459619Y-151151238D01*
X262411238Y-151054476D01*
X262362857Y-151006095D01*
X262266095Y-150957714D01*
X262169333Y-150957714D01*
X262072571Y-151006095D01*
X262024190Y-151054476D01*
X261975810Y-151151238D01*
X261927429Y-151344761D01*
X261879048Y-151441523D01*
X261830667Y-151489904D01*
X261733905Y-151538285D01*
X261637143Y-151538285D01*
X261540381Y-151489904D01*
X261492000Y-151441523D01*
X261443619Y-151344761D01*
X261443619Y-151102857D01*
X261492000Y-150957714D01*
X261782286Y-150619047D02*
X262459619Y-150377142D01*
X261782286Y-150135238D02*
X262459619Y-150377142D01*
X262701524Y-150473904D01*
X262749905Y-150522285D01*
X262798286Y-150619047D01*
X262459619Y-149167619D02*
X261975810Y-149506285D01*
X262459619Y-149748190D02*
X261443619Y-149748190D01*
X261443619Y-149361143D01*
X261492000Y-149264381D01*
X261540381Y-149216000D01*
X261637143Y-149167619D01*
X261782286Y-149167619D01*
X261879048Y-149216000D01*
X261927429Y-149264381D01*
X261975810Y-149361143D01*
X261975810Y-149748190D01*
X262411238Y-148345143D02*
X262459619Y-148441905D01*
X262459619Y-148635428D01*
X262411238Y-148732190D01*
X262314476Y-148780571D01*
X261927429Y-148780571D01*
X261830667Y-148732190D01*
X261782286Y-148635428D01*
X261782286Y-148441905D01*
X261830667Y-148345143D01*
X261927429Y-148296762D01*
X262024190Y-148296762D01*
X262120952Y-148780571D01*
X261782286Y-147861333D02*
X262459619Y-147861333D01*
X261879048Y-147861333D02*
X261830667Y-147812952D01*
X261782286Y-147716190D01*
X261782286Y-147571048D01*
X261830667Y-147474286D01*
X261927429Y-147425905D01*
X262459619Y-147425905D01*
X261443619Y-146313143D02*
X261443619Y-145732572D01*
X262459619Y-146022857D02*
X261443619Y-146022857D01*
X261443619Y-145490667D02*
X262459619Y-144813334D01*
X261443619Y-144813334D02*
X262459619Y-145490667D01*
D12*
X241557144Y-141507143D02*
X242700001Y-141507143D01*
X242128572Y-142078571D02*
X242128572Y-140935714D01*
X244200001Y-142078571D02*
X243342858Y-142078571D01*
X243771430Y-142078571D02*
X243771430Y-140578571D01*
X243628573Y-140792857D01*
X243485715Y-140935714D01*
X243342858Y-141007143D01*
X244771429Y-140721429D02*
X244842858Y-140650000D01*
X244985715Y-140578571D01*
X245342858Y-140578571D01*
X245485715Y-140650000D01*
X245557144Y-140721429D01*
X245628572Y-140864286D01*
X245628572Y-141007143D01*
X245557144Y-141221429D01*
X244700001Y-142078571D01*
X245628572Y-142078571D01*
X246057143Y-140578571D02*
X246557143Y-142078571D01*
X247057143Y-140578571D01*
D13*
X201000000Y-145000000D02*
X200800000Y-145000000D01*
X201000000Y-144200000D02*
X200800000Y-144200000D01*
X201000000Y-142800000D02*
X200800000Y-142800000D01*
X201000000Y-147600000D02*
X200800000Y-147600000D01*
X201000000Y-150000000D02*
X200800000Y-150000000D01*
X201000000Y-152800000D02*
X200800000Y-152800000D01*
X201000000Y-142200000D02*
X201000000Y-152800000D01*
D14*
X207275000Y-141100000D02*
X207275000Y-143100000D01*
X209325000Y-143100000D02*
X209325000Y-141100000D01*
X209425000Y-150600000D02*
X209425000Y-148600000D01*
X207375000Y-148600000D02*
X207375000Y-150600000D01*
X200375000Y-132400000D02*
X200375000Y-134400000D01*
X202425000Y-134400000D02*
X202425000Y-132400000D01*
X227600000Y-152425000D02*
X229600000Y-152425000D01*
X229600000Y-150375000D02*
X227600000Y-150375000D01*
X218575000Y-132400000D02*
X218575000Y-134400000D01*
X220625000Y-134400000D02*
X220625000Y-132400000D01*
X215975000Y-132400000D02*
X215975000Y-134400000D01*
X218025000Y-134400000D02*
X218025000Y-132400000D01*
X213375000Y-132400000D02*
X213375000Y-134400000D01*
X215425000Y-134400000D02*
X215425000Y-132400000D01*
X210775000Y-132400000D02*
X210775000Y-134400000D01*
X212825000Y-134400000D02*
X212825000Y-132400000D01*
X208175000Y-132400000D02*
X208175000Y-134400000D01*
X210225000Y-134400000D02*
X210225000Y-132400000D01*
X205575000Y-132400000D02*
X205575000Y-134400000D01*
X207625000Y-134400000D02*
X207625000Y-132400000D01*
X202975000Y-132400000D02*
X202975000Y-134400000D01*
X205025000Y-134400000D02*
X205025000Y-132400000D01*
X196200000Y-150825000D02*
X198200000Y-150825000D01*
X198200000Y-148775000D02*
X196200000Y-148775000D01*
X196200000Y-153425000D02*
X198200000Y-153425000D01*
X198200000Y-151375000D02*
X196200000Y-151375000D01*
X198200000Y-148275000D02*
X196200000Y-148275000D01*
X196200000Y-146125000D02*
X198200000Y-146125000D01*
X232270000Y-142080000D02*
X229730000Y-142080000D01*
X229730000Y-142080000D02*
X229730000Y-142588000D01*
X232270000Y-142080000D02*
X232270000Y-144620000D01*
X232270000Y-144620000D02*
X229730000Y-144620000D01*
X229730000Y-144620000D02*
X229730000Y-144112000D01*
X229730000Y-142080000D02*
X232270000Y-142080000D01*
X231127000Y-143223000D02*
X230873000Y-143223000D01*
X230873000Y-143223000D02*
X230873000Y-143477000D01*
X230873000Y-143477000D02*
X231127000Y-143477000D01*
X231127000Y-143477000D02*
X231127000Y-143223000D01*
X231127000Y-143223000D02*
X231127000Y-143350000D01*
X231127000Y-138143000D02*
X231127000Y-138270000D01*
X231127000Y-138397000D02*
X231127000Y-138143000D01*
X230873000Y-138397000D02*
X231127000Y-138397000D01*
X230873000Y-138143000D02*
X230873000Y-138397000D01*
X231127000Y-138143000D02*
X230873000Y-138143000D01*
X231127000Y-140937000D02*
X231127000Y-140683000D01*
X230873000Y-140937000D02*
X231127000Y-140937000D01*
X230873000Y-140683000D02*
X230873000Y-140937000D01*
X231127000Y-140683000D02*
X230873000Y-140683000D01*
X229730000Y-137000000D02*
X232270000Y-137000000D01*
X229730000Y-139540000D02*
X229730000Y-139032000D01*
X232270000Y-139540000D02*
X229730000Y-139540000D01*
X232270000Y-137000000D02*
X232270000Y-139540000D01*
X229730000Y-137000000D02*
X229730000Y-137508000D01*
X232270000Y-139540000D02*
X232270000Y-140048000D01*
X229730000Y-142080000D02*
X229730000Y-139540000D01*
X232270000Y-142080000D02*
X229730000Y-142080000D01*
X232270000Y-141572000D02*
X232270000Y-142080000D01*
X232270000Y-136492000D02*
X232270000Y-137000000D01*
X232270000Y-137000000D02*
X229730000Y-137000000D01*
X229730000Y-137000000D02*
X229730000Y-134460000D01*
X232270000Y-134460000D02*
X232270000Y-134968000D01*
X229730000Y-131920000D02*
X229730000Y-132428000D01*
X232270000Y-131920000D02*
X232270000Y-134460000D01*
X232270000Y-134460000D02*
X229730000Y-134460000D01*
X229730000Y-134460000D02*
X229730000Y-133952000D01*
X232270000Y-129380000D02*
X229730000Y-129380000D01*
X229730000Y-129380000D02*
X229730000Y-131920000D01*
X229730000Y-131920000D02*
X232270000Y-131920000D01*
X232270000Y-131920000D02*
X232270000Y-131412000D01*
X232270000Y-129380000D02*
X232270000Y-129888000D01*
X231127000Y-135603000D02*
X230873000Y-135603000D01*
X230873000Y-135603000D02*
X230873000Y-135857000D01*
X230873000Y-135857000D02*
X231127000Y-135857000D01*
X231127000Y-135857000D02*
X231127000Y-135603000D01*
X231127000Y-133063000D02*
X230873000Y-133063000D01*
X230873000Y-133063000D02*
X230873000Y-133317000D01*
X230873000Y-133317000D02*
X231127000Y-133317000D01*
X231127000Y-133317000D02*
X231127000Y-133063000D01*
X231127000Y-133063000D02*
X231127000Y-133190000D01*
X231127000Y-130523000D02*
X230873000Y-130523000D01*
X230873000Y-130523000D02*
X230873000Y-130777000D01*
X230873000Y-130777000D02*
X231127000Y-130777000D01*
X231127000Y-130777000D02*
X231127000Y-130523000D01*
X239402000Y-148730000D02*
X239910000Y-148730000D01*
X239910000Y-148730000D02*
X239910000Y-151270000D01*
X239910000Y-151270000D02*
X237370000Y-151270000D01*
X237370000Y-148730000D02*
X237878000Y-148730000D01*
X234830000Y-151270000D02*
X235338000Y-151270000D01*
X234830000Y-148730000D02*
X237370000Y-148730000D01*
X237370000Y-148730000D02*
X237370000Y-151270000D01*
X237370000Y-151270000D02*
X236862000Y-151270000D01*
X232290000Y-148730000D02*
X232290000Y-151270000D01*
X232290000Y-151270000D02*
X234830000Y-151270000D01*
X234830000Y-151270000D02*
X234830000Y-148730000D01*
X234830000Y-148730000D02*
X234322000Y-148730000D01*
X232290000Y-148730000D02*
X232798000Y-148730000D01*
X238513000Y-149873000D02*
X238513000Y-150127000D01*
X238513000Y-150127000D02*
X238767000Y-150127000D01*
X238767000Y-150127000D02*
X238767000Y-149873000D01*
X238767000Y-149873000D02*
X238513000Y-149873000D01*
X235973000Y-149873000D02*
X235973000Y-150127000D01*
X235973000Y-150127000D02*
X236227000Y-150127000D01*
X236227000Y-150127000D02*
X236227000Y-149873000D01*
X236227000Y-149873000D02*
X235973000Y-149873000D01*
X235973000Y-149873000D02*
X236100000Y-149873000D01*
X233433000Y-149873000D02*
X233433000Y-150127000D01*
X233433000Y-150127000D02*
X233687000Y-150127000D01*
X233687000Y-150127000D02*
X233687000Y-149873000D01*
X233687000Y-149873000D02*
X233433000Y-149873000D01*
X197870000Y-142080000D02*
X195330000Y-142080000D01*
X195330000Y-142080000D02*
X195330000Y-142588000D01*
X197870000Y-142080000D02*
X197870000Y-144620000D01*
X197870000Y-144620000D02*
X195330000Y-144620000D01*
X195330000Y-144620000D02*
X195330000Y-144112000D01*
X195330000Y-142080000D02*
X197870000Y-142080000D01*
X196727000Y-143223000D02*
X196473000Y-143223000D01*
X196473000Y-143223000D02*
X196473000Y-143477000D01*
X196473000Y-143477000D02*
X196727000Y-143477000D01*
X196727000Y-143477000D02*
X196727000Y-143223000D01*
X196727000Y-143223000D02*
X196727000Y-143350000D01*
X196727000Y-138143000D02*
X196727000Y-138270000D01*
X196727000Y-138397000D02*
X196727000Y-138143000D01*
X196473000Y-138397000D02*
X196727000Y-138397000D01*
X196473000Y-138143000D02*
X196473000Y-138397000D01*
X196727000Y-138143000D02*
X196473000Y-138143000D01*
X196727000Y-140937000D02*
X196727000Y-140683000D01*
X196473000Y-140937000D02*
X196727000Y-140937000D01*
X196473000Y-140683000D02*
X196473000Y-140937000D01*
X196727000Y-140683000D02*
X196473000Y-140683000D01*
X195330000Y-137000000D02*
X197870000Y-137000000D01*
X195330000Y-139540000D02*
X195330000Y-139032000D01*
X197870000Y-139540000D02*
X195330000Y-139540000D01*
X197870000Y-137000000D02*
X197870000Y-139540000D01*
X195330000Y-137000000D02*
X195330000Y-137508000D01*
X197870000Y-139540000D02*
X197870000Y-140048000D01*
X195330000Y-142080000D02*
X195330000Y-139540000D01*
X197870000Y-142080000D02*
X195330000Y-142080000D01*
X197870000Y-141572000D02*
X197870000Y-142080000D01*
X197870000Y-136492000D02*
X197870000Y-137000000D01*
X197870000Y-137000000D02*
X195330000Y-137000000D01*
X195330000Y-137000000D02*
X195330000Y-134460000D01*
X197870000Y-134460000D02*
X197870000Y-134968000D01*
X195330000Y-131920000D02*
X195330000Y-132428000D01*
X197870000Y-131920000D02*
X197870000Y-134460000D01*
X197870000Y-134460000D02*
X195330000Y-134460000D01*
X195330000Y-134460000D02*
X195330000Y-133952000D01*
X197870000Y-129380000D02*
X195330000Y-129380000D01*
X195330000Y-129380000D02*
X195330000Y-131920000D01*
X195330000Y-131920000D02*
X197870000Y-131920000D01*
X197870000Y-131920000D02*
X197870000Y-131412000D01*
X197870000Y-129380000D02*
X197870000Y-129888000D01*
X196727000Y-135603000D02*
X196473000Y-135603000D01*
X196473000Y-135603000D02*
X196473000Y-135857000D01*
X196473000Y-135857000D02*
X196727000Y-135857000D01*
X196727000Y-135857000D02*
X196727000Y-135603000D01*
X196727000Y-133063000D02*
X196473000Y-133063000D01*
X196473000Y-133063000D02*
X196473000Y-133317000D01*
X196473000Y-133317000D02*
X196727000Y-133317000D01*
X196727000Y-133317000D02*
X196727000Y-133063000D01*
X196727000Y-133063000D02*
X196727000Y-133190000D01*
X196727000Y-130523000D02*
X196473000Y-130523000D01*
X196473000Y-130523000D02*
X196473000Y-130777000D01*
X196473000Y-130777000D02*
X196727000Y-130777000D01*
X196727000Y-130777000D02*
X196727000Y-130523000D01*
X260475000Y-138200000D02*
X260475000Y-140200000D01*
X258325000Y-140200000D02*
X258325000Y-138200000D01*
X227275000Y-131400000D02*
X227275000Y-133400000D01*
X225125000Y-133400000D02*
X225125000Y-131400000D01*
X236675000Y-131800000D02*
X236675000Y-133800000D01*
X234525000Y-133800000D02*
X234525000Y-131800000D01*
X252200000Y-140325000D02*
X254200000Y-140325000D01*
X254200000Y-142475000D02*
X252200000Y-142475000D01*
X234925000Y-144200000D02*
X234925000Y-142200000D01*
X237075000Y-142200000D02*
X237075000Y-144200000D01*
X213125000Y-140425000D02*
X213125000Y-141500000D01*
X223475000Y-140425000D02*
X223475000Y-141500000D01*
X223475000Y-150775000D02*
X223475000Y-149700000D01*
X213125000Y-150775000D02*
X213125000Y-149700000D01*
X213125000Y-140425000D02*
X214200000Y-140425000D01*
X213125000Y-150775000D02*
X214200000Y-150775000D01*
X223475000Y-150775000D02*
X222400000Y-150775000D01*
X223475000Y-140425000D02*
X222400000Y-140425000D01*
X213125000Y-141500000D02*
X212100000Y-141500000D01*
X205551000Y-140447000D02*
X205170000Y-140447000D01*
X202249000Y-140447000D02*
X202630000Y-140447000D01*
X202249000Y-150353000D02*
X202630000Y-150353000D01*
X205551000Y-150353000D02*
X205170000Y-150353000D01*
X206440000Y-151115000D02*
X205170000Y-151115000D01*
X201360000Y-151115000D02*
X202630000Y-151115000D01*
X201360000Y-139685000D02*
X202630000Y-139685000D01*
X206440000Y-139685000D02*
X205170000Y-139685000D01*
X202249000Y-140447000D02*
X201614000Y-141082000D01*
X201614000Y-141082000D02*
X201614000Y-149718000D01*
X201614000Y-149718000D02*
X202249000Y-150353000D01*
X205551000Y-150353000D02*
X206186000Y-149718000D01*
X206186000Y-149718000D02*
X206186000Y-141082000D01*
X206186000Y-141082000D02*
X205551000Y-140447000D01*
X201360000Y-151115000D02*
X201360000Y-139685000D01*
X206440000Y-139685000D02*
X206440000Y-151115000D01*
X266485800Y-149975000D02*
X283376800Y-149975000D01*
X283376800Y-149975000D02*
X283376800Y-134735000D01*
X283376800Y-134735000D02*
X266485800Y-134735000D01*
X266485800Y-134735000D02*
X266485800Y-149975000D01*
X260125000Y-130025000D02*
X260125000Y-130170000D01*
X264275000Y-130025000D02*
X264275000Y-130170000D01*
X264275000Y-135175000D02*
X264275000Y-135030000D01*
X260125000Y-135175000D02*
X260125000Y-135030000D01*
X260125000Y-130025000D02*
X264275000Y-130025000D01*
X260125000Y-135175000D02*
X264275000Y-135175000D01*
X260125000Y-130170000D02*
X258725000Y-130170000D01*
X237100180Y-132250800D02*
X237100180Y-131549760D01*
X237100180Y-131549760D02*
X237349100Y-131549760D01*
X239899160Y-131549760D02*
X240099820Y-131549760D01*
X240099820Y-131549760D02*
X240099820Y-132250800D01*
X240699820Y-142549200D02*
X240699820Y-143250240D01*
X240699820Y-143250240D02*
X240450900Y-143250240D01*
X237900840Y-143250240D02*
X237700180Y-143250240D01*
X237700180Y-143250240D02*
X237700180Y-142549200D01*
X210557143Y-140166666D02*
X210604762Y-140214285D01*
X210652381Y-140357142D01*
X210652381Y-140452380D01*
X210604762Y-140595238D01*
X210509524Y-140690476D01*
X210414286Y-140738095D01*
X210223810Y-140785714D01*
X210080952Y-140785714D01*
X209890476Y-140738095D01*
X209795238Y-140690476D01*
X209700000Y-140595238D01*
X209652381Y-140452380D01*
X209652381Y-140357142D01*
X209700000Y-140214285D01*
X209747619Y-140166666D01*
X210652381Y-139214285D02*
X210652381Y-139785714D01*
X210652381Y-139500000D02*
X209652381Y-139500000D01*
X209795238Y-139595238D01*
X209890476Y-139690476D01*
X209938095Y-139785714D01*
X210433334Y-152357143D02*
X210385715Y-152404762D01*
X210242858Y-152452381D01*
X210147620Y-152452381D01*
X210004762Y-152404762D01*
X209909524Y-152309524D01*
X209861905Y-152214286D01*
X209814286Y-152023810D01*
X209814286Y-151880952D01*
X209861905Y-151690476D01*
X209909524Y-151595238D01*
X210004762Y-151500000D01*
X210147620Y-151452381D01*
X210242858Y-151452381D01*
X210385715Y-151500000D01*
X210433334Y-151547619D01*
X210814286Y-151547619D02*
X210861905Y-151500000D01*
X210957143Y-151452381D01*
X211195239Y-151452381D01*
X211290477Y-151500000D01*
X211338096Y-151547619D01*
X211385715Y-151642857D01*
X211385715Y-151738095D01*
X211338096Y-151880952D01*
X210766667Y-152452381D01*
X211385715Y-152452381D01*
X201233334Y-137757143D02*
X201185715Y-137804762D01*
X201042858Y-137852381D01*
X200947620Y-137852381D01*
X200804762Y-137804762D01*
X200709524Y-137709524D01*
X200661905Y-137614286D01*
X200614286Y-137423810D01*
X200614286Y-137280952D01*
X200661905Y-137090476D01*
X200709524Y-136995238D01*
X200804762Y-136900000D01*
X200947620Y-136852381D01*
X201042858Y-136852381D01*
X201185715Y-136900000D01*
X201233334Y-136947619D01*
X201566667Y-136852381D02*
X202185715Y-136852381D01*
X201852381Y-137233333D01*
X201995239Y-137233333D01*
X202090477Y-137280952D01*
X202138096Y-137328571D01*
X202185715Y-137423810D01*
X202185715Y-137661905D01*
X202138096Y-137757143D01*
X202090477Y-137804762D01*
X201995239Y-137852381D01*
X201709524Y-137852381D01*
X201614286Y-137804762D01*
X201566667Y-137757143D01*
X228233334Y-149757143D02*
X228185715Y-149804762D01*
X228042858Y-149852381D01*
X227947620Y-149852381D01*
X227804762Y-149804762D01*
X227709524Y-149709524D01*
X227661905Y-149614286D01*
X227614286Y-149423810D01*
X227614286Y-149280952D01*
X227661905Y-149090476D01*
X227709524Y-148995238D01*
X227804762Y-148900000D01*
X227947620Y-148852381D01*
X228042858Y-148852381D01*
X228185715Y-148900000D01*
X228233334Y-148947619D01*
X229090477Y-149185714D02*
X229090477Y-149852381D01*
X228852381Y-148804762D02*
X228614286Y-149519048D01*
X229233334Y-149519048D01*
X219433334Y-129957143D02*
X219385715Y-130004762D01*
X219242858Y-130052381D01*
X219147620Y-130052381D01*
X219004762Y-130004762D01*
X218909524Y-129909524D01*
X218861905Y-129814286D01*
X218814286Y-129623810D01*
X218814286Y-129480952D01*
X218861905Y-129290476D01*
X218909524Y-129195238D01*
X219004762Y-129100000D01*
X219147620Y-129052381D01*
X219242858Y-129052381D01*
X219385715Y-129100000D01*
X219433334Y-129147619D01*
X220338096Y-129052381D02*
X219861905Y-129052381D01*
X219814286Y-129528571D01*
X219861905Y-129480952D01*
X219957143Y-129433333D01*
X220195239Y-129433333D01*
X220290477Y-129480952D01*
X220338096Y-129528571D01*
X220385715Y-129623810D01*
X220385715Y-129861905D01*
X220338096Y-129957143D01*
X220290477Y-130004762D01*
X220195239Y-130052381D01*
X219957143Y-130052381D01*
X219861905Y-130004762D01*
X219814286Y-129957143D01*
X216833334Y-137757143D02*
X216785715Y-137804762D01*
X216642858Y-137852381D01*
X216547620Y-137852381D01*
X216404762Y-137804762D01*
X216309524Y-137709524D01*
X216261905Y-137614286D01*
X216214286Y-137423810D01*
X216214286Y-137280952D01*
X216261905Y-137090476D01*
X216309524Y-136995238D01*
X216404762Y-136900000D01*
X216547620Y-136852381D01*
X216642858Y-136852381D01*
X216785715Y-136900000D01*
X216833334Y-136947619D01*
X217690477Y-136852381D02*
X217500000Y-136852381D01*
X217404762Y-136900000D01*
X217357143Y-136947619D01*
X217261905Y-137090476D01*
X217214286Y-137280952D01*
X217214286Y-137661905D01*
X217261905Y-137757143D01*
X217309524Y-137804762D01*
X217404762Y-137852381D01*
X217595239Y-137852381D01*
X217690477Y-137804762D01*
X217738096Y-137757143D01*
X217785715Y-137661905D01*
X217785715Y-137423810D01*
X217738096Y-137328571D01*
X217690477Y-137280952D01*
X217595239Y-137233333D01*
X217404762Y-137233333D01*
X217309524Y-137280952D01*
X217261905Y-137328571D01*
X217214286Y-137423810D01*
X214233334Y-129957143D02*
X214185715Y-130004762D01*
X214042858Y-130052381D01*
X213947620Y-130052381D01*
X213804762Y-130004762D01*
X213709524Y-129909524D01*
X213661905Y-129814286D01*
X213614286Y-129623810D01*
X213614286Y-129480952D01*
X213661905Y-129290476D01*
X213709524Y-129195238D01*
X213804762Y-129100000D01*
X213947620Y-129052381D01*
X214042858Y-129052381D01*
X214185715Y-129100000D01*
X214233334Y-129147619D01*
X214566667Y-129052381D02*
X215233334Y-129052381D01*
X214804762Y-130052381D01*
X211633334Y-137757143D02*
X211585715Y-137804762D01*
X211442858Y-137852381D01*
X211347620Y-137852381D01*
X211204762Y-137804762D01*
X211109524Y-137709524D01*
X211061905Y-137614286D01*
X211014286Y-137423810D01*
X211014286Y-137280952D01*
X211061905Y-137090476D01*
X211109524Y-136995238D01*
X211204762Y-136900000D01*
X211347620Y-136852381D01*
X211442858Y-136852381D01*
X211585715Y-136900000D01*
X211633334Y-136947619D01*
X212204762Y-137280952D02*
X212109524Y-137233333D01*
X212061905Y-137185714D01*
X212014286Y-137090476D01*
X212014286Y-137042857D01*
X212061905Y-136947619D01*
X212109524Y-136900000D01*
X212204762Y-136852381D01*
X212395239Y-136852381D01*
X212490477Y-136900000D01*
X212538096Y-136947619D01*
X212585715Y-137042857D01*
X212585715Y-137090476D01*
X212538096Y-137185714D01*
X212490477Y-137233333D01*
X212395239Y-137280952D01*
X212204762Y-137280952D01*
X212109524Y-137328571D01*
X212061905Y-137376190D01*
X212014286Y-137471429D01*
X212014286Y-137661905D01*
X212061905Y-137757143D01*
X212109524Y-137804762D01*
X212204762Y-137852381D01*
X212395239Y-137852381D01*
X212490477Y-137804762D01*
X212538096Y-137757143D01*
X212585715Y-137661905D01*
X212585715Y-137471429D01*
X212538096Y-137376190D01*
X212490477Y-137328571D01*
X212395239Y-137280952D01*
X209033334Y-129957143D02*
X208985715Y-130004762D01*
X208842858Y-130052381D01*
X208747620Y-130052381D01*
X208604762Y-130004762D01*
X208509524Y-129909524D01*
X208461905Y-129814286D01*
X208414286Y-129623810D01*
X208414286Y-129480952D01*
X208461905Y-129290476D01*
X208509524Y-129195238D01*
X208604762Y-129100000D01*
X208747620Y-129052381D01*
X208842858Y-129052381D01*
X208985715Y-129100000D01*
X209033334Y-129147619D01*
X209509524Y-130052381D02*
X209700000Y-130052381D01*
X209795239Y-130004762D01*
X209842858Y-129957143D01*
X209938096Y-129814286D01*
X209985715Y-129623810D01*
X209985715Y-129242857D01*
X209938096Y-129147619D01*
X209890477Y-129100000D01*
X209795239Y-129052381D01*
X209604762Y-129052381D01*
X209509524Y-129100000D01*
X209461905Y-129147619D01*
X209414286Y-129242857D01*
X209414286Y-129480952D01*
X209461905Y-129576190D01*
X209509524Y-129623810D01*
X209604762Y-129671429D01*
X209795239Y-129671429D01*
X209890477Y-129623810D01*
X209938096Y-129576190D01*
X209985715Y-129480952D01*
X205957143Y-137757143D02*
X205909524Y-137804762D01*
X205766667Y-137852381D01*
X205671429Y-137852381D01*
X205528571Y-137804762D01*
X205433333Y-137709524D01*
X205385714Y-137614286D01*
X205338095Y-137423810D01*
X205338095Y-137280952D01*
X205385714Y-137090476D01*
X205433333Y-136995238D01*
X205528571Y-136900000D01*
X205671429Y-136852381D01*
X205766667Y-136852381D01*
X205909524Y-136900000D01*
X205957143Y-136947619D01*
X206909524Y-137852381D02*
X206338095Y-137852381D01*
X206623809Y-137852381D02*
X206623809Y-136852381D01*
X206528571Y-136995238D01*
X206433333Y-137090476D01*
X206338095Y-137138095D01*
X207528571Y-136852381D02*
X207623810Y-136852381D01*
X207719048Y-136900000D01*
X207766667Y-136947619D01*
X207814286Y-137042857D01*
X207861905Y-137233333D01*
X207861905Y-137471429D01*
X207814286Y-137661905D01*
X207766667Y-137757143D01*
X207719048Y-137804762D01*
X207623810Y-137852381D01*
X207528571Y-137852381D01*
X207433333Y-137804762D01*
X207385714Y-137757143D01*
X207338095Y-137661905D01*
X207290476Y-137471429D01*
X207290476Y-137233333D01*
X207338095Y-137042857D01*
X207385714Y-136947619D01*
X207433333Y-136900000D01*
X207528571Y-136852381D01*
X203357143Y-129957143D02*
X203309524Y-130004762D01*
X203166667Y-130052381D01*
X203071429Y-130052381D01*
X202928571Y-130004762D01*
X202833333Y-129909524D01*
X202785714Y-129814286D01*
X202738095Y-129623810D01*
X202738095Y-129480952D01*
X202785714Y-129290476D01*
X202833333Y-129195238D01*
X202928571Y-129100000D01*
X203071429Y-129052381D01*
X203166667Y-129052381D01*
X203309524Y-129100000D01*
X203357143Y-129147619D01*
X204309524Y-130052381D02*
X203738095Y-130052381D01*
X204023809Y-130052381D02*
X204023809Y-129052381D01*
X203928571Y-129195238D01*
X203833333Y-129290476D01*
X203738095Y-129338095D01*
X205261905Y-130052381D02*
X204690476Y-130052381D01*
X204976190Y-130052381D02*
X204976190Y-129052381D01*
X204880952Y-129195238D01*
X204785714Y-129290476D01*
X204690476Y-129338095D01*
X198757143Y-144357143D02*
X198709524Y-144404762D01*
X198566667Y-144452381D01*
X198471429Y-144452381D01*
X198328571Y-144404762D01*
X198233333Y-144309524D01*
X198185714Y-144214286D01*
X198138095Y-144023810D01*
X198138095Y-143880952D01*
X198185714Y-143690476D01*
X198233333Y-143595238D01*
X198328571Y-143500000D01*
X198471429Y-143452381D01*
X198566667Y-143452381D01*
X198709524Y-143500000D01*
X198757143Y-143547619D01*
X199709524Y-144452381D02*
X199138095Y-144452381D01*
X199423809Y-144452381D02*
X199423809Y-143452381D01*
X199328571Y-143595238D01*
X199233333Y-143690476D01*
X199138095Y-143738095D01*
X200090476Y-143547619D02*
X200138095Y-143500000D01*
X200233333Y-143452381D01*
X200471429Y-143452381D01*
X200566667Y-143500000D01*
X200614286Y-143547619D01*
X200661905Y-143642857D01*
X200661905Y-143738095D01*
X200614286Y-143880952D01*
X200042857Y-144452381D01*
X200661905Y-144452381D01*
X198757143Y-145557143D02*
X198709524Y-145604762D01*
X198566667Y-145652381D01*
X198471429Y-145652381D01*
X198328571Y-145604762D01*
X198233333Y-145509524D01*
X198185714Y-145414286D01*
X198138095Y-145223810D01*
X198138095Y-145080952D01*
X198185714Y-144890476D01*
X198233333Y-144795238D01*
X198328571Y-144700000D01*
X198471429Y-144652381D01*
X198566667Y-144652381D01*
X198709524Y-144700000D01*
X198757143Y-144747619D01*
X199709524Y-145652381D02*
X199138095Y-145652381D01*
X199423809Y-145652381D02*
X199423809Y-144652381D01*
X199328571Y-144795238D01*
X199233333Y-144890476D01*
X199138095Y-144938095D01*
X200042857Y-144652381D02*
X200661905Y-144652381D01*
X200328571Y-145033333D01*
X200471429Y-145033333D01*
X200566667Y-145080952D01*
X200614286Y-145128571D01*
X200661905Y-145223810D01*
X200661905Y-145461905D01*
X200614286Y-145557143D01*
X200566667Y-145604762D01*
X200471429Y-145652381D01*
X200185714Y-145652381D01*
X200090476Y-145604762D01*
X200042857Y-145557143D01*
X198566667Y-142728571D02*
X198233333Y-142728571D01*
X198233333Y-143252381D02*
X198233333Y-142252381D01*
X198709524Y-142252381D01*
X199423810Y-142728571D02*
X199566667Y-142776190D01*
X199614286Y-142823810D01*
X199661905Y-142919048D01*
X199661905Y-143061905D01*
X199614286Y-143157143D01*
X199566667Y-143204762D01*
X199471429Y-143252381D01*
X199090476Y-143252381D01*
X199090476Y-142252381D01*
X199423810Y-142252381D01*
X199519048Y-142300000D01*
X199566667Y-142347619D01*
X199614286Y-142442857D01*
X199614286Y-142538095D01*
X199566667Y-142633333D01*
X199519048Y-142680952D01*
X199423810Y-142728571D01*
X199090476Y-142728571D01*
X200614286Y-143252381D02*
X200042857Y-143252381D01*
X200328571Y-143252381D02*
X200328571Y-142252381D01*
X200233333Y-142395238D01*
X200138095Y-142490476D01*
X200042857Y-142538095D01*
X228357142Y-145804762D02*
X228499999Y-145852381D01*
X228738095Y-145852381D01*
X228833333Y-145804762D01*
X228880952Y-145757143D01*
X228928571Y-145661905D01*
X228928571Y-145566667D01*
X228880952Y-145471429D01*
X228833333Y-145423810D01*
X228738095Y-145376190D01*
X228547618Y-145328571D01*
X228452380Y-145280952D01*
X228404761Y-145233333D01*
X228357142Y-145138095D01*
X228357142Y-145042857D01*
X228404761Y-144947619D01*
X228452380Y-144900000D01*
X228547618Y-144852381D01*
X228785714Y-144852381D01*
X228928571Y-144900000D01*
X229214285Y-145185714D02*
X229595237Y-145185714D01*
X229357142Y-144852381D02*
X229357142Y-145709524D01*
X229404761Y-145804762D01*
X229499999Y-145852381D01*
X229595237Y-145852381D01*
X230309524Y-145804762D02*
X230214286Y-145852381D01*
X230023809Y-145852381D01*
X229928571Y-145804762D01*
X229880952Y-145709524D01*
X229880952Y-145328571D01*
X229928571Y-145233333D01*
X230023809Y-145185714D01*
X230214286Y-145185714D01*
X230309524Y-145233333D01*
X230357143Y-145328571D01*
X230357143Y-145423810D01*
X229880952Y-145519048D01*
X230785714Y-145185714D02*
X230785714Y-146185714D01*
X230785714Y-145233333D02*
X230880952Y-145185714D01*
X231071429Y-145185714D01*
X231166667Y-145233333D01*
X231214286Y-145280952D01*
X231261905Y-145376190D01*
X231261905Y-145661905D01*
X231214286Y-145757143D01*
X231166667Y-145804762D01*
X231071429Y-145852381D01*
X230880952Y-145852381D01*
X230785714Y-145804762D01*
X231690476Y-145185714D02*
X231690476Y-146185714D01*
X231690476Y-145233333D02*
X231785714Y-145185714D01*
X231976191Y-145185714D01*
X232071429Y-145233333D01*
X232119048Y-145280952D01*
X232166667Y-145376190D01*
X232166667Y-145661905D01*
X232119048Y-145757143D01*
X232071429Y-145804762D01*
X231976191Y-145852381D01*
X231785714Y-145852381D01*
X231690476Y-145804762D01*
X232976191Y-145804762D02*
X232880953Y-145852381D01*
X232690476Y-145852381D01*
X232595238Y-145804762D01*
X232547619Y-145709524D01*
X232547619Y-145328571D01*
X232595238Y-145233333D01*
X232690476Y-145185714D01*
X232880953Y-145185714D01*
X232976191Y-145233333D01*
X233023810Y-145328571D01*
X233023810Y-145423810D01*
X232547619Y-145519048D01*
X233452381Y-145852381D02*
X233452381Y-145185714D01*
X233452381Y-145376190D02*
X233500000Y-145280952D01*
X233547619Y-145233333D01*
X233642857Y-145185714D01*
X233738096Y-145185714D01*
X234404762Y-153852381D02*
X234071428Y-153376190D01*
X233833333Y-153852381D02*
X233833333Y-152852381D01*
X234214286Y-152852381D01*
X234309524Y-152900000D01*
X234357143Y-152947619D01*
X234404762Y-153042857D01*
X234404762Y-153185714D01*
X234357143Y-153280952D01*
X234309524Y-153328571D01*
X234214286Y-153376190D01*
X233833333Y-153376190D01*
X234785714Y-153804762D02*
X234928571Y-153852381D01*
X235166667Y-153852381D01*
X235261905Y-153804762D01*
X235309524Y-153757143D01*
X235357143Y-153661905D01*
X235357143Y-153566667D01*
X235309524Y-153471429D01*
X235261905Y-153423810D01*
X235166667Y-153376190D01*
X234976190Y-153328571D01*
X234880952Y-153280952D01*
X234833333Y-153233333D01*
X234785714Y-153138095D01*
X234785714Y-153042857D01*
X234833333Y-152947619D01*
X234880952Y-152900000D01*
X234976190Y-152852381D01*
X235214286Y-152852381D01*
X235357143Y-152900000D01*
X235738095Y-152947619D02*
X235785714Y-152900000D01*
X235880952Y-152852381D01*
X236119048Y-152852381D01*
X236214286Y-152900000D01*
X236261905Y-152947619D01*
X236309524Y-153042857D01*
X236309524Y-153138095D01*
X236261905Y-153280952D01*
X235690476Y-153852381D01*
X236309524Y-153852381D01*
X236642857Y-152852381D02*
X237261905Y-152852381D01*
X236928571Y-153233333D01*
X237071429Y-153233333D01*
X237166667Y-153280952D01*
X237214286Y-153328571D01*
X237261905Y-153423810D01*
X237261905Y-153661905D01*
X237214286Y-153757143D01*
X237166667Y-153804762D01*
X237071429Y-153852381D01*
X236785714Y-153852381D01*
X236690476Y-153804762D01*
X236642857Y-153757143D01*
X237642857Y-152947619D02*
X237690476Y-152900000D01*
X237785714Y-152852381D01*
X238023810Y-152852381D01*
X238119048Y-152900000D01*
X238166667Y-152947619D01*
X238214286Y-153042857D01*
X238214286Y-153138095D01*
X238166667Y-153280952D01*
X237595238Y-153852381D01*
X238214286Y-153852381D01*
X194804762Y-131957143D02*
X194852381Y-131814286D01*
X194852381Y-131576190D01*
X194804762Y-131480952D01*
X194757143Y-131433333D01*
X194661905Y-131385714D01*
X194566667Y-131385714D01*
X194471429Y-131433333D01*
X194423810Y-131480952D01*
X194376190Y-131576190D01*
X194328571Y-131766667D01*
X194280952Y-131861905D01*
X194233333Y-131909524D01*
X194138095Y-131957143D01*
X194042857Y-131957143D01*
X193947619Y-131909524D01*
X193900000Y-131861905D01*
X193852381Y-131766667D01*
X193852381Y-131528571D01*
X193900000Y-131385714D01*
X193852381Y-131052381D02*
X194852381Y-130814286D01*
X194138095Y-130623809D01*
X194852381Y-130433333D01*
X193852381Y-130195238D01*
X194852381Y-129814286D02*
X193852381Y-129814286D01*
X193852381Y-129576191D01*
X193900000Y-129433333D01*
X193995238Y-129338095D01*
X194090476Y-129290476D01*
X194280952Y-129242857D01*
X194423810Y-129242857D01*
X194614286Y-129290476D01*
X194709524Y-129338095D01*
X194804762Y-129433333D01*
X194852381Y-129576191D01*
X194852381Y-129814286D01*
X261633334Y-137452381D02*
X261300000Y-136976190D01*
X261061905Y-137452381D02*
X261061905Y-136452381D01*
X261442858Y-136452381D01*
X261538096Y-136500000D01*
X261585715Y-136547619D01*
X261633334Y-136642857D01*
X261633334Y-136785714D01*
X261585715Y-136880952D01*
X261538096Y-136928571D01*
X261442858Y-136976190D01*
X261061905Y-136976190D01*
X262585715Y-137452381D02*
X262014286Y-137452381D01*
X262300000Y-137452381D02*
X262300000Y-136452381D01*
X262204762Y-136595238D01*
X262109524Y-136690476D01*
X262014286Y-136738095D01*
X223633334Y-130652381D02*
X223300000Y-130176190D01*
X223061905Y-130652381D02*
X223061905Y-129652381D01*
X223442858Y-129652381D01*
X223538096Y-129700000D01*
X223585715Y-129747619D01*
X223633334Y-129842857D01*
X223633334Y-129985714D01*
X223585715Y-130080952D01*
X223538096Y-130128571D01*
X223442858Y-130176190D01*
X223061905Y-130176190D01*
X224014286Y-129747619D02*
X224061905Y-129700000D01*
X224157143Y-129652381D01*
X224395239Y-129652381D01*
X224490477Y-129700000D01*
X224538096Y-129747619D01*
X224585715Y-129842857D01*
X224585715Y-129938095D01*
X224538096Y-130080952D01*
X223966667Y-130652381D01*
X224585715Y-130652381D01*
X235433334Y-137452381D02*
X235100000Y-136976190D01*
X234861905Y-137452381D02*
X234861905Y-136452381D01*
X235242858Y-136452381D01*
X235338096Y-136500000D01*
X235385715Y-136547619D01*
X235433334Y-136642857D01*
X235433334Y-136785714D01*
X235385715Y-136880952D01*
X235338096Y-136928571D01*
X235242858Y-136976190D01*
X234861905Y-136976190D01*
X235766667Y-136452381D02*
X236385715Y-136452381D01*
X236052381Y-136833333D01*
X236195239Y-136833333D01*
X236290477Y-136880952D01*
X236338096Y-136928571D01*
X236385715Y-137023810D01*
X236385715Y-137261905D01*
X236338096Y-137357143D01*
X236290477Y-137404762D01*
X236195239Y-137452381D01*
X235909524Y-137452381D01*
X235814286Y-137404762D01*
X235766667Y-137357143D01*
X248633334Y-141852381D02*
X248300000Y-141376190D01*
X248061905Y-141852381D02*
X248061905Y-140852381D01*
X248442858Y-140852381D01*
X248538096Y-140900000D01*
X248585715Y-140947619D01*
X248633334Y-141042857D01*
X248633334Y-141185714D01*
X248585715Y-141280952D01*
X248538096Y-141328571D01*
X248442858Y-141376190D01*
X248061905Y-141376190D01*
X249490477Y-141185714D02*
X249490477Y-141852381D01*
X249252381Y-140804762D02*
X249014286Y-141519048D01*
X249633334Y-141519048D01*
X235833334Y-139652381D02*
X235500000Y-139176190D01*
X235261905Y-139652381D02*
X235261905Y-138652381D01*
X235642858Y-138652381D01*
X235738096Y-138700000D01*
X235785715Y-138747619D01*
X235833334Y-138842857D01*
X235833334Y-138985714D01*
X235785715Y-139080952D01*
X235738096Y-139128571D01*
X235642858Y-139176190D01*
X235261905Y-139176190D01*
X236738096Y-138652381D02*
X236261905Y-138652381D01*
X236214286Y-139128571D01*
X236261905Y-139080952D01*
X236357143Y-139033333D01*
X236595239Y-139033333D01*
X236690477Y-139080952D01*
X236738096Y-139128571D01*
X236785715Y-139223810D01*
X236785715Y-139461905D01*
X236738096Y-139557143D01*
X236690477Y-139604762D01*
X236595239Y-139652381D01*
X236357143Y-139652381D01*
X236261905Y-139604762D01*
X236214286Y-139557143D01*
X212238095Y-151252381D02*
X212238095Y-152061905D01*
X212285714Y-152157143D01*
X212333333Y-152204762D01*
X212428571Y-152252381D01*
X212619048Y-152252381D01*
X212714286Y-152204762D01*
X212761905Y-152157143D01*
X212809524Y-152061905D01*
X212809524Y-151252381D01*
X213809524Y-152252381D02*
X213238095Y-152252381D01*
X213523809Y-152252381D02*
X213523809Y-151252381D01*
X213428571Y-151395238D01*
X213333333Y-151490476D01*
X213238095Y-151538095D01*
X205390476Y-151852381D02*
X206057143Y-152852381D01*
X206057143Y-151852381D02*
X205390476Y-152852381D01*
X206961905Y-152852381D02*
X206390476Y-152852381D01*
X206676190Y-152852381D02*
X206676190Y-151852381D01*
X206580952Y-151995238D01*
X206485714Y-152090476D01*
X206390476Y-152138095D01*
X270038667Y-150976781D02*
X270038667Y-151691067D01*
X269991047Y-151833924D01*
X269895809Y-151929162D01*
X269752952Y-151976781D01*
X269657714Y-151976781D01*
X271038667Y-151976781D02*
X270467238Y-151976781D01*
X270752952Y-151976781D02*
X270752952Y-150976781D01*
X270657714Y-151119638D01*
X270562476Y-151214876D01*
X270467238Y-151262495D01*
X273319048Y-130357143D02*
X273271429Y-130404762D01*
X273128572Y-130452381D01*
X273033334Y-130452381D01*
X272890476Y-130404762D01*
X272795238Y-130309524D01*
X272747619Y-130214286D01*
X272700000Y-130023810D01*
X272700000Y-129880952D01*
X272747619Y-129690476D01*
X272795238Y-129595238D01*
X272890476Y-129500000D01*
X273033334Y-129452381D01*
X273128572Y-129452381D01*
X273271429Y-129500000D01*
X273319048Y-129547619D01*
X273890476Y-130452381D02*
X273795238Y-130404762D01*
X273747619Y-130357143D01*
X273700000Y-130261905D01*
X273700000Y-129976190D01*
X273747619Y-129880952D01*
X273795238Y-129833333D01*
X273890476Y-129785714D01*
X274033334Y-129785714D01*
X274128572Y-129833333D01*
X274176191Y-129880952D01*
X274223810Y-129976190D01*
X274223810Y-130261905D01*
X274176191Y-130357143D01*
X274128572Y-130404762D01*
X274033334Y-130452381D01*
X273890476Y-130452381D01*
X274652381Y-129785714D02*
X274652381Y-130452381D01*
X274652381Y-129880952D02*
X274700000Y-129833333D01*
X274795238Y-129785714D01*
X274938096Y-129785714D01*
X275033334Y-129833333D01*
X275080953Y-129928571D01*
X275080953Y-130452381D01*
X275557143Y-129785714D02*
X275557143Y-130452381D01*
X275557143Y-129880952D02*
X275604762Y-129833333D01*
X275700000Y-129785714D01*
X275842858Y-129785714D01*
X275938096Y-129833333D01*
X275985715Y-129928571D01*
X275985715Y-130452381D01*
X276223810Y-130547619D02*
X276985715Y-130547619D01*
X277795239Y-130452381D02*
X277461905Y-129976190D01*
X277223810Y-130452381D02*
X277223810Y-129452381D01*
X277604763Y-129452381D01*
X277700001Y-129500000D01*
X277747620Y-129547619D01*
X277795239Y-129642857D01*
X277795239Y-129785714D01*
X277747620Y-129880952D01*
X277700001Y-129928571D01*
X277604763Y-129976190D01*
X277223810Y-129976190D01*
X278509525Y-129452381D02*
X278509525Y-130166667D01*
X278461905Y-130309524D01*
X278366667Y-130404762D01*
X278223810Y-130452381D01*
X278128572Y-130452381D01*
X278985715Y-130071429D02*
X279747620Y-130071429D01*
X280652382Y-129785714D02*
X280652382Y-130452381D01*
X280414286Y-129404762D02*
X280176191Y-130119048D01*
X280795239Y-130119048D01*
X281652382Y-129452381D02*
X281176191Y-129452381D01*
X281128572Y-129928571D01*
X281176191Y-129880952D01*
X281271429Y-129833333D01*
X281509525Y-129833333D01*
X281604763Y-129880952D01*
X281652382Y-129928571D01*
X281700001Y-130023810D01*
X281700001Y-130261905D01*
X281652382Y-130357143D01*
X281604763Y-130404762D01*
X281509525Y-130452381D01*
X281271429Y-130452381D01*
X281176191Y-130404762D01*
X281128572Y-130357143D01*
X266438095Y-129252381D02*
X266438095Y-130061905D01*
X266485714Y-130157143D01*
X266533333Y-130204762D01*
X266628571Y-130252381D01*
X266819048Y-130252381D01*
X266914286Y-130204762D01*
X266961905Y-130157143D01*
X267009524Y-130061905D01*
X267009524Y-129252381D01*
X267438095Y-129347619D02*
X267485714Y-129300000D01*
X267580952Y-129252381D01*
X267819048Y-129252381D01*
X267914286Y-129300000D01*
X267961905Y-129347619D01*
X268009524Y-129442857D01*
X268009524Y-129538095D01*
X267961905Y-129680952D01*
X267390476Y-130252381D01*
X268009524Y-130252381D01*
X239438095Y-130052381D02*
X239438095Y-130861905D01*
X239485714Y-130957143D01*
X239533333Y-131004762D01*
X239628571Y-131052381D01*
X239819048Y-131052381D01*
X239914286Y-131004762D01*
X239961905Y-130957143D01*
X240009524Y-130861905D01*
X240009524Y-130052381D01*
X240390476Y-130052381D02*
X241009524Y-130052381D01*
X240676190Y-130433333D01*
X240819048Y-130433333D01*
X240914286Y-130480952D01*
X240961905Y-130528571D01*
X241009524Y-130623810D01*
X241009524Y-130861905D01*
X240961905Y-130957143D01*
X240914286Y-131004762D01*
X240819048Y-131052381D01*
X240533333Y-131052381D01*
X240438095Y-131004762D01*
X240390476Y-130957143D01*
X238438095Y-138652381D02*
X238438095Y-139461905D01*
X238485714Y-139557143D01*
X238533333Y-139604762D01*
X238628571Y-139652381D01*
X238819048Y-139652381D01*
X238914286Y-139604762D01*
X238961905Y-139557143D01*
X239009524Y-139461905D01*
X239009524Y-138652381D01*
X239914286Y-138985714D02*
X239914286Y-139652381D01*
X239676190Y-138604762D02*
X239438095Y-139319048D01*
X240057143Y-139319048D01*
X249404762Y-149847619D02*
X249452381Y-149704762D01*
X249452381Y-149466666D01*
X249404762Y-149371428D01*
X249357143Y-149323809D01*
X249261905Y-149276190D01*
X249166667Y-149276190D01*
X249071429Y-149323809D01*
X249023810Y-149371428D01*
X248976190Y-149466666D01*
X248928571Y-149657143D01*
X248880952Y-149752381D01*
X248833333Y-149800000D01*
X248738095Y-149847619D01*
X248642857Y-149847619D01*
X248547619Y-149800000D01*
X248500000Y-149752381D01*
X248452381Y-149657143D01*
X248452381Y-149419047D01*
X248500000Y-149276190D01*
X248785714Y-148942857D02*
X249452381Y-148704762D01*
X248785714Y-148466666D02*
X249452381Y-148704762D01*
X249690476Y-148800000D01*
X249738095Y-148847619D01*
X249785714Y-148942857D01*
X249452381Y-147514285D02*
X248976190Y-147847619D01*
X249452381Y-148085714D02*
X248452381Y-148085714D01*
X248452381Y-147704761D01*
X248500000Y-147609523D01*
X248547619Y-147561904D01*
X248642857Y-147514285D01*
X248785714Y-147514285D01*
X248880952Y-147561904D01*
X248928571Y-147609523D01*
X248976190Y-147704761D01*
X248976190Y-148085714D01*
X249404762Y-146704761D02*
X249452381Y-146799999D01*
X249452381Y-146990476D01*
X249404762Y-147085714D01*
X249309524Y-147133333D01*
X248928571Y-147133333D01*
X248833333Y-147085714D01*
X248785714Y-146990476D01*
X248785714Y-146799999D01*
X248833333Y-146704761D01*
X248928571Y-146657142D01*
X249023810Y-146657142D01*
X249119048Y-147133333D01*
X248785714Y-146228571D02*
X249452381Y-146228571D01*
X248880952Y-146228571D02*
X248833333Y-146180952D01*
X248785714Y-146085714D01*
X248785714Y-145942856D01*
X248833333Y-145847618D01*
X248928571Y-145799999D01*
X249452381Y-145799999D01*
X248928571Y-135119047D02*
X248976190Y-134976190D01*
X249023810Y-134928571D01*
X249119048Y-134880952D01*
X249261905Y-134880952D01*
X249357143Y-134928571D01*
X249404762Y-134976190D01*
X249452381Y-135071428D01*
X249452381Y-135452381D01*
X248452381Y-135452381D01*
X248452381Y-135119047D01*
X248500000Y-135023809D01*
X248547619Y-134976190D01*
X248642857Y-134928571D01*
X248738095Y-134928571D01*
X248833333Y-134976190D01*
X248880952Y-135023809D01*
X248928571Y-135119047D01*
X248928571Y-135452381D01*
X249166667Y-134500000D02*
X249166667Y-134023809D01*
X249452381Y-134595238D02*
X248452381Y-134261905D01*
X249452381Y-133928571D01*
X248452381Y-133738095D02*
X248452381Y-133166666D01*
X249452381Y-133452381D02*
X248452381Y-133452381D01*
X248452381Y-132976190D02*
X248452381Y-132404761D01*
X249452381Y-132690476D02*
X248452381Y-132690476D01*
M02*
