M48
INCH,TZ
T1C0.025
%
G90
G05
T1
X87480Y-51988
X92598Y-60059
X93071Y-55118
X93287Y-58583
X93610Y-54894
X93937Y-54252
X94447Y-58289
X94764Y-59862
X95157Y-56220
X95433Y-53858
X95453Y-58091
X96240Y-57303
X97323Y-53169
X97717Y-55236
X97717Y-56713
X98110Y-51398
X98602Y-52185
X98799Y-53268
X98898Y-55925
X99055Y-57838
X99055Y-58268
X99193Y-55531
X99587Y-56614
X99587Y-57838
X99783Y-51102
X100177Y-56024
X100374Y-52480
X100965Y-52480
X100965Y-53169
X101358Y-55531
X101949Y-56811
X101949Y-57303
X102638Y-56811
X103858Y-57795
X104606Y-58484
X105039Y-58189
X110079Y-55827
T0
M30
