G04 #@! TF.FileFunction,Legend,Top*
%FSLAX46Y46*%
G04 Gerber Fmt 4.6, Leading zero omitted, Abs format (unit mm)*
G04 Created by KiCad (PCBNEW (2015-01-16 BZR 5376)-product) date 3/7/2015 3:38:27 PM*
%MOMM*%
G01*
G04 APERTURE LIST*
%ADD10C,0.149860*%
%ADD11C,0.127000*%
%ADD12C,0.150000*%
G04 APERTURE END LIST*
D10*
D11*
X274811238Y-153738285D02*
X274859619Y-153593142D01*
X274859619Y-153351238D01*
X274811238Y-153254476D01*
X274762857Y-153206095D01*
X274666095Y-153157714D01*
X274569333Y-153157714D01*
X274472571Y-153206095D01*
X274424190Y-153254476D01*
X274375810Y-153351238D01*
X274327429Y-153544761D01*
X274279048Y-153641523D01*
X274230667Y-153689904D01*
X274133905Y-153738285D01*
X274037143Y-153738285D01*
X273940381Y-153689904D01*
X273892000Y-153641523D01*
X273843619Y-153544761D01*
X273843619Y-153302857D01*
X273892000Y-153157714D01*
X274182286Y-152819047D02*
X274859619Y-152577142D01*
X274182286Y-152335238D02*
X274859619Y-152577142D01*
X275101524Y-152673904D01*
X275149905Y-152722285D01*
X275198286Y-152819047D01*
X274859619Y-151367619D02*
X274375810Y-151706285D01*
X274859619Y-151948190D02*
X273843619Y-151948190D01*
X273843619Y-151561143D01*
X273892000Y-151464381D01*
X273940381Y-151416000D01*
X274037143Y-151367619D01*
X274182286Y-151367619D01*
X274279048Y-151416000D01*
X274327429Y-151464381D01*
X274375810Y-151561143D01*
X274375810Y-151948190D01*
X274811238Y-150545143D02*
X274859619Y-150641905D01*
X274859619Y-150835428D01*
X274811238Y-150932190D01*
X274714476Y-150980571D01*
X274327429Y-150980571D01*
X274230667Y-150932190D01*
X274182286Y-150835428D01*
X274182286Y-150641905D01*
X274230667Y-150545143D01*
X274327429Y-150496762D01*
X274424190Y-150496762D01*
X274520952Y-150980571D01*
X274182286Y-150061333D02*
X274859619Y-150061333D01*
X274279048Y-150061333D02*
X274230667Y-150012952D01*
X274182286Y-149916190D01*
X274182286Y-149771048D01*
X274230667Y-149674286D01*
X274327429Y-149625905D01*
X274859619Y-149625905D01*
X273843619Y-148513143D02*
X273843619Y-147932572D01*
X274859619Y-148222857D02*
X273843619Y-148222857D01*
X273843619Y-147690667D02*
X274859619Y-147013334D01*
X273843619Y-147013334D02*
X274859619Y-147690667D01*
D12*
X238775000Y-139625000D02*
X238775000Y-140700000D01*
X249125000Y-139625000D02*
X249125000Y-140700000D01*
X249125000Y-149975000D02*
X249125000Y-148900000D01*
X238775000Y-149975000D02*
X238775000Y-148900000D01*
X238775000Y-139625000D02*
X239850000Y-139625000D01*
X238775000Y-149975000D02*
X239850000Y-149975000D01*
X249125000Y-149975000D02*
X248050000Y-149975000D01*
X249125000Y-139625000D02*
X248050000Y-139625000D01*
X238775000Y-140700000D02*
X237750000Y-140700000D01*
X233175000Y-140550000D02*
X233175000Y-142550000D01*
X235225000Y-142550000D02*
X235225000Y-140550000D01*
X235225000Y-149300000D02*
X235225000Y-147300000D01*
X233175000Y-147300000D02*
X233175000Y-149300000D01*
X223675000Y-131550000D02*
X223675000Y-133550000D01*
X225725000Y-133550000D02*
X225725000Y-131550000D01*
X247450000Y-153825000D02*
X249450000Y-153825000D01*
X249450000Y-151775000D02*
X247450000Y-151775000D01*
X242925000Y-131550000D02*
X242925000Y-133550000D01*
X244975000Y-133550000D02*
X244975000Y-131550000D01*
X240175000Y-131550000D02*
X240175000Y-133550000D01*
X242225000Y-133550000D02*
X242225000Y-131550000D01*
X237425000Y-131550000D02*
X237425000Y-133550000D01*
X239475000Y-133550000D02*
X239475000Y-131550000D01*
X234675000Y-131550000D02*
X234675000Y-133550000D01*
X236725000Y-133550000D02*
X236725000Y-131550000D01*
X231925000Y-131550000D02*
X231925000Y-133550000D01*
X233975000Y-133550000D02*
X233975000Y-131550000D01*
X229175000Y-131550000D02*
X229175000Y-133550000D01*
X231225000Y-133550000D02*
X231225000Y-131550000D01*
X226425000Y-131550000D02*
X226425000Y-133550000D01*
X228475000Y-133550000D02*
X228475000Y-131550000D01*
X222600000Y-149025000D02*
X224600000Y-149025000D01*
X224600000Y-146975000D02*
X222600000Y-146975000D01*
X222700000Y-153425000D02*
X224700000Y-153425000D01*
X224700000Y-151375000D02*
X222700000Y-151375000D01*
X224600000Y-144875000D02*
X222600000Y-144875000D01*
X222600000Y-142725000D02*
X224600000Y-142725000D01*
X250220000Y-137102000D02*
X250220000Y-137610000D01*
X250220000Y-137610000D02*
X247680000Y-137610000D01*
X247680000Y-137610000D02*
X247680000Y-135070000D01*
X250220000Y-135070000D02*
X250220000Y-135578000D01*
X247680000Y-132530000D02*
X247680000Y-133038000D01*
X250220000Y-132530000D02*
X250220000Y-135070000D01*
X250220000Y-135070000D02*
X247680000Y-135070000D01*
X247680000Y-135070000D02*
X247680000Y-134562000D01*
X250220000Y-129990000D02*
X247680000Y-129990000D01*
X247680000Y-129990000D02*
X247680000Y-132530000D01*
X247680000Y-132530000D02*
X250220000Y-132530000D01*
X250220000Y-132530000D02*
X250220000Y-132022000D01*
X250220000Y-129990000D02*
X250220000Y-130498000D01*
X249077000Y-136213000D02*
X248823000Y-136213000D01*
X248823000Y-136213000D02*
X248823000Y-136467000D01*
X248823000Y-136467000D02*
X249077000Y-136467000D01*
X249077000Y-136467000D02*
X249077000Y-136213000D01*
X249077000Y-133673000D02*
X248823000Y-133673000D01*
X248823000Y-133673000D02*
X248823000Y-133927000D01*
X248823000Y-133927000D02*
X249077000Y-133927000D01*
X249077000Y-133927000D02*
X249077000Y-133673000D01*
X249077000Y-133673000D02*
X249077000Y-133800000D01*
X249077000Y-131133000D02*
X248823000Y-131133000D01*
X248823000Y-131133000D02*
X248823000Y-131387000D01*
X248823000Y-131387000D02*
X249077000Y-131387000D01*
X249077000Y-131387000D02*
X249077000Y-131133000D01*
X254430000Y-140970000D02*
X256970000Y-140970000D01*
X256970000Y-140970000D02*
X256970000Y-140462000D01*
X254430000Y-140970000D02*
X254430000Y-138430000D01*
X254430000Y-138430000D02*
X256970000Y-138430000D01*
X256970000Y-138430000D02*
X256970000Y-138938000D01*
X256970000Y-140970000D02*
X254430000Y-140970000D01*
X255573000Y-139827000D02*
X255827000Y-139827000D01*
X255827000Y-139827000D02*
X255827000Y-139573000D01*
X255827000Y-139573000D02*
X255573000Y-139573000D01*
X255573000Y-139573000D02*
X255573000Y-139827000D01*
X255573000Y-139827000D02*
X255573000Y-139700000D01*
X255573000Y-144907000D02*
X255573000Y-144780000D01*
X255573000Y-144653000D02*
X255573000Y-144907000D01*
X255827000Y-144653000D02*
X255573000Y-144653000D01*
X255827000Y-144907000D02*
X255827000Y-144653000D01*
X255573000Y-144907000D02*
X255827000Y-144907000D01*
X255573000Y-142113000D02*
X255573000Y-142367000D01*
X255827000Y-142113000D02*
X255573000Y-142113000D01*
X255827000Y-142367000D02*
X255827000Y-142113000D01*
X255573000Y-142367000D02*
X255827000Y-142367000D01*
X256970000Y-146050000D02*
X254430000Y-146050000D01*
X256970000Y-143510000D02*
X256970000Y-144018000D01*
X254430000Y-143510000D02*
X256970000Y-143510000D01*
X254430000Y-146050000D02*
X254430000Y-143510000D01*
X256970000Y-146050000D02*
X256970000Y-145542000D01*
X254430000Y-143510000D02*
X254430000Y-143002000D01*
X256970000Y-140970000D02*
X256970000Y-143510000D01*
X254430000Y-140970000D02*
X256970000Y-140970000D01*
X254430000Y-141478000D02*
X254430000Y-140970000D01*
X254430000Y-146558000D02*
X254430000Y-146050000D01*
X254430000Y-146050000D02*
X256970000Y-146050000D01*
X256970000Y-146050000D02*
X256970000Y-148590000D01*
X254430000Y-148590000D02*
X254430000Y-148082000D01*
X256970000Y-151130000D02*
X256970000Y-150622000D01*
X254430000Y-151130000D02*
X254430000Y-148590000D01*
X254430000Y-148590000D02*
X256970000Y-148590000D01*
X256970000Y-148590000D02*
X256970000Y-149098000D01*
X254430000Y-153670000D02*
X256970000Y-153670000D01*
X256970000Y-153670000D02*
X256970000Y-151130000D01*
X256970000Y-151130000D02*
X254430000Y-151130000D01*
X254430000Y-151130000D02*
X254430000Y-151638000D01*
X254430000Y-153670000D02*
X254430000Y-153162000D01*
X255573000Y-147447000D02*
X255827000Y-147447000D01*
X255827000Y-147447000D02*
X255827000Y-147193000D01*
X255827000Y-147193000D02*
X255573000Y-147193000D01*
X255573000Y-147193000D02*
X255573000Y-147447000D01*
X255573000Y-149987000D02*
X255827000Y-149987000D01*
X255827000Y-149987000D02*
X255827000Y-149733000D01*
X255827000Y-149733000D02*
X255573000Y-149733000D01*
X255573000Y-149733000D02*
X255573000Y-149987000D01*
X255573000Y-149987000D02*
X255573000Y-149860000D01*
X255573000Y-152527000D02*
X255827000Y-152527000D01*
X255827000Y-152527000D02*
X255827000Y-152273000D01*
X255827000Y-152273000D02*
X255573000Y-152273000D01*
X255573000Y-152273000D02*
X255573000Y-152527000D01*
X263950000Y-134625000D02*
X261950000Y-134625000D01*
X261950000Y-132475000D02*
X263950000Y-132475000D01*
X240450000Y-151725000D02*
X242450000Y-151725000D01*
X242450000Y-153875000D02*
X240450000Y-153875000D01*
X231601000Y-139847000D02*
X231220000Y-139847000D01*
X228299000Y-139847000D02*
X228680000Y-139847000D01*
X228299000Y-149753000D02*
X228680000Y-149753000D01*
X231601000Y-149753000D02*
X231220000Y-149753000D01*
X232490000Y-150515000D02*
X231220000Y-150515000D01*
X227410000Y-150515000D02*
X228680000Y-150515000D01*
X227410000Y-139085000D02*
X228680000Y-139085000D01*
X232490000Y-139085000D02*
X231220000Y-139085000D01*
X228299000Y-139847000D02*
X227664000Y-140482000D01*
X227664000Y-140482000D02*
X227664000Y-149118000D01*
X227664000Y-149118000D02*
X228299000Y-149753000D01*
X231601000Y-149753000D02*
X232236000Y-149118000D01*
X232236000Y-149118000D02*
X232236000Y-140482000D01*
X232236000Y-140482000D02*
X231601000Y-139847000D01*
X227410000Y-150515000D02*
X227410000Y-139085000D01*
X232490000Y-139085000D02*
X232490000Y-150515000D01*
X266635800Y-147725000D02*
X283526800Y-147725000D01*
X283526800Y-147725000D02*
X283526800Y-132485000D01*
X283526800Y-132485000D02*
X266635800Y-132485000D01*
X266635800Y-132485000D02*
X266635800Y-147725000D01*
X252875000Y-136375000D02*
X253020000Y-136375000D01*
X252875000Y-132225000D02*
X253020000Y-132225000D01*
X258025000Y-132225000D02*
X257880000Y-132225000D01*
X258025000Y-136375000D02*
X257880000Y-136375000D01*
X252875000Y-136375000D02*
X252875000Y-132225000D01*
X258025000Y-136375000D02*
X258025000Y-132225000D01*
X253020000Y-136375000D02*
X253020000Y-137775000D01*
X249638095Y-138252381D02*
X249638095Y-139061905D01*
X249685714Y-139157143D01*
X249733333Y-139204762D01*
X249828571Y-139252381D01*
X250019048Y-139252381D01*
X250114286Y-139204762D01*
X250161905Y-139157143D01*
X250209524Y-139061905D01*
X250209524Y-138252381D01*
X251209524Y-139252381D02*
X250638095Y-139252381D01*
X250923809Y-139252381D02*
X250923809Y-138252381D01*
X250828571Y-138395238D01*
X250733333Y-138490476D01*
X250638095Y-138538095D01*
X236233334Y-138957143D02*
X236185715Y-139004762D01*
X236042858Y-139052381D01*
X235947620Y-139052381D01*
X235804762Y-139004762D01*
X235709524Y-138909524D01*
X235661905Y-138814286D01*
X235614286Y-138623810D01*
X235614286Y-138480952D01*
X235661905Y-138290476D01*
X235709524Y-138195238D01*
X235804762Y-138100000D01*
X235947620Y-138052381D01*
X236042858Y-138052381D01*
X236185715Y-138100000D01*
X236233334Y-138147619D01*
X237185715Y-139052381D02*
X236614286Y-139052381D01*
X236900000Y-139052381D02*
X236900000Y-138052381D01*
X236804762Y-138195238D01*
X236709524Y-138290476D01*
X236614286Y-138338095D01*
X234233334Y-152757143D02*
X234185715Y-152804762D01*
X234042858Y-152852381D01*
X233947620Y-152852381D01*
X233804762Y-152804762D01*
X233709524Y-152709524D01*
X233661905Y-152614286D01*
X233614286Y-152423810D01*
X233614286Y-152280952D01*
X233661905Y-152090476D01*
X233709524Y-151995238D01*
X233804762Y-151900000D01*
X233947620Y-151852381D01*
X234042858Y-151852381D01*
X234185715Y-151900000D01*
X234233334Y-151947619D01*
X234614286Y-151947619D02*
X234661905Y-151900000D01*
X234757143Y-151852381D01*
X234995239Y-151852381D01*
X235090477Y-151900000D01*
X235138096Y-151947619D01*
X235185715Y-152042857D01*
X235185715Y-152138095D01*
X235138096Y-152280952D01*
X234566667Y-152852381D01*
X235185715Y-152852381D01*
X225157143Y-136966666D02*
X225204762Y-137014285D01*
X225252381Y-137157142D01*
X225252381Y-137252380D01*
X225204762Y-137395238D01*
X225109524Y-137490476D01*
X225014286Y-137538095D01*
X224823810Y-137585714D01*
X224680952Y-137585714D01*
X224490476Y-137538095D01*
X224395238Y-137490476D01*
X224300000Y-137395238D01*
X224252381Y-137252380D01*
X224252381Y-137157142D01*
X224300000Y-137014285D01*
X224347619Y-136966666D01*
X224252381Y-136633333D02*
X224252381Y-136014285D01*
X224633333Y-136347619D01*
X224633333Y-136204761D01*
X224680952Y-136109523D01*
X224728571Y-136061904D01*
X224823810Y-136014285D01*
X225061905Y-136014285D01*
X225157143Y-136061904D01*
X225204762Y-136109523D01*
X225252381Y-136204761D01*
X225252381Y-136490476D01*
X225204762Y-136585714D01*
X225157143Y-136633333D01*
X251433334Y-151357143D02*
X251385715Y-151404762D01*
X251242858Y-151452381D01*
X251147620Y-151452381D01*
X251004762Y-151404762D01*
X250909524Y-151309524D01*
X250861905Y-151214286D01*
X250814286Y-151023810D01*
X250814286Y-150880952D01*
X250861905Y-150690476D01*
X250909524Y-150595238D01*
X251004762Y-150500000D01*
X251147620Y-150452381D01*
X251242858Y-150452381D01*
X251385715Y-150500000D01*
X251433334Y-150547619D01*
X252290477Y-150785714D02*
X252290477Y-151452381D01*
X252052381Y-150404762D02*
X251814286Y-151119048D01*
X252433334Y-151119048D01*
X244357143Y-136966666D02*
X244404762Y-137014285D01*
X244452381Y-137157142D01*
X244452381Y-137252380D01*
X244404762Y-137395238D01*
X244309524Y-137490476D01*
X244214286Y-137538095D01*
X244023810Y-137585714D01*
X243880952Y-137585714D01*
X243690476Y-137538095D01*
X243595238Y-137490476D01*
X243500000Y-137395238D01*
X243452381Y-137252380D01*
X243452381Y-137157142D01*
X243500000Y-137014285D01*
X243547619Y-136966666D01*
X243452381Y-136061904D02*
X243452381Y-136538095D01*
X243928571Y-136585714D01*
X243880952Y-136538095D01*
X243833333Y-136442857D01*
X243833333Y-136204761D01*
X243880952Y-136109523D01*
X243928571Y-136061904D01*
X244023810Y-136014285D01*
X244261905Y-136014285D01*
X244357143Y-136061904D01*
X244404762Y-136109523D01*
X244452381Y-136204761D01*
X244452381Y-136442857D01*
X244404762Y-136538095D01*
X244357143Y-136585714D01*
X241557143Y-136966666D02*
X241604762Y-137014285D01*
X241652381Y-137157142D01*
X241652381Y-137252380D01*
X241604762Y-137395238D01*
X241509524Y-137490476D01*
X241414286Y-137538095D01*
X241223810Y-137585714D01*
X241080952Y-137585714D01*
X240890476Y-137538095D01*
X240795238Y-137490476D01*
X240700000Y-137395238D01*
X240652381Y-137252380D01*
X240652381Y-137157142D01*
X240700000Y-137014285D01*
X240747619Y-136966666D01*
X240652381Y-136109523D02*
X240652381Y-136300000D01*
X240700000Y-136395238D01*
X240747619Y-136442857D01*
X240890476Y-136538095D01*
X241080952Y-136585714D01*
X241461905Y-136585714D01*
X241557143Y-136538095D01*
X241604762Y-136490476D01*
X241652381Y-136395238D01*
X241652381Y-136204761D01*
X241604762Y-136109523D01*
X241557143Y-136061904D01*
X241461905Y-136014285D01*
X241223810Y-136014285D01*
X241128571Y-136061904D01*
X241080952Y-136109523D01*
X241033333Y-136204761D01*
X241033333Y-136395238D01*
X241080952Y-136490476D01*
X241128571Y-136538095D01*
X241223810Y-136585714D01*
X238957143Y-136966666D02*
X239004762Y-137014285D01*
X239052381Y-137157142D01*
X239052381Y-137252380D01*
X239004762Y-137395238D01*
X238909524Y-137490476D01*
X238814286Y-137538095D01*
X238623810Y-137585714D01*
X238480952Y-137585714D01*
X238290476Y-137538095D01*
X238195238Y-137490476D01*
X238100000Y-137395238D01*
X238052381Y-137252380D01*
X238052381Y-137157142D01*
X238100000Y-137014285D01*
X238147619Y-136966666D01*
X238052381Y-136633333D02*
X238052381Y-135966666D01*
X239052381Y-136395238D01*
X236157143Y-136966666D02*
X236204762Y-137014285D01*
X236252381Y-137157142D01*
X236252381Y-137252380D01*
X236204762Y-137395238D01*
X236109524Y-137490476D01*
X236014286Y-137538095D01*
X235823810Y-137585714D01*
X235680952Y-137585714D01*
X235490476Y-137538095D01*
X235395238Y-137490476D01*
X235300000Y-137395238D01*
X235252381Y-137252380D01*
X235252381Y-137157142D01*
X235300000Y-137014285D01*
X235347619Y-136966666D01*
X235680952Y-136395238D02*
X235633333Y-136490476D01*
X235585714Y-136538095D01*
X235490476Y-136585714D01*
X235442857Y-136585714D01*
X235347619Y-136538095D01*
X235300000Y-136490476D01*
X235252381Y-136395238D01*
X235252381Y-136204761D01*
X235300000Y-136109523D01*
X235347619Y-136061904D01*
X235442857Y-136014285D01*
X235490476Y-136014285D01*
X235585714Y-136061904D01*
X235633333Y-136109523D01*
X235680952Y-136204761D01*
X235680952Y-136395238D01*
X235728571Y-136490476D01*
X235776190Y-136538095D01*
X235871429Y-136585714D01*
X236061905Y-136585714D01*
X236157143Y-136538095D01*
X236204762Y-136490476D01*
X236252381Y-136395238D01*
X236252381Y-136204761D01*
X236204762Y-136109523D01*
X236157143Y-136061904D01*
X236061905Y-136014285D01*
X235871429Y-136014285D01*
X235776190Y-136061904D01*
X235728571Y-136109523D01*
X235680952Y-136204761D01*
X233357143Y-136966666D02*
X233404762Y-137014285D01*
X233452381Y-137157142D01*
X233452381Y-137252380D01*
X233404762Y-137395238D01*
X233309524Y-137490476D01*
X233214286Y-137538095D01*
X233023810Y-137585714D01*
X232880952Y-137585714D01*
X232690476Y-137538095D01*
X232595238Y-137490476D01*
X232500000Y-137395238D01*
X232452381Y-137252380D01*
X232452381Y-137157142D01*
X232500000Y-137014285D01*
X232547619Y-136966666D01*
X233452381Y-136490476D02*
X233452381Y-136300000D01*
X233404762Y-136204761D01*
X233357143Y-136157142D01*
X233214286Y-136061904D01*
X233023810Y-136014285D01*
X232642857Y-136014285D01*
X232547619Y-136061904D01*
X232500000Y-136109523D01*
X232452381Y-136204761D01*
X232452381Y-136395238D01*
X232500000Y-136490476D01*
X232547619Y-136538095D01*
X232642857Y-136585714D01*
X232880952Y-136585714D01*
X232976190Y-136538095D01*
X233023810Y-136490476D01*
X233071429Y-136395238D01*
X233071429Y-136204761D01*
X233023810Y-136109523D01*
X232976190Y-136061904D01*
X232880952Y-136014285D01*
X229557143Y-136907143D02*
X229509524Y-136954762D01*
X229366667Y-137002381D01*
X229271429Y-137002381D01*
X229128571Y-136954762D01*
X229033333Y-136859524D01*
X228985714Y-136764286D01*
X228938095Y-136573810D01*
X228938095Y-136430952D01*
X228985714Y-136240476D01*
X229033333Y-136145238D01*
X229128571Y-136050000D01*
X229271429Y-136002381D01*
X229366667Y-136002381D01*
X229509524Y-136050000D01*
X229557143Y-136097619D01*
X230509524Y-137002381D02*
X229938095Y-137002381D01*
X230223809Y-137002381D02*
X230223809Y-136002381D01*
X230128571Y-136145238D01*
X230033333Y-136240476D01*
X229938095Y-136288095D01*
X231128571Y-136002381D02*
X231223810Y-136002381D01*
X231319048Y-136050000D01*
X231366667Y-136097619D01*
X231414286Y-136192857D01*
X231461905Y-136383333D01*
X231461905Y-136621429D01*
X231414286Y-136811905D01*
X231366667Y-136907143D01*
X231319048Y-136954762D01*
X231223810Y-137002381D01*
X231128571Y-137002381D01*
X231033333Y-136954762D01*
X230985714Y-136907143D01*
X230938095Y-136811905D01*
X230890476Y-136621429D01*
X230890476Y-136383333D01*
X230938095Y-136192857D01*
X230985714Y-136097619D01*
X231033333Y-136050000D01*
X231128571Y-136002381D01*
X227757143Y-137842857D02*
X227804762Y-137890476D01*
X227852381Y-138033333D01*
X227852381Y-138128571D01*
X227804762Y-138271429D01*
X227709524Y-138366667D01*
X227614286Y-138414286D01*
X227423810Y-138461905D01*
X227280952Y-138461905D01*
X227090476Y-138414286D01*
X226995238Y-138366667D01*
X226900000Y-138271429D01*
X226852381Y-138128571D01*
X226852381Y-138033333D01*
X226900000Y-137890476D01*
X226947619Y-137842857D01*
X227852381Y-136890476D02*
X227852381Y-137461905D01*
X227852381Y-137176191D02*
X226852381Y-137176191D01*
X226995238Y-137271429D01*
X227090476Y-137366667D01*
X227138095Y-137461905D01*
X227852381Y-135938095D02*
X227852381Y-136509524D01*
X227852381Y-136223810D02*
X226852381Y-136223810D01*
X226995238Y-136319048D01*
X227090476Y-136414286D01*
X227138095Y-136509524D01*
X222957143Y-146557143D02*
X222909524Y-146604762D01*
X222766667Y-146652381D01*
X222671429Y-146652381D01*
X222528571Y-146604762D01*
X222433333Y-146509524D01*
X222385714Y-146414286D01*
X222338095Y-146223810D01*
X222338095Y-146080952D01*
X222385714Y-145890476D01*
X222433333Y-145795238D01*
X222528571Y-145700000D01*
X222671429Y-145652381D01*
X222766667Y-145652381D01*
X222909524Y-145700000D01*
X222957143Y-145747619D01*
X223909524Y-146652381D02*
X223338095Y-146652381D01*
X223623809Y-146652381D02*
X223623809Y-145652381D01*
X223528571Y-145795238D01*
X223433333Y-145890476D01*
X223338095Y-145938095D01*
X224290476Y-145747619D02*
X224338095Y-145700000D01*
X224433333Y-145652381D01*
X224671429Y-145652381D01*
X224766667Y-145700000D01*
X224814286Y-145747619D01*
X224861905Y-145842857D01*
X224861905Y-145938095D01*
X224814286Y-146080952D01*
X224242857Y-146652381D01*
X224861905Y-146652381D01*
X223157143Y-150957143D02*
X223109524Y-151004762D01*
X222966667Y-151052381D01*
X222871429Y-151052381D01*
X222728571Y-151004762D01*
X222633333Y-150909524D01*
X222585714Y-150814286D01*
X222538095Y-150623810D01*
X222538095Y-150480952D01*
X222585714Y-150290476D01*
X222633333Y-150195238D01*
X222728571Y-150100000D01*
X222871429Y-150052381D01*
X222966667Y-150052381D01*
X223109524Y-150100000D01*
X223157143Y-150147619D01*
X224109524Y-151052381D02*
X223538095Y-151052381D01*
X223823809Y-151052381D02*
X223823809Y-150052381D01*
X223728571Y-150195238D01*
X223633333Y-150290476D01*
X223538095Y-150338095D01*
X224442857Y-150052381D02*
X225061905Y-150052381D01*
X224728571Y-150433333D01*
X224871429Y-150433333D01*
X224966667Y-150480952D01*
X225014286Y-150528571D01*
X225061905Y-150623810D01*
X225061905Y-150861905D01*
X225014286Y-150957143D01*
X224966667Y-151004762D01*
X224871429Y-151052381D01*
X224585714Y-151052381D01*
X224490476Y-151004762D01*
X224442857Y-150957143D01*
X222666667Y-141928571D02*
X222333333Y-141928571D01*
X222333333Y-142452381D02*
X222333333Y-141452381D01*
X222809524Y-141452381D01*
X223523810Y-141928571D02*
X223666667Y-141976190D01*
X223714286Y-142023810D01*
X223761905Y-142119048D01*
X223761905Y-142261905D01*
X223714286Y-142357143D01*
X223666667Y-142404762D01*
X223571429Y-142452381D01*
X223190476Y-142452381D01*
X223190476Y-141452381D01*
X223523810Y-141452381D01*
X223619048Y-141500000D01*
X223666667Y-141547619D01*
X223714286Y-141642857D01*
X223714286Y-141738095D01*
X223666667Y-141833333D01*
X223619048Y-141880952D01*
X223523810Y-141928571D01*
X223190476Y-141928571D01*
X224714286Y-142452381D02*
X224142857Y-142452381D01*
X224428571Y-142452381D02*
X224428571Y-141452381D01*
X224333333Y-141595238D01*
X224238095Y-141690476D01*
X224142857Y-141738095D01*
X246004762Y-130052381D02*
X245671428Y-129576190D01*
X245433333Y-130052381D02*
X245433333Y-129052381D01*
X245814286Y-129052381D01*
X245909524Y-129100000D01*
X245957143Y-129147619D01*
X246004762Y-129242857D01*
X246004762Y-129385714D01*
X245957143Y-129480952D01*
X245909524Y-129528571D01*
X245814286Y-129576190D01*
X245433333Y-129576190D01*
X246385714Y-130004762D02*
X246528571Y-130052381D01*
X246766667Y-130052381D01*
X246861905Y-130004762D01*
X246909524Y-129957143D01*
X246957143Y-129861905D01*
X246957143Y-129766667D01*
X246909524Y-129671429D01*
X246861905Y-129623810D01*
X246766667Y-129576190D01*
X246576190Y-129528571D01*
X246480952Y-129480952D01*
X246433333Y-129433333D01*
X246385714Y-129338095D01*
X246385714Y-129242857D01*
X246433333Y-129147619D01*
X246480952Y-129100000D01*
X246576190Y-129052381D01*
X246814286Y-129052381D01*
X246957143Y-129100000D01*
X247338095Y-129147619D02*
X247385714Y-129100000D01*
X247480952Y-129052381D01*
X247719048Y-129052381D01*
X247814286Y-129100000D01*
X247861905Y-129147619D01*
X247909524Y-129242857D01*
X247909524Y-129338095D01*
X247861905Y-129480952D01*
X247290476Y-130052381D01*
X247909524Y-130052381D01*
X248242857Y-129052381D02*
X248861905Y-129052381D01*
X248528571Y-129433333D01*
X248671429Y-129433333D01*
X248766667Y-129480952D01*
X248814286Y-129528571D01*
X248861905Y-129623810D01*
X248861905Y-129861905D01*
X248814286Y-129957143D01*
X248766667Y-130004762D01*
X248671429Y-130052381D01*
X248385714Y-130052381D01*
X248290476Y-130004762D01*
X248242857Y-129957143D01*
X249242857Y-129147619D02*
X249290476Y-129100000D01*
X249385714Y-129052381D01*
X249623810Y-129052381D01*
X249719048Y-129100000D01*
X249766667Y-129147619D01*
X249814286Y-129242857D01*
X249814286Y-129338095D01*
X249766667Y-129480952D01*
X249195238Y-130052381D01*
X249814286Y-130052381D01*
X254004762Y-146157143D02*
X254052381Y-146014286D01*
X254052381Y-145776190D01*
X254004762Y-145680952D01*
X253957143Y-145633333D01*
X253861905Y-145585714D01*
X253766667Y-145585714D01*
X253671429Y-145633333D01*
X253623810Y-145680952D01*
X253576190Y-145776190D01*
X253528571Y-145966667D01*
X253480952Y-146061905D01*
X253433333Y-146109524D01*
X253338095Y-146157143D01*
X253242857Y-146157143D01*
X253147619Y-146109524D01*
X253100000Y-146061905D01*
X253052381Y-145966667D01*
X253052381Y-145728571D01*
X253100000Y-145585714D01*
X253052381Y-145252381D02*
X254052381Y-145014286D01*
X253338095Y-144823809D01*
X254052381Y-144633333D01*
X253052381Y-144395238D01*
X254052381Y-144014286D02*
X253052381Y-144014286D01*
X253052381Y-143776191D01*
X253100000Y-143633333D01*
X253195238Y-143538095D01*
X253290476Y-143490476D01*
X253480952Y-143442857D01*
X253623810Y-143442857D01*
X253814286Y-143490476D01*
X253909524Y-143538095D01*
X254004762Y-143633333D01*
X254052381Y-143776191D01*
X254052381Y-144014286D01*
X262833334Y-132052381D02*
X262500000Y-131576190D01*
X262261905Y-132052381D02*
X262261905Y-131052381D01*
X262642858Y-131052381D01*
X262738096Y-131100000D01*
X262785715Y-131147619D01*
X262833334Y-131242857D01*
X262833334Y-131385714D01*
X262785715Y-131480952D01*
X262738096Y-131528571D01*
X262642858Y-131576190D01*
X262261905Y-131576190D01*
X263785715Y-132052381D02*
X263214286Y-132052381D01*
X263500000Y-132052381D02*
X263500000Y-131052381D01*
X263404762Y-131195238D01*
X263309524Y-131290476D01*
X263214286Y-131338095D01*
X236833334Y-153852381D02*
X236500000Y-153376190D01*
X236261905Y-153852381D02*
X236261905Y-152852381D01*
X236642858Y-152852381D01*
X236738096Y-152900000D01*
X236785715Y-152947619D01*
X236833334Y-153042857D01*
X236833334Y-153185714D01*
X236785715Y-153280952D01*
X236738096Y-153328571D01*
X236642858Y-153376190D01*
X236261905Y-153376190D01*
X237214286Y-152947619D02*
X237261905Y-152900000D01*
X237357143Y-152852381D01*
X237595239Y-152852381D01*
X237690477Y-152900000D01*
X237738096Y-152947619D01*
X237785715Y-153042857D01*
X237785715Y-153138095D01*
X237738096Y-153280952D01*
X237166667Y-153852381D01*
X237785715Y-153852381D01*
X225790476Y-138852381D02*
X226457143Y-139852381D01*
X226457143Y-138852381D02*
X225790476Y-139852381D01*
X227361905Y-139852381D02*
X226790476Y-139852381D01*
X227076190Y-139852381D02*
X227076190Y-138852381D01*
X226980952Y-138995238D01*
X226885714Y-139090476D01*
X226790476Y-139138095D01*
X281866667Y-148252381D02*
X281866667Y-148966667D01*
X281819047Y-149109524D01*
X281723809Y-149204762D01*
X281580952Y-149252381D01*
X281485714Y-149252381D01*
X282866667Y-149252381D02*
X282295238Y-149252381D01*
X282580952Y-149252381D02*
X282580952Y-148252381D01*
X282485714Y-148395238D01*
X282390476Y-148490476D01*
X282295238Y-148538095D01*
X269357143Y-131852381D02*
X269023809Y-131376190D01*
X268785714Y-131852381D02*
X268785714Y-130852381D01*
X269166667Y-130852381D01*
X269261905Y-130900000D01*
X269309524Y-130947619D01*
X269357143Y-131042857D01*
X269357143Y-131185714D01*
X269309524Y-131280952D01*
X269261905Y-131328571D01*
X269166667Y-131376190D01*
X268785714Y-131376190D01*
X270071429Y-130852381D02*
X270071429Y-131566667D01*
X270023809Y-131709524D01*
X269928571Y-131804762D01*
X269785714Y-131852381D01*
X269690476Y-131852381D01*
X270547619Y-131471429D02*
X271309524Y-131471429D01*
X272214286Y-131185714D02*
X272214286Y-131852381D01*
X271976190Y-130804762D02*
X271738095Y-131519048D01*
X272357143Y-131519048D01*
X273214286Y-130852381D02*
X272738095Y-130852381D01*
X272690476Y-131328571D01*
X272738095Y-131280952D01*
X272833333Y-131233333D01*
X273071429Y-131233333D01*
X273166667Y-131280952D01*
X273214286Y-131328571D01*
X273261905Y-131423810D01*
X273261905Y-131661905D01*
X273214286Y-131757143D01*
X273166667Y-131804762D01*
X273071429Y-131852381D01*
X272833333Y-131852381D01*
X272738095Y-131804762D01*
X272690476Y-131757143D01*
X258438095Y-131052381D02*
X258438095Y-131861905D01*
X258485714Y-131957143D01*
X258533333Y-132004762D01*
X258628571Y-132052381D01*
X258819048Y-132052381D01*
X258914286Y-132004762D01*
X258961905Y-131957143D01*
X259009524Y-131861905D01*
X259009524Y-131052381D01*
X259438095Y-131147619D02*
X259485714Y-131100000D01*
X259580952Y-131052381D01*
X259819048Y-131052381D01*
X259914286Y-131100000D01*
X259961905Y-131147619D01*
X260009524Y-131242857D01*
X260009524Y-131338095D01*
X259961905Y-131480952D01*
X259390476Y-132052381D01*
X260009524Y-132052381D01*
M02*
