G04 #@! TF.FileFunction,Soldermask,Top*
%FSLAX46Y46*%
G04 Gerber Fmt 4.6, Leading zero omitted, Abs format (unit mm)*
G04 Created by KiCad (PCBNEW (2015-01-16 BZR 5376)-product) date 3/7/2015 9:36:40 PM*
%MOMM*%
G01*
G04 APERTURE LIST*
%ADD10C,0.149860*%
%ADD11R,1.000000X0.250000*%
%ADD12R,0.250000X1.000000*%
%ADD13R,1.600000X2.000000*%
%ADD14R,2.000000X1.600000*%
%ADD15R,2.000000X1.700000*%
%ADD16R,2.200000X1.270000*%
%ADD17R,1.998980X5.499100*%
%ADD18R,2.540000X0.635000*%
%ADD19R,5.207000X4.521200*%
%ADD20R,0.600000X1.550000*%
%ADD21R,7.620000X2.540000*%
%ADD22R,1.524000X4.318000*%
%ADD23R,1.500000X1.300000*%
G04 APERTURE END LIST*
D10*
D11*
X238250000Y-141050000D03*
X238250000Y-141550000D03*
X238250000Y-142050000D03*
X238250000Y-142550000D03*
X238250000Y-143050000D03*
X238250000Y-143550000D03*
X238250000Y-144050000D03*
X238250000Y-144550000D03*
X238250000Y-145050000D03*
X238250000Y-145550000D03*
X238250000Y-146050000D03*
X238250000Y-146550000D03*
X238250000Y-147050000D03*
X238250000Y-147550000D03*
X238250000Y-148050000D03*
X238250000Y-148550000D03*
D12*
X240200000Y-150500000D03*
X240700000Y-150500000D03*
X241200000Y-150500000D03*
X241700000Y-150500000D03*
X242200000Y-150500000D03*
X242700000Y-150500000D03*
X243200000Y-150500000D03*
X243700000Y-150500000D03*
X244200000Y-150500000D03*
X244700000Y-150500000D03*
X245200000Y-150500000D03*
X245700000Y-150500000D03*
X246200000Y-150500000D03*
X246700000Y-150500000D03*
X247200000Y-150500000D03*
X247700000Y-150500000D03*
D11*
X249650000Y-148550000D03*
X249650000Y-148050000D03*
X249650000Y-147550000D03*
X249650000Y-147050000D03*
X249650000Y-146550000D03*
X249650000Y-146050000D03*
X249650000Y-145550000D03*
X249650000Y-145050000D03*
X249650000Y-144550000D03*
X249650000Y-144050000D03*
X249650000Y-143550000D03*
X249650000Y-143050000D03*
X249650000Y-142550000D03*
X249650000Y-142050000D03*
X249650000Y-141550000D03*
X249650000Y-141050000D03*
D12*
X247700000Y-139100000D03*
X247200000Y-139100000D03*
X246700000Y-139100000D03*
X246200000Y-139100000D03*
X245700000Y-139100000D03*
X245200000Y-139100000D03*
X244700000Y-139100000D03*
X244200000Y-139100000D03*
X243700000Y-139100000D03*
X243200000Y-139100000D03*
X242700000Y-139100000D03*
X242200000Y-139100000D03*
X241700000Y-139100000D03*
X241200000Y-139100000D03*
X240700000Y-139100000D03*
X240200000Y-139100000D03*
D13*
X234200000Y-143550000D03*
X234200000Y-139550000D03*
X234200000Y-146300000D03*
X234200000Y-150300000D03*
X224700000Y-134550000D03*
X224700000Y-130550000D03*
D14*
X250450000Y-152800000D03*
X246450000Y-152800000D03*
D13*
X243950000Y-134550000D03*
X243950000Y-130550000D03*
X241200000Y-134550000D03*
X241200000Y-130550000D03*
X238450000Y-134550000D03*
X238450000Y-130550000D03*
X235700000Y-134550000D03*
X235700000Y-130550000D03*
X232950000Y-134550000D03*
X232950000Y-130550000D03*
X230200000Y-134550000D03*
X230200000Y-130550000D03*
X227450000Y-134550000D03*
X227450000Y-130550000D03*
D14*
X225600000Y-148000000D03*
X221600000Y-148000000D03*
X225700000Y-152400000D03*
X221700000Y-152400000D03*
D15*
X221600000Y-143800000D03*
X225600000Y-143800000D03*
D16*
X247300000Y-133800000D03*
X250600000Y-131260000D03*
X250600000Y-136340000D03*
X257350000Y-139700000D03*
X254050000Y-142240000D03*
X257350000Y-144780000D03*
X257350000Y-149860000D03*
X254050000Y-152400000D03*
X254050000Y-147320000D03*
D15*
X260950000Y-133550000D03*
X264950000Y-133550000D03*
X243450000Y-152800000D03*
X239450000Y-152800000D03*
D17*
X229950000Y-140101000D03*
X229950000Y-149499000D03*
D18*
X265950000Y-144550000D03*
X265950000Y-143280000D03*
X265950000Y-142010000D03*
X265950000Y-140740000D03*
X265950000Y-139470000D03*
X265950000Y-138200000D03*
X265950000Y-136930000D03*
X265950000Y-135660000D03*
D19*
X277748300Y-131659500D03*
X277748300Y-148233000D03*
D20*
X253545000Y-137000000D03*
X254815000Y-137000000D03*
X256085000Y-137000000D03*
X257355000Y-137000000D03*
X257355000Y-131600000D03*
X256085000Y-131600000D03*
X254815000Y-131600000D03*
X253545000Y-131600000D03*
D21*
X278950000Y-152550000D03*
D22*
X260450000Y-151550000D03*
X262950000Y-151550000D03*
X265450000Y-151550000D03*
X267950000Y-151550000D03*
X270450000Y-151550000D03*
X272950000Y-151550000D03*
D23*
X221350000Y-136800000D03*
X224050000Y-136800000D03*
X221350000Y-138800000D03*
X224050000Y-138800000D03*
D15*
X221450000Y-141050000D03*
X225450000Y-141050000D03*
M02*
