G04 #@! TF.FileFunction,Legend,Bot*
%FSLAX46Y46*%
G04 Gerber Fmt 4.6, Leading zero omitted, Abs format (unit mm)*
G04 Created by KiCad (PCBNEW (2015-01-16 BZR 5376)-product) date 3/7/2015 11:44:40 PM*
%MOMM*%
G01*
G04 APERTURE LIST*
%ADD10C,0.149860*%
%ADD11C,0.100000*%
%ADD12C,0.177800*%
%ADD13C,0.150000*%
G04 APERTURE END LIST*
D10*
D11*
X257985715Y-131002381D02*
X257985715Y-130002381D01*
X257652381Y-130716667D01*
X257319048Y-130002381D01*
X257319048Y-131002381D01*
X256890477Y-130716667D02*
X256414286Y-130716667D01*
X256985715Y-131002381D02*
X256652382Y-130002381D01*
X256319048Y-131002381D01*
X256128572Y-130002381D02*
X255795239Y-131002381D01*
X255461905Y-130002381D01*
X254557143Y-131002381D02*
X254890477Y-130526190D01*
X255128572Y-131002381D02*
X255128572Y-130002381D01*
X254747619Y-130002381D01*
X254652381Y-130050000D01*
X254604762Y-130097619D01*
X254557143Y-130192857D01*
X254557143Y-130335714D01*
X254604762Y-130430952D01*
X254652381Y-130478571D01*
X254747619Y-130526190D01*
X255128572Y-130526190D01*
X254128572Y-131002381D02*
X254128572Y-130002381D01*
X253080953Y-130907143D02*
X253128572Y-130954762D01*
X253271429Y-131002381D01*
X253366667Y-131002381D01*
X253509525Y-130954762D01*
X253604763Y-130859524D01*
X253652382Y-130764286D01*
X253700001Y-130573810D01*
X253700001Y-130430952D01*
X253652382Y-130240476D01*
X253604763Y-130145238D01*
X253509525Y-130050000D01*
X253366667Y-130002381D01*
X253271429Y-130002381D01*
X253128572Y-130050000D01*
X253080953Y-130097619D01*
X251985715Y-130002381D02*
X251747620Y-131002381D01*
X251557143Y-130288095D01*
X251366667Y-131002381D01*
X251128572Y-130002381D01*
X250747620Y-131002381D02*
X250747620Y-130002381D01*
X250319048Y-131002381D02*
X250319048Y-130478571D01*
X250366667Y-130383333D01*
X250461905Y-130335714D01*
X250604763Y-130335714D01*
X250700001Y-130383333D01*
X250747620Y-130430952D01*
X249461905Y-130954762D02*
X249557143Y-131002381D01*
X249747620Y-131002381D01*
X249842858Y-130954762D01*
X249890477Y-130859524D01*
X249890477Y-130478571D01*
X249842858Y-130383333D01*
X249747620Y-130335714D01*
X249557143Y-130335714D01*
X249461905Y-130383333D01*
X249414286Y-130478571D01*
X249414286Y-130573810D01*
X249890477Y-130669048D01*
X248604762Y-130954762D02*
X248700000Y-131002381D01*
X248890477Y-131002381D01*
X248985715Y-130954762D01*
X249033334Y-130859524D01*
X249033334Y-130478571D01*
X248985715Y-130383333D01*
X248890477Y-130335714D01*
X248700000Y-130335714D01*
X248604762Y-130383333D01*
X248557143Y-130478571D01*
X248557143Y-130573810D01*
X249033334Y-130669048D01*
X247985715Y-131002381D02*
X248080953Y-130954762D01*
X248128572Y-130859524D01*
X248128572Y-130002381D01*
X246842857Y-131002381D02*
X246842857Y-130002381D01*
X246461904Y-130002381D01*
X246366666Y-130050000D01*
X246319047Y-130097619D01*
X246271428Y-130192857D01*
X246271428Y-130335714D01*
X246319047Y-130430952D01*
X246366666Y-130478571D01*
X246461904Y-130526190D01*
X246842857Y-130526190D01*
X245700000Y-131002381D02*
X245795238Y-130954762D01*
X245842857Y-130907143D01*
X245890476Y-130811905D01*
X245890476Y-130526190D01*
X245842857Y-130430952D01*
X245795238Y-130383333D01*
X245700000Y-130335714D01*
X245557142Y-130335714D01*
X245461904Y-130383333D01*
X245414285Y-130430952D01*
X245366666Y-130526190D01*
X245366666Y-130811905D01*
X245414285Y-130907143D01*
X245461904Y-130954762D01*
X245557142Y-131002381D01*
X245700000Y-131002381D01*
X244509523Y-131002381D02*
X244509523Y-130002381D01*
X244509523Y-130954762D02*
X244604761Y-131002381D01*
X244795238Y-131002381D01*
X244890476Y-130954762D01*
X244938095Y-130907143D01*
X244985714Y-130811905D01*
X244985714Y-130526190D01*
X244938095Y-130430952D01*
X244890476Y-130383333D01*
X244795238Y-130335714D01*
X244604761Y-130335714D01*
X244509523Y-130383333D01*
X242938094Y-130478571D02*
X242795237Y-130526190D01*
X242747618Y-130573810D01*
X242699999Y-130669048D01*
X242699999Y-130811905D01*
X242747618Y-130907143D01*
X242795237Y-130954762D01*
X242890475Y-131002381D01*
X243271428Y-131002381D01*
X243271428Y-130002381D01*
X242938094Y-130002381D01*
X242842856Y-130050000D01*
X242795237Y-130097619D01*
X242747618Y-130192857D01*
X242747618Y-130288095D01*
X242795237Y-130383333D01*
X242842856Y-130430952D01*
X242938094Y-130478571D01*
X243271428Y-130478571D01*
X242128571Y-131002381D02*
X242223809Y-130954762D01*
X242271428Y-130907143D01*
X242319047Y-130811905D01*
X242319047Y-130526190D01*
X242271428Y-130430952D01*
X242223809Y-130383333D01*
X242128571Y-130335714D01*
X241985713Y-130335714D01*
X241890475Y-130383333D01*
X241842856Y-130430952D01*
X241795237Y-130526190D01*
X241795237Y-130811905D01*
X241842856Y-130907143D01*
X241890475Y-130954762D01*
X241985713Y-131002381D01*
X242128571Y-131002381D01*
X240938094Y-131002381D02*
X240938094Y-130478571D01*
X240985713Y-130383333D01*
X241080951Y-130335714D01*
X241271428Y-130335714D01*
X241366666Y-130383333D01*
X240938094Y-130954762D02*
X241033332Y-131002381D01*
X241271428Y-131002381D01*
X241366666Y-130954762D01*
X241414285Y-130859524D01*
X241414285Y-130764286D01*
X241366666Y-130669048D01*
X241271428Y-130621429D01*
X241033332Y-130621429D01*
X240938094Y-130573810D01*
X240461904Y-131002381D02*
X240461904Y-130335714D01*
X240461904Y-130526190D02*
X240414285Y-130430952D01*
X240366666Y-130383333D01*
X240271428Y-130335714D01*
X240176189Y-130335714D01*
X239414284Y-131002381D02*
X239414284Y-130002381D01*
X239414284Y-130954762D02*
X239509522Y-131002381D01*
X239699999Y-131002381D01*
X239795237Y-130954762D01*
X239842856Y-130907143D01*
X239890475Y-130811905D01*
X239890475Y-130526190D01*
X239842856Y-130430952D01*
X239795237Y-130383333D01*
X239699999Y-130335714D01*
X239509522Y-130335714D01*
X239414284Y-130383333D01*
X254414286Y-131502381D02*
X254080953Y-132502381D01*
X253747619Y-131502381D01*
X253414286Y-132407143D02*
X253366667Y-132454762D01*
X253414286Y-132502381D01*
X253461905Y-132454762D01*
X253414286Y-132407143D01*
X253414286Y-132502381D01*
X252414286Y-132502381D02*
X252985715Y-132502381D01*
X252700001Y-132502381D02*
X252700001Y-131502381D01*
X252795239Y-131645238D01*
X252890477Y-131740476D01*
X252985715Y-131788095D01*
X250557143Y-131502381D02*
X249938095Y-131502381D01*
X250271429Y-131883333D01*
X250128571Y-131883333D01*
X250033333Y-131930952D01*
X249985714Y-131978571D01*
X249938095Y-132073810D01*
X249938095Y-132311905D01*
X249985714Y-132407143D01*
X250033333Y-132454762D01*
X250128571Y-132502381D01*
X250414286Y-132502381D01*
X250509524Y-132454762D01*
X250557143Y-132407143D01*
X248795238Y-131454762D02*
X249652381Y-132740476D01*
X248557143Y-131502381D02*
X247890476Y-131502381D01*
X248319048Y-132502381D01*
X246795238Y-131454762D02*
X247652381Y-132740476D01*
X246509524Y-131597619D02*
X246461905Y-131550000D01*
X246366667Y-131502381D01*
X246128571Y-131502381D01*
X246033333Y-131550000D01*
X245985714Y-131597619D01*
X245938095Y-131692857D01*
X245938095Y-131788095D01*
X245985714Y-131930952D01*
X246557143Y-132502381D01*
X245938095Y-132502381D01*
X245319048Y-131502381D02*
X245223809Y-131502381D01*
X245128571Y-131550000D01*
X245080952Y-131597619D01*
X245033333Y-131692857D01*
X244985714Y-131883333D01*
X244985714Y-132121429D01*
X245033333Y-132311905D01*
X245080952Y-132407143D01*
X245128571Y-132454762D01*
X245223809Y-132502381D01*
X245319048Y-132502381D01*
X245414286Y-132454762D01*
X245461905Y-132407143D01*
X245509524Y-132311905D01*
X245557143Y-132121429D01*
X245557143Y-131883333D01*
X245509524Y-131692857D01*
X245461905Y-131597619D01*
X245414286Y-131550000D01*
X245319048Y-131502381D01*
X244033333Y-132502381D02*
X244604762Y-132502381D01*
X244319048Y-132502381D02*
X244319048Y-131502381D01*
X244414286Y-131645238D01*
X244509524Y-131740476D01*
X244604762Y-131788095D01*
X243128571Y-131502381D02*
X243604762Y-131502381D01*
X243652381Y-131978571D01*
X243604762Y-131930952D01*
X243509524Y-131883333D01*
X243271428Y-131883333D01*
X243176190Y-131930952D01*
X243128571Y-131978571D01*
X243080952Y-132073810D01*
X243080952Y-132311905D01*
X243128571Y-132407143D01*
X243176190Y-132454762D01*
X243271428Y-132502381D01*
X243509524Y-132502381D01*
X243604762Y-132454762D01*
X243652381Y-132407143D01*
D12*
X281942000Y-141275905D02*
X281893619Y-141179143D01*
X281893619Y-141034000D01*
X281942000Y-140888858D01*
X282038762Y-140792096D01*
X282135524Y-140743715D01*
X282329048Y-140695334D01*
X282474190Y-140695334D01*
X282667714Y-140743715D01*
X282764476Y-140792096D01*
X282861238Y-140888858D01*
X282909619Y-141034000D01*
X282909619Y-141130762D01*
X282861238Y-141275905D01*
X282812857Y-141324286D01*
X282474190Y-141324286D01*
X282474190Y-141130762D01*
X282909619Y-141759715D02*
X281893619Y-141759715D01*
X282909619Y-142340286D01*
X281893619Y-142340286D01*
X282909619Y-142824096D02*
X281893619Y-142824096D01*
X281893619Y-143066001D01*
X281942000Y-143211143D01*
X282038762Y-143307905D01*
X282135524Y-143356286D01*
X282329048Y-143404667D01*
X282474190Y-143404667D01*
X282667714Y-143356286D01*
X282764476Y-143307905D01*
X282861238Y-143211143D01*
X282909619Y-143066001D01*
X282909619Y-142824096D01*
X276442000Y-140275905D02*
X276393619Y-140179143D01*
X276393619Y-140034000D01*
X276442000Y-139888858D01*
X276538762Y-139792096D01*
X276635524Y-139743715D01*
X276829048Y-139695334D01*
X276974190Y-139695334D01*
X277167714Y-139743715D01*
X277264476Y-139792096D01*
X277361238Y-139888858D01*
X277409619Y-140034000D01*
X277409619Y-140130762D01*
X277361238Y-140275905D01*
X277312857Y-140324286D01*
X276974190Y-140324286D01*
X276974190Y-140130762D01*
X277409619Y-140759715D02*
X276393619Y-140759715D01*
X277409619Y-141340286D01*
X276393619Y-141340286D01*
X277409619Y-141824096D02*
X276393619Y-141824096D01*
X276393619Y-142066001D01*
X276442000Y-142211143D01*
X276538762Y-142307905D01*
X276635524Y-142356286D01*
X276829048Y-142404667D01*
X276974190Y-142404667D01*
X277167714Y-142356286D01*
X277264476Y-142307905D01*
X277361238Y-142211143D01*
X277409619Y-142066001D01*
X277409619Y-141824096D01*
X265561138Y-149469620D02*
X265609519Y-149614763D01*
X265609519Y-149856667D01*
X265561138Y-149953429D01*
X265512757Y-150001810D01*
X265415995Y-150050191D01*
X265319233Y-150050191D01*
X265222471Y-150001810D01*
X265174090Y-149953429D01*
X265125710Y-149856667D01*
X265077329Y-149663144D01*
X265028948Y-149566382D01*
X264980567Y-149518001D01*
X264883805Y-149469620D01*
X264787043Y-149469620D01*
X264690281Y-149518001D01*
X264641900Y-149566382D01*
X264593519Y-149663144D01*
X264593519Y-149905048D01*
X264641900Y-150050191D01*
X264932186Y-150388858D02*
X265609519Y-150630763D01*
X264932186Y-150872667D02*
X265609519Y-150630763D01*
X265851424Y-150534001D01*
X265899805Y-150485620D01*
X265948186Y-150388858D01*
X265609519Y-151840286D02*
X265125710Y-151501620D01*
X265609519Y-151259715D02*
X264593519Y-151259715D01*
X264593519Y-151646762D01*
X264641900Y-151743524D01*
X264690281Y-151791905D01*
X264787043Y-151840286D01*
X264932186Y-151840286D01*
X265028948Y-151791905D01*
X265077329Y-151743524D01*
X265125710Y-151646762D01*
X265125710Y-151259715D01*
X265561138Y-152662762D02*
X265609519Y-152566000D01*
X265609519Y-152372477D01*
X265561138Y-152275715D01*
X265464376Y-152227334D01*
X265077329Y-152227334D01*
X264980567Y-152275715D01*
X264932186Y-152372477D01*
X264932186Y-152566000D01*
X264980567Y-152662762D01*
X265077329Y-152711143D01*
X265174090Y-152711143D01*
X265270852Y-152227334D01*
X264932186Y-153146572D02*
X265609519Y-153146572D01*
X265028948Y-153146572D02*
X264980567Y-153194953D01*
X264932186Y-153291715D01*
X264932186Y-153436857D01*
X264980567Y-153533619D01*
X265077329Y-153582000D01*
X265609519Y-153582000D01*
X267209719Y-150921048D02*
X267209719Y-150340477D01*
X267209719Y-150630763D02*
X266193719Y-150630763D01*
X266338862Y-150534001D01*
X266435624Y-150437239D01*
X266484005Y-150340477D01*
X266290481Y-151308096D02*
X266242100Y-151356477D01*
X266193719Y-151453239D01*
X266193719Y-151695143D01*
X266242100Y-151791905D01*
X266290481Y-151840286D01*
X266387243Y-151888667D01*
X266484005Y-151888667D01*
X266629148Y-151840286D01*
X267209719Y-151259715D01*
X267209719Y-151888667D01*
X266193719Y-152178953D02*
X267209719Y-152517620D01*
X266193719Y-152856286D01*
X266877429Y-129792286D02*
X266925810Y-129937429D01*
X266974190Y-129985810D01*
X267070952Y-130034191D01*
X267216095Y-130034191D01*
X267312857Y-129985810D01*
X267361238Y-129937429D01*
X267409619Y-129840667D01*
X267409619Y-129453620D01*
X266393619Y-129453620D01*
X266393619Y-129792286D01*
X266442000Y-129889048D01*
X266490381Y-129937429D01*
X266587143Y-129985810D01*
X266683905Y-129985810D01*
X266780667Y-129937429D01*
X266829048Y-129889048D01*
X266877429Y-129792286D01*
X266877429Y-129453620D01*
X267409619Y-130905048D02*
X266877429Y-130905048D01*
X266780667Y-130856667D01*
X266732286Y-130759905D01*
X266732286Y-130566382D01*
X266780667Y-130469620D01*
X267361238Y-130905048D02*
X267409619Y-130808286D01*
X267409619Y-130566382D01*
X267361238Y-130469620D01*
X267264476Y-130421239D01*
X267167714Y-130421239D01*
X267070952Y-130469620D01*
X267022571Y-130566382D01*
X267022571Y-130808286D01*
X266974190Y-130905048D01*
X266732286Y-131243715D02*
X266732286Y-131630763D01*
X266393619Y-131388858D02*
X267264476Y-131388858D01*
X267361238Y-131437239D01*
X267409619Y-131534001D01*
X267409619Y-131630763D01*
X266732286Y-131824286D02*
X266732286Y-132211334D01*
X266393619Y-131969429D02*
X267264476Y-131969429D01*
X267361238Y-132017810D01*
X267409619Y-132114572D01*
X267409619Y-132211334D01*
X267409619Y-133856285D02*
X267409619Y-133275714D01*
X267409619Y-133566000D02*
X266393619Y-133566000D01*
X266538762Y-133469238D01*
X266635524Y-133372476D01*
X266683905Y-133275714D01*
X266490381Y-134243333D02*
X266442000Y-134291714D01*
X266393619Y-134388476D01*
X266393619Y-134630380D01*
X266442000Y-134727142D01*
X266490381Y-134775523D01*
X266587143Y-134823904D01*
X266683905Y-134823904D01*
X266829048Y-134775523D01*
X267409619Y-134194952D01*
X267409619Y-134823904D01*
X266393619Y-135114190D02*
X267409619Y-135452857D01*
X266393619Y-135791523D01*
D13*
X261700000Y-137125000D02*
X263700000Y-137125000D01*
X263700000Y-134975000D02*
X261700000Y-134975000D01*
X262200000Y-141475000D02*
X260200000Y-141475000D01*
X260200000Y-143625000D02*
X262200000Y-143625000D01*
X267025000Y-143800000D02*
X267025000Y-141800000D01*
X264875000Y-141800000D02*
X264875000Y-143800000D01*
X262000800Y-137550180D02*
X261299760Y-137550180D01*
X261299760Y-137550180D02*
X261299760Y-137799100D01*
X261299760Y-140349160D02*
X261299760Y-140549820D01*
X261299760Y-140549820D02*
X262000800Y-140549820D01*
X270149200Y-143049820D02*
X270850240Y-143049820D01*
X270850240Y-143049820D02*
X270850240Y-142800900D01*
X270850240Y-140250840D02*
X270850240Y-140050180D01*
X270850240Y-140050180D02*
X270149200Y-140050180D01*
X225300000Y-134050000D02*
X224950000Y-134050000D01*
X225300000Y-134450000D02*
X224950000Y-134450000D01*
X224950000Y-134450000D02*
X224950000Y-130250000D01*
X224950000Y-130250000D02*
X224700000Y-130250000D01*
X224700000Y-130250000D02*
X224700000Y-134450000D01*
X224700000Y-134450000D02*
X224950000Y-134450000D01*
X234350000Y-131800000D02*
X234350000Y-131950000D01*
X234350000Y-131950000D02*
X234700000Y-131950000D01*
X234050000Y-131800000D02*
X234350000Y-131800000D01*
X234350000Y-131800000D02*
X234350000Y-131600000D01*
X234350000Y-131600000D02*
X234750000Y-131600000D01*
X226650000Y-135850000D02*
X225400000Y-136600000D01*
X225950000Y-136600000D02*
G75*
G03X225950000Y-136600000I-550000J0D01*
G01*
X228700000Y-136600000D02*
G75*
G03X228700000Y-136600000I-550000J0D01*
G01*
X233100000Y-136650000D02*
G75*
G03X233100000Y-136650000I-550000J0D01*
G01*
X226650000Y-135850000D02*
X228150000Y-136600000D01*
X229200000Y-135100000D02*
X226650000Y-135850000D01*
X229150000Y-135100000D02*
X232550000Y-136650000D01*
X228604951Y-131000000D02*
G75*
G03X228604951Y-131000000I-254951J0D01*
G01*
X228700000Y-131450000D02*
X227400000Y-131450000D01*
X227400000Y-131450000D02*
X227400000Y-130550000D01*
X227400000Y-130550000D02*
X228700000Y-130550000D01*
X228700000Y-130550000D02*
X228700000Y-131450000D01*
X228000000Y-133900000D02*
X228000000Y-131500000D01*
X229950000Y-133900000D02*
X232250000Y-130600000D01*
X232250000Y-130600000D02*
X234050000Y-131800000D01*
X225300000Y-133900000D02*
X225300000Y-135100000D01*
X225300000Y-135100000D02*
X232750000Y-135100000D01*
X232750000Y-135100000D02*
X232750000Y-133900000D01*
X232750000Y-133900000D02*
X225300000Y-133900000D01*
X221531220Y-152239860D02*
X221170540Y-153710520D01*
X221170540Y-153710520D02*
X220891140Y-152648800D01*
X220891140Y-152648800D02*
X220581260Y-153720680D01*
X220581260Y-153720680D02*
X220240900Y-152270340D01*
X222951080Y-152930740D02*
X222161140Y-152920580D01*
X222161140Y-152920580D02*
X222150980Y-152930740D01*
X222150980Y-152930740D02*
X222150980Y-152920580D01*
X222110340Y-152209380D02*
X222110340Y-153751160D01*
X222999340Y-152199220D02*
X222999340Y-153768940D01*
X222999340Y-153768940D02*
X222989180Y-153758780D01*
X223550520Y-152300820D02*
X223901040Y-152219540D01*
X223901040Y-152219540D02*
X224221080Y-152209380D01*
X224221080Y-152209380D02*
X224459840Y-152410040D01*
X224459840Y-152410040D02*
X224490320Y-152679280D01*
X224490320Y-152679280D02*
X224249020Y-152920580D01*
X224249020Y-152920580D02*
X223860400Y-153050120D01*
X223860400Y-153050120D02*
X223680060Y-153210140D01*
X223680060Y-153210140D02*
X223639420Y-153509860D01*
X223639420Y-153509860D02*
X223870560Y-153730840D01*
X223870560Y-153730840D02*
X224190600Y-153758780D01*
X224190600Y-153758780D02*
X224541120Y-153649560D01*
X225579980Y-152199220D02*
X225828900Y-152219540D01*
X225828900Y-152219540D02*
X226070200Y-152460840D01*
X226070200Y-152460840D02*
X226159100Y-152951060D01*
X226159100Y-152951060D02*
X226131160Y-153299040D01*
X226131160Y-153299040D02*
X225930500Y-153619080D01*
X225930500Y-153619080D02*
X225679040Y-153741000D01*
X225679040Y-153741000D02*
X225369160Y-153669880D01*
X225369160Y-153669880D02*
X225150720Y-153489540D01*
X225150720Y-153489540D02*
X225079600Y-153029800D01*
X225079600Y-153029800D02*
X225130400Y-152620860D01*
X225130400Y-152620860D02*
X225239620Y-152338920D01*
X225239620Y-152338920D02*
X225600300Y-152209380D01*
X224980540Y-150479640D02*
X225239620Y-151040980D01*
X225239620Y-151040980D02*
X224701140Y-151559140D01*
X224701140Y-151559140D02*
X224180440Y-151289900D01*
X224180440Y-151289900D02*
X223901040Y-151449920D01*
X222460860Y-151429600D02*
X222130660Y-151239100D01*
X222130660Y-151239100D02*
X221691240Y-151569300D01*
X221691240Y-151569300D02*
X221218800Y-151079080D01*
X221218800Y-151079080D02*
X221500740Y-150599020D01*
X221500740Y-150599020D02*
X221310240Y-150129120D01*
X221310240Y-150129120D02*
X220700640Y-149941160D01*
X220700640Y-149941160D02*
X220700640Y-149260440D01*
X220700640Y-149260440D02*
X221259440Y-149120740D01*
X221259440Y-149120740D02*
X221460100Y-148549240D01*
X221460100Y-148549240D02*
X221190860Y-148079340D01*
X221190860Y-148079340D02*
X221660760Y-147568800D01*
X221660760Y-147568800D02*
X222178920Y-147830420D01*
X222178920Y-147830420D02*
X222648820Y-147629760D01*
X222648820Y-147629760D02*
X222819000Y-147088740D01*
X222819000Y-147088740D02*
X223509880Y-147070960D01*
X223509880Y-147070960D02*
X223720700Y-147619600D01*
X223720700Y-147619600D02*
X224139800Y-147789780D01*
X224139800Y-147789780D02*
X224690980Y-147520540D01*
X224690980Y-147520540D02*
X225209140Y-148048860D01*
X225209140Y-148048860D02*
X224960220Y-148589880D01*
X224960220Y-148589880D02*
X225130400Y-149069940D01*
X225130400Y-149069940D02*
X225679040Y-149169000D01*
X225679040Y-149169000D02*
X225689200Y-149870040D01*
X225689200Y-149870040D02*
X225130400Y-150070700D01*
X225130400Y-150070700D02*
X224990700Y-150469480D01*
X222849480Y-150449160D02*
X222549760Y-150299300D01*
X222549760Y-150299300D02*
X222349100Y-150101180D01*
X222349100Y-150101180D02*
X222199240Y-149699860D01*
X222199240Y-149699860D02*
X222199240Y-149301080D01*
X222199240Y-149301080D02*
X222349100Y-148950560D01*
X222349100Y-148950560D02*
X222801220Y-148600040D01*
X222801220Y-148600040D02*
X223250800Y-148549240D01*
X223250800Y-148549240D02*
X223649580Y-148650840D01*
X223649580Y-148650840D02*
X224050900Y-148998820D01*
X224050900Y-148998820D02*
X224200760Y-149450940D01*
X224200760Y-149450940D02*
X224149960Y-149948780D01*
X224149960Y-149948780D02*
X223901040Y-150251040D01*
X223901040Y-150251040D02*
X223550520Y-150449160D01*
X223550520Y-150449160D02*
X223901040Y-151449920D01*
X222849480Y-150449160D02*
X222450700Y-151449920D01*
X262766666Y-134652381D02*
X263100000Y-134176190D01*
X263338095Y-134652381D02*
X263338095Y-133652381D01*
X262957142Y-133652381D01*
X262861904Y-133700000D01*
X262814285Y-133747619D01*
X262766666Y-133842857D01*
X262766666Y-133985714D01*
X262814285Y-134080952D01*
X262861904Y-134128571D01*
X262957142Y-134176190D01*
X263338095Y-134176190D01*
X262433333Y-133652381D02*
X261814285Y-133652381D01*
X262147619Y-134033333D01*
X262004761Y-134033333D01*
X261909523Y-134080952D01*
X261861904Y-134128571D01*
X261814285Y-134223810D01*
X261814285Y-134461905D01*
X261861904Y-134557143D01*
X261909523Y-134604762D01*
X262004761Y-134652381D01*
X262290476Y-134652381D01*
X262385714Y-134604762D01*
X262433333Y-134557143D01*
X259966666Y-141052381D02*
X260300000Y-140576190D01*
X260538095Y-141052381D02*
X260538095Y-140052381D01*
X260157142Y-140052381D01*
X260061904Y-140100000D01*
X260014285Y-140147619D01*
X259966666Y-140242857D01*
X259966666Y-140385714D01*
X260014285Y-140480952D01*
X260061904Y-140528571D01*
X260157142Y-140576190D01*
X260538095Y-140576190D01*
X259109523Y-140385714D02*
X259109523Y-141052381D01*
X259347619Y-140004762D02*
X259585714Y-140719048D01*
X258966666Y-140719048D01*
X263966666Y-145452381D02*
X264300000Y-144976190D01*
X264538095Y-145452381D02*
X264538095Y-144452381D01*
X264157142Y-144452381D01*
X264061904Y-144500000D01*
X264014285Y-144547619D01*
X263966666Y-144642857D01*
X263966666Y-144785714D01*
X264014285Y-144880952D01*
X264061904Y-144928571D01*
X264157142Y-144976190D01*
X264538095Y-144976190D01*
X263061904Y-144452381D02*
X263538095Y-144452381D01*
X263585714Y-144928571D01*
X263538095Y-144880952D01*
X263442857Y-144833333D01*
X263204761Y-144833333D01*
X263109523Y-144880952D01*
X263061904Y-144928571D01*
X263014285Y-145023810D01*
X263014285Y-145261905D01*
X263061904Y-145357143D01*
X263109523Y-145404762D01*
X263204761Y-145452381D01*
X263442857Y-145452381D01*
X263538095Y-145404762D01*
X263585714Y-145357143D01*
X266361905Y-137852381D02*
X266361905Y-138661905D01*
X266314286Y-138757143D01*
X266266667Y-138804762D01*
X266171429Y-138852381D01*
X265980952Y-138852381D01*
X265885714Y-138804762D01*
X265838095Y-138757143D01*
X265790476Y-138661905D01*
X265790476Y-137852381D01*
X265409524Y-137852381D02*
X264790476Y-137852381D01*
X265123810Y-138233333D01*
X264980952Y-138233333D01*
X264885714Y-138280952D01*
X264838095Y-138328571D01*
X264790476Y-138423810D01*
X264790476Y-138661905D01*
X264838095Y-138757143D01*
X264885714Y-138804762D01*
X264980952Y-138852381D01*
X265266667Y-138852381D01*
X265361905Y-138804762D01*
X265409524Y-138757143D01*
X272961905Y-142452381D02*
X272961905Y-143261905D01*
X272914286Y-143357143D01*
X272866667Y-143404762D01*
X272771429Y-143452381D01*
X272580952Y-143452381D01*
X272485714Y-143404762D01*
X272438095Y-143357143D01*
X272390476Y-143261905D01*
X272390476Y-142452381D01*
X271485714Y-142785714D02*
X271485714Y-143452381D01*
X271723810Y-142404762D02*
X271961905Y-143119048D01*
X271342857Y-143119048D01*
X275604762Y-143552381D02*
X275652381Y-143695238D01*
X275652381Y-143933334D01*
X275604762Y-144028572D01*
X275557143Y-144076191D01*
X275461905Y-144123810D01*
X275366667Y-144123810D01*
X275271429Y-144076191D01*
X275223810Y-144028572D01*
X275176190Y-143933334D01*
X275128571Y-143742857D01*
X275080952Y-143647619D01*
X275033333Y-143600000D01*
X274938095Y-143552381D01*
X274842857Y-143552381D01*
X274747619Y-143600000D01*
X274700000Y-143647619D01*
X274652381Y-143742857D01*
X274652381Y-143980953D01*
X274700000Y-144123810D01*
X274985714Y-144457143D02*
X275652381Y-144695238D01*
X274985714Y-144933334D02*
X275652381Y-144695238D01*
X275890476Y-144600000D01*
X275938095Y-144552381D01*
X275985714Y-144457143D01*
X275652381Y-145885715D02*
X275176190Y-145552381D01*
X275652381Y-145314286D02*
X274652381Y-145314286D01*
X274652381Y-145695239D01*
X274700000Y-145790477D01*
X274747619Y-145838096D01*
X274842857Y-145885715D01*
X274985714Y-145885715D01*
X275080952Y-145838096D01*
X275128571Y-145790477D01*
X275176190Y-145695239D01*
X275176190Y-145314286D01*
X275604762Y-146695239D02*
X275652381Y-146600001D01*
X275652381Y-146409524D01*
X275604762Y-146314286D01*
X275509524Y-146266667D01*
X275128571Y-146266667D01*
X275033333Y-146314286D01*
X274985714Y-146409524D01*
X274985714Y-146600001D01*
X275033333Y-146695239D01*
X275128571Y-146742858D01*
X275223810Y-146742858D01*
X275319048Y-146266667D01*
X274985714Y-147171429D02*
X275652381Y-147171429D01*
X275080952Y-147171429D02*
X275033333Y-147219048D01*
X274985714Y-147314286D01*
X274985714Y-147457144D01*
X275033333Y-147552382D01*
X275128571Y-147600001D01*
X275652381Y-147600001D01*
X275328571Y-133280953D02*
X275376190Y-133423810D01*
X275423810Y-133471429D01*
X275519048Y-133519048D01*
X275661905Y-133519048D01*
X275757143Y-133471429D01*
X275804762Y-133423810D01*
X275852381Y-133328572D01*
X275852381Y-132947619D01*
X274852381Y-132947619D01*
X274852381Y-133280953D01*
X274900000Y-133376191D01*
X274947619Y-133423810D01*
X275042857Y-133471429D01*
X275138095Y-133471429D01*
X275233333Y-133423810D01*
X275280952Y-133376191D01*
X275328571Y-133280953D01*
X275328571Y-132947619D01*
X275566667Y-133900000D02*
X275566667Y-134376191D01*
X275852381Y-133804762D02*
X274852381Y-134138095D01*
X275852381Y-134471429D01*
X274852381Y-134661905D02*
X274852381Y-135233334D01*
X275852381Y-134947619D02*
X274852381Y-134947619D01*
X274852381Y-135423810D02*
X274852381Y-135995239D01*
X275852381Y-135709524D02*
X274852381Y-135709524D01*
X233247619Y-138702381D02*
X233247619Y-137702381D01*
X232819048Y-138654762D02*
X232676191Y-138702381D01*
X232438095Y-138702381D01*
X232342857Y-138654762D01*
X232295238Y-138607143D01*
X232247619Y-138511905D01*
X232247619Y-138416667D01*
X232295238Y-138321429D01*
X232342857Y-138273810D01*
X232438095Y-138226190D01*
X232628572Y-138178571D01*
X232723810Y-138130952D01*
X232771429Y-138083333D01*
X232819048Y-137988095D01*
X232819048Y-137892857D01*
X232771429Y-137797619D01*
X232723810Y-137750000D01*
X232628572Y-137702381D01*
X232390476Y-137702381D01*
X232247619Y-137750000D01*
X231819048Y-137702381D02*
X231819048Y-138511905D01*
X231771429Y-138607143D01*
X231723810Y-138654762D01*
X231628572Y-138702381D01*
X231438095Y-138702381D01*
X231342857Y-138654762D01*
X231295238Y-138607143D01*
X231247619Y-138511905D01*
X231247619Y-137702381D01*
X230009524Y-138702381D02*
X230009524Y-137702381D01*
X229676190Y-138416667D01*
X229342857Y-137702381D01*
X229342857Y-138702381D01*
X228914286Y-138416667D02*
X228438095Y-138416667D01*
X229009524Y-138702381D02*
X228676191Y-137702381D01*
X228342857Y-138702381D01*
X228152381Y-137702381D02*
X227819048Y-138702381D01*
X227485714Y-137702381D01*
X226580952Y-138702381D02*
X226914286Y-138226190D01*
X227152381Y-138702381D02*
X227152381Y-137702381D01*
X226771428Y-137702381D01*
X226676190Y-137750000D01*
X226628571Y-137797619D01*
X226580952Y-137892857D01*
X226580952Y-138035714D01*
X226628571Y-138130952D01*
X226676190Y-138178571D01*
X226771428Y-138226190D01*
X227152381Y-138226190D01*
X226152381Y-138702381D02*
X226152381Y-137702381D01*
X225104762Y-138607143D02*
X225152381Y-138654762D01*
X225295238Y-138702381D01*
X225390476Y-138702381D01*
X225533334Y-138654762D01*
X225628572Y-138559524D01*
X225676191Y-138464286D01*
X225723810Y-138273810D01*
X225723810Y-138130952D01*
X225676191Y-137940476D01*
X225628572Y-137845238D01*
X225533334Y-137750000D01*
X225390476Y-137702381D01*
X225295238Y-137702381D01*
X225152381Y-137750000D01*
X225104762Y-137797619D01*
M02*
