G04 #@! TF.FileFunction,Copper,L1,Top,Signal*
%FSLAX46Y46*%
G04 Gerber Fmt 4.6, Leading zero omitted, Abs format (unit mm)*
G04 Created by KiCad (PCBNEW (2015-01-16 BZR 5376)-product) date 3/7/2015 9:36:40 PM*
%MOMM*%
G01*
G04 APERTURE LIST*
%ADD10C,0.149860*%
%ADD11R,1.000000X0.250000*%
%ADD12R,0.250000X1.000000*%
%ADD13R,1.600000X2.000000*%
%ADD14R,2.000000X1.600000*%
%ADD15R,2.000000X1.700000*%
%ADD16R,2.200000X1.270000*%
%ADD17R,1.998980X5.499100*%
%ADD18R,2.540000X0.635000*%
%ADD19R,5.207000X4.521200*%
%ADD20R,0.600000X1.550000*%
%ADD21R,7.620000X2.540000*%
%ADD22R,1.524000X4.318000*%
%ADD23R,1.500000X1.300000*%
%ADD24C,0.889000*%
%ADD25C,0.203200*%
%ADD26C,1.016000*%
%ADD27C,0.177800*%
G04 APERTURE END LIST*
D10*
D11*
X238250000Y-141050000D03*
X238250000Y-141550000D03*
X238250000Y-142050000D03*
X238250000Y-142550000D03*
X238250000Y-143050000D03*
X238250000Y-143550000D03*
X238250000Y-144050000D03*
X238250000Y-144550000D03*
X238250000Y-145050000D03*
X238250000Y-145550000D03*
X238250000Y-146050000D03*
X238250000Y-146550000D03*
X238250000Y-147050000D03*
X238250000Y-147550000D03*
X238250000Y-148050000D03*
X238250000Y-148550000D03*
D12*
X240200000Y-150500000D03*
X240700000Y-150500000D03*
X241200000Y-150500000D03*
X241700000Y-150500000D03*
X242200000Y-150500000D03*
X242700000Y-150500000D03*
X243200000Y-150500000D03*
X243700000Y-150500000D03*
X244200000Y-150500000D03*
X244700000Y-150500000D03*
X245200000Y-150500000D03*
X245700000Y-150500000D03*
X246200000Y-150500000D03*
X246700000Y-150500000D03*
X247200000Y-150500000D03*
X247700000Y-150500000D03*
D11*
X249650000Y-148550000D03*
X249650000Y-148050000D03*
X249650000Y-147550000D03*
X249650000Y-147050000D03*
X249650000Y-146550000D03*
X249650000Y-146050000D03*
X249650000Y-145550000D03*
X249650000Y-145050000D03*
X249650000Y-144550000D03*
X249650000Y-144050000D03*
X249650000Y-143550000D03*
X249650000Y-143050000D03*
X249650000Y-142550000D03*
X249650000Y-142050000D03*
X249650000Y-141550000D03*
X249650000Y-141050000D03*
D12*
X247700000Y-139100000D03*
X247200000Y-139100000D03*
X246700000Y-139100000D03*
X246200000Y-139100000D03*
X245700000Y-139100000D03*
X245200000Y-139100000D03*
X244700000Y-139100000D03*
X244200000Y-139100000D03*
X243700000Y-139100000D03*
X243200000Y-139100000D03*
X242700000Y-139100000D03*
X242200000Y-139100000D03*
X241700000Y-139100000D03*
X241200000Y-139100000D03*
X240700000Y-139100000D03*
X240200000Y-139100000D03*
D13*
X234200000Y-143550000D03*
X234200000Y-139550000D03*
X234200000Y-146300000D03*
X234200000Y-150300000D03*
X224700000Y-134550000D03*
X224700000Y-130550000D03*
D14*
X250450000Y-152800000D03*
X246450000Y-152800000D03*
D13*
X243950000Y-134550000D03*
X243950000Y-130550000D03*
X241200000Y-134550000D03*
X241200000Y-130550000D03*
X238450000Y-134550000D03*
X238450000Y-130550000D03*
X235700000Y-134550000D03*
X235700000Y-130550000D03*
X232950000Y-134550000D03*
X232950000Y-130550000D03*
X230200000Y-134550000D03*
X230200000Y-130550000D03*
X227450000Y-134550000D03*
X227450000Y-130550000D03*
D14*
X225600000Y-148000000D03*
X221600000Y-148000000D03*
X225700000Y-152400000D03*
X221700000Y-152400000D03*
D15*
X221600000Y-143800000D03*
X225600000Y-143800000D03*
D16*
X247300000Y-133800000D03*
X250600000Y-131260000D03*
X250600000Y-136340000D03*
X257350000Y-139700000D03*
X254050000Y-142240000D03*
X257350000Y-144780000D03*
X257350000Y-149860000D03*
X254050000Y-152400000D03*
X254050000Y-147320000D03*
D15*
X260950000Y-133550000D03*
X264950000Y-133550000D03*
X243450000Y-152800000D03*
X239450000Y-152800000D03*
D17*
X229950000Y-140101000D03*
X229950000Y-149499000D03*
D18*
X265950000Y-144550000D03*
X265950000Y-143280000D03*
X265950000Y-142010000D03*
X265950000Y-140740000D03*
X265950000Y-139470000D03*
X265950000Y-138200000D03*
X265950000Y-136930000D03*
X265950000Y-135660000D03*
D19*
X277748300Y-131659500D03*
X277748300Y-148233000D03*
D20*
X253545000Y-137000000D03*
X254815000Y-137000000D03*
X256085000Y-137000000D03*
X257355000Y-137000000D03*
X257355000Y-131600000D03*
X256085000Y-131600000D03*
X254815000Y-131600000D03*
X253545000Y-131600000D03*
D21*
X278950000Y-152550000D03*
D22*
X260450000Y-151550000D03*
X262950000Y-151550000D03*
X265450000Y-151550000D03*
X267950000Y-151550000D03*
X270450000Y-151550000D03*
X272950000Y-151550000D03*
D23*
X221350000Y-136800000D03*
X224050000Y-136800000D03*
X221350000Y-138800000D03*
X224050000Y-138800000D03*
D15*
X221450000Y-141050000D03*
X225450000Y-141050000D03*
D24*
X258000000Y-141200000D03*
X242400000Y-136800000D03*
X251000000Y-140000000D03*
X254800000Y-144200000D03*
X236400000Y-140000000D03*
X279600000Y-141800000D03*
X221800000Y-131200000D03*
X238600000Y-137800000D03*
X237770158Y-139429842D03*
X241400000Y-147400000D03*
X248000000Y-144200000D03*
X251600000Y-148000000D03*
X263800000Y-146800000D03*
X251400000Y-144800000D03*
X266800000Y-147800000D03*
X251600000Y-146907797D03*
X266000000Y-148743298D03*
X248449310Y-147800000D03*
X240000000Y-144800000D03*
X250950000Y-142050000D03*
X257200000Y-142050000D03*
X254950000Y-140050000D03*
X248700000Y-139050000D03*
X239895503Y-148055187D03*
X260400000Y-144200000D03*
X260389490Y-145399991D03*
X249600000Y-149729111D03*
X238000000Y-149800000D03*
X262000000Y-141200000D03*
X238600000Y-150800000D03*
X258400000Y-151800000D03*
X252800000Y-135000000D03*
X248000000Y-137200000D03*
D25*
X252750000Y-132685000D02*
X252750000Y-131415000D01*
X233700000Y-143050000D02*
X238250000Y-143050000D01*
X230751000Y-140101000D02*
X233700000Y-143050000D01*
X229950000Y-140101000D02*
X230751000Y-140101000D01*
X225450000Y-141050000D02*
X225300000Y-141050000D01*
X225300000Y-141050000D02*
X222904801Y-143445199D01*
X222904801Y-143445199D02*
X222904801Y-145691999D01*
X222904801Y-145691999D02*
X221600000Y-146996800D01*
X221600000Y-146996800D02*
X221600000Y-148000000D01*
X265950000Y-135660000D02*
X267560000Y-135660000D01*
X267550000Y-138200000D02*
X265950000Y-138200000D01*
X267950000Y-137800000D02*
X267550000Y-138200000D01*
X267950000Y-136050000D02*
X267950000Y-137800000D01*
X267560000Y-135660000D02*
X267950000Y-136050000D01*
X257355000Y-133205000D02*
X259810000Y-135660000D01*
X259810000Y-135660000D02*
X265950000Y-135660000D01*
X257355000Y-131600000D02*
X257355000Y-133205000D01*
X246450000Y-152800000D02*
X243450000Y-152800000D01*
X241950000Y-152800000D02*
X240700000Y-151550000D01*
X240700000Y-151550000D02*
X240700000Y-150500000D01*
X243450000Y-152800000D02*
X241950000Y-152800000D01*
X243950000Y-130550000D02*
X241200000Y-130550000D01*
X241200000Y-130550000D02*
X238450000Y-130550000D01*
X238450000Y-130550000D02*
X235700000Y-130550000D01*
X235700000Y-130550000D02*
X232950000Y-130550000D01*
X232950000Y-130550000D02*
X230200000Y-130550000D01*
X230200000Y-130550000D02*
X227450000Y-130550000D01*
X227450000Y-130550000D02*
X224700000Y-130550000D01*
X221600000Y-148000000D02*
X221700000Y-152400000D01*
X223450000Y-153800000D02*
X230700000Y-153800000D01*
X230700000Y-153800000D02*
X234200000Y-150300000D01*
X222050000Y-152400000D02*
X223450000Y-153800000D01*
X221700000Y-152400000D02*
X222050000Y-152400000D01*
X239450000Y-146550000D02*
X240700000Y-147800000D01*
X240700000Y-147800000D02*
X240700000Y-150500000D01*
X238250000Y-146550000D02*
X239450000Y-146550000D01*
X247200000Y-148800000D02*
X244950000Y-146550000D01*
X244950000Y-146550000D02*
X239450000Y-146550000D01*
X247200000Y-150500000D02*
X247200000Y-148800000D01*
X243450000Y-153300000D02*
X243450000Y-152800000D01*
X237950000Y-154000000D02*
X242700000Y-154000000D01*
X242700000Y-154000000D02*
X243450000Y-153300000D01*
X234200000Y-150300000D02*
X237950000Y-154000000D01*
X240700000Y-138500000D02*
X242400000Y-136800000D01*
X240700000Y-139100000D02*
X240700000Y-138500000D01*
X250250000Y-141550000D02*
X251000000Y-140800000D01*
X251000000Y-140800000D02*
X251000000Y-140000000D01*
X249650000Y-141550000D02*
X250250000Y-141550000D01*
X254050000Y-144950000D02*
X254800000Y-144200000D01*
X254050000Y-147320000D02*
X254050000Y-144950000D01*
X235950000Y-139550000D02*
X236400000Y-140000000D01*
X234200000Y-139550000D02*
X235950000Y-139550000D01*
X222450000Y-130550000D02*
X221800000Y-131200000D01*
X224700000Y-130550000D02*
X222450000Y-130550000D01*
X236950000Y-143550000D02*
X238250000Y-143550000D01*
X234200000Y-146300000D02*
X236950000Y-143550000D01*
X231001000Y-149499000D02*
X234200000Y-146300000D01*
X229950000Y-149499000D02*
X231001000Y-149499000D01*
X224700000Y-134550000D02*
X224700000Y-134800000D01*
X224700000Y-134800000D02*
X225950000Y-136050000D01*
X225950000Y-136050000D02*
X235450000Y-136050000D01*
X235450000Y-136050000D02*
X239700000Y-140300000D01*
X239700000Y-140300000D02*
X241700000Y-140300000D01*
X241700000Y-140300000D02*
X242200000Y-139800000D01*
X242200000Y-139800000D02*
X242200000Y-139100000D01*
X248950000Y-152800000D02*
X247700000Y-151550000D01*
X247700000Y-151550000D02*
X246950000Y-151550000D01*
X246950000Y-151550000D02*
X246700000Y-151300000D01*
X246700000Y-151300000D02*
X246700000Y-150500000D01*
X250450000Y-152800000D02*
X248950000Y-152800000D01*
X221600000Y-143800000D02*
X222950000Y-142700000D01*
X222950000Y-142700000D02*
X222950000Y-133050000D01*
X222950000Y-133050000D02*
X223200000Y-132800000D01*
X223200000Y-132800000D02*
X225450000Y-132800000D01*
X225450000Y-132800000D02*
X227450000Y-134550000D01*
X243950000Y-133300000D02*
X243950000Y-134550000D01*
X247700000Y-129550000D02*
X243950000Y-133300000D01*
X251700000Y-129550000D02*
X247700000Y-129550000D01*
X252200000Y-130050000D02*
X251700000Y-129550000D01*
X252200000Y-132800000D02*
X252200000Y-130050000D01*
X252700000Y-133300000D02*
X252200000Y-132800000D01*
X256450000Y-133300000D02*
X252700000Y-133300000D01*
X260080000Y-136930000D02*
X256450000Y-133300000D01*
X265950000Y-136930000D02*
X260080000Y-136930000D01*
X227450000Y-134550000D02*
X230200000Y-134550000D01*
X232950000Y-134550000D02*
X230200000Y-134550000D01*
X232950000Y-134550000D02*
X235700000Y-134550000D01*
X235700000Y-134550000D02*
X238450000Y-134550000D01*
X238450000Y-134550000D02*
X241200000Y-134550000D01*
X241200000Y-134550000D02*
X243950000Y-134550000D01*
X241200000Y-137050000D02*
X240200000Y-138050000D01*
X240200000Y-138050000D02*
X240200000Y-139100000D01*
X241200000Y-134550000D02*
X241200000Y-137050000D01*
X243450000Y-141050000D02*
X249650000Y-141050000D01*
X238250000Y-141050000D02*
X243450000Y-141050000D01*
X247700000Y-150500000D02*
X247700000Y-145300000D01*
X252150000Y-150500000D02*
X254050000Y-152400000D01*
X247700000Y-150500000D02*
X252150000Y-150500000D01*
X239275000Y-137800000D02*
X238600000Y-137800000D01*
X240200000Y-138725000D02*
X239275000Y-137800000D01*
X240200000Y-139100000D02*
X240200000Y-138725000D01*
X237770158Y-140570158D02*
X238250000Y-141050000D01*
X237770158Y-139429842D02*
X237770158Y-140570158D01*
X241200000Y-147600000D02*
X241400000Y-147400000D01*
X241200000Y-150500000D02*
X241200000Y-147600000D01*
X247555501Y-144649473D02*
X247302487Y-144902487D01*
X247555501Y-144644499D02*
X247555501Y-144649473D01*
X247302487Y-144902487D02*
X243450000Y-141050000D01*
X248000000Y-144200000D02*
X247555501Y-144644499D01*
X247700000Y-145300000D02*
X247302487Y-144902487D01*
X225600000Y-143800000D02*
X225600000Y-148000000D01*
X225600000Y-148000000D02*
X225700000Y-152400000D01*
X228300000Y-152400000D02*
X228700000Y-152800000D01*
X228700000Y-152800000D02*
X230950000Y-152800000D01*
X230950000Y-152800000D02*
X232700000Y-151050000D01*
X232700000Y-151050000D02*
X232700000Y-149300000D01*
X232700000Y-149300000D02*
X233950000Y-148050000D01*
X233950000Y-148050000D02*
X236200000Y-148050000D01*
X236200000Y-148050000D02*
X237200000Y-147050000D01*
X237200000Y-147050000D02*
X238250000Y-147050000D01*
X225700000Y-152400000D02*
X228300000Y-152400000D01*
X267740000Y-142010000D02*
X265950000Y-142010000D01*
X269700000Y-140050000D02*
X267740000Y-142010000D01*
X269700000Y-134800000D02*
X269700000Y-140050000D01*
X264450000Y-129550000D02*
X269700000Y-134800000D01*
X254950000Y-129550000D02*
X264450000Y-129550000D01*
X253545000Y-130955000D02*
X254950000Y-129550000D01*
X253545000Y-131600000D02*
X253545000Y-130955000D01*
X264997500Y-142010000D02*
X265950000Y-142010000D01*
X263050699Y-143956801D02*
X264997500Y-142010000D01*
X263050699Y-147753699D02*
X263050699Y-143956801D01*
X265450000Y-150153000D02*
X263050699Y-147753699D01*
X265450000Y-151550000D02*
X265450000Y-150153000D01*
X251550000Y-148050000D02*
X251600000Y-148000000D01*
X249650000Y-148050000D02*
X251550000Y-148050000D01*
X272950000Y-151550000D02*
X272950000Y-150153000D01*
X272950000Y-150153000D02*
X269597000Y-146800000D01*
X269597000Y-146800000D02*
X264428617Y-146800000D01*
X264428617Y-146800000D02*
X263800000Y-146800000D01*
X251150000Y-144550000D02*
X251400000Y-144800000D01*
X249650000Y-144550000D02*
X251150000Y-144550000D01*
X270450000Y-150153000D02*
X270450000Y-151550000D01*
X268541499Y-148244499D02*
X270450000Y-150153000D01*
X267244499Y-148244499D02*
X268541499Y-148244499D01*
X266800000Y-147800000D02*
X267244499Y-148244499D01*
X250957797Y-147550000D02*
X251600000Y-146907797D01*
X249650000Y-147550000D02*
X250957797Y-147550000D01*
X267950000Y-150693298D02*
X267950000Y-151550000D01*
X266000000Y-148743298D02*
X267950000Y-150693298D01*
X251950000Y-144050000D02*
X249650000Y-144050000D01*
X252450000Y-143550000D02*
X251950000Y-144050000D01*
X252450000Y-141300000D02*
X252450000Y-143550000D01*
X255200000Y-138550000D02*
X252450000Y-141300000D01*
X256450000Y-138550000D02*
X255200000Y-138550000D01*
X257355000Y-137645000D02*
X256450000Y-138550000D01*
X257355000Y-137000000D02*
X257355000Y-137645000D01*
X255700000Y-133800000D02*
X257355000Y-135455000D01*
X257355000Y-135455000D02*
X257355000Y-137000000D01*
X247300000Y-133800000D02*
X255700000Y-133800000D01*
X253545000Y-138955000D02*
X251700000Y-140800000D01*
X251700000Y-140800000D02*
X251700000Y-142800000D01*
X251700000Y-142800000D02*
X250950000Y-143550000D01*
X250950000Y-143550000D02*
X249650000Y-143550000D01*
X253545000Y-137000000D02*
X253545000Y-138955000D01*
X246990000Y-131260000D02*
X245450000Y-132800000D01*
X245450000Y-132800000D02*
X245450000Y-134550000D01*
X245450000Y-134550000D02*
X246200000Y-135300000D01*
X246200000Y-135300000D02*
X251845000Y-135300000D01*
X251845000Y-135300000D02*
X253545000Y-137000000D01*
X250600000Y-131260000D02*
X246990000Y-131260000D01*
X239250000Y-144050000D02*
X238250000Y-144050000D01*
X240000000Y-144800000D02*
X239250000Y-144050000D01*
X248449310Y-148522952D02*
X248449310Y-147800000D01*
X248906159Y-148979801D02*
X248449310Y-148522952D01*
X252600000Y-148200000D02*
X251820199Y-148979801D01*
X252600000Y-144528200D02*
X252600000Y-148200000D01*
X254050000Y-143078200D02*
X252600000Y-144528200D01*
X251820199Y-148979801D02*
X248906159Y-148979801D01*
X254050000Y-142240000D02*
X254050000Y-143078200D01*
X257350000Y-142200000D02*
X257200000Y-142050000D01*
X250950000Y-142050000D02*
X249650000Y-142050000D01*
X257350000Y-144780000D02*
X257350000Y-142200000D01*
X248700000Y-139050000D02*
X248650000Y-139100000D01*
X248650000Y-139100000D02*
X247700000Y-139100000D01*
X257350000Y-147700000D02*
X255700000Y-146050000D01*
X257350000Y-149860000D02*
X257350000Y-147700000D01*
X255700000Y-146050000D02*
X255700000Y-140800000D01*
X255700000Y-140800000D02*
X254950000Y-140050000D01*
X239450000Y-148500690D02*
X239450000Y-148733942D01*
X239895503Y-148055187D02*
X239450000Y-148500690D01*
X239450000Y-152800000D02*
X239450000Y-148733942D01*
X239390316Y-147550000D02*
X239895503Y-148055187D01*
X238250000Y-147550000D02*
X239390316Y-147550000D01*
D26*
X260450000Y-144250000D02*
X260400000Y-144200000D01*
D25*
X260450000Y-144977502D02*
X260450000Y-145339481D01*
D26*
X260450000Y-151550000D02*
X260450000Y-144977502D01*
D25*
X260450000Y-145339481D02*
X260389490Y-145399991D01*
D26*
X260450000Y-144977502D02*
X260450000Y-144250000D01*
D25*
X238000000Y-149800000D02*
X237445199Y-149245199D01*
X237445199Y-149245199D02*
X237445199Y-148151601D01*
X237445199Y-148151601D02*
X237546800Y-148050000D01*
X238250000Y-148050000D02*
X237546800Y-148050000D01*
X249600000Y-149729111D02*
X254935469Y-149729111D01*
X261555501Y-141644499D02*
X262000000Y-141200000D01*
X254935469Y-149729111D02*
X256006159Y-150799801D01*
X258754801Y-150738841D02*
X258754801Y-144445199D01*
X256006159Y-150799801D02*
X258693841Y-150799801D01*
X258693841Y-150799801D02*
X258754801Y-150738841D01*
X258754801Y-144445199D02*
X261555501Y-141644499D01*
X264950000Y-133550000D02*
X267450000Y-133550000D01*
X267450000Y-133550000D02*
X268950000Y-135050000D01*
X268950000Y-135050000D02*
X268950000Y-139800000D01*
X268950000Y-139800000D02*
X268010000Y-140740000D01*
X268010000Y-140740000D02*
X265950000Y-140740000D01*
X265200000Y-133550000D02*
X265200000Y-133050000D01*
X254815000Y-130341402D02*
X255200000Y-129956402D01*
X255200000Y-129956402D02*
X262606402Y-129956402D01*
X262606402Y-129956402D02*
X264950000Y-132300000D01*
X264950000Y-132300000D02*
X264950000Y-133550000D01*
X254815000Y-131600000D02*
X254815000Y-130341402D01*
X260950000Y-133550000D02*
X260200000Y-133550000D01*
X263450000Y-134800000D02*
X267950000Y-134800000D01*
X267950000Y-134800000D02*
X268450000Y-135300000D01*
X268450000Y-135300000D02*
X268450000Y-138800000D01*
X268450000Y-138800000D02*
X267780000Y-139470000D01*
X267780000Y-139470000D02*
X265950000Y-139470000D01*
X260950000Y-133550000D02*
X262200000Y-133550000D01*
X262200000Y-133550000D02*
X263450000Y-134800000D01*
X256085000Y-131600000D02*
X256085000Y-131165000D01*
X256085000Y-130665000D02*
X256387196Y-130362804D01*
X256387196Y-130362804D02*
X259512804Y-130362804D01*
X259512804Y-130362804D02*
X260950000Y-131800000D01*
X260950000Y-131800000D02*
X260950000Y-133550000D01*
X256085000Y-131600000D02*
X256085000Y-130665000D01*
X238749301Y-150650699D02*
X238600000Y-150800000D01*
X238749301Y-149377501D02*
X238749301Y-150650699D01*
X238250000Y-148878200D02*
X238749301Y-149377501D01*
X238250000Y-148550000D02*
X238250000Y-148878200D01*
X278950000Y-152550000D02*
X276410000Y-152550000D01*
X276410000Y-152550000D02*
X274936800Y-154023200D01*
X274936800Y-154023200D02*
X259453558Y-154023200D01*
X259453558Y-154023200D02*
X258400000Y-152969642D01*
X258400000Y-152969642D02*
X258400000Y-152428617D01*
X258400000Y-152428617D02*
X258400000Y-151800000D01*
X254815000Y-137000000D02*
X256085000Y-137000000D01*
X253290000Y-135000000D02*
X252800000Y-135000000D01*
X254815000Y-136525000D02*
X253290000Y-135000000D01*
X254815000Y-137000000D02*
X254815000Y-136525000D01*
X247200000Y-138000000D02*
X247200000Y-139100000D01*
X248000000Y-137200000D02*
X247200000Y-138000000D01*
X221350000Y-138800000D02*
X221350000Y-136800000D01*
X221450000Y-141050000D02*
X221450000Y-138900000D01*
X221450000Y-138900000D02*
X221350000Y-138800000D01*
X224050000Y-136800000D02*
X224300000Y-136550000D01*
X233781159Y-141479801D02*
X238179801Y-141479801D01*
X224300000Y-136550000D02*
X231200000Y-136550000D01*
X231200000Y-136550000D02*
X233095199Y-138445199D01*
X233095199Y-138445199D02*
X233095199Y-140793841D01*
X233095199Y-140793841D02*
X233781159Y-141479801D01*
X238179801Y-141479801D02*
X238250000Y-141550000D01*
X224050000Y-138800000D02*
X224150000Y-138800000D01*
X224150000Y-138800000D02*
X225993590Y-136956410D01*
X225993590Y-136956410D02*
X231031660Y-136956410D01*
X231031660Y-136956410D02*
X232688789Y-138613539D01*
X232688789Y-138613539D02*
X232688790Y-140962182D01*
X232688790Y-140962182D02*
X233846807Y-142120199D01*
X233846807Y-142120199D02*
X238179801Y-142120199D01*
X238179801Y-142120199D02*
X238250000Y-142050000D01*
D27*
G36*
X237562051Y-138718827D02*
X237353453Y-138805019D01*
X237146063Y-139012047D01*
X237033686Y-139282680D01*
X237033430Y-139575718D01*
X237145335Y-139846547D01*
X237352363Y-140053937D01*
X237376458Y-140063942D01*
X237376458Y-140570158D01*
X237406427Y-140720821D01*
X237473110Y-140820619D01*
X237452177Y-140925000D01*
X237452177Y-141086101D01*
X235266700Y-141086101D01*
X235266700Y-140603050D01*
X235266700Y-139781775D01*
X235266700Y-139318225D01*
X235266700Y-138496950D01*
X235226097Y-138398927D01*
X235151073Y-138323903D01*
X235053050Y-138283300D01*
X234946950Y-138283300D01*
X234431775Y-138283300D01*
X234365100Y-138349975D01*
X234365100Y-139384900D01*
X235200025Y-139384900D01*
X235266700Y-139318225D01*
X235266700Y-139781775D01*
X235200025Y-139715100D01*
X234365100Y-139715100D01*
X234365100Y-140750025D01*
X234431775Y-140816700D01*
X234946950Y-140816700D01*
X235053050Y-140816700D01*
X235151073Y-140776097D01*
X235226097Y-140701073D01*
X235266700Y-140603050D01*
X235266700Y-141086101D01*
X233944235Y-141086101D01*
X233674834Y-140816700D01*
X233968225Y-140816700D01*
X234034900Y-140750025D01*
X234034900Y-139715100D01*
X234014900Y-139715100D01*
X234014900Y-139384900D01*
X234034900Y-139384900D01*
X234034900Y-138349975D01*
X233968225Y-138283300D01*
X233453050Y-138283300D01*
X233451422Y-138283300D01*
X233373587Y-138166811D01*
X231650475Y-136443700D01*
X235286924Y-136443700D01*
X237562051Y-138718827D01*
X237562051Y-138718827D01*
G37*
X237562051Y-138718827D02*
X237353453Y-138805019D01*
X237146063Y-139012047D01*
X237033686Y-139282680D01*
X237033430Y-139575718D01*
X237145335Y-139846547D01*
X237352363Y-140053937D01*
X237376458Y-140063942D01*
X237376458Y-140570158D01*
X237406427Y-140720821D01*
X237473110Y-140820619D01*
X237452177Y-140925000D01*
X237452177Y-141086101D01*
X235266700Y-141086101D01*
X235266700Y-140603050D01*
X235266700Y-139781775D01*
X235266700Y-139318225D01*
X235266700Y-138496950D01*
X235226097Y-138398927D01*
X235151073Y-138323903D01*
X235053050Y-138283300D01*
X234946950Y-138283300D01*
X234431775Y-138283300D01*
X234365100Y-138349975D01*
X234365100Y-139384900D01*
X235200025Y-139384900D01*
X235266700Y-139318225D01*
X235266700Y-139781775D01*
X235200025Y-139715100D01*
X234365100Y-139715100D01*
X234365100Y-140750025D01*
X234431775Y-140816700D01*
X234946950Y-140816700D01*
X235053050Y-140816700D01*
X235151073Y-140776097D01*
X235226097Y-140701073D01*
X235266700Y-140603050D01*
X235266700Y-141086101D01*
X233944235Y-141086101D01*
X233674834Y-140816700D01*
X233968225Y-140816700D01*
X234034900Y-140750025D01*
X234034900Y-139715100D01*
X234014900Y-139715100D01*
X234014900Y-139384900D01*
X234034900Y-139384900D01*
X234034900Y-138349975D01*
X233968225Y-138283300D01*
X233453050Y-138283300D01*
X233451422Y-138283300D01*
X233373587Y-138166811D01*
X231650475Y-136443700D01*
X235286924Y-136443700D01*
X237562051Y-138718827D01*
G36*
X249835100Y-141612500D02*
X249815100Y-141612500D01*
X249815100Y-141627177D01*
X249484900Y-141627177D01*
X249484900Y-141612500D01*
X248949975Y-141612500D01*
X248883300Y-141679175D01*
X248883300Y-141728050D01*
X248901300Y-141771507D01*
X248875207Y-141810165D01*
X248852177Y-141925000D01*
X248852177Y-142175000D01*
X248873787Y-142286377D01*
X248882406Y-142299498D01*
X248875207Y-142310165D01*
X248852177Y-142425000D01*
X248852177Y-142675000D01*
X248873787Y-142786377D01*
X248882406Y-142799498D01*
X248875207Y-142810165D01*
X248852177Y-142925000D01*
X248852177Y-143175000D01*
X248873787Y-143286377D01*
X248882406Y-143299498D01*
X248875207Y-143310165D01*
X248852177Y-143425000D01*
X248852177Y-143675000D01*
X248873787Y-143786377D01*
X248882406Y-143799498D01*
X248875207Y-143810165D01*
X248852177Y-143925000D01*
X248852177Y-144175000D01*
X248873787Y-144286377D01*
X248882406Y-144299498D01*
X248875207Y-144310165D01*
X248852177Y-144425000D01*
X248852177Y-144675000D01*
X248873787Y-144786377D01*
X248882406Y-144799498D01*
X248875207Y-144810165D01*
X248852177Y-144925000D01*
X248852177Y-145175000D01*
X248873787Y-145286377D01*
X248882406Y-145299498D01*
X248875207Y-145310165D01*
X248852177Y-145425000D01*
X248852177Y-145675000D01*
X248873787Y-145786377D01*
X248882406Y-145799498D01*
X248875207Y-145810165D01*
X248852177Y-145925000D01*
X248852177Y-146175000D01*
X248873787Y-146286377D01*
X248882406Y-146299498D01*
X248875207Y-146310165D01*
X248852177Y-146425000D01*
X248852177Y-146675000D01*
X248873787Y-146786377D01*
X248882406Y-146799498D01*
X248875207Y-146810165D01*
X248852177Y-146925000D01*
X248852177Y-147169706D01*
X248596472Y-147063528D01*
X248303434Y-147063272D01*
X248093700Y-147149932D01*
X248093700Y-145300000D01*
X248063731Y-145149338D01*
X248063731Y-145149337D01*
X247978388Y-145021612D01*
X247893283Y-144936507D01*
X248145876Y-144936728D01*
X248416705Y-144824823D01*
X248624095Y-144617795D01*
X248736472Y-144347162D01*
X248736728Y-144054124D01*
X248624823Y-143783295D01*
X248417795Y-143575905D01*
X248147162Y-143463528D01*
X247854124Y-143463272D01*
X247583295Y-143575177D01*
X247375905Y-143782205D01*
X247263528Y-144052838D01*
X247263306Y-144306530D01*
X244400475Y-141443700D01*
X248883300Y-141443700D01*
X248906175Y-141443700D01*
X248949975Y-141487500D01*
X249484900Y-141487500D01*
X249484900Y-141472823D01*
X249815100Y-141472823D01*
X249815100Y-141487500D01*
X249835100Y-141487500D01*
X249835100Y-141612500D01*
X249835100Y-141612500D01*
G37*
X249835100Y-141612500D02*
X249815100Y-141612500D01*
X249815100Y-141627177D01*
X249484900Y-141627177D01*
X249484900Y-141612500D01*
X248949975Y-141612500D01*
X248883300Y-141679175D01*
X248883300Y-141728050D01*
X248901300Y-141771507D01*
X248875207Y-141810165D01*
X248852177Y-141925000D01*
X248852177Y-142175000D01*
X248873787Y-142286377D01*
X248882406Y-142299498D01*
X248875207Y-142310165D01*
X248852177Y-142425000D01*
X248852177Y-142675000D01*
X248873787Y-142786377D01*
X248882406Y-142799498D01*
X248875207Y-142810165D01*
X248852177Y-142925000D01*
X248852177Y-143175000D01*
X248873787Y-143286377D01*
X248882406Y-143299498D01*
X248875207Y-143310165D01*
X248852177Y-143425000D01*
X248852177Y-143675000D01*
X248873787Y-143786377D01*
X248882406Y-143799498D01*
X248875207Y-143810165D01*
X248852177Y-143925000D01*
X248852177Y-144175000D01*
X248873787Y-144286377D01*
X248882406Y-144299498D01*
X248875207Y-144310165D01*
X248852177Y-144425000D01*
X248852177Y-144675000D01*
X248873787Y-144786377D01*
X248882406Y-144799498D01*
X248875207Y-144810165D01*
X248852177Y-144925000D01*
X248852177Y-145175000D01*
X248873787Y-145286377D01*
X248882406Y-145299498D01*
X248875207Y-145310165D01*
X248852177Y-145425000D01*
X248852177Y-145675000D01*
X248873787Y-145786377D01*
X248882406Y-145799498D01*
X248875207Y-145810165D01*
X248852177Y-145925000D01*
X248852177Y-146175000D01*
X248873787Y-146286377D01*
X248882406Y-146299498D01*
X248875207Y-146310165D01*
X248852177Y-146425000D01*
X248852177Y-146675000D01*
X248873787Y-146786377D01*
X248882406Y-146799498D01*
X248875207Y-146810165D01*
X248852177Y-146925000D01*
X248852177Y-147169706D01*
X248596472Y-147063528D01*
X248303434Y-147063272D01*
X248093700Y-147149932D01*
X248093700Y-145300000D01*
X248063731Y-145149338D01*
X248063731Y-145149337D01*
X247978388Y-145021612D01*
X247893283Y-144936507D01*
X248145876Y-144936728D01*
X248416705Y-144824823D01*
X248624095Y-144617795D01*
X248736472Y-144347162D01*
X248736728Y-144054124D01*
X248624823Y-143783295D01*
X248417795Y-143575905D01*
X248147162Y-143463528D01*
X247854124Y-143463272D01*
X247583295Y-143575177D01*
X247375905Y-143782205D01*
X247263528Y-144052838D01*
X247263306Y-144306530D01*
X244400475Y-141443700D01*
X248883300Y-141443700D01*
X248906175Y-141443700D01*
X248949975Y-141487500D01*
X249484900Y-141487500D01*
X249484900Y-141472823D01*
X249815100Y-141472823D01*
X249815100Y-141487500D01*
X249835100Y-141487500D01*
X249835100Y-141612500D01*
G36*
X253151300Y-138791924D02*
X251966700Y-139976524D01*
X251966700Y-137028050D01*
X251966700Y-136571775D01*
X251900025Y-136505100D01*
X250765100Y-136505100D01*
X250765100Y-137175025D01*
X250831775Y-137241700D01*
X251646950Y-137241700D01*
X251753050Y-137241700D01*
X251851073Y-137201097D01*
X251926097Y-137126073D01*
X251966700Y-137028050D01*
X251966700Y-139976524D01*
X251421612Y-140521612D01*
X251336269Y-140649337D01*
X251306300Y-140800000D01*
X251306300Y-141400369D01*
X251097162Y-141313528D01*
X250804124Y-141313272D01*
X250533295Y-141425177D01*
X250416700Y-141541568D01*
X250416700Y-141420825D01*
X250416700Y-141384898D01*
X250416700Y-141371950D01*
X250398699Y-141328492D01*
X250424793Y-141289835D01*
X250447823Y-141175000D01*
X250447823Y-140925000D01*
X250434900Y-140858395D01*
X250434900Y-137175025D01*
X250434900Y-136505100D01*
X249299975Y-136505100D01*
X249233300Y-136571775D01*
X249233300Y-137028050D01*
X249273903Y-137126073D01*
X249348927Y-137201097D01*
X249446950Y-137241700D01*
X249553050Y-137241700D01*
X250368225Y-137241700D01*
X250434900Y-137175025D01*
X250434900Y-140858395D01*
X250426213Y-140813623D01*
X250361910Y-140715733D01*
X250264835Y-140650207D01*
X250150000Y-140627177D01*
X249150000Y-140627177D01*
X249038623Y-140648787D01*
X249027185Y-140656300D01*
X243450000Y-140656300D01*
X241861784Y-140656300D01*
X241978388Y-140578388D01*
X242478388Y-140078388D01*
X242563731Y-139950662D01*
X242574270Y-139897676D01*
X242575000Y-139897823D01*
X242825000Y-139897823D01*
X242936377Y-139876213D01*
X242949498Y-139867593D01*
X242960165Y-139874793D01*
X243075000Y-139897823D01*
X243325000Y-139897823D01*
X243436377Y-139876213D01*
X243449498Y-139867593D01*
X243460165Y-139874793D01*
X243575000Y-139897823D01*
X243825000Y-139897823D01*
X243936377Y-139876213D01*
X243949498Y-139867593D01*
X243960165Y-139874793D01*
X244075000Y-139897823D01*
X244325000Y-139897823D01*
X244436377Y-139876213D01*
X244449498Y-139867593D01*
X244460165Y-139874793D01*
X244575000Y-139897823D01*
X244825000Y-139897823D01*
X244936377Y-139876213D01*
X244949498Y-139867593D01*
X244960165Y-139874793D01*
X245075000Y-139897823D01*
X245325000Y-139897823D01*
X245436377Y-139876213D01*
X245449498Y-139867593D01*
X245460165Y-139874793D01*
X245575000Y-139897823D01*
X245825000Y-139897823D01*
X245936377Y-139876213D01*
X245949498Y-139867593D01*
X245960165Y-139874793D01*
X246075000Y-139897823D01*
X246325000Y-139897823D01*
X246436377Y-139876213D01*
X246449498Y-139867593D01*
X246460165Y-139874793D01*
X246575000Y-139897823D01*
X246825000Y-139897823D01*
X246936377Y-139876213D01*
X246949498Y-139867593D01*
X246960165Y-139874793D01*
X247075000Y-139897823D01*
X247325000Y-139897823D01*
X247436377Y-139876213D01*
X247449498Y-139867593D01*
X247460165Y-139874793D01*
X247575000Y-139897823D01*
X247825000Y-139897823D01*
X247936377Y-139876213D01*
X248034267Y-139811910D01*
X248099793Y-139714835D01*
X248122823Y-139600000D01*
X248122823Y-139514434D01*
X248282205Y-139674095D01*
X248552838Y-139786472D01*
X248845876Y-139786728D01*
X249116705Y-139674823D01*
X249324095Y-139467795D01*
X249436472Y-139197162D01*
X249436728Y-138904124D01*
X249324823Y-138633295D01*
X249117795Y-138425905D01*
X248847162Y-138313528D01*
X248554124Y-138313272D01*
X248283295Y-138425177D01*
X248120444Y-138587742D01*
X248101213Y-138488623D01*
X248036910Y-138390733D01*
X247939835Y-138325207D01*
X247825000Y-138302177D01*
X247593700Y-138302177D01*
X247593700Y-138163076D01*
X247829849Y-137926926D01*
X247852838Y-137936472D01*
X248145876Y-137936728D01*
X248416705Y-137824823D01*
X248624095Y-137617795D01*
X248736472Y-137347162D01*
X248736728Y-137054124D01*
X248624823Y-136783295D01*
X248417795Y-136575905D01*
X248147162Y-136463528D01*
X247854124Y-136463272D01*
X247583295Y-136575177D01*
X247375905Y-136782205D01*
X247263528Y-137052838D01*
X247263272Y-137345876D01*
X247273235Y-137369988D01*
X246921612Y-137721612D01*
X246836269Y-137849337D01*
X246806300Y-138000000D01*
X246806300Y-138302177D01*
X246575000Y-138302177D01*
X246463623Y-138323787D01*
X246450501Y-138332406D01*
X246439835Y-138325207D01*
X246325000Y-138302177D01*
X246075000Y-138302177D01*
X245963623Y-138323787D01*
X245950501Y-138332406D01*
X245939835Y-138325207D01*
X245825000Y-138302177D01*
X245575000Y-138302177D01*
X245463623Y-138323787D01*
X245450501Y-138332406D01*
X245439835Y-138325207D01*
X245325000Y-138302177D01*
X245075000Y-138302177D01*
X244963623Y-138323787D01*
X244950501Y-138332406D01*
X244939835Y-138325207D01*
X244825000Y-138302177D01*
X244575000Y-138302177D01*
X244463623Y-138323787D01*
X244450501Y-138332406D01*
X244439835Y-138325207D01*
X244325000Y-138302177D01*
X244075000Y-138302177D01*
X243963623Y-138323787D01*
X243950501Y-138332406D01*
X243939835Y-138325207D01*
X243825000Y-138302177D01*
X243575000Y-138302177D01*
X243463623Y-138323787D01*
X243450501Y-138332406D01*
X243439835Y-138325207D01*
X243325000Y-138302177D01*
X243075000Y-138302177D01*
X242963623Y-138323787D01*
X242950501Y-138332406D01*
X242939835Y-138325207D01*
X242825000Y-138302177D01*
X242575000Y-138302177D01*
X242463623Y-138323787D01*
X242450501Y-138332406D01*
X242439835Y-138325207D01*
X242325000Y-138302177D01*
X242075000Y-138302177D01*
X241963623Y-138323787D01*
X241950501Y-138332406D01*
X241939835Y-138325207D01*
X241825000Y-138302177D01*
X241575000Y-138302177D01*
X241463623Y-138323787D01*
X241450501Y-138332406D01*
X241439835Y-138325207D01*
X241325000Y-138302177D01*
X241075000Y-138302177D01*
X240963623Y-138323787D01*
X240921648Y-138351359D01*
X240878050Y-138333300D01*
X240829175Y-138333300D01*
X240762500Y-138399975D01*
X240762500Y-138934900D01*
X240777177Y-138934900D01*
X240777177Y-139265100D01*
X240762500Y-139265100D01*
X240762500Y-139800025D01*
X240829175Y-139866700D01*
X240878050Y-139866700D01*
X240921507Y-139848699D01*
X240960165Y-139874793D01*
X241075000Y-139897823D01*
X241325000Y-139897823D01*
X241436377Y-139876213D01*
X241449498Y-139867593D01*
X241460165Y-139874793D01*
X241550345Y-139892878D01*
X241536924Y-139906300D01*
X239863076Y-139906300D01*
X238493283Y-138536507D01*
X238745876Y-138536728D01*
X239016705Y-138424823D01*
X239180018Y-138261794D01*
X239777177Y-138858953D01*
X239777177Y-139600000D01*
X239798787Y-139711377D01*
X239863090Y-139809267D01*
X239960165Y-139874793D01*
X240075000Y-139897823D01*
X240325000Y-139897823D01*
X240436377Y-139876213D01*
X240478351Y-139848640D01*
X240521950Y-139866700D01*
X240570825Y-139866700D01*
X240637500Y-139800025D01*
X240637500Y-139265100D01*
X240622823Y-139265100D01*
X240622823Y-138934900D01*
X240637500Y-138934900D01*
X240637500Y-138399975D01*
X240593700Y-138356175D01*
X240593700Y-138333300D01*
X240593700Y-138213076D01*
X241478388Y-137328388D01*
X241563731Y-137200662D01*
X241593700Y-137050000D01*
X241593700Y-135847823D01*
X242000000Y-135847823D01*
X242111377Y-135826213D01*
X242209267Y-135761910D01*
X242274793Y-135664835D01*
X242297823Y-135550000D01*
X242297823Y-134943700D01*
X242852177Y-134943700D01*
X242852177Y-135550000D01*
X242873787Y-135661377D01*
X242938090Y-135759267D01*
X243035165Y-135824793D01*
X243150000Y-135847823D01*
X244750000Y-135847823D01*
X244861377Y-135826213D01*
X244959267Y-135761910D01*
X245024793Y-135664835D01*
X245047823Y-135550000D01*
X245047823Y-133550000D01*
X245026213Y-133438623D01*
X244961910Y-133340733D01*
X244864835Y-133275207D01*
X244750000Y-133252177D01*
X244554599Y-133252177D01*
X245068597Y-132738178D01*
X245056300Y-132800000D01*
X245056300Y-134550000D01*
X245086269Y-134700663D01*
X245171612Y-134828388D01*
X245921612Y-135578388D01*
X246049337Y-135663731D01*
X246049338Y-135663731D01*
X246200000Y-135693700D01*
X249233300Y-135693700D01*
X249233300Y-136108225D01*
X249299975Y-136174900D01*
X250434900Y-136174900D01*
X250434900Y-136154900D01*
X250765100Y-136154900D01*
X250765100Y-136174900D01*
X251900025Y-136174900D01*
X251966700Y-136108225D01*
X251966700Y-135978476D01*
X252947177Y-136958953D01*
X252947177Y-137775000D01*
X252968787Y-137886377D01*
X253033090Y-137984267D01*
X253130165Y-138049793D01*
X253151300Y-138054031D01*
X253151300Y-138791924D01*
X253151300Y-138791924D01*
G37*
X253151300Y-138791924D02*
X251966700Y-139976524D01*
X251966700Y-137028050D01*
X251966700Y-136571775D01*
X251900025Y-136505100D01*
X250765100Y-136505100D01*
X250765100Y-137175025D01*
X250831775Y-137241700D01*
X251646950Y-137241700D01*
X251753050Y-137241700D01*
X251851073Y-137201097D01*
X251926097Y-137126073D01*
X251966700Y-137028050D01*
X251966700Y-139976524D01*
X251421612Y-140521612D01*
X251336269Y-140649337D01*
X251306300Y-140800000D01*
X251306300Y-141400369D01*
X251097162Y-141313528D01*
X250804124Y-141313272D01*
X250533295Y-141425177D01*
X250416700Y-141541568D01*
X250416700Y-141420825D01*
X250416700Y-141384898D01*
X250416700Y-141371950D01*
X250398699Y-141328492D01*
X250424793Y-141289835D01*
X250447823Y-141175000D01*
X250447823Y-140925000D01*
X250434900Y-140858395D01*
X250434900Y-137175025D01*
X250434900Y-136505100D01*
X249299975Y-136505100D01*
X249233300Y-136571775D01*
X249233300Y-137028050D01*
X249273903Y-137126073D01*
X249348927Y-137201097D01*
X249446950Y-137241700D01*
X249553050Y-137241700D01*
X250368225Y-137241700D01*
X250434900Y-137175025D01*
X250434900Y-140858395D01*
X250426213Y-140813623D01*
X250361910Y-140715733D01*
X250264835Y-140650207D01*
X250150000Y-140627177D01*
X249150000Y-140627177D01*
X249038623Y-140648787D01*
X249027185Y-140656300D01*
X243450000Y-140656300D01*
X241861784Y-140656300D01*
X241978388Y-140578388D01*
X242478388Y-140078388D01*
X242563731Y-139950662D01*
X242574270Y-139897676D01*
X242575000Y-139897823D01*
X242825000Y-139897823D01*
X242936377Y-139876213D01*
X242949498Y-139867593D01*
X242960165Y-139874793D01*
X243075000Y-139897823D01*
X243325000Y-139897823D01*
X243436377Y-139876213D01*
X243449498Y-139867593D01*
X243460165Y-139874793D01*
X243575000Y-139897823D01*
X243825000Y-139897823D01*
X243936377Y-139876213D01*
X243949498Y-139867593D01*
X243960165Y-139874793D01*
X244075000Y-139897823D01*
X244325000Y-139897823D01*
X244436377Y-139876213D01*
X244449498Y-139867593D01*
X244460165Y-139874793D01*
X244575000Y-139897823D01*
X244825000Y-139897823D01*
X244936377Y-139876213D01*
X244949498Y-139867593D01*
X244960165Y-139874793D01*
X245075000Y-139897823D01*
X245325000Y-139897823D01*
X245436377Y-139876213D01*
X245449498Y-139867593D01*
X245460165Y-139874793D01*
X245575000Y-139897823D01*
X245825000Y-139897823D01*
X245936377Y-139876213D01*
X245949498Y-139867593D01*
X245960165Y-139874793D01*
X246075000Y-139897823D01*
X246325000Y-139897823D01*
X246436377Y-139876213D01*
X246449498Y-139867593D01*
X246460165Y-139874793D01*
X246575000Y-139897823D01*
X246825000Y-139897823D01*
X246936377Y-139876213D01*
X246949498Y-139867593D01*
X246960165Y-139874793D01*
X247075000Y-139897823D01*
X247325000Y-139897823D01*
X247436377Y-139876213D01*
X247449498Y-139867593D01*
X247460165Y-139874793D01*
X247575000Y-139897823D01*
X247825000Y-139897823D01*
X247936377Y-139876213D01*
X248034267Y-139811910D01*
X248099793Y-139714835D01*
X248122823Y-139600000D01*
X248122823Y-139514434D01*
X248282205Y-139674095D01*
X248552838Y-139786472D01*
X248845876Y-139786728D01*
X249116705Y-139674823D01*
X249324095Y-139467795D01*
X249436472Y-139197162D01*
X249436728Y-138904124D01*
X249324823Y-138633295D01*
X249117795Y-138425905D01*
X248847162Y-138313528D01*
X248554124Y-138313272D01*
X248283295Y-138425177D01*
X248120444Y-138587742D01*
X248101213Y-138488623D01*
X248036910Y-138390733D01*
X247939835Y-138325207D01*
X247825000Y-138302177D01*
X247593700Y-138302177D01*
X247593700Y-138163076D01*
X247829849Y-137926926D01*
X247852838Y-137936472D01*
X248145876Y-137936728D01*
X248416705Y-137824823D01*
X248624095Y-137617795D01*
X248736472Y-137347162D01*
X248736728Y-137054124D01*
X248624823Y-136783295D01*
X248417795Y-136575905D01*
X248147162Y-136463528D01*
X247854124Y-136463272D01*
X247583295Y-136575177D01*
X247375905Y-136782205D01*
X247263528Y-137052838D01*
X247263272Y-137345876D01*
X247273235Y-137369988D01*
X246921612Y-137721612D01*
X246836269Y-137849337D01*
X246806300Y-138000000D01*
X246806300Y-138302177D01*
X246575000Y-138302177D01*
X246463623Y-138323787D01*
X246450501Y-138332406D01*
X246439835Y-138325207D01*
X246325000Y-138302177D01*
X246075000Y-138302177D01*
X245963623Y-138323787D01*
X245950501Y-138332406D01*
X245939835Y-138325207D01*
X245825000Y-138302177D01*
X245575000Y-138302177D01*
X245463623Y-138323787D01*
X245450501Y-138332406D01*
X245439835Y-138325207D01*
X245325000Y-138302177D01*
X245075000Y-138302177D01*
X244963623Y-138323787D01*
X244950501Y-138332406D01*
X244939835Y-138325207D01*
X244825000Y-138302177D01*
X244575000Y-138302177D01*
X244463623Y-138323787D01*
X244450501Y-138332406D01*
X244439835Y-138325207D01*
X244325000Y-138302177D01*
X244075000Y-138302177D01*
X243963623Y-138323787D01*
X243950501Y-138332406D01*
X243939835Y-138325207D01*
X243825000Y-138302177D01*
X243575000Y-138302177D01*
X243463623Y-138323787D01*
X243450501Y-138332406D01*
X243439835Y-138325207D01*
X243325000Y-138302177D01*
X243075000Y-138302177D01*
X242963623Y-138323787D01*
X242950501Y-138332406D01*
X242939835Y-138325207D01*
X242825000Y-138302177D01*
X242575000Y-138302177D01*
X242463623Y-138323787D01*
X242450501Y-138332406D01*
X242439835Y-138325207D01*
X242325000Y-138302177D01*
X242075000Y-138302177D01*
X241963623Y-138323787D01*
X241950501Y-138332406D01*
X241939835Y-138325207D01*
X241825000Y-138302177D01*
X241575000Y-138302177D01*
X241463623Y-138323787D01*
X241450501Y-138332406D01*
X241439835Y-138325207D01*
X241325000Y-138302177D01*
X241075000Y-138302177D01*
X240963623Y-138323787D01*
X240921648Y-138351359D01*
X240878050Y-138333300D01*
X240829175Y-138333300D01*
X240762500Y-138399975D01*
X240762500Y-138934900D01*
X240777177Y-138934900D01*
X240777177Y-139265100D01*
X240762500Y-139265100D01*
X240762500Y-139800025D01*
X240829175Y-139866700D01*
X240878050Y-139866700D01*
X240921507Y-139848699D01*
X240960165Y-139874793D01*
X241075000Y-139897823D01*
X241325000Y-139897823D01*
X241436377Y-139876213D01*
X241449498Y-139867593D01*
X241460165Y-139874793D01*
X241550345Y-139892878D01*
X241536924Y-139906300D01*
X239863076Y-139906300D01*
X238493283Y-138536507D01*
X238745876Y-138536728D01*
X239016705Y-138424823D01*
X239180018Y-138261794D01*
X239777177Y-138858953D01*
X239777177Y-139600000D01*
X239798787Y-139711377D01*
X239863090Y-139809267D01*
X239960165Y-139874793D01*
X240075000Y-139897823D01*
X240325000Y-139897823D01*
X240436377Y-139876213D01*
X240478351Y-139848640D01*
X240521950Y-139866700D01*
X240570825Y-139866700D01*
X240637500Y-139800025D01*
X240637500Y-139265100D01*
X240622823Y-139265100D01*
X240622823Y-138934900D01*
X240637500Y-138934900D01*
X240637500Y-138399975D01*
X240593700Y-138356175D01*
X240593700Y-138333300D01*
X240593700Y-138213076D01*
X241478388Y-137328388D01*
X241563731Y-137200662D01*
X241593700Y-137050000D01*
X241593700Y-135847823D01*
X242000000Y-135847823D01*
X242111377Y-135826213D01*
X242209267Y-135761910D01*
X242274793Y-135664835D01*
X242297823Y-135550000D01*
X242297823Y-134943700D01*
X242852177Y-134943700D01*
X242852177Y-135550000D01*
X242873787Y-135661377D01*
X242938090Y-135759267D01*
X243035165Y-135824793D01*
X243150000Y-135847823D01*
X244750000Y-135847823D01*
X244861377Y-135826213D01*
X244959267Y-135761910D01*
X245024793Y-135664835D01*
X245047823Y-135550000D01*
X245047823Y-133550000D01*
X245026213Y-133438623D01*
X244961910Y-133340733D01*
X244864835Y-133275207D01*
X244750000Y-133252177D01*
X244554599Y-133252177D01*
X245068597Y-132738178D01*
X245056300Y-132800000D01*
X245056300Y-134550000D01*
X245086269Y-134700663D01*
X245171612Y-134828388D01*
X245921612Y-135578388D01*
X246049337Y-135663731D01*
X246049338Y-135663731D01*
X246200000Y-135693700D01*
X249233300Y-135693700D01*
X249233300Y-136108225D01*
X249299975Y-136174900D01*
X250434900Y-136174900D01*
X250434900Y-136154900D01*
X250765100Y-136154900D01*
X250765100Y-136174900D01*
X251900025Y-136174900D01*
X251966700Y-136108225D01*
X251966700Y-135978476D01*
X252947177Y-136958953D01*
X252947177Y-137775000D01*
X252968787Y-137886377D01*
X253033090Y-137984267D01*
X253130165Y-138049793D01*
X253151300Y-138054031D01*
X253151300Y-138791924D01*
G36*
X256956300Y-148927177D02*
X256250000Y-148927177D01*
X256138623Y-148948787D01*
X256040733Y-149013090D01*
X255975207Y-149110165D01*
X255952177Y-149225000D01*
X255952177Y-150189043D01*
X255416700Y-149653566D01*
X255416700Y-148008050D01*
X255416700Y-147551775D01*
X255416700Y-147088225D01*
X255416700Y-146631950D01*
X255376097Y-146533927D01*
X255301073Y-146458903D01*
X255203050Y-146418300D01*
X255096950Y-146418300D01*
X254281775Y-146418300D01*
X254215100Y-146484975D01*
X254215100Y-147154900D01*
X255350025Y-147154900D01*
X255416700Y-147088225D01*
X255416700Y-147551775D01*
X255350025Y-147485100D01*
X254215100Y-147485100D01*
X254215100Y-148155025D01*
X254281775Y-148221700D01*
X255096950Y-148221700D01*
X255203050Y-148221700D01*
X255301073Y-148181097D01*
X255376097Y-148106073D01*
X255416700Y-148008050D01*
X255416700Y-149653566D01*
X255213857Y-149450723D01*
X255086132Y-149365380D01*
X254935469Y-149335411D01*
X251983015Y-149335411D01*
X252098587Y-149258189D01*
X252878388Y-148478388D01*
X252963731Y-148350663D01*
X252963731Y-148350662D01*
X252989383Y-148221700D01*
X253003050Y-148221700D01*
X253818225Y-148221700D01*
X253884900Y-148155025D01*
X253884900Y-147485100D01*
X253864900Y-147485100D01*
X253864900Y-147154900D01*
X253884900Y-147154900D01*
X253884900Y-146484975D01*
X253818225Y-146418300D01*
X253003050Y-146418300D01*
X252993700Y-146418300D01*
X252993700Y-144691276D01*
X254328388Y-143356588D01*
X254413731Y-143228862D01*
X254424878Y-143172823D01*
X255150000Y-143172823D01*
X255261377Y-143151213D01*
X255306300Y-143121703D01*
X255306300Y-146050000D01*
X255336269Y-146200663D01*
X255421612Y-146328388D01*
X256956300Y-147863076D01*
X256956300Y-148927177D01*
X256956300Y-148927177D01*
G37*
X256956300Y-148927177D02*
X256250000Y-148927177D01*
X256138623Y-148948787D01*
X256040733Y-149013090D01*
X255975207Y-149110165D01*
X255952177Y-149225000D01*
X255952177Y-150189043D01*
X255416700Y-149653566D01*
X255416700Y-148008050D01*
X255416700Y-147551775D01*
X255416700Y-147088225D01*
X255416700Y-146631950D01*
X255376097Y-146533927D01*
X255301073Y-146458903D01*
X255203050Y-146418300D01*
X255096950Y-146418300D01*
X254281775Y-146418300D01*
X254215100Y-146484975D01*
X254215100Y-147154900D01*
X255350025Y-147154900D01*
X255416700Y-147088225D01*
X255416700Y-147551775D01*
X255350025Y-147485100D01*
X254215100Y-147485100D01*
X254215100Y-148155025D01*
X254281775Y-148221700D01*
X255096950Y-148221700D01*
X255203050Y-148221700D01*
X255301073Y-148181097D01*
X255376097Y-148106073D01*
X255416700Y-148008050D01*
X255416700Y-149653566D01*
X255213857Y-149450723D01*
X255086132Y-149365380D01*
X254935469Y-149335411D01*
X251983015Y-149335411D01*
X252098587Y-149258189D01*
X252878388Y-148478388D01*
X252963731Y-148350663D01*
X252963731Y-148350662D01*
X252989383Y-148221700D01*
X253003050Y-148221700D01*
X253818225Y-148221700D01*
X253884900Y-148155025D01*
X253884900Y-147485100D01*
X253864900Y-147485100D01*
X253864900Y-147154900D01*
X253884900Y-147154900D01*
X253884900Y-146484975D01*
X253818225Y-146418300D01*
X253003050Y-146418300D01*
X252993700Y-146418300D01*
X252993700Y-144691276D01*
X254328388Y-143356588D01*
X254413731Y-143228862D01*
X254424878Y-143172823D01*
X255150000Y-143172823D01*
X255261377Y-143151213D01*
X255306300Y-143121703D01*
X255306300Y-146050000D01*
X255336269Y-146200663D01*
X255421612Y-146328388D01*
X256956300Y-147863076D01*
X256956300Y-148927177D01*
G36*
X268556300Y-139636924D02*
X267846924Y-140346300D01*
X267503038Y-140346300D01*
X267496213Y-140311123D01*
X267431910Y-140213233D01*
X267334835Y-140147707D01*
X267220000Y-140124677D01*
X264680000Y-140124677D01*
X264568623Y-140146287D01*
X264470733Y-140210590D01*
X264405207Y-140307665D01*
X264382177Y-140422500D01*
X264382177Y-141057500D01*
X264403787Y-141168877D01*
X264468090Y-141266767D01*
X264565165Y-141332293D01*
X264680000Y-141355323D01*
X267220000Y-141355323D01*
X267331377Y-141333713D01*
X267429267Y-141269410D01*
X267494793Y-141172335D01*
X267502541Y-141133700D01*
X268010000Y-141133700D01*
X268071821Y-141121402D01*
X267576924Y-141616300D01*
X267503038Y-141616300D01*
X267496213Y-141581123D01*
X267431910Y-141483233D01*
X267334835Y-141417707D01*
X267220000Y-141394677D01*
X264680000Y-141394677D01*
X264568623Y-141416287D01*
X264470733Y-141480590D01*
X264405207Y-141577665D01*
X264382177Y-141692500D01*
X264382177Y-142068547D01*
X262772311Y-143678413D01*
X262686968Y-143806138D01*
X262656999Y-143956801D01*
X262656999Y-147753699D01*
X262686968Y-147904362D01*
X262772311Y-148032087D01*
X264390177Y-149649953D01*
X264390177Y-153629500D01*
X263978700Y-153629500D01*
X263978700Y-151781775D01*
X263978700Y-151318225D01*
X263978700Y-149444050D01*
X263978700Y-149337950D01*
X263938097Y-149239927D01*
X263863073Y-149164903D01*
X263765050Y-149124300D01*
X263181775Y-149124300D01*
X263115100Y-149190975D01*
X263115100Y-151384900D01*
X263912025Y-151384900D01*
X263978700Y-151318225D01*
X263978700Y-151781775D01*
X263912025Y-151715100D01*
X263115100Y-151715100D01*
X263115100Y-151735100D01*
X262784900Y-151735100D01*
X262784900Y-151715100D01*
X262784900Y-151384900D01*
X262784900Y-149190975D01*
X262718225Y-149124300D01*
X262134950Y-149124300D01*
X262036927Y-149164903D01*
X261961903Y-149239927D01*
X261921300Y-149337950D01*
X261921300Y-149444050D01*
X261921300Y-151318225D01*
X261987975Y-151384900D01*
X262784900Y-151384900D01*
X262784900Y-151715100D01*
X261987975Y-151715100D01*
X261921300Y-151781775D01*
X261921300Y-153629500D01*
X261509823Y-153629500D01*
X261509823Y-149391000D01*
X261488213Y-149279623D01*
X261423910Y-149181733D01*
X261326835Y-149116207D01*
X261250100Y-149100817D01*
X261250100Y-144977502D01*
X261250100Y-144250000D01*
X261189196Y-143943815D01*
X261015756Y-143684244D01*
X260965756Y-143634244D01*
X260706185Y-143460804D01*
X260400000Y-143399900D01*
X260346168Y-143410607D01*
X261829849Y-141926926D01*
X261852838Y-141936472D01*
X262145876Y-141936728D01*
X262416705Y-141824823D01*
X262624095Y-141617795D01*
X262736472Y-141347162D01*
X262736728Y-141054124D01*
X262624823Y-140783295D01*
X262417795Y-140575905D01*
X262147162Y-140463528D01*
X261854124Y-140463272D01*
X261583295Y-140575177D01*
X261375905Y-140782205D01*
X261263528Y-141052838D01*
X261263272Y-141345876D01*
X261273235Y-141369988D01*
X258679981Y-143963242D01*
X258661910Y-143935733D01*
X258564835Y-143870207D01*
X258450000Y-143847177D01*
X257743700Y-143847177D01*
X257743700Y-142548049D01*
X257824095Y-142467795D01*
X257936472Y-142197162D01*
X257936728Y-141904124D01*
X257824823Y-141633295D01*
X257617795Y-141425905D01*
X257347162Y-141313528D01*
X257054124Y-141313272D01*
X256783295Y-141425177D01*
X256575905Y-141632205D01*
X256463528Y-141902838D01*
X256463272Y-142195876D01*
X256575177Y-142466705D01*
X256782205Y-142674095D01*
X256956300Y-142746385D01*
X256956300Y-143847177D01*
X256250000Y-143847177D01*
X256138623Y-143868787D01*
X256093700Y-143898296D01*
X256093700Y-140800000D01*
X256063731Y-140649338D01*
X256063731Y-140649337D01*
X255978388Y-140521612D01*
X255676926Y-140220150D01*
X255686472Y-140197162D01*
X255686728Y-139904124D01*
X255574823Y-139633295D01*
X255367795Y-139425905D01*
X255097162Y-139313528D01*
X254993338Y-139313437D01*
X255363076Y-138943700D01*
X255979570Y-138943700D01*
X255975207Y-138950165D01*
X255952177Y-139065000D01*
X255952177Y-140335000D01*
X255973787Y-140446377D01*
X256038090Y-140544267D01*
X256135165Y-140609793D01*
X256250000Y-140632823D01*
X258450000Y-140632823D01*
X258561377Y-140611213D01*
X258659267Y-140546910D01*
X258724793Y-140449835D01*
X258747823Y-140335000D01*
X258747823Y-139065000D01*
X258726213Y-138953623D01*
X258661910Y-138855733D01*
X258564835Y-138790207D01*
X258450000Y-138767177D01*
X256789599Y-138767177D01*
X257483953Y-138072823D01*
X257655000Y-138072823D01*
X257766377Y-138051213D01*
X257864267Y-137986910D01*
X257929793Y-137889835D01*
X257952823Y-137775000D01*
X257952823Y-136225000D01*
X257931213Y-136113623D01*
X257866910Y-136015733D01*
X257769835Y-135950207D01*
X257748700Y-135945968D01*
X257748700Y-135455000D01*
X257718731Y-135304338D01*
X257718730Y-135304337D01*
X257633388Y-135176612D01*
X256150476Y-133693700D01*
X256286924Y-133693700D01*
X259801612Y-137208388D01*
X259929337Y-137293731D01*
X259929338Y-137293731D01*
X260080000Y-137323700D01*
X264396961Y-137323700D01*
X264403787Y-137358877D01*
X264468090Y-137456767D01*
X264565165Y-137522293D01*
X264680000Y-137545323D01*
X267220000Y-137545323D01*
X267331377Y-137523713D01*
X267429267Y-137459410D01*
X267494793Y-137362335D01*
X267517823Y-137247500D01*
X267517823Y-136612500D01*
X267496213Y-136501123D01*
X267486700Y-136486641D01*
X267486700Y-136030550D01*
X267486700Y-135885425D01*
X267420025Y-135818750D01*
X266115100Y-135818750D01*
X266115100Y-136177525D01*
X266181775Y-136244200D01*
X267166950Y-136244200D01*
X267273050Y-136244200D01*
X267371073Y-136203597D01*
X267446097Y-136128573D01*
X267486700Y-136030550D01*
X267486700Y-136486641D01*
X267431910Y-136403233D01*
X267334835Y-136337707D01*
X267220000Y-136314677D01*
X265784900Y-136314677D01*
X265784900Y-136177525D01*
X265784900Y-135818750D01*
X264479975Y-135818750D01*
X264413300Y-135885425D01*
X264413300Y-136030550D01*
X264453903Y-136128573D01*
X264528927Y-136203597D01*
X264626950Y-136244200D01*
X264733050Y-136244200D01*
X265718225Y-136244200D01*
X265784900Y-136177525D01*
X265784900Y-136314677D01*
X264680000Y-136314677D01*
X264568623Y-136336287D01*
X264470733Y-136400590D01*
X264405207Y-136497665D01*
X264397458Y-136536300D01*
X260243076Y-136536300D01*
X257921700Y-134214924D01*
X257921700Y-132428050D01*
X257921700Y-131831775D01*
X257855025Y-131765100D01*
X257505000Y-131765100D01*
X257505000Y-132575025D01*
X257571675Y-132641700D01*
X257601950Y-132641700D01*
X257708050Y-132641700D01*
X257806073Y-132601097D01*
X257881097Y-132526073D01*
X257921700Y-132428050D01*
X257921700Y-134214924D01*
X257205000Y-133498224D01*
X257205000Y-132575025D01*
X257205000Y-131765100D01*
X256854975Y-131765100D01*
X256788300Y-131831775D01*
X256788300Y-132428050D01*
X256828903Y-132526073D01*
X256903927Y-132601097D01*
X257001950Y-132641700D01*
X257108050Y-132641700D01*
X257138325Y-132641700D01*
X257205000Y-132575025D01*
X257205000Y-133498224D01*
X256728388Y-133021612D01*
X256600663Y-132936269D01*
X256450000Y-132906300D01*
X253066532Y-132906300D01*
X253113731Y-132835662D01*
X253143700Y-132685000D01*
X253143700Y-132652507D01*
X253245000Y-132672823D01*
X253845000Y-132672823D01*
X253956377Y-132651213D01*
X254054267Y-132586910D01*
X254119793Y-132489835D01*
X254142823Y-132375000D01*
X254142823Y-130913953D01*
X254217177Y-130839599D01*
X254217177Y-132375000D01*
X254238787Y-132486377D01*
X254303090Y-132584267D01*
X254400165Y-132649793D01*
X254515000Y-132672823D01*
X255115000Y-132672823D01*
X255226377Y-132651213D01*
X255324267Y-132586910D01*
X255389793Y-132489835D01*
X255412823Y-132375000D01*
X255412823Y-130825000D01*
X255391213Y-130713623D01*
X255326910Y-130615733D01*
X255229835Y-130550207D01*
X255208700Y-130545968D01*
X255208700Y-130504478D01*
X255363076Y-130350102D01*
X255843122Y-130350102D01*
X255806612Y-130386612D01*
X255721269Y-130514337D01*
X255716054Y-130540554D01*
X255673623Y-130548787D01*
X255575733Y-130613090D01*
X255510207Y-130710165D01*
X255487177Y-130825000D01*
X255487177Y-132375000D01*
X255508787Y-132486377D01*
X255573090Y-132584267D01*
X255670165Y-132649793D01*
X255785000Y-132672823D01*
X256385000Y-132672823D01*
X256496377Y-132651213D01*
X256594267Y-132586910D01*
X256659793Y-132489835D01*
X256682823Y-132375000D01*
X256682823Y-130825000D01*
X256669533Y-130756504D01*
X256794698Y-130756504D01*
X256788300Y-130771950D01*
X256788300Y-131368225D01*
X256854975Y-131434900D01*
X257205000Y-131434900D01*
X257205000Y-131414900D01*
X257505000Y-131414900D01*
X257505000Y-131434900D01*
X257855025Y-131434900D01*
X257921700Y-131368225D01*
X257921700Y-130771950D01*
X257915301Y-130756504D01*
X259349728Y-130756504D01*
X260556300Y-131963076D01*
X260556300Y-132402177D01*
X259950000Y-132402177D01*
X259838623Y-132423787D01*
X259740733Y-132488090D01*
X259675207Y-132585165D01*
X259652177Y-132700000D01*
X259652177Y-134400000D01*
X259673787Y-134511377D01*
X259738090Y-134609267D01*
X259835165Y-134674793D01*
X259950000Y-134697823D01*
X261950000Y-134697823D01*
X262061377Y-134676213D01*
X262159267Y-134611910D01*
X262224793Y-134514835D01*
X262247823Y-134400000D01*
X262247823Y-134154599D01*
X263171612Y-135078388D01*
X263299337Y-135163731D01*
X263299338Y-135163731D01*
X263450000Y-135193700D01*
X264452961Y-135193700D01*
X264413300Y-135289450D01*
X264413300Y-135434575D01*
X264479975Y-135501250D01*
X265784900Y-135501250D01*
X265784900Y-135474900D01*
X266115100Y-135474900D01*
X266115100Y-135501250D01*
X267420025Y-135501250D01*
X267486700Y-135434575D01*
X267486700Y-135289450D01*
X267447038Y-135193700D01*
X267786924Y-135193700D01*
X268056300Y-135463076D01*
X268056300Y-138636924D01*
X267616924Y-139076300D01*
X267503038Y-139076300D01*
X267496213Y-139041123D01*
X267486700Y-139026641D01*
X267486700Y-138570550D01*
X267486700Y-138425425D01*
X267486700Y-137974575D01*
X267486700Y-137829450D01*
X267446097Y-137731427D01*
X267371073Y-137656403D01*
X267273050Y-137615800D01*
X267166950Y-137615800D01*
X266181775Y-137615800D01*
X266115100Y-137682475D01*
X266115100Y-138041250D01*
X267420025Y-138041250D01*
X267486700Y-137974575D01*
X267486700Y-138425425D01*
X267420025Y-138358750D01*
X266115100Y-138358750D01*
X266115100Y-138717525D01*
X266181775Y-138784200D01*
X267166950Y-138784200D01*
X267273050Y-138784200D01*
X267371073Y-138743597D01*
X267446097Y-138668573D01*
X267486700Y-138570550D01*
X267486700Y-139026641D01*
X267431910Y-138943233D01*
X267334835Y-138877707D01*
X267220000Y-138854677D01*
X265784900Y-138854677D01*
X265784900Y-138717525D01*
X265784900Y-138358750D01*
X265784900Y-138041250D01*
X265784900Y-137682475D01*
X265718225Y-137615800D01*
X264733050Y-137615800D01*
X264626950Y-137615800D01*
X264528927Y-137656403D01*
X264453903Y-137731427D01*
X264413300Y-137829450D01*
X264413300Y-137974575D01*
X264479975Y-138041250D01*
X265784900Y-138041250D01*
X265784900Y-138358750D01*
X264479975Y-138358750D01*
X264413300Y-138425425D01*
X264413300Y-138570550D01*
X264453903Y-138668573D01*
X264528927Y-138743597D01*
X264626950Y-138784200D01*
X264733050Y-138784200D01*
X265718225Y-138784200D01*
X265784900Y-138717525D01*
X265784900Y-138854677D01*
X264680000Y-138854677D01*
X264568623Y-138876287D01*
X264470733Y-138940590D01*
X264405207Y-139037665D01*
X264382177Y-139152500D01*
X264382177Y-139787500D01*
X264403787Y-139898877D01*
X264468090Y-139996767D01*
X264565165Y-140062293D01*
X264680000Y-140085323D01*
X267220000Y-140085323D01*
X267331377Y-140063713D01*
X267429267Y-139999410D01*
X267494793Y-139902335D01*
X267502541Y-139863700D01*
X267780000Y-139863700D01*
X267930662Y-139833731D01*
X267930663Y-139833731D01*
X268058388Y-139748388D01*
X268556300Y-139250476D01*
X268556300Y-139636924D01*
X268556300Y-139636924D01*
G37*
X268556300Y-139636924D02*
X267846924Y-140346300D01*
X267503038Y-140346300D01*
X267496213Y-140311123D01*
X267431910Y-140213233D01*
X267334835Y-140147707D01*
X267220000Y-140124677D01*
X264680000Y-140124677D01*
X264568623Y-140146287D01*
X264470733Y-140210590D01*
X264405207Y-140307665D01*
X264382177Y-140422500D01*
X264382177Y-141057500D01*
X264403787Y-141168877D01*
X264468090Y-141266767D01*
X264565165Y-141332293D01*
X264680000Y-141355323D01*
X267220000Y-141355323D01*
X267331377Y-141333713D01*
X267429267Y-141269410D01*
X267494793Y-141172335D01*
X267502541Y-141133700D01*
X268010000Y-141133700D01*
X268071821Y-141121402D01*
X267576924Y-141616300D01*
X267503038Y-141616300D01*
X267496213Y-141581123D01*
X267431910Y-141483233D01*
X267334835Y-141417707D01*
X267220000Y-141394677D01*
X264680000Y-141394677D01*
X264568623Y-141416287D01*
X264470733Y-141480590D01*
X264405207Y-141577665D01*
X264382177Y-141692500D01*
X264382177Y-142068547D01*
X262772311Y-143678413D01*
X262686968Y-143806138D01*
X262656999Y-143956801D01*
X262656999Y-147753699D01*
X262686968Y-147904362D01*
X262772311Y-148032087D01*
X264390177Y-149649953D01*
X264390177Y-153629500D01*
X263978700Y-153629500D01*
X263978700Y-151781775D01*
X263978700Y-151318225D01*
X263978700Y-149444050D01*
X263978700Y-149337950D01*
X263938097Y-149239927D01*
X263863073Y-149164903D01*
X263765050Y-149124300D01*
X263181775Y-149124300D01*
X263115100Y-149190975D01*
X263115100Y-151384900D01*
X263912025Y-151384900D01*
X263978700Y-151318225D01*
X263978700Y-151781775D01*
X263912025Y-151715100D01*
X263115100Y-151715100D01*
X263115100Y-151735100D01*
X262784900Y-151735100D01*
X262784900Y-151715100D01*
X262784900Y-151384900D01*
X262784900Y-149190975D01*
X262718225Y-149124300D01*
X262134950Y-149124300D01*
X262036927Y-149164903D01*
X261961903Y-149239927D01*
X261921300Y-149337950D01*
X261921300Y-149444050D01*
X261921300Y-151318225D01*
X261987975Y-151384900D01*
X262784900Y-151384900D01*
X262784900Y-151715100D01*
X261987975Y-151715100D01*
X261921300Y-151781775D01*
X261921300Y-153629500D01*
X261509823Y-153629500D01*
X261509823Y-149391000D01*
X261488213Y-149279623D01*
X261423910Y-149181733D01*
X261326835Y-149116207D01*
X261250100Y-149100817D01*
X261250100Y-144977502D01*
X261250100Y-144250000D01*
X261189196Y-143943815D01*
X261015756Y-143684244D01*
X260965756Y-143634244D01*
X260706185Y-143460804D01*
X260400000Y-143399900D01*
X260346168Y-143410607D01*
X261829849Y-141926926D01*
X261852838Y-141936472D01*
X262145876Y-141936728D01*
X262416705Y-141824823D01*
X262624095Y-141617795D01*
X262736472Y-141347162D01*
X262736728Y-141054124D01*
X262624823Y-140783295D01*
X262417795Y-140575905D01*
X262147162Y-140463528D01*
X261854124Y-140463272D01*
X261583295Y-140575177D01*
X261375905Y-140782205D01*
X261263528Y-141052838D01*
X261263272Y-141345876D01*
X261273235Y-141369988D01*
X258679981Y-143963242D01*
X258661910Y-143935733D01*
X258564835Y-143870207D01*
X258450000Y-143847177D01*
X257743700Y-143847177D01*
X257743700Y-142548049D01*
X257824095Y-142467795D01*
X257936472Y-142197162D01*
X257936728Y-141904124D01*
X257824823Y-141633295D01*
X257617795Y-141425905D01*
X257347162Y-141313528D01*
X257054124Y-141313272D01*
X256783295Y-141425177D01*
X256575905Y-141632205D01*
X256463528Y-141902838D01*
X256463272Y-142195876D01*
X256575177Y-142466705D01*
X256782205Y-142674095D01*
X256956300Y-142746385D01*
X256956300Y-143847177D01*
X256250000Y-143847177D01*
X256138623Y-143868787D01*
X256093700Y-143898296D01*
X256093700Y-140800000D01*
X256063731Y-140649338D01*
X256063731Y-140649337D01*
X255978388Y-140521612D01*
X255676926Y-140220150D01*
X255686472Y-140197162D01*
X255686728Y-139904124D01*
X255574823Y-139633295D01*
X255367795Y-139425905D01*
X255097162Y-139313528D01*
X254993338Y-139313437D01*
X255363076Y-138943700D01*
X255979570Y-138943700D01*
X255975207Y-138950165D01*
X255952177Y-139065000D01*
X255952177Y-140335000D01*
X255973787Y-140446377D01*
X256038090Y-140544267D01*
X256135165Y-140609793D01*
X256250000Y-140632823D01*
X258450000Y-140632823D01*
X258561377Y-140611213D01*
X258659267Y-140546910D01*
X258724793Y-140449835D01*
X258747823Y-140335000D01*
X258747823Y-139065000D01*
X258726213Y-138953623D01*
X258661910Y-138855733D01*
X258564835Y-138790207D01*
X258450000Y-138767177D01*
X256789599Y-138767177D01*
X257483953Y-138072823D01*
X257655000Y-138072823D01*
X257766377Y-138051213D01*
X257864267Y-137986910D01*
X257929793Y-137889835D01*
X257952823Y-137775000D01*
X257952823Y-136225000D01*
X257931213Y-136113623D01*
X257866910Y-136015733D01*
X257769835Y-135950207D01*
X257748700Y-135945968D01*
X257748700Y-135455000D01*
X257718731Y-135304338D01*
X257718730Y-135304337D01*
X257633388Y-135176612D01*
X256150476Y-133693700D01*
X256286924Y-133693700D01*
X259801612Y-137208388D01*
X259929337Y-137293731D01*
X259929338Y-137293731D01*
X260080000Y-137323700D01*
X264396961Y-137323700D01*
X264403787Y-137358877D01*
X264468090Y-137456767D01*
X264565165Y-137522293D01*
X264680000Y-137545323D01*
X267220000Y-137545323D01*
X267331377Y-137523713D01*
X267429267Y-137459410D01*
X267494793Y-137362335D01*
X267517823Y-137247500D01*
X267517823Y-136612500D01*
X267496213Y-136501123D01*
X267486700Y-136486641D01*
X267486700Y-136030550D01*
X267486700Y-135885425D01*
X267420025Y-135818750D01*
X266115100Y-135818750D01*
X266115100Y-136177525D01*
X266181775Y-136244200D01*
X267166950Y-136244200D01*
X267273050Y-136244200D01*
X267371073Y-136203597D01*
X267446097Y-136128573D01*
X267486700Y-136030550D01*
X267486700Y-136486641D01*
X267431910Y-136403233D01*
X267334835Y-136337707D01*
X267220000Y-136314677D01*
X265784900Y-136314677D01*
X265784900Y-136177525D01*
X265784900Y-135818750D01*
X264479975Y-135818750D01*
X264413300Y-135885425D01*
X264413300Y-136030550D01*
X264453903Y-136128573D01*
X264528927Y-136203597D01*
X264626950Y-136244200D01*
X264733050Y-136244200D01*
X265718225Y-136244200D01*
X265784900Y-136177525D01*
X265784900Y-136314677D01*
X264680000Y-136314677D01*
X264568623Y-136336287D01*
X264470733Y-136400590D01*
X264405207Y-136497665D01*
X264397458Y-136536300D01*
X260243076Y-136536300D01*
X257921700Y-134214924D01*
X257921700Y-132428050D01*
X257921700Y-131831775D01*
X257855025Y-131765100D01*
X257505000Y-131765100D01*
X257505000Y-132575025D01*
X257571675Y-132641700D01*
X257601950Y-132641700D01*
X257708050Y-132641700D01*
X257806073Y-132601097D01*
X257881097Y-132526073D01*
X257921700Y-132428050D01*
X257921700Y-134214924D01*
X257205000Y-133498224D01*
X257205000Y-132575025D01*
X257205000Y-131765100D01*
X256854975Y-131765100D01*
X256788300Y-131831775D01*
X256788300Y-132428050D01*
X256828903Y-132526073D01*
X256903927Y-132601097D01*
X257001950Y-132641700D01*
X257108050Y-132641700D01*
X257138325Y-132641700D01*
X257205000Y-132575025D01*
X257205000Y-133498224D01*
X256728388Y-133021612D01*
X256600663Y-132936269D01*
X256450000Y-132906300D01*
X253066532Y-132906300D01*
X253113731Y-132835662D01*
X253143700Y-132685000D01*
X253143700Y-132652507D01*
X253245000Y-132672823D01*
X253845000Y-132672823D01*
X253956377Y-132651213D01*
X254054267Y-132586910D01*
X254119793Y-132489835D01*
X254142823Y-132375000D01*
X254142823Y-130913953D01*
X254217177Y-130839599D01*
X254217177Y-132375000D01*
X254238787Y-132486377D01*
X254303090Y-132584267D01*
X254400165Y-132649793D01*
X254515000Y-132672823D01*
X255115000Y-132672823D01*
X255226377Y-132651213D01*
X255324267Y-132586910D01*
X255389793Y-132489835D01*
X255412823Y-132375000D01*
X255412823Y-130825000D01*
X255391213Y-130713623D01*
X255326910Y-130615733D01*
X255229835Y-130550207D01*
X255208700Y-130545968D01*
X255208700Y-130504478D01*
X255363076Y-130350102D01*
X255843122Y-130350102D01*
X255806612Y-130386612D01*
X255721269Y-130514337D01*
X255716054Y-130540554D01*
X255673623Y-130548787D01*
X255575733Y-130613090D01*
X255510207Y-130710165D01*
X255487177Y-130825000D01*
X255487177Y-132375000D01*
X255508787Y-132486377D01*
X255573090Y-132584267D01*
X255670165Y-132649793D01*
X255785000Y-132672823D01*
X256385000Y-132672823D01*
X256496377Y-132651213D01*
X256594267Y-132586910D01*
X256659793Y-132489835D01*
X256682823Y-132375000D01*
X256682823Y-130825000D01*
X256669533Y-130756504D01*
X256794698Y-130756504D01*
X256788300Y-130771950D01*
X256788300Y-131368225D01*
X256854975Y-131434900D01*
X257205000Y-131434900D01*
X257205000Y-131414900D01*
X257505000Y-131414900D01*
X257505000Y-131434900D01*
X257855025Y-131434900D01*
X257921700Y-131368225D01*
X257921700Y-130771950D01*
X257915301Y-130756504D01*
X259349728Y-130756504D01*
X260556300Y-131963076D01*
X260556300Y-132402177D01*
X259950000Y-132402177D01*
X259838623Y-132423787D01*
X259740733Y-132488090D01*
X259675207Y-132585165D01*
X259652177Y-132700000D01*
X259652177Y-134400000D01*
X259673787Y-134511377D01*
X259738090Y-134609267D01*
X259835165Y-134674793D01*
X259950000Y-134697823D01*
X261950000Y-134697823D01*
X262061377Y-134676213D01*
X262159267Y-134611910D01*
X262224793Y-134514835D01*
X262247823Y-134400000D01*
X262247823Y-134154599D01*
X263171612Y-135078388D01*
X263299337Y-135163731D01*
X263299338Y-135163731D01*
X263450000Y-135193700D01*
X264452961Y-135193700D01*
X264413300Y-135289450D01*
X264413300Y-135434575D01*
X264479975Y-135501250D01*
X265784900Y-135501250D01*
X265784900Y-135474900D01*
X266115100Y-135474900D01*
X266115100Y-135501250D01*
X267420025Y-135501250D01*
X267486700Y-135434575D01*
X267486700Y-135289450D01*
X267447038Y-135193700D01*
X267786924Y-135193700D01*
X268056300Y-135463076D01*
X268056300Y-138636924D01*
X267616924Y-139076300D01*
X267503038Y-139076300D01*
X267496213Y-139041123D01*
X267486700Y-139026641D01*
X267486700Y-138570550D01*
X267486700Y-138425425D01*
X267486700Y-137974575D01*
X267486700Y-137829450D01*
X267446097Y-137731427D01*
X267371073Y-137656403D01*
X267273050Y-137615800D01*
X267166950Y-137615800D01*
X266181775Y-137615800D01*
X266115100Y-137682475D01*
X266115100Y-138041250D01*
X267420025Y-138041250D01*
X267486700Y-137974575D01*
X267486700Y-138425425D01*
X267420025Y-138358750D01*
X266115100Y-138358750D01*
X266115100Y-138717525D01*
X266181775Y-138784200D01*
X267166950Y-138784200D01*
X267273050Y-138784200D01*
X267371073Y-138743597D01*
X267446097Y-138668573D01*
X267486700Y-138570550D01*
X267486700Y-139026641D01*
X267431910Y-138943233D01*
X267334835Y-138877707D01*
X267220000Y-138854677D01*
X265784900Y-138854677D01*
X265784900Y-138717525D01*
X265784900Y-138358750D01*
X265784900Y-138041250D01*
X265784900Y-137682475D01*
X265718225Y-137615800D01*
X264733050Y-137615800D01*
X264626950Y-137615800D01*
X264528927Y-137656403D01*
X264453903Y-137731427D01*
X264413300Y-137829450D01*
X264413300Y-137974575D01*
X264479975Y-138041250D01*
X265784900Y-138041250D01*
X265784900Y-138358750D01*
X264479975Y-138358750D01*
X264413300Y-138425425D01*
X264413300Y-138570550D01*
X264453903Y-138668573D01*
X264528927Y-138743597D01*
X264626950Y-138784200D01*
X264733050Y-138784200D01*
X265718225Y-138784200D01*
X265784900Y-138717525D01*
X265784900Y-138854677D01*
X264680000Y-138854677D01*
X264568623Y-138876287D01*
X264470733Y-138940590D01*
X264405207Y-139037665D01*
X264382177Y-139152500D01*
X264382177Y-139787500D01*
X264403787Y-139898877D01*
X264468090Y-139996767D01*
X264565165Y-140062293D01*
X264680000Y-140085323D01*
X267220000Y-140085323D01*
X267331377Y-140063713D01*
X267429267Y-139999410D01*
X267494793Y-139902335D01*
X267502541Y-139863700D01*
X267780000Y-139863700D01*
X267930662Y-139833731D01*
X267930663Y-139833731D01*
X268058388Y-139748388D01*
X268556300Y-139250476D01*
X268556300Y-139636924D01*
G36*
X282861100Y-151002452D02*
X282760000Y-150982177D01*
X280649623Y-150982177D01*
X280649623Y-150493600D01*
X280649623Y-145972400D01*
X280628013Y-145861023D01*
X280563710Y-145763133D01*
X280466635Y-145697607D01*
X280351800Y-145674577D01*
X275144800Y-145674577D01*
X275033423Y-145696187D01*
X274935533Y-145760490D01*
X274870007Y-145857565D01*
X274846977Y-145972400D01*
X274846977Y-150493600D01*
X274868587Y-150604977D01*
X274932890Y-150702867D01*
X275029965Y-150768393D01*
X275144800Y-150791423D01*
X280351800Y-150791423D01*
X280463177Y-150769813D01*
X280561067Y-150705510D01*
X280626593Y-150608435D01*
X280649623Y-150493600D01*
X280649623Y-150982177D01*
X275140000Y-150982177D01*
X275028623Y-151003787D01*
X274930733Y-151068090D01*
X274865207Y-151165165D01*
X274842177Y-151280000D01*
X274842177Y-153561047D01*
X274773724Y-153629500D01*
X274009823Y-153629500D01*
X274009823Y-149391000D01*
X273988213Y-149279623D01*
X273923910Y-149181733D01*
X273826835Y-149116207D01*
X273712000Y-149093177D01*
X272446953Y-149093177D01*
X269875388Y-146521612D01*
X269747663Y-146436269D01*
X269597000Y-146406300D01*
X267517823Y-146406300D01*
X267517823Y-144867500D01*
X267517823Y-144232500D01*
X267496213Y-144121123D01*
X267431910Y-144023233D01*
X267334835Y-143957707D01*
X267220000Y-143934677D01*
X264680000Y-143934677D01*
X264568623Y-143956287D01*
X264470733Y-144020590D01*
X264405207Y-144117665D01*
X264382177Y-144232500D01*
X264382177Y-144867500D01*
X264403787Y-144978877D01*
X264468090Y-145076767D01*
X264565165Y-145142293D01*
X264680000Y-145165323D01*
X267220000Y-145165323D01*
X267331377Y-145143713D01*
X267429267Y-145079410D01*
X267494793Y-144982335D01*
X267517823Y-144867500D01*
X267517823Y-146406300D01*
X264434328Y-146406300D01*
X264424823Y-146383295D01*
X264217795Y-146175905D01*
X263947162Y-146063528D01*
X263654124Y-146063272D01*
X263444399Y-146149929D01*
X263444399Y-144119877D01*
X264382177Y-143182099D01*
X264382177Y-143597500D01*
X264403787Y-143708877D01*
X264468090Y-143806767D01*
X264565165Y-143872293D01*
X264680000Y-143895323D01*
X267220000Y-143895323D01*
X267331377Y-143873713D01*
X267429267Y-143809410D01*
X267494793Y-143712335D01*
X267517823Y-143597500D01*
X267517823Y-142962500D01*
X267496213Y-142851123D01*
X267431910Y-142753233D01*
X267334835Y-142687707D01*
X267220000Y-142664677D01*
X264899599Y-142664677D01*
X264938953Y-142625323D01*
X267220000Y-142625323D01*
X267331377Y-142603713D01*
X267429267Y-142539410D01*
X267494793Y-142442335D01*
X267502541Y-142403700D01*
X267740000Y-142403700D01*
X267890662Y-142373731D01*
X267890663Y-142373731D01*
X268018388Y-142288388D01*
X269978388Y-140328388D01*
X270063731Y-140200662D01*
X270093700Y-140050000D01*
X270093700Y-134800000D01*
X270063731Y-134649338D01*
X270063731Y-134649337D01*
X269978388Y-134521612D01*
X264728388Y-129271612D01*
X264600663Y-129186269D01*
X264450000Y-129156300D01*
X254950000Y-129156300D01*
X254799337Y-129186269D01*
X254671612Y-129271612D01*
X253416047Y-130527177D01*
X253245000Y-130527177D01*
X253133623Y-130548787D01*
X253035733Y-130613090D01*
X252970207Y-130710165D01*
X252947177Y-130825000D01*
X252947177Y-131082349D01*
X252900662Y-131051269D01*
X252750000Y-131021300D01*
X252599338Y-131051269D01*
X252593700Y-131055036D01*
X252593700Y-130050000D01*
X252563731Y-129899338D01*
X252478388Y-129771612D01*
X251978388Y-129271612D01*
X251850663Y-129186269D01*
X251700000Y-129156300D01*
X247700000Y-129156300D01*
X247549338Y-129186269D01*
X247421612Y-129271612D01*
X245016700Y-131676524D01*
X245016700Y-131603050D01*
X245016700Y-130781775D01*
X245016700Y-130318225D01*
X245016700Y-129496950D01*
X244976097Y-129398927D01*
X244901073Y-129323903D01*
X244803050Y-129283300D01*
X244696950Y-129283300D01*
X244181775Y-129283300D01*
X244115100Y-129349975D01*
X244115100Y-130384900D01*
X244950025Y-130384900D01*
X245016700Y-130318225D01*
X245016700Y-130781775D01*
X244950025Y-130715100D01*
X244115100Y-130715100D01*
X244115100Y-131750025D01*
X244181775Y-131816700D01*
X244696950Y-131816700D01*
X244803050Y-131816700D01*
X244901073Y-131776097D01*
X244976097Y-131701073D01*
X245016700Y-131603050D01*
X245016700Y-131676524D01*
X243784900Y-132908324D01*
X243784900Y-131750025D01*
X243784900Y-130715100D01*
X243784900Y-130384900D01*
X243784900Y-129349975D01*
X243718225Y-129283300D01*
X243203050Y-129283300D01*
X243096950Y-129283300D01*
X242998927Y-129323903D01*
X242923903Y-129398927D01*
X242883300Y-129496950D01*
X242883300Y-130318225D01*
X242949975Y-130384900D01*
X243784900Y-130384900D01*
X243784900Y-130715100D01*
X242949975Y-130715100D01*
X242883300Y-130781775D01*
X242883300Y-131603050D01*
X242923903Y-131701073D01*
X242998927Y-131776097D01*
X243096950Y-131816700D01*
X243203050Y-131816700D01*
X243718225Y-131816700D01*
X243784900Y-131750025D01*
X243784900Y-132908324D01*
X243671612Y-133021612D01*
X243586269Y-133149337D01*
X243565812Y-133252177D01*
X243150000Y-133252177D01*
X243038623Y-133273787D01*
X242940733Y-133338090D01*
X242875207Y-133435165D01*
X242852177Y-133550000D01*
X242852177Y-134156300D01*
X242297823Y-134156300D01*
X242297823Y-133550000D01*
X242276213Y-133438623D01*
X242266700Y-133424141D01*
X242266700Y-131603050D01*
X242266700Y-130781775D01*
X242266700Y-130318225D01*
X242266700Y-129496950D01*
X242226097Y-129398927D01*
X242151073Y-129323903D01*
X242053050Y-129283300D01*
X241946950Y-129283300D01*
X241431775Y-129283300D01*
X241365100Y-129349975D01*
X241365100Y-130384900D01*
X242200025Y-130384900D01*
X242266700Y-130318225D01*
X242266700Y-130781775D01*
X242200025Y-130715100D01*
X241365100Y-130715100D01*
X241365100Y-131750025D01*
X241431775Y-131816700D01*
X241946950Y-131816700D01*
X242053050Y-131816700D01*
X242151073Y-131776097D01*
X242226097Y-131701073D01*
X242266700Y-131603050D01*
X242266700Y-133424141D01*
X242211910Y-133340733D01*
X242114835Y-133275207D01*
X242000000Y-133252177D01*
X241034900Y-133252177D01*
X241034900Y-131750025D01*
X241034900Y-130715100D01*
X241034900Y-130384900D01*
X241034900Y-129349975D01*
X240968225Y-129283300D01*
X240453050Y-129283300D01*
X240346950Y-129283300D01*
X240248927Y-129323903D01*
X240173903Y-129398927D01*
X240133300Y-129496950D01*
X240133300Y-130318225D01*
X240199975Y-130384900D01*
X241034900Y-130384900D01*
X241034900Y-130715100D01*
X240199975Y-130715100D01*
X240133300Y-130781775D01*
X240133300Y-131603050D01*
X240173903Y-131701073D01*
X240248927Y-131776097D01*
X240346950Y-131816700D01*
X240453050Y-131816700D01*
X240968225Y-131816700D01*
X241034900Y-131750025D01*
X241034900Y-133252177D01*
X240400000Y-133252177D01*
X240288623Y-133273787D01*
X240190733Y-133338090D01*
X240125207Y-133435165D01*
X240102177Y-133550000D01*
X240102177Y-134156300D01*
X239547823Y-134156300D01*
X239547823Y-133550000D01*
X239526213Y-133438623D01*
X239516700Y-133424141D01*
X239516700Y-131603050D01*
X239516700Y-130781775D01*
X239516700Y-130318225D01*
X239516700Y-129496950D01*
X239476097Y-129398927D01*
X239401073Y-129323903D01*
X239303050Y-129283300D01*
X239196950Y-129283300D01*
X238681775Y-129283300D01*
X238615100Y-129349975D01*
X238615100Y-130384900D01*
X239450025Y-130384900D01*
X239516700Y-130318225D01*
X239516700Y-130781775D01*
X239450025Y-130715100D01*
X238615100Y-130715100D01*
X238615100Y-131750025D01*
X238681775Y-131816700D01*
X239196950Y-131816700D01*
X239303050Y-131816700D01*
X239401073Y-131776097D01*
X239476097Y-131701073D01*
X239516700Y-131603050D01*
X239516700Y-133424141D01*
X239461910Y-133340733D01*
X239364835Y-133275207D01*
X239250000Y-133252177D01*
X238284900Y-133252177D01*
X238284900Y-131750025D01*
X238284900Y-130715100D01*
X238284900Y-130384900D01*
X238284900Y-129349975D01*
X238218225Y-129283300D01*
X237703050Y-129283300D01*
X237596950Y-129283300D01*
X237498927Y-129323903D01*
X237423903Y-129398927D01*
X237383300Y-129496950D01*
X237383300Y-130318225D01*
X237449975Y-130384900D01*
X238284900Y-130384900D01*
X238284900Y-130715100D01*
X237449975Y-130715100D01*
X237383300Y-130781775D01*
X237383300Y-131603050D01*
X237423903Y-131701073D01*
X237498927Y-131776097D01*
X237596950Y-131816700D01*
X237703050Y-131816700D01*
X238218225Y-131816700D01*
X238284900Y-131750025D01*
X238284900Y-133252177D01*
X237650000Y-133252177D01*
X237538623Y-133273787D01*
X237440733Y-133338090D01*
X237375207Y-133435165D01*
X237352177Y-133550000D01*
X237352177Y-134156300D01*
X236797823Y-134156300D01*
X236797823Y-133550000D01*
X236776213Y-133438623D01*
X236766700Y-133424141D01*
X236766700Y-131603050D01*
X236766700Y-130781775D01*
X236766700Y-130318225D01*
X236766700Y-129496950D01*
X236726097Y-129398927D01*
X236651073Y-129323903D01*
X236553050Y-129283300D01*
X236446950Y-129283300D01*
X235931775Y-129283300D01*
X235865100Y-129349975D01*
X235865100Y-130384900D01*
X236700025Y-130384900D01*
X236766700Y-130318225D01*
X236766700Y-130781775D01*
X236700025Y-130715100D01*
X235865100Y-130715100D01*
X235865100Y-131750025D01*
X235931775Y-131816700D01*
X236446950Y-131816700D01*
X236553050Y-131816700D01*
X236651073Y-131776097D01*
X236726097Y-131701073D01*
X236766700Y-131603050D01*
X236766700Y-133424141D01*
X236711910Y-133340733D01*
X236614835Y-133275207D01*
X236500000Y-133252177D01*
X235534900Y-133252177D01*
X235534900Y-131750025D01*
X235534900Y-130715100D01*
X235534900Y-130384900D01*
X235534900Y-129349975D01*
X235468225Y-129283300D01*
X234953050Y-129283300D01*
X234846950Y-129283300D01*
X234748927Y-129323903D01*
X234673903Y-129398927D01*
X234633300Y-129496950D01*
X234633300Y-130318225D01*
X234699975Y-130384900D01*
X235534900Y-130384900D01*
X235534900Y-130715100D01*
X234699975Y-130715100D01*
X234633300Y-130781775D01*
X234633300Y-131603050D01*
X234673903Y-131701073D01*
X234748927Y-131776097D01*
X234846950Y-131816700D01*
X234953050Y-131816700D01*
X235468225Y-131816700D01*
X235534900Y-131750025D01*
X235534900Y-133252177D01*
X234900000Y-133252177D01*
X234788623Y-133273787D01*
X234690733Y-133338090D01*
X234625207Y-133435165D01*
X234602177Y-133550000D01*
X234602177Y-134156300D01*
X234047823Y-134156300D01*
X234047823Y-133550000D01*
X234026213Y-133438623D01*
X234016700Y-133424141D01*
X234016700Y-131603050D01*
X234016700Y-130781775D01*
X234016700Y-130318225D01*
X234016700Y-129496950D01*
X233976097Y-129398927D01*
X233901073Y-129323903D01*
X233803050Y-129283300D01*
X233696950Y-129283300D01*
X233181775Y-129283300D01*
X233115100Y-129349975D01*
X233115100Y-130384900D01*
X233950025Y-130384900D01*
X234016700Y-130318225D01*
X234016700Y-130781775D01*
X233950025Y-130715100D01*
X233115100Y-130715100D01*
X233115100Y-131750025D01*
X233181775Y-131816700D01*
X233696950Y-131816700D01*
X233803050Y-131816700D01*
X233901073Y-131776097D01*
X233976097Y-131701073D01*
X234016700Y-131603050D01*
X234016700Y-133424141D01*
X233961910Y-133340733D01*
X233864835Y-133275207D01*
X233750000Y-133252177D01*
X232784900Y-133252177D01*
X232784900Y-131750025D01*
X232784900Y-130715100D01*
X232784900Y-130384900D01*
X232784900Y-129349975D01*
X232718225Y-129283300D01*
X232203050Y-129283300D01*
X232096950Y-129283300D01*
X231998927Y-129323903D01*
X231923903Y-129398927D01*
X231883300Y-129496950D01*
X231883300Y-130318225D01*
X231949975Y-130384900D01*
X232784900Y-130384900D01*
X232784900Y-130715100D01*
X231949975Y-130715100D01*
X231883300Y-130781775D01*
X231883300Y-131603050D01*
X231923903Y-131701073D01*
X231998927Y-131776097D01*
X232096950Y-131816700D01*
X232203050Y-131816700D01*
X232718225Y-131816700D01*
X232784900Y-131750025D01*
X232784900Y-133252177D01*
X232150000Y-133252177D01*
X232038623Y-133273787D01*
X231940733Y-133338090D01*
X231875207Y-133435165D01*
X231852177Y-133550000D01*
X231852177Y-134156300D01*
X231297823Y-134156300D01*
X231297823Y-133550000D01*
X231276213Y-133438623D01*
X231266700Y-133424141D01*
X231266700Y-131603050D01*
X231266700Y-130781775D01*
X231266700Y-130318225D01*
X231266700Y-129496950D01*
X231226097Y-129398927D01*
X231151073Y-129323903D01*
X231053050Y-129283300D01*
X230946950Y-129283300D01*
X230431775Y-129283300D01*
X230365100Y-129349975D01*
X230365100Y-130384900D01*
X231200025Y-130384900D01*
X231266700Y-130318225D01*
X231266700Y-130781775D01*
X231200025Y-130715100D01*
X230365100Y-130715100D01*
X230365100Y-131750025D01*
X230431775Y-131816700D01*
X230946950Y-131816700D01*
X231053050Y-131816700D01*
X231151073Y-131776097D01*
X231226097Y-131701073D01*
X231266700Y-131603050D01*
X231266700Y-133424141D01*
X231211910Y-133340733D01*
X231114835Y-133275207D01*
X231000000Y-133252177D01*
X230034900Y-133252177D01*
X230034900Y-131750025D01*
X230034900Y-130715100D01*
X230034900Y-130384900D01*
X230034900Y-129349975D01*
X229968225Y-129283300D01*
X229453050Y-129283300D01*
X229346950Y-129283300D01*
X229248927Y-129323903D01*
X229173903Y-129398927D01*
X229133300Y-129496950D01*
X229133300Y-130318225D01*
X229199975Y-130384900D01*
X230034900Y-130384900D01*
X230034900Y-130715100D01*
X229199975Y-130715100D01*
X229133300Y-130781775D01*
X229133300Y-131603050D01*
X229173903Y-131701073D01*
X229248927Y-131776097D01*
X229346950Y-131816700D01*
X229453050Y-131816700D01*
X229968225Y-131816700D01*
X230034900Y-131750025D01*
X230034900Y-133252177D01*
X229400000Y-133252177D01*
X229288623Y-133273787D01*
X229190733Y-133338090D01*
X229125207Y-133435165D01*
X229102177Y-133550000D01*
X229102177Y-134156300D01*
X228547823Y-134156300D01*
X228547823Y-133550000D01*
X228526213Y-133438623D01*
X228516700Y-133424141D01*
X228516700Y-131603050D01*
X228516700Y-130781775D01*
X228516700Y-130318225D01*
X228516700Y-129496950D01*
X228476097Y-129398927D01*
X228401073Y-129323903D01*
X228303050Y-129283300D01*
X228196950Y-129283300D01*
X227681775Y-129283300D01*
X227615100Y-129349975D01*
X227615100Y-130384900D01*
X228450025Y-130384900D01*
X228516700Y-130318225D01*
X228516700Y-130781775D01*
X228450025Y-130715100D01*
X227615100Y-130715100D01*
X227615100Y-131750025D01*
X227681775Y-131816700D01*
X228196950Y-131816700D01*
X228303050Y-131816700D01*
X228401073Y-131776097D01*
X228476097Y-131701073D01*
X228516700Y-131603050D01*
X228516700Y-133424141D01*
X228461910Y-133340733D01*
X228364835Y-133275207D01*
X228250000Y-133252177D01*
X227284900Y-133252177D01*
X227284900Y-131750025D01*
X227284900Y-130715100D01*
X227284900Y-130384900D01*
X227284900Y-129349975D01*
X227218225Y-129283300D01*
X226703050Y-129283300D01*
X226596950Y-129283300D01*
X226498927Y-129323903D01*
X226423903Y-129398927D01*
X226383300Y-129496950D01*
X226383300Y-130318225D01*
X226449975Y-130384900D01*
X227284900Y-130384900D01*
X227284900Y-130715100D01*
X226449975Y-130715100D01*
X226383300Y-130781775D01*
X226383300Y-131603050D01*
X226423903Y-131701073D01*
X226498927Y-131776097D01*
X226596950Y-131816700D01*
X226703050Y-131816700D01*
X227218225Y-131816700D01*
X227284900Y-131750025D01*
X227284900Y-133252177D01*
X226650000Y-133252177D01*
X226580135Y-133265732D01*
X225766700Y-132553977D01*
X225766700Y-131603050D01*
X225766700Y-130781775D01*
X225766700Y-130318225D01*
X225766700Y-129496950D01*
X225726097Y-129398927D01*
X225651073Y-129323903D01*
X225553050Y-129283300D01*
X225446950Y-129283300D01*
X224931775Y-129283300D01*
X224865100Y-129349975D01*
X224865100Y-130384900D01*
X225700025Y-130384900D01*
X225766700Y-130318225D01*
X225766700Y-130781775D01*
X225700025Y-130715100D01*
X224865100Y-130715100D01*
X224865100Y-131750025D01*
X224931775Y-131816700D01*
X225446950Y-131816700D01*
X225553050Y-131816700D01*
X225651073Y-131776097D01*
X225726097Y-131701073D01*
X225766700Y-131603050D01*
X225766700Y-132553977D01*
X225709253Y-132503711D01*
X225653837Y-132471799D01*
X225600662Y-132436269D01*
X225587639Y-132433678D01*
X225576134Y-132427053D01*
X225512724Y-132418776D01*
X225450000Y-132406300D01*
X224534900Y-132406300D01*
X224534900Y-131750025D01*
X224534900Y-130715100D01*
X224534900Y-130384900D01*
X224534900Y-129349975D01*
X224468225Y-129283300D01*
X223953050Y-129283300D01*
X223846950Y-129283300D01*
X223748927Y-129323903D01*
X223673903Y-129398927D01*
X223633300Y-129496950D01*
X223633300Y-130318225D01*
X223699975Y-130384900D01*
X224534900Y-130384900D01*
X224534900Y-130715100D01*
X223699975Y-130715100D01*
X223633300Y-130781775D01*
X223633300Y-131603050D01*
X223673903Y-131701073D01*
X223748927Y-131776097D01*
X223846950Y-131816700D01*
X223953050Y-131816700D01*
X224468225Y-131816700D01*
X224534900Y-131750025D01*
X224534900Y-132406300D01*
X223200000Y-132406300D01*
X223049337Y-132436269D01*
X222921612Y-132521612D01*
X222671612Y-132771612D01*
X222586269Y-132899337D01*
X222556300Y-133050000D01*
X222556300Y-139923495D01*
X222450000Y-139902177D01*
X221843700Y-139902177D01*
X221843700Y-139747823D01*
X222100000Y-139747823D01*
X222211377Y-139726213D01*
X222309267Y-139661910D01*
X222374793Y-139564835D01*
X222397823Y-139450000D01*
X222397823Y-138150000D01*
X222376213Y-138038623D01*
X222311910Y-137940733D01*
X222214835Y-137875207D01*
X222100000Y-137852177D01*
X221743700Y-137852177D01*
X221743700Y-137747823D01*
X222100000Y-137747823D01*
X222211377Y-137726213D01*
X222309267Y-137661910D01*
X222374793Y-137564835D01*
X222397823Y-137450000D01*
X222397823Y-136150000D01*
X222376213Y-136038623D01*
X222311910Y-135940733D01*
X222214835Y-135875207D01*
X222100000Y-135852177D01*
X220600000Y-135852177D01*
X220488623Y-135873787D01*
X220390733Y-135938090D01*
X220325207Y-136035165D01*
X220302177Y-136150000D01*
X220302177Y-137450000D01*
X220323787Y-137561377D01*
X220388090Y-137659267D01*
X220485165Y-137724793D01*
X220600000Y-137747823D01*
X220956300Y-137747823D01*
X220956300Y-137852177D01*
X220600000Y-137852177D01*
X220488623Y-137873787D01*
X220390733Y-137938090D01*
X220325207Y-138035165D01*
X220302177Y-138150000D01*
X220302177Y-139450000D01*
X220323787Y-139561377D01*
X220388090Y-139659267D01*
X220485165Y-139724793D01*
X220600000Y-139747823D01*
X221056300Y-139747823D01*
X221056300Y-139902177D01*
X220450000Y-139902177D01*
X220338623Y-139923787D01*
X220240733Y-139988090D01*
X220175207Y-140085165D01*
X220152177Y-140200000D01*
X220152177Y-141900000D01*
X220173787Y-142011377D01*
X220238090Y-142109267D01*
X220335165Y-142174793D01*
X220450000Y-142197823D01*
X222450000Y-142197823D01*
X222556300Y-142177198D01*
X222556300Y-142512946D01*
X222385425Y-142652177D01*
X220600000Y-142652177D01*
X220488623Y-142673787D01*
X220390733Y-142738090D01*
X220325207Y-142835165D01*
X220302177Y-142950000D01*
X220302177Y-144650000D01*
X220323787Y-144761377D01*
X220388090Y-144859267D01*
X220485165Y-144924793D01*
X220600000Y-144947823D01*
X222600000Y-144947823D01*
X222711377Y-144926213D01*
X222809267Y-144861910D01*
X222874793Y-144764835D01*
X222897823Y-144650000D01*
X222897823Y-143250360D01*
X223198689Y-143005210D01*
X223211571Y-142989624D01*
X223228388Y-142978388D01*
X223260145Y-142930859D01*
X223296557Y-142886808D01*
X223302495Y-142867477D01*
X223313731Y-142850662D01*
X223324882Y-142794601D01*
X223341666Y-142739966D01*
X223339754Y-142719834D01*
X223343700Y-142700000D01*
X223343700Y-139747823D01*
X224800000Y-139747823D01*
X224911377Y-139726213D01*
X225009267Y-139661910D01*
X225074793Y-139564835D01*
X225097823Y-139450000D01*
X225097823Y-138408953D01*
X226156666Y-137350110D01*
X228652955Y-137350110D01*
X228652687Y-137351450D01*
X228652687Y-142850550D01*
X228674297Y-142961927D01*
X228738600Y-143059817D01*
X228835675Y-143125343D01*
X228950510Y-143148373D01*
X230949490Y-143148373D01*
X231060867Y-143126763D01*
X231158757Y-143062460D01*
X231224283Y-142965385D01*
X231247313Y-142850550D01*
X231247313Y-141154089D01*
X233102177Y-143008953D01*
X233102177Y-144550000D01*
X233123787Y-144661377D01*
X233188090Y-144759267D01*
X233285165Y-144824793D01*
X233400000Y-144847823D01*
X235000000Y-144847823D01*
X235111377Y-144826213D01*
X235127797Y-144815426D01*
X234941047Y-145002177D01*
X233400000Y-145002177D01*
X233288623Y-145023787D01*
X233190733Y-145088090D01*
X233125207Y-145185165D01*
X233102177Y-145300000D01*
X233102177Y-146841047D01*
X231247313Y-148695911D01*
X231247313Y-146749450D01*
X231225703Y-146638073D01*
X231161400Y-146540183D01*
X231064325Y-146474657D01*
X230949490Y-146451627D01*
X228950510Y-146451627D01*
X228839133Y-146473237D01*
X228741243Y-146537540D01*
X228675717Y-146634615D01*
X228652687Y-146749450D01*
X228652687Y-152195911D01*
X228578388Y-152121612D01*
X228450663Y-152036269D01*
X228300000Y-152006300D01*
X226997823Y-152006300D01*
X226997823Y-151600000D01*
X226976213Y-151488623D01*
X226911910Y-151390733D01*
X226814835Y-151325207D01*
X226700000Y-151302177D01*
X226068850Y-151302177D01*
X226018751Y-149097823D01*
X226600000Y-149097823D01*
X226711377Y-149076213D01*
X226809267Y-149011910D01*
X226874793Y-148914835D01*
X226897823Y-148800000D01*
X226897823Y-147200000D01*
X226876213Y-147088623D01*
X226811910Y-146990733D01*
X226714835Y-146925207D01*
X226600000Y-146902177D01*
X225993700Y-146902177D01*
X225993700Y-144947823D01*
X226600000Y-144947823D01*
X226711377Y-144926213D01*
X226809267Y-144861910D01*
X226874793Y-144764835D01*
X226897823Y-144650000D01*
X226897823Y-142950000D01*
X226876213Y-142838623D01*
X226811910Y-142740733D01*
X226716700Y-142676465D01*
X226716700Y-141953050D01*
X226716700Y-141846950D01*
X226716700Y-141281775D01*
X226716700Y-140818225D01*
X226716700Y-140253050D01*
X226716700Y-140146950D01*
X226676097Y-140048927D01*
X226601073Y-139973903D01*
X226503050Y-139933300D01*
X225681775Y-139933300D01*
X225615100Y-139999975D01*
X225615100Y-140884900D01*
X226650025Y-140884900D01*
X226716700Y-140818225D01*
X226716700Y-141281775D01*
X226650025Y-141215100D01*
X225615100Y-141215100D01*
X225615100Y-142100025D01*
X225681775Y-142166700D01*
X226503050Y-142166700D01*
X226601073Y-142126097D01*
X226676097Y-142051073D01*
X226716700Y-141953050D01*
X226716700Y-142676465D01*
X226714835Y-142675207D01*
X226600000Y-142652177D01*
X225284900Y-142652177D01*
X225284900Y-142100025D01*
X225284900Y-141215100D01*
X225284900Y-140884900D01*
X225284900Y-139999975D01*
X225218225Y-139933300D01*
X224396950Y-139933300D01*
X224298927Y-139973903D01*
X224223903Y-140048927D01*
X224183300Y-140146950D01*
X224183300Y-140253050D01*
X224183300Y-140818225D01*
X224249975Y-140884900D01*
X225284900Y-140884900D01*
X225284900Y-141215100D01*
X224249975Y-141215100D01*
X224183300Y-141281775D01*
X224183300Y-141846950D01*
X224183300Y-141953050D01*
X224223903Y-142051073D01*
X224298927Y-142126097D01*
X224396950Y-142166700D01*
X225218225Y-142166700D01*
X225284900Y-142100025D01*
X225284900Y-142652177D01*
X224600000Y-142652177D01*
X224488623Y-142673787D01*
X224390733Y-142738090D01*
X224325207Y-142835165D01*
X224302177Y-142950000D01*
X224302177Y-144650000D01*
X224323787Y-144761377D01*
X224388090Y-144859267D01*
X224485165Y-144924793D01*
X224600000Y-144947823D01*
X225206300Y-144947823D01*
X225206300Y-146902177D01*
X224600000Y-146902177D01*
X224488623Y-146923787D01*
X224390733Y-146988090D01*
X224325207Y-147085165D01*
X224302177Y-147200000D01*
X224302177Y-148800000D01*
X224323787Y-148911377D01*
X224388090Y-149009267D01*
X224485165Y-149074793D01*
X224600000Y-149097823D01*
X225231149Y-149097823D01*
X225281248Y-151302177D01*
X224700000Y-151302177D01*
X224588623Y-151323787D01*
X224490733Y-151388090D01*
X224425207Y-151485165D01*
X224402177Y-151600000D01*
X224402177Y-153200000D01*
X224423787Y-153311377D01*
X224488090Y-153409267D01*
X224585165Y-153474793D01*
X224700000Y-153497823D01*
X226700000Y-153497823D01*
X226811377Y-153476213D01*
X226909267Y-153411910D01*
X226974793Y-153314835D01*
X226997823Y-153200000D01*
X226997823Y-152793700D01*
X228136924Y-152793700D01*
X228421612Y-153078388D01*
X228549337Y-153163730D01*
X228549338Y-153163731D01*
X228700000Y-153193700D01*
X230950000Y-153193700D01*
X231100662Y-153163731D01*
X231100663Y-153163731D01*
X231228388Y-153078388D01*
X232978388Y-151328388D01*
X233063731Y-151200662D01*
X233093700Y-151050000D01*
X233093700Y-149463076D01*
X233133300Y-149423476D01*
X233133300Y-150068225D01*
X233199975Y-150134900D01*
X234034900Y-150134900D01*
X234034900Y-149099975D01*
X233968225Y-149033300D01*
X233523476Y-149033300D01*
X234113076Y-148443700D01*
X236200000Y-148443700D01*
X236350662Y-148413731D01*
X236350663Y-148413731D01*
X236478388Y-148328388D01*
X237363076Y-147443700D01*
X237452177Y-147443700D01*
X237452177Y-147675000D01*
X237452199Y-147675117D01*
X237396138Y-147686269D01*
X237268412Y-147771612D01*
X237166811Y-147873213D01*
X237081468Y-148000938D01*
X237051499Y-148151601D01*
X237051499Y-149245199D01*
X237081468Y-149395862D01*
X237166811Y-149523587D01*
X237273073Y-149629849D01*
X237263528Y-149652838D01*
X237263272Y-149945876D01*
X237375177Y-150216705D01*
X237582205Y-150424095D01*
X237852838Y-150536472D01*
X237911826Y-150536523D01*
X237863528Y-150652838D01*
X237863272Y-150945876D01*
X237975177Y-151216705D01*
X238182205Y-151424095D01*
X238452838Y-151536472D01*
X238745876Y-151536728D01*
X239016705Y-151424823D01*
X239056300Y-151385297D01*
X239056300Y-151652177D01*
X238450000Y-151652177D01*
X238338623Y-151673787D01*
X238240733Y-151738090D01*
X238175207Y-151835165D01*
X238152177Y-151950000D01*
X238152177Y-153650000D01*
X238173787Y-153761377D01*
X238238090Y-153859267D01*
X238335165Y-153924793D01*
X238450000Y-153947823D01*
X240450000Y-153947823D01*
X240561377Y-153926213D01*
X240659267Y-153861910D01*
X240724793Y-153764835D01*
X240747823Y-153650000D01*
X240747823Y-151950000D01*
X240726213Y-151838623D01*
X240661910Y-151740733D01*
X240564835Y-151675207D01*
X240450000Y-151652177D01*
X239843700Y-151652177D01*
X239843700Y-151179749D01*
X239863090Y-151209267D01*
X239960165Y-151274793D01*
X240075000Y-151297823D01*
X240325000Y-151297823D01*
X240436377Y-151276213D01*
X240478351Y-151248640D01*
X240521950Y-151266700D01*
X240570825Y-151266700D01*
X240637500Y-151200025D01*
X240637500Y-150665100D01*
X240622823Y-150665100D01*
X240622823Y-150334900D01*
X240637500Y-150334900D01*
X240637500Y-149799975D01*
X240570825Y-149733300D01*
X240521950Y-149733300D01*
X240478492Y-149751300D01*
X240439835Y-149725207D01*
X240325000Y-149702177D01*
X240075000Y-149702177D01*
X239963623Y-149723787D01*
X239865733Y-149788090D01*
X239843700Y-149820731D01*
X239843700Y-148791742D01*
X240041379Y-148791915D01*
X240312208Y-148680010D01*
X240519598Y-148472982D01*
X240631975Y-148202349D01*
X240632231Y-147909311D01*
X240520326Y-147638482D01*
X240313298Y-147431092D01*
X240042665Y-147318715D01*
X239749627Y-147318459D01*
X239725514Y-147328422D01*
X239668704Y-147271612D01*
X239540979Y-147186269D01*
X239390316Y-147156300D01*
X239047823Y-147156300D01*
X239047823Y-146925000D01*
X239026213Y-146813623D01*
X238998640Y-146771648D01*
X239016700Y-146728050D01*
X239016700Y-146679175D01*
X238950025Y-146612500D01*
X238415100Y-146612500D01*
X238415100Y-146627177D01*
X238084900Y-146627177D01*
X238084900Y-146612500D01*
X237549975Y-146612500D01*
X237506175Y-146656300D01*
X237483300Y-146656300D01*
X237200000Y-146656300D01*
X237049338Y-146686269D01*
X236921612Y-146771612D01*
X236036924Y-147656300D01*
X233950000Y-147656300D01*
X233799337Y-147686269D01*
X233671612Y-147771612D01*
X232421612Y-149021612D01*
X232336269Y-149149337D01*
X232306300Y-149300000D01*
X232306300Y-150886924D01*
X231247313Y-151945911D01*
X231247313Y-149798819D01*
X231279388Y-149777388D01*
X233458953Y-147597823D01*
X235000000Y-147597823D01*
X235111377Y-147576213D01*
X235209267Y-147511910D01*
X235274793Y-147414835D01*
X235297823Y-147300000D01*
X235297823Y-145758953D01*
X237113076Y-143943700D01*
X237452177Y-143943700D01*
X237452177Y-144175000D01*
X237473787Y-144286377D01*
X237482406Y-144299498D01*
X237475207Y-144310165D01*
X237452177Y-144425000D01*
X237452177Y-144675000D01*
X237473787Y-144786377D01*
X237482406Y-144799498D01*
X237475207Y-144810165D01*
X237452177Y-144925000D01*
X237452177Y-145175000D01*
X237473787Y-145286377D01*
X237482406Y-145299498D01*
X237475207Y-145310165D01*
X237452177Y-145425000D01*
X237452177Y-145675000D01*
X237473787Y-145786377D01*
X237482406Y-145799498D01*
X237475207Y-145810165D01*
X237452177Y-145925000D01*
X237452177Y-146175000D01*
X237473787Y-146286377D01*
X237501359Y-146328351D01*
X237483300Y-146371950D01*
X237483300Y-146420825D01*
X237549975Y-146487500D01*
X238084900Y-146487500D01*
X238084900Y-146472823D01*
X238415100Y-146472823D01*
X238415100Y-146487500D01*
X238950025Y-146487500D01*
X239016700Y-146420825D01*
X239016700Y-146371950D01*
X238998699Y-146328492D01*
X239024793Y-146289835D01*
X239047823Y-146175000D01*
X239047823Y-145925000D01*
X239026213Y-145813623D01*
X239017593Y-145800501D01*
X239024793Y-145789835D01*
X239047823Y-145675000D01*
X239047823Y-145425000D01*
X239026213Y-145313623D01*
X239017593Y-145300501D01*
X239024793Y-145289835D01*
X239047823Y-145175000D01*
X239047823Y-144925000D01*
X239026213Y-144813623D01*
X239017593Y-144800501D01*
X239024793Y-144789835D01*
X239047823Y-144675000D01*
X239047823Y-144443700D01*
X239086924Y-144443700D01*
X239273073Y-144629849D01*
X239263528Y-144652838D01*
X239263272Y-144945876D01*
X239375177Y-145216705D01*
X239582205Y-145424095D01*
X239852838Y-145536472D01*
X240145876Y-145536728D01*
X240416705Y-145424823D01*
X240624095Y-145217795D01*
X240736472Y-144947162D01*
X240736728Y-144654124D01*
X240624823Y-144383295D01*
X240417795Y-144175905D01*
X240147162Y-144063528D01*
X239854124Y-144063272D01*
X239830011Y-144073235D01*
X239528388Y-143771612D01*
X239400663Y-143686269D01*
X239250000Y-143656300D01*
X239047823Y-143656300D01*
X239047823Y-143425000D01*
X239026213Y-143313623D01*
X239017593Y-143300501D01*
X239024793Y-143289835D01*
X239047823Y-143175000D01*
X239047823Y-142925000D01*
X239026213Y-142813623D01*
X239017593Y-142800501D01*
X239024793Y-142789835D01*
X239047823Y-142675000D01*
X239047823Y-142425000D01*
X239026213Y-142313623D01*
X239017593Y-142300501D01*
X239024793Y-142289835D01*
X239047823Y-142175000D01*
X239047823Y-141925000D01*
X239026213Y-141813623D01*
X239017593Y-141800501D01*
X239024793Y-141789835D01*
X239047823Y-141675000D01*
X239047823Y-141443700D01*
X243286924Y-141443700D01*
X247024099Y-145180875D01*
X247306300Y-145463076D01*
X247306300Y-149733300D01*
X247306300Y-149756175D01*
X247262500Y-149799975D01*
X247262500Y-150334900D01*
X247277177Y-150334900D01*
X247277177Y-150665100D01*
X247262500Y-150665100D01*
X247262500Y-150685100D01*
X247137500Y-150685100D01*
X247137500Y-150665100D01*
X247122823Y-150665100D01*
X247122823Y-150334900D01*
X247137500Y-150334900D01*
X247137500Y-149799975D01*
X247070825Y-149733300D01*
X247021950Y-149733300D01*
X246978492Y-149751300D01*
X246939835Y-149725207D01*
X246825000Y-149702177D01*
X246575000Y-149702177D01*
X246463623Y-149723787D01*
X246450501Y-149732406D01*
X246439835Y-149725207D01*
X246325000Y-149702177D01*
X246075000Y-149702177D01*
X245963623Y-149723787D01*
X245950501Y-149732406D01*
X245939835Y-149725207D01*
X245825000Y-149702177D01*
X245575000Y-149702177D01*
X245463623Y-149723787D01*
X245450501Y-149732406D01*
X245439835Y-149725207D01*
X245325000Y-149702177D01*
X245075000Y-149702177D01*
X244963623Y-149723787D01*
X244950501Y-149732406D01*
X244939835Y-149725207D01*
X244825000Y-149702177D01*
X244575000Y-149702177D01*
X244463623Y-149723787D01*
X244450501Y-149732406D01*
X244439835Y-149725207D01*
X244325000Y-149702177D01*
X244075000Y-149702177D01*
X243963623Y-149723787D01*
X243950501Y-149732406D01*
X243939835Y-149725207D01*
X243825000Y-149702177D01*
X243575000Y-149702177D01*
X243463623Y-149723787D01*
X243450501Y-149732406D01*
X243439835Y-149725207D01*
X243325000Y-149702177D01*
X243075000Y-149702177D01*
X242963623Y-149723787D01*
X242950501Y-149732406D01*
X242939835Y-149725207D01*
X242825000Y-149702177D01*
X242575000Y-149702177D01*
X242463623Y-149723787D01*
X242450501Y-149732406D01*
X242439835Y-149725207D01*
X242325000Y-149702177D01*
X242075000Y-149702177D01*
X241963623Y-149723787D01*
X241950501Y-149732406D01*
X241939835Y-149725207D01*
X241825000Y-149702177D01*
X241593700Y-149702177D01*
X241593700Y-148116967D01*
X241816705Y-148024823D01*
X242024095Y-147817795D01*
X242136472Y-147547162D01*
X242136728Y-147254124D01*
X242024823Y-146983295D01*
X241817795Y-146775905D01*
X241547162Y-146663528D01*
X241254124Y-146663272D01*
X240983295Y-146775177D01*
X240775905Y-146982205D01*
X240663528Y-147252838D01*
X240663272Y-147545876D01*
X240775177Y-147816705D01*
X240806300Y-147847882D01*
X240806300Y-149733300D01*
X240806300Y-149756175D01*
X240762500Y-149799975D01*
X240762500Y-150334900D01*
X240777177Y-150334900D01*
X240777177Y-150665100D01*
X240762500Y-150665100D01*
X240762500Y-151200025D01*
X240829175Y-151266700D01*
X240878050Y-151266700D01*
X240921507Y-151248699D01*
X240960165Y-151274793D01*
X241075000Y-151297823D01*
X241325000Y-151297823D01*
X241436377Y-151276213D01*
X241449498Y-151267593D01*
X241460165Y-151274793D01*
X241575000Y-151297823D01*
X241825000Y-151297823D01*
X241936377Y-151276213D01*
X241949498Y-151267593D01*
X241960165Y-151274793D01*
X242075000Y-151297823D01*
X242325000Y-151297823D01*
X242436377Y-151276213D01*
X242449498Y-151267593D01*
X242460165Y-151274793D01*
X242575000Y-151297823D01*
X242825000Y-151297823D01*
X242936377Y-151276213D01*
X242949498Y-151267593D01*
X242960165Y-151274793D01*
X243075000Y-151297823D01*
X243325000Y-151297823D01*
X243436377Y-151276213D01*
X243449498Y-151267593D01*
X243460165Y-151274793D01*
X243575000Y-151297823D01*
X243825000Y-151297823D01*
X243936377Y-151276213D01*
X243949498Y-151267593D01*
X243960165Y-151274793D01*
X244075000Y-151297823D01*
X244325000Y-151297823D01*
X244436377Y-151276213D01*
X244449498Y-151267593D01*
X244460165Y-151274793D01*
X244575000Y-151297823D01*
X244825000Y-151297823D01*
X244936377Y-151276213D01*
X244949498Y-151267593D01*
X244960165Y-151274793D01*
X245075000Y-151297823D01*
X245325000Y-151297823D01*
X245436377Y-151276213D01*
X245449498Y-151267593D01*
X245460165Y-151274793D01*
X245575000Y-151297823D01*
X245825000Y-151297823D01*
X245936377Y-151276213D01*
X245949498Y-151267593D01*
X245960165Y-151274793D01*
X246075000Y-151297823D01*
X246306300Y-151297823D01*
X246306300Y-151300000D01*
X246336269Y-151450663D01*
X246421612Y-151578388D01*
X246629149Y-151785925D01*
X246615100Y-151799975D01*
X246615100Y-152634900D01*
X247650025Y-152634900D01*
X247716700Y-152568225D01*
X247716700Y-152123476D01*
X248671612Y-153078388D01*
X248799337Y-153163731D01*
X248799338Y-153163731D01*
X248950000Y-153193700D01*
X249152177Y-153193700D01*
X249152177Y-153600000D01*
X249173787Y-153711377D01*
X249238090Y-153809267D01*
X249335165Y-153874793D01*
X249450000Y-153897823D01*
X251450000Y-153897823D01*
X251561377Y-153876213D01*
X251659267Y-153811910D01*
X251724793Y-153714835D01*
X251747823Y-153600000D01*
X251747823Y-152000000D01*
X251726213Y-151888623D01*
X251661910Y-151790733D01*
X251564835Y-151725207D01*
X251450000Y-151702177D01*
X249450000Y-151702177D01*
X249338623Y-151723787D01*
X249240733Y-151788090D01*
X249175207Y-151885165D01*
X249152177Y-152000000D01*
X249152177Y-152406300D01*
X249113076Y-152406300D01*
X247978388Y-151271612D01*
X247961033Y-151260016D01*
X248034267Y-151211910D01*
X248099793Y-151114835D01*
X248122823Y-151000000D01*
X248122823Y-150893700D01*
X251986924Y-150893700D01*
X252702683Y-151609459D01*
X252675207Y-151650165D01*
X252652177Y-151765000D01*
X252652177Y-153035000D01*
X252673787Y-153146377D01*
X252738090Y-153244267D01*
X252835165Y-153309793D01*
X252950000Y-153332823D01*
X255150000Y-153332823D01*
X255261377Y-153311213D01*
X255359267Y-153246910D01*
X255424793Y-153149835D01*
X255447823Y-153035000D01*
X255447823Y-151765000D01*
X255426213Y-151653623D01*
X255361910Y-151555733D01*
X255264835Y-151490207D01*
X255150000Y-151467177D01*
X253673953Y-151467177D01*
X252428388Y-150221612D01*
X252300663Y-150136269D01*
X252233005Y-150122811D01*
X254772392Y-150122811D01*
X255727771Y-151078189D01*
X255855496Y-151163532D01*
X255855497Y-151163532D01*
X256006159Y-151193501D01*
X257964938Y-151193501D01*
X257775905Y-151382205D01*
X257663528Y-151652838D01*
X257663272Y-151945876D01*
X257775177Y-152216705D01*
X257982205Y-152424095D01*
X258006300Y-152434100D01*
X258006300Y-152969642D01*
X258036269Y-153120305D01*
X258121612Y-153248030D01*
X258834681Y-153961100D01*
X247716700Y-153961100D01*
X247716700Y-153653050D01*
X247716700Y-153546950D01*
X247716700Y-153031775D01*
X247650025Y-152965100D01*
X246615100Y-152965100D01*
X246615100Y-153800025D01*
X246681775Y-153866700D01*
X247503050Y-153866700D01*
X247601073Y-153826097D01*
X247676097Y-153751073D01*
X247716700Y-153653050D01*
X247716700Y-153961100D01*
X246284900Y-153961100D01*
X246284900Y-153800025D01*
X246284900Y-152965100D01*
X246284900Y-152634900D01*
X246284900Y-151799975D01*
X246218225Y-151733300D01*
X245396950Y-151733300D01*
X245298927Y-151773903D01*
X245223903Y-151848927D01*
X245183300Y-151946950D01*
X245183300Y-152053050D01*
X245183300Y-152568225D01*
X245249975Y-152634900D01*
X246284900Y-152634900D01*
X246284900Y-152965100D01*
X245249975Y-152965100D01*
X245183300Y-153031775D01*
X245183300Y-153546950D01*
X245183300Y-153653050D01*
X245223903Y-153751073D01*
X245298927Y-153826097D01*
X245396950Y-153866700D01*
X246218225Y-153866700D01*
X246284900Y-153800025D01*
X246284900Y-153961100D01*
X244716700Y-153961100D01*
X244716700Y-153703050D01*
X244716700Y-153596950D01*
X244716700Y-153031775D01*
X244716700Y-152568225D01*
X244716700Y-152003050D01*
X244716700Y-151896950D01*
X244676097Y-151798927D01*
X244601073Y-151723903D01*
X244503050Y-151683300D01*
X243681775Y-151683300D01*
X243615100Y-151749975D01*
X243615100Y-152634900D01*
X244650025Y-152634900D01*
X244716700Y-152568225D01*
X244716700Y-153031775D01*
X244650025Y-152965100D01*
X243615100Y-152965100D01*
X243615100Y-153850025D01*
X243681775Y-153916700D01*
X244503050Y-153916700D01*
X244601073Y-153876097D01*
X244676097Y-153801073D01*
X244716700Y-153703050D01*
X244716700Y-153961100D01*
X243284900Y-153961100D01*
X243284900Y-153850025D01*
X243284900Y-152965100D01*
X243284900Y-152634900D01*
X243284900Y-151749975D01*
X243218225Y-151683300D01*
X242396950Y-151683300D01*
X242298927Y-151723903D01*
X242223903Y-151798927D01*
X242183300Y-151896950D01*
X242183300Y-152003050D01*
X242183300Y-152568225D01*
X242249975Y-152634900D01*
X243284900Y-152634900D01*
X243284900Y-152965100D01*
X242249975Y-152965100D01*
X242183300Y-153031775D01*
X242183300Y-153596950D01*
X242183300Y-153703050D01*
X242223903Y-153801073D01*
X242298927Y-153876097D01*
X242396950Y-153916700D01*
X243218225Y-153916700D01*
X243284900Y-153850025D01*
X243284900Y-153961100D01*
X235266700Y-153961100D01*
X235266700Y-151353050D01*
X235266700Y-150531775D01*
X235266700Y-150068225D01*
X235266700Y-149246950D01*
X235226097Y-149148927D01*
X235151073Y-149073903D01*
X235053050Y-149033300D01*
X234946950Y-149033300D01*
X234431775Y-149033300D01*
X234365100Y-149099975D01*
X234365100Y-150134900D01*
X235200025Y-150134900D01*
X235266700Y-150068225D01*
X235266700Y-150531775D01*
X235200025Y-150465100D01*
X234365100Y-150465100D01*
X234365100Y-151500025D01*
X234431775Y-151566700D01*
X234946950Y-151566700D01*
X235053050Y-151566700D01*
X235151073Y-151526097D01*
X235226097Y-151451073D01*
X235266700Y-151353050D01*
X235266700Y-153961100D01*
X234034900Y-153961100D01*
X234034900Y-151500025D01*
X234034900Y-150465100D01*
X233199975Y-150465100D01*
X233133300Y-150531775D01*
X233133300Y-151353050D01*
X233173903Y-151451073D01*
X233248927Y-151526097D01*
X233346950Y-151566700D01*
X233453050Y-151566700D01*
X233968225Y-151566700D01*
X234034900Y-151500025D01*
X234034900Y-153961100D01*
X222966700Y-153961100D01*
X222966700Y-153253050D01*
X222966700Y-153146950D01*
X222966700Y-152631775D01*
X222966700Y-152168225D01*
X222966700Y-151653050D01*
X222966700Y-151546950D01*
X222926097Y-151448927D01*
X222866700Y-151389530D01*
X222866700Y-148853050D01*
X222866700Y-148746950D01*
X222866700Y-148231775D01*
X222866700Y-147768225D01*
X222866700Y-147253050D01*
X222866700Y-147146950D01*
X222826097Y-147048927D01*
X222751073Y-146973903D01*
X222653050Y-146933300D01*
X221831775Y-146933300D01*
X221765100Y-146999975D01*
X221765100Y-147834900D01*
X222800025Y-147834900D01*
X222866700Y-147768225D01*
X222866700Y-148231775D01*
X222800025Y-148165100D01*
X221765100Y-148165100D01*
X221765100Y-149000025D01*
X221831775Y-149066700D01*
X222653050Y-149066700D01*
X222751073Y-149026097D01*
X222826097Y-148951073D01*
X222866700Y-148853050D01*
X222866700Y-151389530D01*
X222851073Y-151373903D01*
X222753050Y-151333300D01*
X221931775Y-151333300D01*
X221865100Y-151399975D01*
X221865100Y-152234900D01*
X222900025Y-152234900D01*
X222966700Y-152168225D01*
X222966700Y-152631775D01*
X222900025Y-152565100D01*
X221865100Y-152565100D01*
X221865100Y-153400025D01*
X221931775Y-153466700D01*
X222753050Y-153466700D01*
X222851073Y-153426097D01*
X222926097Y-153351073D01*
X222966700Y-153253050D01*
X222966700Y-153961100D01*
X221534900Y-153961100D01*
X221534900Y-153400025D01*
X221534900Y-152565100D01*
X221534900Y-152234900D01*
X221534900Y-151399975D01*
X221468225Y-151333300D01*
X221434900Y-151333300D01*
X221434900Y-149000025D01*
X221434900Y-148165100D01*
X221434900Y-147834900D01*
X221434900Y-146999975D01*
X221368225Y-146933300D01*
X220546950Y-146933300D01*
X220448927Y-146973903D01*
X220373903Y-147048927D01*
X220333300Y-147146950D01*
X220333300Y-147253050D01*
X220333300Y-147768225D01*
X220399975Y-147834900D01*
X221434900Y-147834900D01*
X221434900Y-148165100D01*
X220399975Y-148165100D01*
X220333300Y-148231775D01*
X220333300Y-148746950D01*
X220333300Y-148853050D01*
X220373903Y-148951073D01*
X220448927Y-149026097D01*
X220546950Y-149066700D01*
X221368225Y-149066700D01*
X221434900Y-149000025D01*
X221434900Y-151333300D01*
X220646950Y-151333300D01*
X220548927Y-151373903D01*
X220473903Y-151448927D01*
X220433300Y-151546950D01*
X220433300Y-151653050D01*
X220433300Y-152168225D01*
X220499975Y-152234900D01*
X221534900Y-152234900D01*
X221534900Y-152565100D01*
X220499975Y-152565100D01*
X220433300Y-152631775D01*
X220433300Y-153146950D01*
X220433300Y-153253050D01*
X220473903Y-153351073D01*
X220548927Y-153426097D01*
X220646950Y-153466700D01*
X221468225Y-153466700D01*
X221534900Y-153400025D01*
X221534900Y-153961100D01*
X220038900Y-153961100D01*
X220038900Y-129138900D01*
X275008741Y-129138900D01*
X274935533Y-129186990D01*
X274870007Y-129284065D01*
X274846977Y-129398900D01*
X274846977Y-133920100D01*
X274868587Y-134031477D01*
X274932890Y-134129367D01*
X275029965Y-134194893D01*
X275144800Y-134217923D01*
X280351800Y-134217923D01*
X280463177Y-134196313D01*
X280561067Y-134132010D01*
X280626593Y-134034935D01*
X280649623Y-133920100D01*
X280649623Y-129398900D01*
X280628013Y-129287523D01*
X280563710Y-129189633D01*
X280488550Y-129138900D01*
X282861100Y-129138900D01*
X282861100Y-151002452D01*
X282861100Y-151002452D01*
G37*
X282861100Y-151002452D02*
X282760000Y-150982177D01*
X280649623Y-150982177D01*
X280649623Y-150493600D01*
X280649623Y-145972400D01*
X280628013Y-145861023D01*
X280563710Y-145763133D01*
X280466635Y-145697607D01*
X280351800Y-145674577D01*
X275144800Y-145674577D01*
X275033423Y-145696187D01*
X274935533Y-145760490D01*
X274870007Y-145857565D01*
X274846977Y-145972400D01*
X274846977Y-150493600D01*
X274868587Y-150604977D01*
X274932890Y-150702867D01*
X275029965Y-150768393D01*
X275144800Y-150791423D01*
X280351800Y-150791423D01*
X280463177Y-150769813D01*
X280561067Y-150705510D01*
X280626593Y-150608435D01*
X280649623Y-150493600D01*
X280649623Y-150982177D01*
X275140000Y-150982177D01*
X275028623Y-151003787D01*
X274930733Y-151068090D01*
X274865207Y-151165165D01*
X274842177Y-151280000D01*
X274842177Y-153561047D01*
X274773724Y-153629500D01*
X274009823Y-153629500D01*
X274009823Y-149391000D01*
X273988213Y-149279623D01*
X273923910Y-149181733D01*
X273826835Y-149116207D01*
X273712000Y-149093177D01*
X272446953Y-149093177D01*
X269875388Y-146521612D01*
X269747663Y-146436269D01*
X269597000Y-146406300D01*
X267517823Y-146406300D01*
X267517823Y-144867500D01*
X267517823Y-144232500D01*
X267496213Y-144121123D01*
X267431910Y-144023233D01*
X267334835Y-143957707D01*
X267220000Y-143934677D01*
X264680000Y-143934677D01*
X264568623Y-143956287D01*
X264470733Y-144020590D01*
X264405207Y-144117665D01*
X264382177Y-144232500D01*
X264382177Y-144867500D01*
X264403787Y-144978877D01*
X264468090Y-145076767D01*
X264565165Y-145142293D01*
X264680000Y-145165323D01*
X267220000Y-145165323D01*
X267331377Y-145143713D01*
X267429267Y-145079410D01*
X267494793Y-144982335D01*
X267517823Y-144867500D01*
X267517823Y-146406300D01*
X264434328Y-146406300D01*
X264424823Y-146383295D01*
X264217795Y-146175905D01*
X263947162Y-146063528D01*
X263654124Y-146063272D01*
X263444399Y-146149929D01*
X263444399Y-144119877D01*
X264382177Y-143182099D01*
X264382177Y-143597500D01*
X264403787Y-143708877D01*
X264468090Y-143806767D01*
X264565165Y-143872293D01*
X264680000Y-143895323D01*
X267220000Y-143895323D01*
X267331377Y-143873713D01*
X267429267Y-143809410D01*
X267494793Y-143712335D01*
X267517823Y-143597500D01*
X267517823Y-142962500D01*
X267496213Y-142851123D01*
X267431910Y-142753233D01*
X267334835Y-142687707D01*
X267220000Y-142664677D01*
X264899599Y-142664677D01*
X264938953Y-142625323D01*
X267220000Y-142625323D01*
X267331377Y-142603713D01*
X267429267Y-142539410D01*
X267494793Y-142442335D01*
X267502541Y-142403700D01*
X267740000Y-142403700D01*
X267890662Y-142373731D01*
X267890663Y-142373731D01*
X268018388Y-142288388D01*
X269978388Y-140328388D01*
X270063731Y-140200662D01*
X270093700Y-140050000D01*
X270093700Y-134800000D01*
X270063731Y-134649338D01*
X270063731Y-134649337D01*
X269978388Y-134521612D01*
X264728388Y-129271612D01*
X264600663Y-129186269D01*
X264450000Y-129156300D01*
X254950000Y-129156300D01*
X254799337Y-129186269D01*
X254671612Y-129271612D01*
X253416047Y-130527177D01*
X253245000Y-130527177D01*
X253133623Y-130548787D01*
X253035733Y-130613090D01*
X252970207Y-130710165D01*
X252947177Y-130825000D01*
X252947177Y-131082349D01*
X252900662Y-131051269D01*
X252750000Y-131021300D01*
X252599338Y-131051269D01*
X252593700Y-131055036D01*
X252593700Y-130050000D01*
X252563731Y-129899338D01*
X252478388Y-129771612D01*
X251978388Y-129271612D01*
X251850663Y-129186269D01*
X251700000Y-129156300D01*
X247700000Y-129156300D01*
X247549338Y-129186269D01*
X247421612Y-129271612D01*
X245016700Y-131676524D01*
X245016700Y-131603050D01*
X245016700Y-130781775D01*
X245016700Y-130318225D01*
X245016700Y-129496950D01*
X244976097Y-129398927D01*
X244901073Y-129323903D01*
X244803050Y-129283300D01*
X244696950Y-129283300D01*
X244181775Y-129283300D01*
X244115100Y-129349975D01*
X244115100Y-130384900D01*
X244950025Y-130384900D01*
X245016700Y-130318225D01*
X245016700Y-130781775D01*
X244950025Y-130715100D01*
X244115100Y-130715100D01*
X244115100Y-131750025D01*
X244181775Y-131816700D01*
X244696950Y-131816700D01*
X244803050Y-131816700D01*
X244901073Y-131776097D01*
X244976097Y-131701073D01*
X245016700Y-131603050D01*
X245016700Y-131676524D01*
X243784900Y-132908324D01*
X243784900Y-131750025D01*
X243784900Y-130715100D01*
X243784900Y-130384900D01*
X243784900Y-129349975D01*
X243718225Y-129283300D01*
X243203050Y-129283300D01*
X243096950Y-129283300D01*
X242998927Y-129323903D01*
X242923903Y-129398927D01*
X242883300Y-129496950D01*
X242883300Y-130318225D01*
X242949975Y-130384900D01*
X243784900Y-130384900D01*
X243784900Y-130715100D01*
X242949975Y-130715100D01*
X242883300Y-130781775D01*
X242883300Y-131603050D01*
X242923903Y-131701073D01*
X242998927Y-131776097D01*
X243096950Y-131816700D01*
X243203050Y-131816700D01*
X243718225Y-131816700D01*
X243784900Y-131750025D01*
X243784900Y-132908324D01*
X243671612Y-133021612D01*
X243586269Y-133149337D01*
X243565812Y-133252177D01*
X243150000Y-133252177D01*
X243038623Y-133273787D01*
X242940733Y-133338090D01*
X242875207Y-133435165D01*
X242852177Y-133550000D01*
X242852177Y-134156300D01*
X242297823Y-134156300D01*
X242297823Y-133550000D01*
X242276213Y-133438623D01*
X242266700Y-133424141D01*
X242266700Y-131603050D01*
X242266700Y-130781775D01*
X242266700Y-130318225D01*
X242266700Y-129496950D01*
X242226097Y-129398927D01*
X242151073Y-129323903D01*
X242053050Y-129283300D01*
X241946950Y-129283300D01*
X241431775Y-129283300D01*
X241365100Y-129349975D01*
X241365100Y-130384900D01*
X242200025Y-130384900D01*
X242266700Y-130318225D01*
X242266700Y-130781775D01*
X242200025Y-130715100D01*
X241365100Y-130715100D01*
X241365100Y-131750025D01*
X241431775Y-131816700D01*
X241946950Y-131816700D01*
X242053050Y-131816700D01*
X242151073Y-131776097D01*
X242226097Y-131701073D01*
X242266700Y-131603050D01*
X242266700Y-133424141D01*
X242211910Y-133340733D01*
X242114835Y-133275207D01*
X242000000Y-133252177D01*
X241034900Y-133252177D01*
X241034900Y-131750025D01*
X241034900Y-130715100D01*
X241034900Y-130384900D01*
X241034900Y-129349975D01*
X240968225Y-129283300D01*
X240453050Y-129283300D01*
X240346950Y-129283300D01*
X240248927Y-129323903D01*
X240173903Y-129398927D01*
X240133300Y-129496950D01*
X240133300Y-130318225D01*
X240199975Y-130384900D01*
X241034900Y-130384900D01*
X241034900Y-130715100D01*
X240199975Y-130715100D01*
X240133300Y-130781775D01*
X240133300Y-131603050D01*
X240173903Y-131701073D01*
X240248927Y-131776097D01*
X240346950Y-131816700D01*
X240453050Y-131816700D01*
X240968225Y-131816700D01*
X241034900Y-131750025D01*
X241034900Y-133252177D01*
X240400000Y-133252177D01*
X240288623Y-133273787D01*
X240190733Y-133338090D01*
X240125207Y-133435165D01*
X240102177Y-133550000D01*
X240102177Y-134156300D01*
X239547823Y-134156300D01*
X239547823Y-133550000D01*
X239526213Y-133438623D01*
X239516700Y-133424141D01*
X239516700Y-131603050D01*
X239516700Y-130781775D01*
X239516700Y-130318225D01*
X239516700Y-129496950D01*
X239476097Y-129398927D01*
X239401073Y-129323903D01*
X239303050Y-129283300D01*
X239196950Y-129283300D01*
X238681775Y-129283300D01*
X238615100Y-129349975D01*
X238615100Y-130384900D01*
X239450025Y-130384900D01*
X239516700Y-130318225D01*
X239516700Y-130781775D01*
X239450025Y-130715100D01*
X238615100Y-130715100D01*
X238615100Y-131750025D01*
X238681775Y-131816700D01*
X239196950Y-131816700D01*
X239303050Y-131816700D01*
X239401073Y-131776097D01*
X239476097Y-131701073D01*
X239516700Y-131603050D01*
X239516700Y-133424141D01*
X239461910Y-133340733D01*
X239364835Y-133275207D01*
X239250000Y-133252177D01*
X238284900Y-133252177D01*
X238284900Y-131750025D01*
X238284900Y-130715100D01*
X238284900Y-130384900D01*
X238284900Y-129349975D01*
X238218225Y-129283300D01*
X237703050Y-129283300D01*
X237596950Y-129283300D01*
X237498927Y-129323903D01*
X237423903Y-129398927D01*
X237383300Y-129496950D01*
X237383300Y-130318225D01*
X237449975Y-130384900D01*
X238284900Y-130384900D01*
X238284900Y-130715100D01*
X237449975Y-130715100D01*
X237383300Y-130781775D01*
X237383300Y-131603050D01*
X237423903Y-131701073D01*
X237498927Y-131776097D01*
X237596950Y-131816700D01*
X237703050Y-131816700D01*
X238218225Y-131816700D01*
X238284900Y-131750025D01*
X238284900Y-133252177D01*
X237650000Y-133252177D01*
X237538623Y-133273787D01*
X237440733Y-133338090D01*
X237375207Y-133435165D01*
X237352177Y-133550000D01*
X237352177Y-134156300D01*
X236797823Y-134156300D01*
X236797823Y-133550000D01*
X236776213Y-133438623D01*
X236766700Y-133424141D01*
X236766700Y-131603050D01*
X236766700Y-130781775D01*
X236766700Y-130318225D01*
X236766700Y-129496950D01*
X236726097Y-129398927D01*
X236651073Y-129323903D01*
X236553050Y-129283300D01*
X236446950Y-129283300D01*
X235931775Y-129283300D01*
X235865100Y-129349975D01*
X235865100Y-130384900D01*
X236700025Y-130384900D01*
X236766700Y-130318225D01*
X236766700Y-130781775D01*
X236700025Y-130715100D01*
X235865100Y-130715100D01*
X235865100Y-131750025D01*
X235931775Y-131816700D01*
X236446950Y-131816700D01*
X236553050Y-131816700D01*
X236651073Y-131776097D01*
X236726097Y-131701073D01*
X236766700Y-131603050D01*
X236766700Y-133424141D01*
X236711910Y-133340733D01*
X236614835Y-133275207D01*
X236500000Y-133252177D01*
X235534900Y-133252177D01*
X235534900Y-131750025D01*
X235534900Y-130715100D01*
X235534900Y-130384900D01*
X235534900Y-129349975D01*
X235468225Y-129283300D01*
X234953050Y-129283300D01*
X234846950Y-129283300D01*
X234748927Y-129323903D01*
X234673903Y-129398927D01*
X234633300Y-129496950D01*
X234633300Y-130318225D01*
X234699975Y-130384900D01*
X235534900Y-130384900D01*
X235534900Y-130715100D01*
X234699975Y-130715100D01*
X234633300Y-130781775D01*
X234633300Y-131603050D01*
X234673903Y-131701073D01*
X234748927Y-131776097D01*
X234846950Y-131816700D01*
X234953050Y-131816700D01*
X235468225Y-131816700D01*
X235534900Y-131750025D01*
X235534900Y-133252177D01*
X234900000Y-133252177D01*
X234788623Y-133273787D01*
X234690733Y-133338090D01*
X234625207Y-133435165D01*
X234602177Y-133550000D01*
X234602177Y-134156300D01*
X234047823Y-134156300D01*
X234047823Y-133550000D01*
X234026213Y-133438623D01*
X234016700Y-133424141D01*
X234016700Y-131603050D01*
X234016700Y-130781775D01*
X234016700Y-130318225D01*
X234016700Y-129496950D01*
X233976097Y-129398927D01*
X233901073Y-129323903D01*
X233803050Y-129283300D01*
X233696950Y-129283300D01*
X233181775Y-129283300D01*
X233115100Y-129349975D01*
X233115100Y-130384900D01*
X233950025Y-130384900D01*
X234016700Y-130318225D01*
X234016700Y-130781775D01*
X233950025Y-130715100D01*
X233115100Y-130715100D01*
X233115100Y-131750025D01*
X233181775Y-131816700D01*
X233696950Y-131816700D01*
X233803050Y-131816700D01*
X233901073Y-131776097D01*
X233976097Y-131701073D01*
X234016700Y-131603050D01*
X234016700Y-133424141D01*
X233961910Y-133340733D01*
X233864835Y-133275207D01*
X233750000Y-133252177D01*
X232784900Y-133252177D01*
X232784900Y-131750025D01*
X232784900Y-130715100D01*
X232784900Y-130384900D01*
X232784900Y-129349975D01*
X232718225Y-129283300D01*
X232203050Y-129283300D01*
X232096950Y-129283300D01*
X231998927Y-129323903D01*
X231923903Y-129398927D01*
X231883300Y-129496950D01*
X231883300Y-130318225D01*
X231949975Y-130384900D01*
X232784900Y-130384900D01*
X232784900Y-130715100D01*
X231949975Y-130715100D01*
X231883300Y-130781775D01*
X231883300Y-131603050D01*
X231923903Y-131701073D01*
X231998927Y-131776097D01*
X232096950Y-131816700D01*
X232203050Y-131816700D01*
X232718225Y-131816700D01*
X232784900Y-131750025D01*
X232784900Y-133252177D01*
X232150000Y-133252177D01*
X232038623Y-133273787D01*
X231940733Y-133338090D01*
X231875207Y-133435165D01*
X231852177Y-133550000D01*
X231852177Y-134156300D01*
X231297823Y-134156300D01*
X231297823Y-133550000D01*
X231276213Y-133438623D01*
X231266700Y-133424141D01*
X231266700Y-131603050D01*
X231266700Y-130781775D01*
X231266700Y-130318225D01*
X231266700Y-129496950D01*
X231226097Y-129398927D01*
X231151073Y-129323903D01*
X231053050Y-129283300D01*
X230946950Y-129283300D01*
X230431775Y-129283300D01*
X230365100Y-129349975D01*
X230365100Y-130384900D01*
X231200025Y-130384900D01*
X231266700Y-130318225D01*
X231266700Y-130781775D01*
X231200025Y-130715100D01*
X230365100Y-130715100D01*
X230365100Y-131750025D01*
X230431775Y-131816700D01*
X230946950Y-131816700D01*
X231053050Y-131816700D01*
X231151073Y-131776097D01*
X231226097Y-131701073D01*
X231266700Y-131603050D01*
X231266700Y-133424141D01*
X231211910Y-133340733D01*
X231114835Y-133275207D01*
X231000000Y-133252177D01*
X230034900Y-133252177D01*
X230034900Y-131750025D01*
X230034900Y-130715100D01*
X230034900Y-130384900D01*
X230034900Y-129349975D01*
X229968225Y-129283300D01*
X229453050Y-129283300D01*
X229346950Y-129283300D01*
X229248927Y-129323903D01*
X229173903Y-129398927D01*
X229133300Y-129496950D01*
X229133300Y-130318225D01*
X229199975Y-130384900D01*
X230034900Y-130384900D01*
X230034900Y-130715100D01*
X229199975Y-130715100D01*
X229133300Y-130781775D01*
X229133300Y-131603050D01*
X229173903Y-131701073D01*
X229248927Y-131776097D01*
X229346950Y-131816700D01*
X229453050Y-131816700D01*
X229968225Y-131816700D01*
X230034900Y-131750025D01*
X230034900Y-133252177D01*
X229400000Y-133252177D01*
X229288623Y-133273787D01*
X229190733Y-133338090D01*
X229125207Y-133435165D01*
X229102177Y-133550000D01*
X229102177Y-134156300D01*
X228547823Y-134156300D01*
X228547823Y-133550000D01*
X228526213Y-133438623D01*
X228516700Y-133424141D01*
X228516700Y-131603050D01*
X228516700Y-130781775D01*
X228516700Y-130318225D01*
X228516700Y-129496950D01*
X228476097Y-129398927D01*
X228401073Y-129323903D01*
X228303050Y-129283300D01*
X228196950Y-129283300D01*
X227681775Y-129283300D01*
X227615100Y-129349975D01*
X227615100Y-130384900D01*
X228450025Y-130384900D01*
X228516700Y-130318225D01*
X228516700Y-130781775D01*
X228450025Y-130715100D01*
X227615100Y-130715100D01*
X227615100Y-131750025D01*
X227681775Y-131816700D01*
X228196950Y-131816700D01*
X228303050Y-131816700D01*
X228401073Y-131776097D01*
X228476097Y-131701073D01*
X228516700Y-131603050D01*
X228516700Y-133424141D01*
X228461910Y-133340733D01*
X228364835Y-133275207D01*
X228250000Y-133252177D01*
X227284900Y-133252177D01*
X227284900Y-131750025D01*
X227284900Y-130715100D01*
X227284900Y-130384900D01*
X227284900Y-129349975D01*
X227218225Y-129283300D01*
X226703050Y-129283300D01*
X226596950Y-129283300D01*
X226498927Y-129323903D01*
X226423903Y-129398927D01*
X226383300Y-129496950D01*
X226383300Y-130318225D01*
X226449975Y-130384900D01*
X227284900Y-130384900D01*
X227284900Y-130715100D01*
X226449975Y-130715100D01*
X226383300Y-130781775D01*
X226383300Y-131603050D01*
X226423903Y-131701073D01*
X226498927Y-131776097D01*
X226596950Y-131816700D01*
X226703050Y-131816700D01*
X227218225Y-131816700D01*
X227284900Y-131750025D01*
X227284900Y-133252177D01*
X226650000Y-133252177D01*
X226580135Y-133265732D01*
X225766700Y-132553977D01*
X225766700Y-131603050D01*
X225766700Y-130781775D01*
X225766700Y-130318225D01*
X225766700Y-129496950D01*
X225726097Y-129398927D01*
X225651073Y-129323903D01*
X225553050Y-129283300D01*
X225446950Y-129283300D01*
X224931775Y-129283300D01*
X224865100Y-129349975D01*
X224865100Y-130384900D01*
X225700025Y-130384900D01*
X225766700Y-130318225D01*
X225766700Y-130781775D01*
X225700025Y-130715100D01*
X224865100Y-130715100D01*
X224865100Y-131750025D01*
X224931775Y-131816700D01*
X225446950Y-131816700D01*
X225553050Y-131816700D01*
X225651073Y-131776097D01*
X225726097Y-131701073D01*
X225766700Y-131603050D01*
X225766700Y-132553977D01*
X225709253Y-132503711D01*
X225653837Y-132471799D01*
X225600662Y-132436269D01*
X225587639Y-132433678D01*
X225576134Y-132427053D01*
X225512724Y-132418776D01*
X225450000Y-132406300D01*
X224534900Y-132406300D01*
X224534900Y-131750025D01*
X224534900Y-130715100D01*
X224534900Y-130384900D01*
X224534900Y-129349975D01*
X224468225Y-129283300D01*
X223953050Y-129283300D01*
X223846950Y-129283300D01*
X223748927Y-129323903D01*
X223673903Y-129398927D01*
X223633300Y-129496950D01*
X223633300Y-130318225D01*
X223699975Y-130384900D01*
X224534900Y-130384900D01*
X224534900Y-130715100D01*
X223699975Y-130715100D01*
X223633300Y-130781775D01*
X223633300Y-131603050D01*
X223673903Y-131701073D01*
X223748927Y-131776097D01*
X223846950Y-131816700D01*
X223953050Y-131816700D01*
X224468225Y-131816700D01*
X224534900Y-131750025D01*
X224534900Y-132406300D01*
X223200000Y-132406300D01*
X223049337Y-132436269D01*
X222921612Y-132521612D01*
X222671612Y-132771612D01*
X222586269Y-132899337D01*
X222556300Y-133050000D01*
X222556300Y-139923495D01*
X222450000Y-139902177D01*
X221843700Y-139902177D01*
X221843700Y-139747823D01*
X222100000Y-139747823D01*
X222211377Y-139726213D01*
X222309267Y-139661910D01*
X222374793Y-139564835D01*
X222397823Y-139450000D01*
X222397823Y-138150000D01*
X222376213Y-138038623D01*
X222311910Y-137940733D01*
X222214835Y-137875207D01*
X222100000Y-137852177D01*
X221743700Y-137852177D01*
X221743700Y-137747823D01*
X222100000Y-137747823D01*
X222211377Y-137726213D01*
X222309267Y-137661910D01*
X222374793Y-137564835D01*
X222397823Y-137450000D01*
X222397823Y-136150000D01*
X222376213Y-136038623D01*
X222311910Y-135940733D01*
X222214835Y-135875207D01*
X222100000Y-135852177D01*
X220600000Y-135852177D01*
X220488623Y-135873787D01*
X220390733Y-135938090D01*
X220325207Y-136035165D01*
X220302177Y-136150000D01*
X220302177Y-137450000D01*
X220323787Y-137561377D01*
X220388090Y-137659267D01*
X220485165Y-137724793D01*
X220600000Y-137747823D01*
X220956300Y-137747823D01*
X220956300Y-137852177D01*
X220600000Y-137852177D01*
X220488623Y-137873787D01*
X220390733Y-137938090D01*
X220325207Y-138035165D01*
X220302177Y-138150000D01*
X220302177Y-139450000D01*
X220323787Y-139561377D01*
X220388090Y-139659267D01*
X220485165Y-139724793D01*
X220600000Y-139747823D01*
X221056300Y-139747823D01*
X221056300Y-139902177D01*
X220450000Y-139902177D01*
X220338623Y-139923787D01*
X220240733Y-139988090D01*
X220175207Y-140085165D01*
X220152177Y-140200000D01*
X220152177Y-141900000D01*
X220173787Y-142011377D01*
X220238090Y-142109267D01*
X220335165Y-142174793D01*
X220450000Y-142197823D01*
X222450000Y-142197823D01*
X222556300Y-142177198D01*
X222556300Y-142512946D01*
X222385425Y-142652177D01*
X220600000Y-142652177D01*
X220488623Y-142673787D01*
X220390733Y-142738090D01*
X220325207Y-142835165D01*
X220302177Y-142950000D01*
X220302177Y-144650000D01*
X220323787Y-144761377D01*
X220388090Y-144859267D01*
X220485165Y-144924793D01*
X220600000Y-144947823D01*
X222600000Y-144947823D01*
X222711377Y-144926213D01*
X222809267Y-144861910D01*
X222874793Y-144764835D01*
X222897823Y-144650000D01*
X222897823Y-143250360D01*
X223198689Y-143005210D01*
X223211571Y-142989624D01*
X223228388Y-142978388D01*
X223260145Y-142930859D01*
X223296557Y-142886808D01*
X223302495Y-142867477D01*
X223313731Y-142850662D01*
X223324882Y-142794601D01*
X223341666Y-142739966D01*
X223339754Y-142719834D01*
X223343700Y-142700000D01*
X223343700Y-139747823D01*
X224800000Y-139747823D01*
X224911377Y-139726213D01*
X225009267Y-139661910D01*
X225074793Y-139564835D01*
X225097823Y-139450000D01*
X225097823Y-138408953D01*
X226156666Y-137350110D01*
X228652955Y-137350110D01*
X228652687Y-137351450D01*
X228652687Y-142850550D01*
X228674297Y-142961927D01*
X228738600Y-143059817D01*
X228835675Y-143125343D01*
X228950510Y-143148373D01*
X230949490Y-143148373D01*
X231060867Y-143126763D01*
X231158757Y-143062460D01*
X231224283Y-142965385D01*
X231247313Y-142850550D01*
X231247313Y-141154089D01*
X233102177Y-143008953D01*
X233102177Y-144550000D01*
X233123787Y-144661377D01*
X233188090Y-144759267D01*
X233285165Y-144824793D01*
X233400000Y-144847823D01*
X235000000Y-144847823D01*
X235111377Y-144826213D01*
X235127797Y-144815426D01*
X234941047Y-145002177D01*
X233400000Y-145002177D01*
X233288623Y-145023787D01*
X233190733Y-145088090D01*
X233125207Y-145185165D01*
X233102177Y-145300000D01*
X233102177Y-146841047D01*
X231247313Y-148695911D01*
X231247313Y-146749450D01*
X231225703Y-146638073D01*
X231161400Y-146540183D01*
X231064325Y-146474657D01*
X230949490Y-146451627D01*
X228950510Y-146451627D01*
X228839133Y-146473237D01*
X228741243Y-146537540D01*
X228675717Y-146634615D01*
X228652687Y-146749450D01*
X228652687Y-152195911D01*
X228578388Y-152121612D01*
X228450663Y-152036269D01*
X228300000Y-152006300D01*
X226997823Y-152006300D01*
X226997823Y-151600000D01*
X226976213Y-151488623D01*
X226911910Y-151390733D01*
X226814835Y-151325207D01*
X226700000Y-151302177D01*
X226068850Y-151302177D01*
X226018751Y-149097823D01*
X226600000Y-149097823D01*
X226711377Y-149076213D01*
X226809267Y-149011910D01*
X226874793Y-148914835D01*
X226897823Y-148800000D01*
X226897823Y-147200000D01*
X226876213Y-147088623D01*
X226811910Y-146990733D01*
X226714835Y-146925207D01*
X226600000Y-146902177D01*
X225993700Y-146902177D01*
X225993700Y-144947823D01*
X226600000Y-144947823D01*
X226711377Y-144926213D01*
X226809267Y-144861910D01*
X226874793Y-144764835D01*
X226897823Y-144650000D01*
X226897823Y-142950000D01*
X226876213Y-142838623D01*
X226811910Y-142740733D01*
X226716700Y-142676465D01*
X226716700Y-141953050D01*
X226716700Y-141846950D01*
X226716700Y-141281775D01*
X226716700Y-140818225D01*
X226716700Y-140253050D01*
X226716700Y-140146950D01*
X226676097Y-140048927D01*
X226601073Y-139973903D01*
X226503050Y-139933300D01*
X225681775Y-139933300D01*
X225615100Y-139999975D01*
X225615100Y-140884900D01*
X226650025Y-140884900D01*
X226716700Y-140818225D01*
X226716700Y-141281775D01*
X226650025Y-141215100D01*
X225615100Y-141215100D01*
X225615100Y-142100025D01*
X225681775Y-142166700D01*
X226503050Y-142166700D01*
X226601073Y-142126097D01*
X226676097Y-142051073D01*
X226716700Y-141953050D01*
X226716700Y-142676465D01*
X226714835Y-142675207D01*
X226600000Y-142652177D01*
X225284900Y-142652177D01*
X225284900Y-142100025D01*
X225284900Y-141215100D01*
X225284900Y-140884900D01*
X225284900Y-139999975D01*
X225218225Y-139933300D01*
X224396950Y-139933300D01*
X224298927Y-139973903D01*
X224223903Y-140048927D01*
X224183300Y-140146950D01*
X224183300Y-140253050D01*
X224183300Y-140818225D01*
X224249975Y-140884900D01*
X225284900Y-140884900D01*
X225284900Y-141215100D01*
X224249975Y-141215100D01*
X224183300Y-141281775D01*
X224183300Y-141846950D01*
X224183300Y-141953050D01*
X224223903Y-142051073D01*
X224298927Y-142126097D01*
X224396950Y-142166700D01*
X225218225Y-142166700D01*
X225284900Y-142100025D01*
X225284900Y-142652177D01*
X224600000Y-142652177D01*
X224488623Y-142673787D01*
X224390733Y-142738090D01*
X224325207Y-142835165D01*
X224302177Y-142950000D01*
X224302177Y-144650000D01*
X224323787Y-144761377D01*
X224388090Y-144859267D01*
X224485165Y-144924793D01*
X224600000Y-144947823D01*
X225206300Y-144947823D01*
X225206300Y-146902177D01*
X224600000Y-146902177D01*
X224488623Y-146923787D01*
X224390733Y-146988090D01*
X224325207Y-147085165D01*
X224302177Y-147200000D01*
X224302177Y-148800000D01*
X224323787Y-148911377D01*
X224388090Y-149009267D01*
X224485165Y-149074793D01*
X224600000Y-149097823D01*
X225231149Y-149097823D01*
X225281248Y-151302177D01*
X224700000Y-151302177D01*
X224588623Y-151323787D01*
X224490733Y-151388090D01*
X224425207Y-151485165D01*
X224402177Y-151600000D01*
X224402177Y-153200000D01*
X224423787Y-153311377D01*
X224488090Y-153409267D01*
X224585165Y-153474793D01*
X224700000Y-153497823D01*
X226700000Y-153497823D01*
X226811377Y-153476213D01*
X226909267Y-153411910D01*
X226974793Y-153314835D01*
X226997823Y-153200000D01*
X226997823Y-152793700D01*
X228136924Y-152793700D01*
X228421612Y-153078388D01*
X228549337Y-153163730D01*
X228549338Y-153163731D01*
X228700000Y-153193700D01*
X230950000Y-153193700D01*
X231100662Y-153163731D01*
X231100663Y-153163731D01*
X231228388Y-153078388D01*
X232978388Y-151328388D01*
X233063731Y-151200662D01*
X233093700Y-151050000D01*
X233093700Y-149463076D01*
X233133300Y-149423476D01*
X233133300Y-150068225D01*
X233199975Y-150134900D01*
X234034900Y-150134900D01*
X234034900Y-149099975D01*
X233968225Y-149033300D01*
X233523476Y-149033300D01*
X234113076Y-148443700D01*
X236200000Y-148443700D01*
X236350662Y-148413731D01*
X236350663Y-148413731D01*
X236478388Y-148328388D01*
X237363076Y-147443700D01*
X237452177Y-147443700D01*
X237452177Y-147675000D01*
X237452199Y-147675117D01*
X237396138Y-147686269D01*
X237268412Y-147771612D01*
X237166811Y-147873213D01*
X237081468Y-148000938D01*
X237051499Y-148151601D01*
X237051499Y-149245199D01*
X237081468Y-149395862D01*
X237166811Y-149523587D01*
X237273073Y-149629849D01*
X237263528Y-149652838D01*
X237263272Y-149945876D01*
X237375177Y-150216705D01*
X237582205Y-150424095D01*
X237852838Y-150536472D01*
X237911826Y-150536523D01*
X237863528Y-150652838D01*
X237863272Y-150945876D01*
X237975177Y-151216705D01*
X238182205Y-151424095D01*
X238452838Y-151536472D01*
X238745876Y-151536728D01*
X239016705Y-151424823D01*
X239056300Y-151385297D01*
X239056300Y-151652177D01*
X238450000Y-151652177D01*
X238338623Y-151673787D01*
X238240733Y-151738090D01*
X238175207Y-151835165D01*
X238152177Y-151950000D01*
X238152177Y-153650000D01*
X238173787Y-153761377D01*
X238238090Y-153859267D01*
X238335165Y-153924793D01*
X238450000Y-153947823D01*
X240450000Y-153947823D01*
X240561377Y-153926213D01*
X240659267Y-153861910D01*
X240724793Y-153764835D01*
X240747823Y-153650000D01*
X240747823Y-151950000D01*
X240726213Y-151838623D01*
X240661910Y-151740733D01*
X240564835Y-151675207D01*
X240450000Y-151652177D01*
X239843700Y-151652177D01*
X239843700Y-151179749D01*
X239863090Y-151209267D01*
X239960165Y-151274793D01*
X240075000Y-151297823D01*
X240325000Y-151297823D01*
X240436377Y-151276213D01*
X240478351Y-151248640D01*
X240521950Y-151266700D01*
X240570825Y-151266700D01*
X240637500Y-151200025D01*
X240637500Y-150665100D01*
X240622823Y-150665100D01*
X240622823Y-150334900D01*
X240637500Y-150334900D01*
X240637500Y-149799975D01*
X240570825Y-149733300D01*
X240521950Y-149733300D01*
X240478492Y-149751300D01*
X240439835Y-149725207D01*
X240325000Y-149702177D01*
X240075000Y-149702177D01*
X239963623Y-149723787D01*
X239865733Y-149788090D01*
X239843700Y-149820731D01*
X239843700Y-148791742D01*
X240041379Y-148791915D01*
X240312208Y-148680010D01*
X240519598Y-148472982D01*
X240631975Y-148202349D01*
X240632231Y-147909311D01*
X240520326Y-147638482D01*
X240313298Y-147431092D01*
X240042665Y-147318715D01*
X239749627Y-147318459D01*
X239725514Y-147328422D01*
X239668704Y-147271612D01*
X239540979Y-147186269D01*
X239390316Y-147156300D01*
X239047823Y-147156300D01*
X239047823Y-146925000D01*
X239026213Y-146813623D01*
X238998640Y-146771648D01*
X239016700Y-146728050D01*
X239016700Y-146679175D01*
X238950025Y-146612500D01*
X238415100Y-146612500D01*
X238415100Y-146627177D01*
X238084900Y-146627177D01*
X238084900Y-146612500D01*
X237549975Y-146612500D01*
X237506175Y-146656300D01*
X237483300Y-146656300D01*
X237200000Y-146656300D01*
X237049338Y-146686269D01*
X236921612Y-146771612D01*
X236036924Y-147656300D01*
X233950000Y-147656300D01*
X233799337Y-147686269D01*
X233671612Y-147771612D01*
X232421612Y-149021612D01*
X232336269Y-149149337D01*
X232306300Y-149300000D01*
X232306300Y-150886924D01*
X231247313Y-151945911D01*
X231247313Y-149798819D01*
X231279388Y-149777388D01*
X233458953Y-147597823D01*
X235000000Y-147597823D01*
X235111377Y-147576213D01*
X235209267Y-147511910D01*
X235274793Y-147414835D01*
X235297823Y-147300000D01*
X235297823Y-145758953D01*
X237113076Y-143943700D01*
X237452177Y-143943700D01*
X237452177Y-144175000D01*
X237473787Y-144286377D01*
X237482406Y-144299498D01*
X237475207Y-144310165D01*
X237452177Y-144425000D01*
X237452177Y-144675000D01*
X237473787Y-144786377D01*
X237482406Y-144799498D01*
X237475207Y-144810165D01*
X237452177Y-144925000D01*
X237452177Y-145175000D01*
X237473787Y-145286377D01*
X237482406Y-145299498D01*
X237475207Y-145310165D01*
X237452177Y-145425000D01*
X237452177Y-145675000D01*
X237473787Y-145786377D01*
X237482406Y-145799498D01*
X237475207Y-145810165D01*
X237452177Y-145925000D01*
X237452177Y-146175000D01*
X237473787Y-146286377D01*
X237501359Y-146328351D01*
X237483300Y-146371950D01*
X237483300Y-146420825D01*
X237549975Y-146487500D01*
X238084900Y-146487500D01*
X238084900Y-146472823D01*
X238415100Y-146472823D01*
X238415100Y-146487500D01*
X238950025Y-146487500D01*
X239016700Y-146420825D01*
X239016700Y-146371950D01*
X238998699Y-146328492D01*
X239024793Y-146289835D01*
X239047823Y-146175000D01*
X239047823Y-145925000D01*
X239026213Y-145813623D01*
X239017593Y-145800501D01*
X239024793Y-145789835D01*
X239047823Y-145675000D01*
X239047823Y-145425000D01*
X239026213Y-145313623D01*
X239017593Y-145300501D01*
X239024793Y-145289835D01*
X239047823Y-145175000D01*
X239047823Y-144925000D01*
X239026213Y-144813623D01*
X239017593Y-144800501D01*
X239024793Y-144789835D01*
X239047823Y-144675000D01*
X239047823Y-144443700D01*
X239086924Y-144443700D01*
X239273073Y-144629849D01*
X239263528Y-144652838D01*
X239263272Y-144945876D01*
X239375177Y-145216705D01*
X239582205Y-145424095D01*
X239852838Y-145536472D01*
X240145876Y-145536728D01*
X240416705Y-145424823D01*
X240624095Y-145217795D01*
X240736472Y-144947162D01*
X240736728Y-144654124D01*
X240624823Y-144383295D01*
X240417795Y-144175905D01*
X240147162Y-144063528D01*
X239854124Y-144063272D01*
X239830011Y-144073235D01*
X239528388Y-143771612D01*
X239400663Y-143686269D01*
X239250000Y-143656300D01*
X239047823Y-143656300D01*
X239047823Y-143425000D01*
X239026213Y-143313623D01*
X239017593Y-143300501D01*
X239024793Y-143289835D01*
X239047823Y-143175000D01*
X239047823Y-142925000D01*
X239026213Y-142813623D01*
X239017593Y-142800501D01*
X239024793Y-142789835D01*
X239047823Y-142675000D01*
X239047823Y-142425000D01*
X239026213Y-142313623D01*
X239017593Y-142300501D01*
X239024793Y-142289835D01*
X239047823Y-142175000D01*
X239047823Y-141925000D01*
X239026213Y-141813623D01*
X239017593Y-141800501D01*
X239024793Y-141789835D01*
X239047823Y-141675000D01*
X239047823Y-141443700D01*
X243286924Y-141443700D01*
X247024099Y-145180875D01*
X247306300Y-145463076D01*
X247306300Y-149733300D01*
X247306300Y-149756175D01*
X247262500Y-149799975D01*
X247262500Y-150334900D01*
X247277177Y-150334900D01*
X247277177Y-150665100D01*
X247262500Y-150665100D01*
X247262500Y-150685100D01*
X247137500Y-150685100D01*
X247137500Y-150665100D01*
X247122823Y-150665100D01*
X247122823Y-150334900D01*
X247137500Y-150334900D01*
X247137500Y-149799975D01*
X247070825Y-149733300D01*
X247021950Y-149733300D01*
X246978492Y-149751300D01*
X246939835Y-149725207D01*
X246825000Y-149702177D01*
X246575000Y-149702177D01*
X246463623Y-149723787D01*
X246450501Y-149732406D01*
X246439835Y-149725207D01*
X246325000Y-149702177D01*
X246075000Y-149702177D01*
X245963623Y-149723787D01*
X245950501Y-149732406D01*
X245939835Y-149725207D01*
X245825000Y-149702177D01*
X245575000Y-149702177D01*
X245463623Y-149723787D01*
X245450501Y-149732406D01*
X245439835Y-149725207D01*
X245325000Y-149702177D01*
X245075000Y-149702177D01*
X244963623Y-149723787D01*
X244950501Y-149732406D01*
X244939835Y-149725207D01*
X244825000Y-149702177D01*
X244575000Y-149702177D01*
X244463623Y-149723787D01*
X244450501Y-149732406D01*
X244439835Y-149725207D01*
X244325000Y-149702177D01*
X244075000Y-149702177D01*
X243963623Y-149723787D01*
X243950501Y-149732406D01*
X243939835Y-149725207D01*
X243825000Y-149702177D01*
X243575000Y-149702177D01*
X243463623Y-149723787D01*
X243450501Y-149732406D01*
X243439835Y-149725207D01*
X243325000Y-149702177D01*
X243075000Y-149702177D01*
X242963623Y-149723787D01*
X242950501Y-149732406D01*
X242939835Y-149725207D01*
X242825000Y-149702177D01*
X242575000Y-149702177D01*
X242463623Y-149723787D01*
X242450501Y-149732406D01*
X242439835Y-149725207D01*
X242325000Y-149702177D01*
X242075000Y-149702177D01*
X241963623Y-149723787D01*
X241950501Y-149732406D01*
X241939835Y-149725207D01*
X241825000Y-149702177D01*
X241593700Y-149702177D01*
X241593700Y-148116967D01*
X241816705Y-148024823D01*
X242024095Y-147817795D01*
X242136472Y-147547162D01*
X242136728Y-147254124D01*
X242024823Y-146983295D01*
X241817795Y-146775905D01*
X241547162Y-146663528D01*
X241254124Y-146663272D01*
X240983295Y-146775177D01*
X240775905Y-146982205D01*
X240663528Y-147252838D01*
X240663272Y-147545876D01*
X240775177Y-147816705D01*
X240806300Y-147847882D01*
X240806300Y-149733300D01*
X240806300Y-149756175D01*
X240762500Y-149799975D01*
X240762500Y-150334900D01*
X240777177Y-150334900D01*
X240777177Y-150665100D01*
X240762500Y-150665100D01*
X240762500Y-151200025D01*
X240829175Y-151266700D01*
X240878050Y-151266700D01*
X240921507Y-151248699D01*
X240960165Y-151274793D01*
X241075000Y-151297823D01*
X241325000Y-151297823D01*
X241436377Y-151276213D01*
X241449498Y-151267593D01*
X241460165Y-151274793D01*
X241575000Y-151297823D01*
X241825000Y-151297823D01*
X241936377Y-151276213D01*
X241949498Y-151267593D01*
X241960165Y-151274793D01*
X242075000Y-151297823D01*
X242325000Y-151297823D01*
X242436377Y-151276213D01*
X242449498Y-151267593D01*
X242460165Y-151274793D01*
X242575000Y-151297823D01*
X242825000Y-151297823D01*
X242936377Y-151276213D01*
X242949498Y-151267593D01*
X242960165Y-151274793D01*
X243075000Y-151297823D01*
X243325000Y-151297823D01*
X243436377Y-151276213D01*
X243449498Y-151267593D01*
X243460165Y-151274793D01*
X243575000Y-151297823D01*
X243825000Y-151297823D01*
X243936377Y-151276213D01*
X243949498Y-151267593D01*
X243960165Y-151274793D01*
X244075000Y-151297823D01*
X244325000Y-151297823D01*
X244436377Y-151276213D01*
X244449498Y-151267593D01*
X244460165Y-151274793D01*
X244575000Y-151297823D01*
X244825000Y-151297823D01*
X244936377Y-151276213D01*
X244949498Y-151267593D01*
X244960165Y-151274793D01*
X245075000Y-151297823D01*
X245325000Y-151297823D01*
X245436377Y-151276213D01*
X245449498Y-151267593D01*
X245460165Y-151274793D01*
X245575000Y-151297823D01*
X245825000Y-151297823D01*
X245936377Y-151276213D01*
X245949498Y-151267593D01*
X245960165Y-151274793D01*
X246075000Y-151297823D01*
X246306300Y-151297823D01*
X246306300Y-151300000D01*
X246336269Y-151450663D01*
X246421612Y-151578388D01*
X246629149Y-151785925D01*
X246615100Y-151799975D01*
X246615100Y-152634900D01*
X247650025Y-152634900D01*
X247716700Y-152568225D01*
X247716700Y-152123476D01*
X248671612Y-153078388D01*
X248799337Y-153163731D01*
X248799338Y-153163731D01*
X248950000Y-153193700D01*
X249152177Y-153193700D01*
X249152177Y-153600000D01*
X249173787Y-153711377D01*
X249238090Y-153809267D01*
X249335165Y-153874793D01*
X249450000Y-153897823D01*
X251450000Y-153897823D01*
X251561377Y-153876213D01*
X251659267Y-153811910D01*
X251724793Y-153714835D01*
X251747823Y-153600000D01*
X251747823Y-152000000D01*
X251726213Y-151888623D01*
X251661910Y-151790733D01*
X251564835Y-151725207D01*
X251450000Y-151702177D01*
X249450000Y-151702177D01*
X249338623Y-151723787D01*
X249240733Y-151788090D01*
X249175207Y-151885165D01*
X249152177Y-152000000D01*
X249152177Y-152406300D01*
X249113076Y-152406300D01*
X247978388Y-151271612D01*
X247961033Y-151260016D01*
X248034267Y-151211910D01*
X248099793Y-151114835D01*
X248122823Y-151000000D01*
X248122823Y-150893700D01*
X251986924Y-150893700D01*
X252702683Y-151609459D01*
X252675207Y-151650165D01*
X252652177Y-151765000D01*
X252652177Y-153035000D01*
X252673787Y-153146377D01*
X252738090Y-153244267D01*
X252835165Y-153309793D01*
X252950000Y-153332823D01*
X255150000Y-153332823D01*
X255261377Y-153311213D01*
X255359267Y-153246910D01*
X255424793Y-153149835D01*
X255447823Y-153035000D01*
X255447823Y-151765000D01*
X255426213Y-151653623D01*
X255361910Y-151555733D01*
X255264835Y-151490207D01*
X255150000Y-151467177D01*
X253673953Y-151467177D01*
X252428388Y-150221612D01*
X252300663Y-150136269D01*
X252233005Y-150122811D01*
X254772392Y-150122811D01*
X255727771Y-151078189D01*
X255855496Y-151163532D01*
X255855497Y-151163532D01*
X256006159Y-151193501D01*
X257964938Y-151193501D01*
X257775905Y-151382205D01*
X257663528Y-151652838D01*
X257663272Y-151945876D01*
X257775177Y-152216705D01*
X257982205Y-152424095D01*
X258006300Y-152434100D01*
X258006300Y-152969642D01*
X258036269Y-153120305D01*
X258121612Y-153248030D01*
X258834681Y-153961100D01*
X247716700Y-153961100D01*
X247716700Y-153653050D01*
X247716700Y-153546950D01*
X247716700Y-153031775D01*
X247650025Y-152965100D01*
X246615100Y-152965100D01*
X246615100Y-153800025D01*
X246681775Y-153866700D01*
X247503050Y-153866700D01*
X247601073Y-153826097D01*
X247676097Y-153751073D01*
X247716700Y-153653050D01*
X247716700Y-153961100D01*
X246284900Y-153961100D01*
X246284900Y-153800025D01*
X246284900Y-152965100D01*
X246284900Y-152634900D01*
X246284900Y-151799975D01*
X246218225Y-151733300D01*
X245396950Y-151733300D01*
X245298927Y-151773903D01*
X245223903Y-151848927D01*
X245183300Y-151946950D01*
X245183300Y-152053050D01*
X245183300Y-152568225D01*
X245249975Y-152634900D01*
X246284900Y-152634900D01*
X246284900Y-152965100D01*
X245249975Y-152965100D01*
X245183300Y-153031775D01*
X245183300Y-153546950D01*
X245183300Y-153653050D01*
X245223903Y-153751073D01*
X245298927Y-153826097D01*
X245396950Y-153866700D01*
X246218225Y-153866700D01*
X246284900Y-153800025D01*
X246284900Y-153961100D01*
X244716700Y-153961100D01*
X244716700Y-153703050D01*
X244716700Y-153596950D01*
X244716700Y-153031775D01*
X244716700Y-152568225D01*
X244716700Y-152003050D01*
X244716700Y-151896950D01*
X244676097Y-151798927D01*
X244601073Y-151723903D01*
X244503050Y-151683300D01*
X243681775Y-151683300D01*
X243615100Y-151749975D01*
X243615100Y-152634900D01*
X244650025Y-152634900D01*
X244716700Y-152568225D01*
X244716700Y-153031775D01*
X244650025Y-152965100D01*
X243615100Y-152965100D01*
X243615100Y-153850025D01*
X243681775Y-153916700D01*
X244503050Y-153916700D01*
X244601073Y-153876097D01*
X244676097Y-153801073D01*
X244716700Y-153703050D01*
X244716700Y-153961100D01*
X243284900Y-153961100D01*
X243284900Y-153850025D01*
X243284900Y-152965100D01*
X243284900Y-152634900D01*
X243284900Y-151749975D01*
X243218225Y-151683300D01*
X242396950Y-151683300D01*
X242298927Y-151723903D01*
X242223903Y-151798927D01*
X242183300Y-151896950D01*
X242183300Y-152003050D01*
X242183300Y-152568225D01*
X242249975Y-152634900D01*
X243284900Y-152634900D01*
X243284900Y-152965100D01*
X242249975Y-152965100D01*
X242183300Y-153031775D01*
X242183300Y-153596950D01*
X242183300Y-153703050D01*
X242223903Y-153801073D01*
X242298927Y-153876097D01*
X242396950Y-153916700D01*
X243218225Y-153916700D01*
X243284900Y-153850025D01*
X243284900Y-153961100D01*
X235266700Y-153961100D01*
X235266700Y-151353050D01*
X235266700Y-150531775D01*
X235266700Y-150068225D01*
X235266700Y-149246950D01*
X235226097Y-149148927D01*
X235151073Y-149073903D01*
X235053050Y-149033300D01*
X234946950Y-149033300D01*
X234431775Y-149033300D01*
X234365100Y-149099975D01*
X234365100Y-150134900D01*
X235200025Y-150134900D01*
X235266700Y-150068225D01*
X235266700Y-150531775D01*
X235200025Y-150465100D01*
X234365100Y-150465100D01*
X234365100Y-151500025D01*
X234431775Y-151566700D01*
X234946950Y-151566700D01*
X235053050Y-151566700D01*
X235151073Y-151526097D01*
X235226097Y-151451073D01*
X235266700Y-151353050D01*
X235266700Y-153961100D01*
X234034900Y-153961100D01*
X234034900Y-151500025D01*
X234034900Y-150465100D01*
X233199975Y-150465100D01*
X233133300Y-150531775D01*
X233133300Y-151353050D01*
X233173903Y-151451073D01*
X233248927Y-151526097D01*
X233346950Y-151566700D01*
X233453050Y-151566700D01*
X233968225Y-151566700D01*
X234034900Y-151500025D01*
X234034900Y-153961100D01*
X222966700Y-153961100D01*
X222966700Y-153253050D01*
X222966700Y-153146950D01*
X222966700Y-152631775D01*
X222966700Y-152168225D01*
X222966700Y-151653050D01*
X222966700Y-151546950D01*
X222926097Y-151448927D01*
X222866700Y-151389530D01*
X222866700Y-148853050D01*
X222866700Y-148746950D01*
X222866700Y-148231775D01*
X222866700Y-147768225D01*
X222866700Y-147253050D01*
X222866700Y-147146950D01*
X222826097Y-147048927D01*
X222751073Y-146973903D01*
X222653050Y-146933300D01*
X221831775Y-146933300D01*
X221765100Y-146999975D01*
X221765100Y-147834900D01*
X222800025Y-147834900D01*
X222866700Y-147768225D01*
X222866700Y-148231775D01*
X222800025Y-148165100D01*
X221765100Y-148165100D01*
X221765100Y-149000025D01*
X221831775Y-149066700D01*
X222653050Y-149066700D01*
X222751073Y-149026097D01*
X222826097Y-148951073D01*
X222866700Y-148853050D01*
X222866700Y-151389530D01*
X222851073Y-151373903D01*
X222753050Y-151333300D01*
X221931775Y-151333300D01*
X221865100Y-151399975D01*
X221865100Y-152234900D01*
X222900025Y-152234900D01*
X222966700Y-152168225D01*
X222966700Y-152631775D01*
X222900025Y-152565100D01*
X221865100Y-152565100D01*
X221865100Y-153400025D01*
X221931775Y-153466700D01*
X222753050Y-153466700D01*
X222851073Y-153426097D01*
X222926097Y-153351073D01*
X222966700Y-153253050D01*
X222966700Y-153961100D01*
X221534900Y-153961100D01*
X221534900Y-153400025D01*
X221534900Y-152565100D01*
X221534900Y-152234900D01*
X221534900Y-151399975D01*
X221468225Y-151333300D01*
X221434900Y-151333300D01*
X221434900Y-149000025D01*
X221434900Y-148165100D01*
X221434900Y-147834900D01*
X221434900Y-146999975D01*
X221368225Y-146933300D01*
X220546950Y-146933300D01*
X220448927Y-146973903D01*
X220373903Y-147048927D01*
X220333300Y-147146950D01*
X220333300Y-147253050D01*
X220333300Y-147768225D01*
X220399975Y-147834900D01*
X221434900Y-147834900D01*
X221434900Y-148165100D01*
X220399975Y-148165100D01*
X220333300Y-148231775D01*
X220333300Y-148746950D01*
X220333300Y-148853050D01*
X220373903Y-148951073D01*
X220448927Y-149026097D01*
X220546950Y-149066700D01*
X221368225Y-149066700D01*
X221434900Y-149000025D01*
X221434900Y-151333300D01*
X220646950Y-151333300D01*
X220548927Y-151373903D01*
X220473903Y-151448927D01*
X220433300Y-151546950D01*
X220433300Y-151653050D01*
X220433300Y-152168225D01*
X220499975Y-152234900D01*
X221534900Y-152234900D01*
X221534900Y-152565100D01*
X220499975Y-152565100D01*
X220433300Y-152631775D01*
X220433300Y-153146950D01*
X220433300Y-153253050D01*
X220473903Y-153351073D01*
X220548927Y-153426097D01*
X220646950Y-153466700D01*
X221468225Y-153466700D01*
X221534900Y-153400025D01*
X221534900Y-153961100D01*
X220038900Y-153961100D01*
X220038900Y-129138900D01*
X275008741Y-129138900D01*
X274935533Y-129186990D01*
X274870007Y-129284065D01*
X274846977Y-129398900D01*
X274846977Y-133920100D01*
X274868587Y-134031477D01*
X274932890Y-134129367D01*
X275029965Y-134194893D01*
X275144800Y-134217923D01*
X280351800Y-134217923D01*
X280463177Y-134196313D01*
X280561067Y-134132010D01*
X280626593Y-134034935D01*
X280649623Y-133920100D01*
X280649623Y-129398900D01*
X280628013Y-129287523D01*
X280563710Y-129189633D01*
X280488550Y-129138900D01*
X282861100Y-129138900D01*
X282861100Y-151002452D01*
M02*
